# https://github.com/mikedh/trimesh

o casual_female-eyelashes01-mesh
v 0.01243024 0.01896718 1.54164413
v 0.00975604 0.02114619 1.54184225
v 0.01302456 0.02134425 1.54174319
v 0.02193865 0.02322614 1.53857368
v 0.02382048 0.02193851 1.53807849
v 0.02292910 0.02084901 1.53896992
v -0.00084182 0.02441465 1.53560241
v -0.00024757 0.02312708 1.53500804
v 0.00064381 0.02500896 1.53520616
v 0.00599227 0.02183950 1.54114893
v 0.00906272 0.01926431 1.54164413
v 0.00539802 0.02005668 1.54095081
v 0.01649113 0.02282995 1.53471097
v 0.01817489 0.02164138 1.53520616
v 0.01837301 0.02431564 1.53540428
v 0.00133713 0.02273088 1.53471097
v 0.00351613 0.02352326 1.53461191
v 0.00193144 0.02461277 1.53490909
v 0.02124534 0.02599939 1.53916805
v 0.02084915 0.02213663 1.53916805
v -0.00074283 0.02421658 1.53778142
v 0.00024768 0.02263189 1.53857368
v -0.00113901 0.02322614 1.53758329
v 0.01302456 0.02174045 1.53431472
v 0.01609494 0.02045287 1.53441378
v 0.00965698 0.02183950 1.53431472
v 0.00609133 0.02055188 1.53431472
v 0.00935985 0.01946237 1.53411671
v 0.02174054 0.02599939 1.53857368
v 0.02243384 0.02391945 1.53807849
v 0.01550068 0.01946237 1.54114893
v 0.00212950 0.02134425 1.53976230
v 0.00252570 0.02302801 1.53996043
v 0.01282642 0.01956143 1.53401765
v 0.00658658 0.02223569 1.53431472
v 0.00331807 0.02193851 1.53451284
v 0.01787777 0.01797673 1.54174319
v 0.01530256 0.01738242 1.54223838
v 0.01629301 0.02253282 1.54134706
v 0.01797682 0.02035381 1.54045562
v -0.00193133 0.02441465 1.53698904
v -0.00153514 0.02243376 1.53768236
v 0.01985865 0.01857099 1.54095081
v 0.01906633 0.02441464 1.54055468
v 0.01975964 0.02124519 1.53976230
v 0.01985865 0.02273088 1.53580041
v 0.01985865 0.02560321 1.53619666
v 0.00074288 0.02431564 1.53857368
v 0.02114628 0.02352326 1.53649373
v 0.02084915 0.02639559 1.53669185
v 0.02193865 0.02461277 1.53698904
v 0.02154246 0.02689083 1.53728611
v 0.02045296 0.02540514 1.53976230
v -0.00024757 0.02164138 1.53877180
v 0.01223217 0.01708529 1.54263463
v 0.02164147 0.01956143 1.53996043
v 0.00173331 0.02015569 1.54025749
v -0.00232752 0.02282995 1.53698904
v -0.00203039 0.02362232 1.53698904
v 0.00500183 0.01847193 1.54174319
v -0.00183233 0.02183950 1.53797942
v -0.00272371 0.02203757 1.53738517
v -0.00262464 0.02233470 1.53718705
v 0.02243384 0.01817479 1.54124800
v 0.02550429 0.01837293 1.54085175
v 0.02322623 0.01738242 1.54243650
v 0.01213312 0.01609485 1.54382314
v 0.01530256 0.01559960 1.54471458
v 0.01193504 0.01550060 1.54481364
v 0.02421666 0.01946237 1.53976230
v 0.02728711 0.01975955 1.53896992
v 0.00846841 0.01649104 1.54352607
v 0.02035390 0.01748149 1.54233744
v 0.02084915 0.01678817 1.54362501
v 0.01530256 0.01629292 1.54362501
v 0.01827395 0.01599579 1.54431833
v 0.00143618 0.01916524 1.54075269
v -0.00074283 0.02025475 1.53966324
v -0.00054470 0.02084901 1.53926711
v 0.01807583 0.01688723 1.54303076
v 0.00450664 0.01668910 1.54303076
v 0.00470470 0.01738242 1.54243650
v -0.00203039 0.02134425 1.53827661
v 0.00123812 0.01827386 1.54124800
v -0.00074283 0.02223569 1.53421578
v 0.00113906 0.02174045 1.53381953
v 0.01589687 0.01936337 1.53332434
v 0.00312001 0.02084901 1.53352246
v 0.00589327 0.01966050 1.53312621
v 0.00926078 0.01876906 1.53292809
v 0.02342429 0.02332520 1.53639479
v 0.01827395 0.02015569 1.53401765
v 0.02035390 0.02134425 1.53481003
v 0.02213672 0.02213663 1.53560241
v -0.00163421 0.02322614 1.53510710
v 0.01272737 0.01867005 1.53302715
v 0.00935985 0.01857099 1.53173958
v 0.00589327 0.01916524 1.53104626
v 0.00945891 0.01847193 1.53074908
v 0.00074288 0.02094806 1.53233383
v 0.00302094 0.02045287 1.53273008
v 0.00094100 0.02134425 1.53312621
v 0.01599588 0.01916524 1.53173958
v 0.01886820 0.01956143 1.53124439
v 0.01847202 0.01975955 1.53243290
v 0.02372147 0.02174045 1.53342340
v 0.02451379 0.02282995 1.53570147
v 0.02302816 0.02174045 1.53441378
v 0.02144341 0.02065094 1.53213583
v 0.02084915 0.02075000 1.53332434
v -0.00262464 0.02193851 1.53372047
v -0.00094089 0.02183950 1.53362140
v -0.00252565 0.02213663 1.53411671
v -0.00123802 0.02154238 1.53312621
v 0.01292549 0.01857099 1.53164052
v 0.00589327 0.01936337 1.53203677
v 0.00302094 0.02005668 1.53173958
v 0.01312355 0.01847193 1.53055107
v 0.00876560 0.01738242 1.54253557
v 0.02540523 0.02055188 1.53837567
v -0.00212946 0.02243376 1.53451284
v -0.04848279 0.02847553 1.54134706
v -0.05155317 0.02698984 1.54114893
v -0.05155317 0.02936697 1.54134706
v -0.05967489 0.03342781 1.53797942
v -0.06175484 0.03263543 1.53738517
v -0.05997202 0.03422018 1.53748423
v -0.03729061 0.02897079 1.53530522
v -0.03808299 0.02788128 1.53471097
v -0.03679536 0.02758415 1.53481003
v -0.04452095 0.02817841 1.54075269
v -0.04818560 0.02649465 1.54124800
v -0.05640638 0.03095167 1.53461191
v -0.05442550 0.03174405 1.53421578
v -0.05591119 0.03362593 1.53481003
v -0.04174763 0.02916885 1.53431472
v -0.03976675 0.02788128 1.53441378
v -0.03986581 0.02986217 1.53461191
v -0.05828826 0.03600300 1.53857368
v -0.05888252 0.03610207 1.53797942
v -0.03748868 0.02877266 1.53748423
v -0.03877630 0.02748509 1.53827661
v -0.03877630 0.02926792 1.53827661
v -0.05135505 0.02976311 1.53381953
v -0.05462356 0.02926792 1.53391859
v -0.05165223 0.02768316 1.53362140
v -0.04798753 0.02897079 1.53381953
v -0.04491714 0.02698984 1.53391859
v -0.04491714 0.02867361 1.53391859
v -0.05908064 0.03630013 1.53748423
v -0.05432643 0.02817841 1.54065374
v -0.05442550 0.03134787 1.54085175
v -0.04095531 0.02669271 1.53946512
v -0.04095531 0.02847553 1.53966324
v -0.04838372 0.02669271 1.53362140
v -0.04184669 0.02758415 1.53411671
v -0.05700069 0.02728697 1.54114893
v -0.05660451 0.02966410 1.53996043
v -0.05660451 0.03382400 1.54005937
v -0.03620111 0.02877266 1.53669185
v -0.03729061 0.02778223 1.53738517
v -0.03709255 0.02689083 1.53738517
v -0.03857818 0.02986217 1.53490909
v -0.05888252 0.02847553 1.54035656
v -0.05809014 0.03095167 1.53916805
v -0.05769401 0.03521063 1.53926711
v -0.05769401 0.03233830 1.53530522
v -0.05700069 0.03521063 1.53560241
v -0.05878345 0.03352687 1.53589948
v -0.05779302 0.03620108 1.53609760
v -0.05937777 0.03481444 1.53639479
v -0.05888252 0.03214024 1.53857368
v -0.03857818 0.02649465 1.53857368
v -0.05472262 0.02619752 1.54174319
v -0.06125965 0.03134787 1.53837567
v -0.04085625 0.02550415 1.53996043
v -0.04452095 0.02629652 1.54065374
v -0.03630017 0.02708891 1.53679092
v -0.05175124 0.02510802 1.54213932
v -0.06026915 0.02976311 1.53936606
v -0.04452095 0.02461277 1.54134706
v -0.03699348 0.02619752 1.53778142
v -0.03610204 0.02619752 1.53718705
v -0.03689442 0.02570227 1.53807849
v -0.06145771 0.02867361 1.54065374
v -0.06433004 0.02956505 1.54015843
v -0.06274528 0.03025835 1.53916805
v -0.05194936 0.02411752 1.54332794
v -0.05521787 0.02441464 1.54421938
v -0.05501975 0.02510802 1.54303076
v -0.06373579 0.03164499 1.53768236
v -0.04828466 0.02352326 1.54303076
v -0.05194936 0.02342420 1.54431833
v -0.05957584 0.02748509 1.54174319
v -0.06234910 0.02807935 1.54184225
v -0.05799114 0.02550415 1.54372407
v -0.05759495 0.02629652 1.54253557
v -0.03838012 0.02500896 1.53936605
v -0.04085625 0.02441464 1.54045562
v -0.03847918 0.02550415 1.53896993
v -0.06026915 0.02689083 1.54303076
v -0.04442189 0.02282995 1.54263463
v -0.04442189 0.02342420 1.54204037
v -0.04075719 0.02352326 1.54095081
v -0.03778586 0.02679178 1.53391859
v -0.05472262 0.02817841 1.53282914
v -0.05175124 0.02679178 1.53253196
v -0.04194576 0.02649465 1.53312621
v -0.03976675 0.02679178 1.53352246
v -0.04491714 0.02599939 1.53273008
v -0.06106153 0.03382400 1.53580041
v -0.06007108 0.03243736 1.53500804
v -0.05680257 0.02956505 1.53342340
v -0.05848633 0.03124880 1.53421578
v -0.03639917 0.02669271 1.53431472
v -0.04838372 0.02599939 1.53253196
v -0.04858179 0.02580133 1.53124439
v -0.04501615 0.02550415 1.53065013
v -0.04501615 0.02570227 1.53173958
v -0.04194576 0.02609846 1.53233383
v -0.03956868 0.02599939 1.53203677
v -0.03966769 0.02639559 1.53282914
v -0.05749589 0.02906979 1.53065013
v -0.05482169 0.02798029 1.53124439
v -0.05709970 0.02926792 1.53193770
v -0.06225010 0.03372494 1.53500804
v -0.06165578 0.03243736 1.53282914
v -0.06106153 0.03223925 1.53381953
v -0.05917964 0.03075361 1.53273008
v -0.05977396 0.03075361 1.53154146
v -0.03778586 0.02649465 1.53332434
v -0.03620111 0.02609846 1.53352246
v -0.03620111 0.02629652 1.53381953
v -0.03758774 0.02609846 1.53282914
v -0.05204836 0.02659365 1.53114533
v -0.04858179 0.02570227 1.53025389
v -0.04204482 0.02570227 1.53134345
v -0.05224649 0.02659365 1.53015482
v -0.04838372 0.02451370 1.54213932
v -0.03610204 0.02659365 1.53688998
v 0.02203766 0.02609846 1.53807849
v 0.00817128 0.01579772 1.54431833
v 0.01609494 0.01896718 1.53065013
v 0.02570236 0.02302801 1.53490909
v -0.03630017 0.02788128 1.53669185
v -0.05828826 0.03689439 1.53669185
v -0.06571667 0.03134787 1.53827661
v -0.04828466 0.02282995 1.54382314
v -0.05492069 0.02778223 1.53015482
v -0.06333960 0.03412112 1.53421578
f 1 2 3
f 4 5 6
f 7 8 9
f 10 11 12
f 13 14 15
f 16 17 18
f 19 4 20
f 21 22 23
f 24 25 13
f 26 27 28
f 29 30 4
f 3 31 1
f 10 32 33
f 26 34 24
f 35 36 27
f 31 37 38
f 39 40 31
f 23 41 21
f 22 42 23
f 9 16 18
f 40 43 37
f 44 45 40
f 15 46 47
f 33 22 48
f 47 49 50
f 50 51 52
f 53 20 45
f 32 54 22
f 1 38 55
f 20 6 56
f 12 57 32
f 23 58 59
f 55 11 1
f 45 56 43
f 11 60 12
f 61 62 63
f 64 65 66
f 67 68 69
f 70 71 65
f 69 72 67
f 73 66 74
f 75 76 68
f 77 78 79
f 80 74 76
f 72 81 82
f 79 83 61
f 82 84 77
f 16 85 86
f 34 87 25
f 27 88 89
f 86 36 16
f 28 89 90
f 49 91 51
f 25 92 14
f 14 93 46
f 46 94 49
f 95 85 8
f 28 96 34
f 97 98 99
f 100 101 102
f 103 104 105
f 106 107 108
f 108 109 106
f 110 104 109
f 111 112 113
f 102 114 100
f 99 115 97
f 116 117 98
f 118 103 115
f 54 61 42
f 119 82 60
f 37 73 80
f 57 79 54
f 38 80 75
f 43 64 73
f 67 119 55
f 6 120 70
f 55 75 67
f 56 70 64
f 42 63 58
f 60 77 57
f 93 108 94
f 90 116 97
f 94 107 91
f 97 96 90
f 87 105 92
f 102 88 86
f 121 112 85
f 89 101 116
f 86 112 102
f 92 110 93
f 115 87 96
f 122 123 124
f 125 126 127
f 128 129 130
f 131 132 122
f 133 134 135
f 136 137 138
f 139 125 140
f 141 142 143
f 144 145 146
f 147 148 149
f 140 127 150
f 124 151 152
f 153 131 154
f 147 146 155
f 149 156 136
f 151 157 158
f 152 158 159
f 160 161 141
f 162 142 161
f 137 163 138
f 158 164 165
f 159 165 166
f 167 135 168
f 142 154 143
f 169 168 170
f 170 171 169
f 166 172 139
f 173 153 142
f 123 174 151
f 172 175 125
f 176 177 153
f 161 178 162
f 132 179 123
f 165 180 172
f 181 132 177
f 182 183 184
f 185 186 187
f 188 189 190
f 186 191 187
f 192 193 188
f 194 195 185
f 190 196 197
f 198 199 200
f 197 201 194
f 202 192 203
f 184 200 182
f 204 203 199
f 137 205 129
f 146 206 207
f 148 208 156
f 156 209 137
f 155 210 148
f 169 211 212
f 213 145 133
f 214 133 167
f 212 167 169
f 130 205 215
f 155 207 216
f 217 218 219
f 220 221 222
f 223 224 225
f 226 227 228
f 227 229 228
f 230 225 229
f 231 232 233
f 222 234 231
f 235 236 217
f 219 237 220
f 224 238 235
f 182 173 162
f 203 239 181
f 157 194 164
f 200 176 173
f 174 197 157
f 164 185 180
f 239 188 179
f 175 191 126
f 179 190 174
f 180 187 175
f 162 240 182
f 199 181 176
f 228 214 212
f 216 219 210
f 212 226 228
f 207 217 216
f 225 206 213
f 208 222 209
f 205 233 215
f 210 220 208
f 209 231 205
f 229 213 214
f 207 224 235
f 1 11 2
f 4 30 5
f 7 95 8
f 10 2 11
f 13 25 14
f 16 36 17
f 19 29 4
f 21 48 22
f 24 34 25
f 26 35 27
f 29 241 30
f 3 39 31
f 10 12 32
f 26 28 34
f 35 17 36
f 31 40 37
f 39 44 40
f 23 59 41
f 22 54 42
f 9 8 16
f 40 45 43
f 44 53 45
f 15 14 46
f 33 32 22
f 47 46 49
f 50 49 51
f 53 19 20
f 32 57 54
f 1 31 38
f 20 4 6
f 12 60 57
f 23 42 58
f 55 119 11
f 45 20 56
f 11 119 60
f 61 83 62
f 64 70 65
f 67 75 68
f 70 120 71
f 69 242 72
f 73 64 66
f 75 80 76
f 77 84 78
f 80 73 74
f 72 242 81
f 79 78 83
f 82 81 84
f 16 8 85
f 34 96 87
f 27 36 88
f 86 88 36
f 28 27 89
f 49 94 91
f 25 87 92
f 14 92 93
f 46 93 94
f 95 121 85
f 28 90 96
f 97 116 98
f 100 117 101
f 103 243 104
f 106 244 107
f 108 110 109
f 110 105 104
f 111 114 112
f 102 112 114
f 99 118 115
f 116 101 117
f 118 243 103
f 54 79 61
f 119 72 82
f 37 43 73
f 57 77 79
f 38 37 80
f 43 56 64
f 67 72 119
f 6 5 120
f 55 38 75
f 56 6 70
f 42 61 63
f 60 82 77
f 93 110 108
f 90 89 116
f 94 108 107
f 97 115 96
f 87 103 105
f 102 101 88
f 121 113 112
f 89 88 101
f 86 85 112
f 92 105 110
f 115 103 87
f 122 132 123
f 125 175 126
f 128 163 129
f 131 177 132
f 133 145 134
f 136 156 137
f 139 172 125
f 141 161 142
f 144 134 145
f 147 155 148
f 140 125 127
f 124 123 151
f 153 177 131
f 147 144 146
f 149 148 156
f 151 174 157
f 152 151 158
f 160 245 161
f 162 173 142
f 137 129 163
f 158 157 164
f 159 158 165
f 167 133 135
f 142 153 154
f 169 167 168
f 170 246 171
f 166 165 172
f 173 176 153
f 123 179 174
f 172 180 175
f 176 181 177
f 161 245 178
f 132 239 179
f 165 164 180
f 181 239 132
f 182 240 183
f 185 195 186
f 188 193 189
f 186 247 191
f 192 248 193
f 194 201 195
f 190 189 196
f 198 204 199
f 197 196 201
f 202 248 192
f 184 198 200
f 204 202 203
f 137 209 205
f 146 145 206
f 148 210 208
f 156 208 209
f 155 216 210
f 169 171 211
f 213 206 145
f 214 213 133
f 212 214 167
f 130 129 205
f 155 146 207
f 217 236 218
f 220 237 221
f 223 249 224
f 226 250 227
f 227 230 229
f 230 223 225
f 231 234 232
f 222 221 234
f 235 238 236
f 219 218 237
f 224 249 238
f 182 200 173
f 203 192 239
f 157 197 194
f 200 199 176
f 174 190 197
f 164 194 185
f 239 192 188
f 175 187 191
f 179 188 190
f 180 185 187
f 162 178 240
f 199 203 181
f 228 229 214
f 216 217 219
f 212 211 226
f 207 235 217
f 225 224 206
f 208 220 222
f 205 231 233
f 210 219 220
f 209 222 231
f 229 225 213
f 207 206 224

