# https://github.com/mikedh/trimesh

o casual_female-low_poly-mesh
v -0.00282277 0.03114979 1.53352246
v 0.00500183 0.03659726 1.52510349
v 0.00510089 0.03075361 1.52609399
v -0.00331796 0.03709252 1.53322527
v 0.00589327 0.04244098 1.52639118
v 0.01589687 0.02906979 1.55154867
v 0.00589327 0.02500896 1.54837928
v 0.01421306 0.02441464 1.54837928
v 0.00767608 0.02183950 1.54382314
v 0.01223217 0.02144332 1.54382314
v 0.00430852 0.02203757 1.54075269
v 0.00490277 0.02996123 1.55154867
v -0.00004951 0.02560321 1.54263463
v 0.00480376 0.03580489 1.55273730
v -0.00282277 0.03075361 1.54402126
v 0.00569514 0.04164859 1.55184586
v -0.00341703 0.03669633 1.54471458
v 0.02461285 0.04095529 1.53411671
v 0.02520711 0.03461638 1.54481364
v 0.02530618 0.03501256 1.53342340
v 0.02372147 0.02926792 1.53372047
v 0.02382048 0.02887173 1.54421938
v 0.02035390 0.02421658 1.54273369
v 0.01540163 0.02124519 1.54075269
v 0.02035390 0.02451370 1.53471097
v 0.01688732 0.03580489 1.52520255
v 0.01609494 0.02996123 1.52609399
v 0.01668919 0.03491351 1.55273730
v 0.02451379 0.04055909 1.54461551
v 0.01668919 0.04095528 1.55194492
v 0.01431212 0.02500896 1.52896632
v 0.00767608 0.02213663 1.53332434
v 0.00599227 0.02560321 1.52896632
v -0.00203039 0.04244098 1.54431833
v -0.00193133 0.04283716 1.53391859
v 0.01540163 0.02144332 1.53639479
v 0.01223217 0.02174045 1.53332434
v -0.00004951 0.02590034 1.53461191
v 0.00430852 0.02223569 1.53639479
v 0.01688732 0.04164859 1.52649012
v 0.01262836 0.02065094 1.53966324
v 0.01094461 0.02075000 1.54124800
v 0.00866653 0.02084901 1.54124800
v 0.01262836 0.02075000 1.53748423
v 0.01094461 0.02094806 1.53589948
v 0.00698277 0.02114619 1.53738517
v 0.00698277 0.02104713 1.53966324
v -0.04125244 0.03649820 1.52569786
v -0.03164502 0.04055909 1.53302715
v -0.03372497 0.03491351 1.53332434
v -0.03917249 0.04808656 1.52609399
v -0.03976675 0.04224285 1.52480642
v -0.05204836 0.03273449 1.54798303
v -0.04174763 0.03580489 1.55115254
v -0.05254361 0.03768677 1.55105348
v -0.05076079 0.02926792 1.54342701
v -0.04382764 0.03124880 1.54798303
v -0.04293620 0.02798029 1.54035656
v -0.03788487 0.03035742 1.54243650
v -0.03392304 0.03461638 1.54382314
v -0.04016294 0.04145053 1.55234105
v -0.03184309 0.04016290 1.54441739
v -0.03174408 0.04620468 1.54412032
v -0.03956868 0.04729419 1.55154867
v -0.05997202 0.04561042 1.53282915
v -0.05799114 0.05085983 1.54392220
v -0.05779302 0.05125601 1.53352246
v -0.06017015 0.03937052 1.54362501
v -0.05987296 0.03976672 1.53302715
v -0.05789207 0.03402213 1.54213932
v -0.05373218 0.03006029 1.53589948
v -0.05383118 0.02986217 1.54025750
v -0.05006748 0.05006745 1.52599493
v -0.05214742 0.03847914 1.52559880
v -0.05194936 0.04353048 1.55224199
v -0.06017015 0.04531330 1.54421938
v -0.05165223 0.03332874 1.52847113
v -0.04343145 0.03174405 1.52857019
v -0.04600659 0.02877266 1.53292809
v -0.05779302 0.03422018 1.53411671
v -0.03758774 0.03055548 1.53431472
v -0.04283714 0.02807935 1.53609760
v -0.05155317 0.04432280 1.52470736
v -0.05125604 0.02867361 1.53916805
v -0.04967129 0.02827747 1.54075269
v -0.04620471 0.02847553 1.54342701
v -0.04739328 0.02788128 1.54085175
v -0.05046367 0.04927513 1.55144961
v -0.05125604 0.02877266 1.53698904
v -0.05056273 0.02956505 1.53292809
v -0.04957223 0.02847553 1.53540428
v -0.04570946 0.02778223 1.53698904
v -0.04729422 0.02798029 1.53550335
v -0.04570946 0.02768316 1.53926711
v 0.00866653 0.02104713 1.53589948
v -0.03164502 0.04650180 1.53362141
f 1 2 3
f 4 5 2
f 6 7 8
f 8 9 10
f 7 11 9
f 12 13 7
f 14 15 12
f 16 17 14
f 18 19 20
f 21 19 22
f 23 21 22
f 24 25 23
f 8 24 23
f 6 23 22
f 5 26 2
f 3 26 27
f 28 22 19
f 28 29 30
f 31 3 27
f 31 32 33
f 4 34 35
f 1 17 4
f 31 36 37
f 25 27 21
f 15 38 13
f 13 39 11
f 21 26 20
f 40 20 26
f 41 10 42
f 42 9 43
f 33 39 38
f 3 38 1
f 16 28 30
f 28 12 6
f 24 44 36
f 44 37 36
f 45 32 37
f 32 46 39
f 47 39 46
f 47 9 11
f 43 41 42
f 47 44 41
f 46 45 44
f 48 49 50
f 51 49 52
f 53 54 55
f 56 57 53
f 57 58 59
f 54 59 60
f 61 60 62
f 61 63 64
f 65 66 67
f 68 65 69
f 69 70 68
f 70 71 72
f 53 72 56
f 55 70 53
f 52 73 51
f 74 52 48
f 75 68 55
f 75 66 76
f 77 48 78
f 79 77 78
f 49 63 62
f 50 62 60
f 77 71 80
f 80 74 77
f 81 60 59
f 82 59 58
f 69 83 74
f 73 65 67
f 56 84 85
f 86 85 87
f 78 82 79
f 48 81 78
f 75 64 88
f 75 54 61
f 72 89 84
f 90 89 71
f 79 91 90
f 79 92 93
f 82 94 92
f 94 86 87
f 85 94 87
f 84 92 94
f 92 91 93
f 1 4 2
f 4 35 5
f 6 12 7
f 8 7 9
f 7 13 11
f 12 15 13
f 14 17 15
f 16 34 17
f 18 29 19
f 21 20 19
f 23 25 21
f 24 36 25
f 8 10 24
f 6 8 23
f 5 40 26
f 3 2 26
f 28 6 22
f 28 19 29
f 31 33 3
f 31 37 32
f 4 17 34
f 1 15 17
f 31 25 36
f 25 31 27
f 15 1 38
f 13 38 39
f 21 27 26
f 40 18 20
f 41 24 10
f 42 10 9
f 33 32 39
f 3 33 38
f 16 14 28
f 28 14 12
f 24 41 44
f 44 45 37
f 45 95 32
f 32 95 46
f 47 11 39
f 47 43 9
f 43 47 41
f 47 46 44
f 46 95 45
f 48 52 49
f 51 96 49
f 53 57 54
f 56 86 57
f 57 86 58
f 54 57 59
f 61 54 60
f 61 62 63
f 65 76 66
f 68 76 65
f 69 80 70
f 70 80 71
f 53 70 72
f 55 68 70
f 52 83 73
f 74 83 52
f 75 76 68
f 75 88 66
f 77 74 48
f 79 90 77
f 49 96 63
f 50 49 62
f 77 90 71
f 80 69 74
f 81 50 60
f 82 81 59
f 69 65 83
f 73 83 65
f 56 72 84
f 86 56 85
f 78 81 82
f 48 50 81
f 75 61 64
f 75 55 54
f 72 71 89
f 90 91 89
f 79 93 91
f 79 82 92
f 82 58 94
f 94 58 86
f 85 84 94
f 84 89 92
f 92 89 91

