# https://github.com/mikedh/trimesh

o casual_female-eyebrow002-mesh
v -0.00906261 0.01361872 1.54877541
v -0.00490272 0.01401490 1.55125160
v -0.00965693 0.01490628 1.54946872
v -0.00321896 0.01649104 1.54649734
v 0.00094100 0.01767955 1.54748784
v 0.00054480 0.01609485 1.54808209
v 0.00638846 0.01599579 1.54917166
v 0.00589327 0.01500535 1.54976591
v 0.01064742 0.01460916 1.55125160
v 0.01124174 0.01550060 1.55065723
v 0.01619400 0.01550060 1.55263824
v 0.01609494 0.01619391 1.55194492
v 0.02124534 0.01777861 1.55283624
v 0.02094815 0.01827386 1.55204398
v 0.02540523 0.02015569 1.55135067
v 0.02471192 0.02055188 1.55055829
v 0.03025844 0.02490989 1.54877541
v 0.02996131 0.02570227 1.54818116
v 0.03412121 0.02926792 1.54659640
v 0.03461647 0.03124880 1.54590308
v 0.03669641 0.03352687 1.54481364
v -0.01114256 0.01460916 1.54709171
v -0.00252565 0.01876906 1.54600215
v -0.00698267 0.01767955 1.54491270
v -0.00648747 0.01956143 1.54421938
v -0.00074283 0.01233109 1.54966685
v -0.00430847 0.01272728 1.54867635
v 0.00510089 0.01233109 1.55144961
v 0.01064742 0.01282634 1.55293530
v 0.01629301 0.01470822 1.55412393
v 0.02164147 0.01748149 1.55422287
v 0.02580142 0.02055188 1.55234105
v 0.03035750 0.02451370 1.54946872
v 0.03412121 0.02897079 1.54709171
v 0.03738973 0.03412112 1.54481364
v -0.00926074 0.01817479 1.54412032
v -0.00955786 0.01886811 1.54303076
v -0.00817123 0.01381678 1.54719065
v -0.00519985 0.01262827 1.55055829
v -0.01084543 0.01500535 1.54540789
v -0.00094089 0.01243015 1.55174680
v -0.00074283 0.01381678 1.55263824
v 0.00450664 0.01233109 1.55303437
v 0.00430852 0.01391585 1.55392581
v 0.01054842 0.01292540 1.55432194
v 0.01084554 0.01470822 1.55551056
v 0.01629301 0.01490628 1.55541150
v 0.01649113 0.01619391 1.55640188
v 0.02154246 0.01797673 1.55560962
v 0.02203766 0.01896718 1.55640188
v 0.02629662 0.02124519 1.55333155
v 0.02639567 0.02213663 1.55392581
v 0.03085275 0.02590034 1.55006298
v 0.03124888 0.02708890 1.55016204
v 0.03451740 0.02986217 1.54758690
v 0.03481453 0.03164499 1.54758690
v 0.03699354 0.03392306 1.54540789
v 0.03738973 0.03461638 1.54560602
v -0.01203400 0.01550060 1.54719065
v -0.01124163 0.01787767 1.54412032
v 0.03699354 0.03441825 1.54441739
v 0.03808304 0.03590394 1.54491270
v -0.03214021 0.01649104 1.54867635
v -0.03610204 0.01787767 1.55105348
v -0.03620111 0.01649104 1.55036016
v -0.03699348 0.02065093 1.54629933
v -0.04085625 0.02282995 1.54719065
v -0.03719155 0.02302801 1.54570496
v -0.04085625 0.02124519 1.54778503
v -0.04650184 0.02263189 1.54887447
v -0.05105792 0.02223569 1.55085536
v -0.04630378 0.02154237 1.54936966
v -0.05620832 0.02451370 1.55214293
v -0.05135505 0.02322614 1.55016204
v -0.06056633 0.02798029 1.55224199
v -0.05591119 0.02520702 1.55144961
v -0.06393385 0.03134787 1.55065723
v -0.06007108 0.02837648 1.55144961
v -0.06749949 0.03709252 1.54808209
v -0.06324054 0.03154592 1.54986497
v -0.07017369 0.04234191 1.54580402
v -0.06690524 0.03778583 1.54748784
v -0.07156039 0.04709612 1.54402126
v -0.07007469 0.04432279 1.54511071
v -0.02986221 0.01688723 1.54699265
v -0.03124883 0.01758054 1.54927060
v -0.03313072 0.02094806 1.54481364
v -0.03313072 0.02282995 1.54402126
v -0.04055912 0.01728341 1.54936966
v -0.03689442 0.01678817 1.54837928
v -0.04620471 0.01876906 1.55105348
v -0.05145411 0.02055188 1.55244011
v -0.05650545 0.02382039 1.55362862
v -0.06433004 0.03184311 1.55174680
v -0.06106153 0.02778222 1.55362862
v -0.06769756 0.03679539 1.54877541
v -0.07027276 0.04194572 1.54639828
v -0.03075358 0.02084901 1.54402126
v -0.03293259 0.01698623 1.54699265
v -0.04036100 0.01738242 1.55154867
v -0.04016294 0.01876906 1.55234105
v -0.04570946 0.01857099 1.55263824
v -0.04511521 0.02005668 1.55352956
v -0.05135505 0.02065093 1.55382674
v -0.05125604 0.02243376 1.55501525
v -0.05650545 0.02401851 1.55491631
v -0.05640638 0.02530608 1.55580763
v -0.06086346 0.02827747 1.55501525
v -0.06106153 0.02936697 1.55570857
v -0.06462717 0.03263543 1.55273730
v -0.06452810 0.03342781 1.55323249
v -0.06779662 0.03818201 1.54927060
v -0.06789568 0.03937052 1.54946873
v -0.07037182 0.04293616 1.54689359
v -0.07017369 0.04481805 1.54679452
v -0.07175845 0.04749231 1.54461551
v -0.02996127 0.01748149 1.54530883
v -0.02877270 0.01758054 1.54709171
v -0.07205558 0.04788844 1.54402126
v -0.07165939 0.04808656 1.54362501
v -0.02887176 0.02005668 1.54402126
v -0.07195658 0.04828463 1.54481364
v -0.03025839 0.02144332 1.54283263
v -0.07225371 0.04967132 1.54402126
f 1 2 3
f 4 5 6
f 6 7 8
f 7 9 8
f 10 11 9
f 12 13 11
f 14 15 13
f 16 17 15
f 18 19 17
f 20 21 19
f 3 22 1
f 23 24 25
f 4 26 27
f 6 28 26
f 28 9 29
f 29 11 30
f 30 13 31
f 13 32 31
f 15 33 32
f 17 34 33
f 34 21 35
f 25 36 37
f 38 39 1
f 38 22 40
f 2 41 42
f 42 43 44
f 44 45 46
f 46 47 48
f 48 49 50
f 50 51 52
f 52 53 54
f 54 55 56
f 56 57 58
f 40 59 60
f 35 61 62
f 39 26 41
f 41 28 43
f 43 29 45
f 45 30 47
f 47 31 49
f 49 32 51
f 51 33 53
f 53 34 55
f 55 35 57
f 4 38 24
f 24 40 36
f 36 60 37
f 35 58 57
f 63 64 65
f 66 67 68
f 69 70 67
f 71 70 72
f 73 74 71
f 75 76 73
f 77 78 75
f 79 80 77
f 81 82 79
f 83 84 81
f 85 86 63
f 87 68 88
f 89 66 90
f 91 69 89
f 91 71 72
f 92 73 71
f 93 75 73
f 94 75 95
f 96 77 94
f 97 79 96
f 97 83 81
f 88 98 87
f 99 65 90
f 99 85 63
f 64 100 65
f 101 102 100
f 103 104 102
f 105 106 104
f 107 108 106
f 109 110 108
f 111 112 110
f 113 114 112
f 115 116 114
f 117 118 85
f 119 120 83
f 65 89 90
f 100 91 89
f 102 92 91
f 104 93 92
f 106 95 93
f 108 94 95
f 110 96 94
f 112 97 96
f 114 119 97
f 99 66 87
f 87 117 99
f 98 121 117
f 122 119 116
f 1 39 2
f 4 23 5
f 6 5 7
f 7 10 9
f 10 12 11
f 12 14 13
f 14 16 15
f 16 18 17
f 18 20 19
f 20 61 21
f 3 59 22
f 23 4 24
f 4 6 26
f 6 8 28
f 28 8 9
f 29 9 11
f 30 11 13
f 13 15 32
f 15 17 33
f 17 19 34
f 34 19 21
f 25 24 36
f 38 27 39
f 38 1 22
f 2 39 41
f 42 41 43
f 44 43 45
f 46 45 47
f 48 47 49
f 50 49 51
f 52 51 53
f 54 53 55
f 56 55 57
f 40 22 59
f 35 21 61
f 39 27 26
f 41 26 28
f 43 28 29
f 45 29 30
f 47 30 31
f 49 31 32
f 51 32 33
f 53 33 34
f 55 34 35
f 4 27 38
f 24 38 40
f 36 40 60
f 35 62 58
f 63 86 64
f 66 69 67
f 69 72 70
f 71 74 70
f 73 76 74
f 75 78 76
f 77 80 78
f 79 82 80
f 81 84 82
f 83 120 84
f 85 118 86
f 87 66 68
f 89 69 66
f 91 72 69
f 91 92 71
f 92 93 73
f 93 95 75
f 94 77 75
f 96 79 77
f 97 81 79
f 97 119 83
f 88 123 98
f 99 63 65
f 99 117 85
f 64 101 100
f 101 103 102
f 103 105 104
f 105 107 106
f 107 109 108
f 109 111 110
f 111 113 112
f 113 115 114
f 115 122 116
f 117 121 118
f 119 124 120
f 65 100 89
f 100 102 91
f 102 104 92
f 104 106 93
f 106 108 95
f 108 110 94
f 110 112 96
f 112 114 97
f 114 116 119
f 99 90 66
f 87 98 117
f 98 123 121
f 122 124 119

