# https://github.com/mikedh/trimesh

o casual_female-tongue01-mesh
v -0.03164502 0.04887894 1.46924186
v -0.03273453 0.04214386 1.47132180
v -0.03412116 0.04917607 1.47211418
v -0.03273453 0.04214385 1.47488745
v -0.03451735 0.04907701 1.47567982
v -0.03263546 0.04897794 1.47805696
v -0.03392304 0.05818923 1.47241125
v -0.03303165 0.05729779 1.47974066
v -0.03095171 0.04244098 1.47706645
v -0.02451374 0.04937414 1.47964159
v -0.03184309 0.05749592 1.46884561
v -0.02065097 0.04333236 1.47072755
v -0.02352330 0.04927513 1.46983611
v -0.01995766 0.04977032 1.47052943
v -0.01876910 0.05749592 1.47062849
v -0.02114617 0.06948045 1.47112368
v -0.01688721 0.06908427 1.47072755
v -0.02292899 0.05729779 1.47003423
v -0.02074998 0.03788489 1.47805696
v -0.01668914 0.04204479 1.47934453
v -0.02074998 0.04244098 1.47904734
v -0.02411756 0.03808296 1.47785883
v -0.02421661 0.04273811 1.47875027
v -0.02451374 0.05789205 1.48073116
v -0.03164502 0.04887894 1.46924186
v -0.02362230 0.04362949 1.46993517
v -0.03085265 0.04224285 1.46943998
v -0.02352330 0.03907340 1.46943998
v -0.03085265 0.03788489 1.46894467
v -0.03085265 0.04224285 1.46943998
v -0.03253640 0.03748870 1.47399600
v -0.03055552 0.03768677 1.47637314
v -0.02084905 0.03471544 1.47667021
v -0.01728339 0.03758770 1.47795789
v -0.02382043 0.03491351 1.47657126
v -0.03045646 0.06967854 1.46884561
v -0.03184309 0.05749592 1.46884561
v -0.02352330 0.03560682 1.46894467
v -0.03085265 0.03788489 1.46894467
v -0.03204121 0.03481444 1.47033130
v -0.03263546 0.03748870 1.47102462
v -0.03194215 0.03451731 1.47320363
v -0.02996127 0.03451731 1.47518463
v -0.02074998 0.03550776 1.46953904
v -0.02065097 0.03897440 1.47013330
v -0.02065097 0.03184311 1.47548170
v -0.01767959 0.03422019 1.47686833
v -0.02084905 0.02798029 1.47280750
v -0.01827384 0.02936698 1.47429319
v -0.02074998 0.02976311 1.47399600
v -0.02084905 0.03313069 1.46924186
v -0.02322612 0.03154593 1.46825135
v -0.02342424 0.03342782 1.46884561
v -0.02679176 0.02817841 1.47161899
v -0.02302805 0.03006030 1.47379800
v -0.02778226 0.03006030 1.47260937
v -0.02669275 0.03015930 1.46686472
v -0.02798033 0.03154593 1.46745898
v -0.02798033 0.03154593 1.46745898
v -0.02768320 0.02946598 1.46815229
v -0.02926790 0.03114980 1.46884561
v -0.02778226 0.02877266 1.47003423
v -0.02926790 0.03065455 1.47092567
v -0.02094810 0.03134787 1.46854854
v -0.02292899 0.02996123 1.46745898
v -0.02084905 0.02619753 1.47161899
v -0.01847197 0.02748509 1.47300562
v -0.02609844 0.02679178 1.47062849
v -0.02273092 0.02827748 1.47251031
v -0.02590038 0.02877266 1.46666672
v -0.02897077 0.03204118 1.47389694
v -0.02669275 0.03015930 1.46686472
v -0.02609844 0.02807936 1.46775616
v -0.02619750 0.02708891 1.46953904
v -0.02084905 0.02966410 1.46765710
v -0.02243379 0.02827748 1.46706285
v -0.02174049 0.02599940 1.46983611
v -0.02055192 0.02580134 1.46983611
v -0.02045285 0.02669272 1.46815229
v -0.02174049 0.02689084 1.46805335
v -0.02074998 0.02817841 1.46726097
v -0.02253280 0.02639559 1.47142087
v -0.02243379 0.02827748 1.46706285
v -0.02590038 0.02877266 1.46666672
v -0.03065458 0.03233830 1.47191606
v -0.02312711 0.03204118 1.47528357
v -0.02926790 0.03313069 1.46785522
v -0.03075358 0.03283356 1.46934092
v -0.03045646 0.03501257 1.46825135
v -0.02926790 0.03313069 1.46785522
v -0.01797671 0.03154593 1.47548170
v -0.03045646 0.03501257 1.46825135
v -0.01589677 0.04868082 1.48083022
v -0.02084905 0.04897794 1.48033491
v -0.02035385 0.05769398 1.48142447
v -0.01480727 0.05739686 1.48172154
v -0.01817484 0.06977758 1.48231591
v -0.01332157 0.06938140 1.48162260
v -0.01718434 0.08166305 1.47855215
v -0.01183588 0.08077164 1.47775977
v -0.01659009 0.07601735 1.46627047
v -0.01342063 0.06749947 1.46686472
v -0.01480727 0.05690161 1.46973705
v -0.01579770 0.04917607 1.47132180
v -0.03204121 0.09037906 1.46389334
v -0.02956508 0.07958299 1.46577528
v -0.03204121 0.08096973 1.46953904
v -0.03223928 0.08275255 1.47518463
v -0.02936695 0.09404375 1.47340175
v -0.03184309 0.09394470 1.47023236
v -0.03006027 0.08295064 1.47696739
v -0.01985860 0.09394470 1.47409507
v -0.02956508 0.07958299 1.46577528
v -0.02045285 0.08552583 1.46012969
v -0.02035385 0.07750313 1.46736003
v -0.03124883 0.07116422 1.48023585
v -0.02134429 0.08225732 1.47914640
v -0.03332878 0.07037186 1.47211418
v -0.03372497 0.07066890 1.47736364
v -0.03045646 0.06967854 1.46884561
v -0.03441829 0.05818923 1.47736364
v -0.01649102 0.04372854 1.47161899
v -0.01698627 0.03907340 1.47112368
v -0.01748153 0.03540875 1.47033130
v -0.01797671 0.03124880 1.46844948
v -0.01777865 0.03313069 1.46943998
v -0.01817484 0.02946598 1.46755804
v -0.02074998 0.02817841 1.46726097
v -0.01867003 0.02599940 1.47151993
v -0.01867003 0.02580134 1.46973705
v -0.01857103 0.02639559 1.46805335
v -0.01837291 0.02788128 1.46716191
v -0.02253280 0.07017376 1.48221685
v -0.01738246 0.08304969 1.45765349
v -0.01579770 0.09364756 1.47369894
v -0.01025118 0.09325138 1.47350082
v -0.01183588 0.08017736 1.45636592
v -0.01262825 0.07364036 1.46369533
v -0.00044564 0.04501617 1.46943998
v -0.00113901 0.03818202 1.47151993
v -0.00282277 0.03877627 1.46963799
v 0.00203050 0.04461998 1.47241125
v -0.00113901 0.03818202 1.47508557
v 0.00034668 0.04481806 1.47835402
v 0.00232762 0.04452093 1.47587795
v 0.00401139 0.05343503 1.47270844
v 0.00282282 0.05274171 1.48003784
v 0.00450664 0.05333596 1.47756165
v -0.00737885 0.04719512 1.47974066
v -0.00272371 0.03897440 1.47726458
v 0.00193144 0.05333596 1.46904373
v -0.01243019 0.04224285 1.47072755
v -0.00827023 0.04729419 1.46973705
v -0.00955786 0.04184673 1.47003423
v -0.01084543 0.05650542 1.47072755
v -0.00559603 0.06759853 1.47122274
v -0.00678460 0.05531692 1.47023236
v -0.01153875 0.04877989 1.47062849
v -0.01381682 0.03699346 1.47805696
v -0.01262825 0.04145053 1.47904734
v -0.01054831 0.03639920 1.47795789
v -0.00440746 0.03441825 1.47657126
v -0.00044564 0.04501617 1.46943998
v -0.00282277 0.03877627 1.46963799
v -0.01074643 0.03748870 1.46953904
v -0.00391227 0.03451731 1.46914279
v -0.00242658 0.03372494 1.47419413
v -0.00232752 0.03372494 1.47122274
v -0.01351969 0.03808296 1.47013330
v -0.01451014 0.03392306 1.47667021
v -0.01163781 0.03332875 1.47667021
v -0.00569509 0.03144692 1.47538264
v 0.00351613 0.06541952 1.46904373
v -0.00391227 0.03451731 1.46914279
v -0.01153875 0.03412113 1.46904373
v 0.00193144 0.05333596 1.46904373
v -0.00341703 0.03124880 1.47052943
v -0.00500177 0.03184311 1.46844948
v -0.00371415 0.03095167 1.47340175
v -0.01421301 0.03471544 1.46953904
v -0.01530251 0.03124880 1.47558076
v -0.01609489 0.02738604 1.47290656
v -0.01579770 0.02916886 1.47409507
v -0.01470820 0.03233830 1.46924186
v -0.01282637 0.03025836 1.46835042
v -0.01510439 0.03065455 1.46864760
v -0.01351969 0.02887173 1.47379800
v -0.01025118 0.02609846 1.47171793
v -0.00886454 0.02768316 1.47280750
v -0.00985499 0.02798029 1.46696378
v -0.01351969 0.02877266 1.46755804
v -0.00827023 0.02906979 1.46755804
v -0.00906261 0.02718796 1.46825135
v -0.00985499 0.02798029 1.46696378
v -0.00698267 0.02837648 1.46894467
v -0.00916168 0.02639559 1.47023236
v -0.00727979 0.02788128 1.47112368
v -0.01559964 0.02906979 1.46765710
v -0.01668914 0.02619753 1.46815229
v -0.01421301 0.02718796 1.47251031
v -0.01124163 0.02490990 1.47072755
v -0.01094450 0.02698984 1.46686472
v -0.01441107 0.02728697 1.46716191
v -0.00727979 0.02936698 1.47399600
v -0.00549697 0.02916886 1.47211418
v -0.01094450 0.02619753 1.46785522
v -0.01094450 0.02698984 1.46686472
v -0.01104355 0.02520702 1.46963799
v -0.01609489 0.02758416 1.46726097
v -0.01649102 0.02570227 1.47161899
v -0.01559964 0.02520702 1.46993517
v -0.01490632 0.02540515 1.47151993
v -0.01688721 0.02540515 1.46983611
v -0.01609489 0.02758416 1.46726097
v -0.01540152 0.02609846 1.46815229
v -0.01441107 0.02728697 1.46716191
v -0.00519985 0.02956505 1.46953904
v -0.01292538 0.03085261 1.47548170
v -0.00658647 0.03025836 1.46805335
v -0.01213307 0.03204118 1.46894467
v -0.00827023 0.02906979 1.46755804
v -0.00658647 0.03025836 1.46805335
v -0.00935974 0.05630736 1.48152354
v -0.01104355 0.04778944 1.48043397
v -0.00846836 0.06858904 1.48231591
v -0.00658647 0.08027632 1.47865121
v -0.00827023 0.07492795 1.46636953
v -0.00975593 0.06819275 1.47072755
v 0.01025123 0.08512964 1.46419052
v 0.00519996 0.07522509 1.46607235
v 0.00708177 0.08176210 1.45953544
v 0.00846841 0.07770123 1.47548170
v 0.00836940 0.08928955 1.47369894
v 0.00628946 0.07849349 1.47716552
v 0.00777509 0.07601735 1.46983611
v 0.01084554 0.08859624 1.47052943
v -0.00084182 0.09156760 1.47419413
v -0.00232752 0.07988023 1.47934453
v -0.00212946 0.08324778 1.46022875
v 0.00519996 0.07522509 1.46607235
v -0.00430847 0.07552223 1.46745898
v 0.00450664 0.06670715 1.48053303
v -0.00420940 0.06789565 1.48231591
v 0.00648752 0.06541952 1.47241125
v 0.00678464 0.06561765 1.47766071
v 0.00351613 0.06541952 1.46904373
v -0.00529890 0.05551497 1.48092916
v -0.00926074 0.04095529 1.47884922
v -0.00559603 0.08156400 1.45775256
v -0.00490272 0.09226092 1.47379800
v -0.01837291 0.02788128 1.46716191
v -0.02976314 0.08631809 1.45923825
v -0.00500177 0.03184311 1.46844948
f 1 2 3
f 3 4 5
f 4 6 5
f 5 7 3
f 8 5 6
f 9 10 6
f 11 3 7
f 12 13 14
f 15 16 17
f 14 18 15
f 19 20 21
f 9 22 23
f 8 10 24
f 25 26 27
f 28 27 26
f 29 2 30
f 2 31 4
f 4 32 9
f 12 28 26
f 33 34 19
f 32 35 22
f 36 18 37
f 38 39 28
f 13 37 18
f 29 40 41
f 41 42 31
f 31 43 32
f 44 28 45
f 46 47 33
f 48 49 50
f 51 52 53
f 54 55 56
f 52 57 58
f 59 60 61
f 61 62 63
f 62 56 63
f 64 65 52
f 66 67 48
f 68 69 54
f 65 70 57
f 42 71 43
f 72 73 60
f 73 62 60
f 74 54 62
f 75 76 65
f 66 77 78
f 77 79 78
f 80 81 79
f 82 74 77
f 80 74 73
f 83 73 84
f 71 35 43
f 40 85 42
f 56 86 71
f 63 71 85
f 87 61 88
f 89 88 40
f 53 58 90
f 50 91 46
f 88 63 85
f 38 90 92
f 44 53 38
f 21 93 94
f 95 93 96
f 97 96 98
f 99 98 100
f 101 102 17
f 14 103 104
f 105 106 107
f 108 109 110
f 107 110 105
f 111 112 109
f 113 114 115
f 36 115 16
f 116 117 111
f 118 108 107
f 116 108 119
f 120 107 106
f 7 120 11
f 8 119 121
f 121 118 7
f 24 116 8
f 122 14 104
f 22 21 23
f 123 12 122
f 35 19 22
f 124 45 123
f 86 33 35
f 69 50 55
f 125 51 126
f 125 75 64
f 82 48 69
f 127 128 75
f 129 78 130
f 130 79 131
f 79 132 131
f 55 46 86
f 126 44 124
f 23 94 10
f 10 95 24
f 133 95 97
f 133 99 117
f 16 101 17
f 115 134 101
f 112 99 135
f 135 100 136
f 101 137 138
f 15 102 103
f 139 140 141
f 142 143 140
f 144 143 145
f 146 145 142
f 147 145 148
f 149 150 144
f 151 142 139
f 152 153 154
f 155 156 157
f 158 157 153
f 20 159 160
f 150 161 162
f 147 149 144
f 154 163 164
f 164 165 154
f 140 166 141
f 140 167 168
f 143 162 167
f 152 165 169
f 34 170 159
f 162 171 172
f 173 157 156
f 174 175 165
f 176 153 157
f 166 177 178
f 168 179 177
f 167 172 179
f 165 180 169
f 47 181 170
f 49 182 183
f 184 185 186
f 187 188 189
f 185 190 191
f 192 193 194
f 195 196 193
f 189 196 197
f 186 191 198
f 132 199 131
f 200 201 188
f 191 202 203
f 179 204 205
f 194 206 207
f 196 206 193
f 188 208 196
f 198 203 209
f 210 211 212
f 199 211 213
f 214 215 199
f 212 208 201
f 208 215 206
f 206 216 207
f 171 204 172
f 177 205 217
f 218 189 204
f 204 197 205
f 219 195 192
f 178 217 219
f 220 221 185
f 91 183 181
f 217 197 195
f 175 222 220
f 180 220 184
f 223 93 224
f 225 96 223
f 226 98 225
f 102 227 228
f 103 158 104
f 229 230 231
f 232 233 234
f 235 236 232
f 234 237 238
f 239 240 241
f 241 173 156
f 242 238 243
f 244 232 245
f 232 242 245
f 246 235 244
f 246 146 151
f 245 147 148
f 244 148 146
f 242 247 147
f 122 158 152
f 160 161 248
f 152 123 122
f 159 171 161
f 169 124 123
f 170 218 171
f 183 200 187
f 184 125 126
f 125 198 127
f 182 212 200
f 129 213 210
f 130 199 213
f 67 210 182
f 181 187 218
f 180 126 124
f 224 248 149
f 223 149 247
f 243 223 247
f 226 243 238
f 156 227 241
f 241 249 239
f 237 226 238
f 250 100 226
f 227 137 249
f 102 155 103
f 224 20 160
f 127 209 251
f 229 233 236
f 239 233 231
f 250 239 249
f 249 136 250
f 134 136 137
f 135 114 112
f 114 109 112
f 105 109 252
f 1 30 2
f 3 2 4
f 4 9 6
f 5 121 7
f 8 121 5
f 9 23 10
f 11 1 3
f 12 26 13
f 15 18 16
f 14 13 18
f 19 34 20
f 9 32 22
f 8 6 10
f 25 13 26
f 28 39 27
f 29 41 2
f 2 41 31
f 4 31 32
f 12 45 28
f 33 47 34
f 32 43 35
f 36 16 18
f 38 92 39
f 13 25 37
f 29 89 40
f 41 40 42
f 31 42 43
f 44 38 28
f 46 91 47
f 48 67 49
f 51 64 52
f 54 69 55
f 52 65 57
f 59 72 60
f 61 60 62
f 62 54 56
f 64 75 65
f 66 129 67
f 68 82 69
f 65 76 70
f 42 85 71
f 72 84 73
f 73 74 62
f 74 68 54
f 75 128 76
f 66 82 77
f 77 80 79
f 80 83 81
f 82 68 74
f 80 77 74
f 83 80 73
f 71 86 35
f 40 88 85
f 56 55 86
f 63 56 71
f 87 59 61
f 89 87 88
f 53 52 58
f 50 49 91
f 88 61 63
f 38 53 90
f 44 51 53
f 21 20 93
f 95 94 93
f 97 95 96
f 99 97 98
f 101 138 102
f 14 15 103
f 105 252 106
f 108 111 109
f 107 108 110
f 111 117 112
f 113 252 114
f 36 113 115
f 116 133 117
f 118 119 108
f 116 111 108
f 120 118 107
f 7 118 120
f 8 116 119
f 121 119 118
f 24 133 116
f 122 12 14
f 22 19 21
f 123 45 12
f 35 33 19
f 124 44 45
f 86 46 33
f 69 48 50
f 125 64 51
f 125 127 75
f 82 66 48
f 127 251 128
f 129 66 78
f 130 78 79
f 79 81 132
f 55 50 46
f 126 51 44
f 23 21 94
f 10 94 95
f 133 24 95
f 133 97 99
f 16 115 101
f 115 114 134
f 112 117 99
f 135 99 100
f 101 134 137
f 15 17 102
f 139 142 140
f 142 145 143
f 144 150 143
f 146 148 145
f 147 144 145
f 149 248 150
f 151 146 142
f 152 158 153
f 155 228 156
f 158 155 157
f 20 34 159
f 150 248 161
f 147 247 149
f 154 153 163
f 164 174 165
f 140 168 166
f 140 143 167
f 143 150 162
f 152 154 165
f 34 47 170
f 162 161 171
f 173 176 157
f 174 253 175
f 176 163 153
f 166 168 177
f 168 167 179
f 167 162 172
f 165 175 180
f 47 91 181
f 49 67 182
f 184 220 185
f 187 200 188
f 185 221 190
f 192 195 193
f 195 197 196
f 189 188 196
f 186 185 191
f 132 214 199
f 200 212 201
f 191 190 202
f 179 172 204
f 194 193 206
f 196 208 206
f 188 201 208
f 198 191 203
f 210 213 211
f 199 215 211
f 214 216 215
f 212 211 208
f 208 211 215
f 206 215 216
f 171 218 204
f 177 179 205
f 218 187 189
f 204 189 197
f 219 217 195
f 178 177 217
f 220 222 221
f 91 49 183
f 217 205 197
f 175 253 222
f 180 175 220
f 223 96 93
f 225 98 96
f 226 100 98
f 102 138 227
f 103 155 158
f 229 235 230
f 232 236 233
f 235 229 236
f 234 233 237
f 239 231 240
f 241 240 173
f 242 234 238
f 244 235 232
f 232 234 242
f 246 230 235
f 246 244 146
f 245 242 147
f 244 245 148
f 242 243 247
f 122 104 158
f 160 159 161
f 152 169 123
f 159 170 171
f 169 180 124
f 170 181 218
f 183 182 200
f 184 186 125
f 125 186 198
f 182 210 212
f 129 130 213
f 130 131 199
f 67 129 210
f 181 183 187
f 180 184 126
f 224 160 248
f 223 224 149
f 243 225 223
f 226 225 243
f 156 228 227
f 241 227 249
f 237 250 226
f 250 136 100
f 227 138 137
f 102 228 155
f 224 93 20
f 127 198 209
f 229 231 233
f 239 237 233
f 250 237 239
f 249 137 136
f 134 135 136
f 135 134 114
f 114 252 109
f 105 110 109

