# https://github.com/mikedh/trimesh

o casual_female-female_casualsuit02-mesh
v 0.13475154 0.13683134 1.19805512
v 0.14594358 0.14554745 1.19379616
v 0.13801993 0.13336485 1.18874483
v 0.13405821 0.12029083 1.19736180
v 0.13891145 0.10275977 1.20201689
v 0.13792089 0.11702232 1.18834870
v 0.14356659 0.10018459 1.19240953
v 0.15139119 0.08562478 1.19874843
v 0.14653785 0.08631810 1.20895016
v 0.18021343 0.06026919 1.23648479
v 0.19645681 0.06165583 1.22786781
v 0.19140549 0.06026919 1.24341795
v 0.16050327 0.06700429 1.22242035
v 0.17149734 0.06472622 1.21439763
v 0.16535661 0.06274533 1.22707544
v 0.17100220 0.06076439 1.23123533
v 0.18625523 0.06135870 1.22222223
v 0.14653785 0.08631810 1.20895016
v 0.15931473 0.07512606 1.20518640
v 0.15406532 0.07482891 1.21637851
v 0.16644602 0.06849000 1.21053492
v 0.16050327 0.16149377 1.21578426
v 0.18407611 0.15971095 1.21489282
v 0.16337560 0.15574914 1.20350258
v 0.14208079 0.15020258 1.20439402
v 0.20239954 0.15664055 1.22618412
v 0.18288758 0.16585178 1.23153252
v 0.20160728 0.16238518 1.24688453
v 0.20131005 0.15386727 1.20488922
v 0.21775171 0.14574553 1.21350619
v 0.16694124 0.15129209 1.18874483
v 0.18417516 0.15555104 1.19676755
v 0.22171351 0.07512606 1.22242035
v 0.22577441 0.08443633 1.24529989
v 0.21775171 0.07274896 1.24143706
v 0.20715373 0.06442909 1.23490004
v 0.21141278 0.06512240 1.21726995
v 0.17139829 0.06650904 1.19795605
v 0.16396986 0.07344228 1.19340003
v 0.15139119 0.08562478 1.19874843
v 0.15594719 0.08354492 1.18785338
v 0.19081122 0.06046726 1.20736541
v 0.17734112 0.06244820 1.21786421
v 0.18239244 0.06135870 1.20389883
v 0.17654866 0.06324053 1.20092744
v 0.20071577 0.06125964 1.21182249
v 0.23300472 0.10275977 1.22519362
v 0.23132093 0.11474427 1.24470552
v 0.23082571 0.09879785 1.24638934
v 0.22953811 0.08820007 1.22529268
v 0.14762735 0.09751035 1.18260404
v 0.14188280 0.11405096 1.17923641
v 0.14267508 0.13049252 1.17903840
v 0.15099500 0.14208086 1.18181167
v 0.22805245 0.13296855 1.21944897
v 0.21864312 0.14733027 1.23707905
v 0.22765626 0.13138393 1.24351701
v 0.23270759 0.11761650 1.22281648
v 0.08354489 0.07819646 1.35325951
v 0.09027998 0.05274172 1.32830002
v 0.10444359 0.07294705 1.34830724
v 0.09582654 0.09552943 1.36435257
v 0.10345314 0.11444704 1.37495043
v 0.11306046 0.09206284 1.36187649
v 0.12078611 0.11315954 1.37178104
v 0.13574198 0.08879433 1.35781566
v 0.14465608 0.11157482 1.36653158
v 0.14465608 0.11157482 1.36653158
v 0.12613456 0.13584097 1.37920939
v 0.12078611 0.11315954 1.37178104
v 0.10810817 0.13772284 1.38584548
v 0.10345314 0.11444704 1.37495043
v -0.00321896 0.05700067 1.33354948
v 0.02827756 0.04877989 1.32404107
v 0.02590043 0.06116057 1.33741219
v 0.06195295 0.05650542 1.33226179
v 0.05155323 0.07106508 1.34434535
v 0.02362241 0.06759853 1.34474160
v -0.00341703 0.06324052 1.34087877
v 0.07284806 0.08453537 1.35791460
v 0.04907710 0.07809741 1.35514134
v 0.08522875 0.09879784 1.36692783
v 0.06631095 0.08968574 1.36217356
v 0.09335038 0.11563568 1.37851607
v 0.07740416 0.10196729 1.37019628
v 0.09335038 0.11563568 1.37851607
v 0.09503416 0.14009993 1.39020350
v 0.08512961 0.11781467 1.38198277
v 0.03025844 0.19566448 1.38505310
v 0.04907710 0.17605347 1.39416527
v 0.05739694 0.18546280 1.38941112
v 0.03263552 0.20200340 1.37128585
v -0.00044564 0.19913097 1.38198277
v -0.00074283 0.18922653 1.39208532
v 0.02679187 0.18526460 1.39347196
v 0.05472268 0.03243737 1.30324147
v 0.02550429 0.03214025 1.30106246
v -0.00282277 0.04818564 1.32077261
v -0.00282277 0.03402214 1.29838826
v 0.09275622 0.21250223 1.34484067
v 0.06819292 0.19447584 1.37821901
v 0.09978845 0.19150457 1.37039441
v 0.12742206 0.20487573 1.33384656
v 0.08027647 0.16446514 1.39267970
v 0.08532771 0.14069420 1.39337301
v 0.09146853 0.16496036 1.38782637
v 0.07215474 0.16129568 1.39575003
v 0.02946606 0.21161082 1.31591929
v -0.00193133 0.20764899 1.34365204
v 0.03075370 0.20745091 1.34711874
v -0.00103996 0.20438049 1.36702689
v 0.06254722 0.21121463 1.35028813
v 0.05709981 0.21854401 1.31621648
v 0.11484337 0.16347468 1.38019989
v 0.14416076 0.15753195 1.36940391
v 0.13593998 0.18546280 1.35791461
v 0.13227530 0.14029803 1.20667209
v 0.16496032 0.13584098 1.19161715
v 0.12890775 0.14465593 1.21350619
v 0.14138748 0.15535286 1.21390244
v 0.13494953 0.10444354 1.21013867
v 0.16188992 0.08631810 1.20647397
v 0.12861071 0.10493876 1.21637851
v 0.17427061 0.13554384 1.18735819
v 0.15951283 0.16733747 1.22747169
v 0.14465608 0.16198901 1.22311367
v 0.16060242 0.17308210 1.23896099
v -0.15198525 0.16872410 1.19954081
v -0.16644600 0.17486493 1.19666849
v -0.15911653 0.17942103 1.20865298
v -0.15654145 0.14970736 1.18359443
v -0.15862140 0.16525751 1.18775444
v -0.15099479 0.13207725 1.19765899
v -0.18962265 0.14336844 1.20112557
v -0.16525736 0.11256527 1.19181527
v -0.15951281 0.13049252 1.18597156
v 0.15792809 0.13940663 1.16418159
v 0.15535301 0.12514396 1.16576622
v 0.14861781 0.12821447 1.16378534
v 0.21557270 0.14525031 1.18012785
v 0.22280302 0.13049252 1.18448587
v 0.21190803 0.13930758 1.18002879
v -0.20566804 0.07690888 1.22558974
v -0.18665130 0.07552224 1.23668292
v -0.19744725 0.07512605 1.24411127
v -0.18239234 0.08404015 1.21132718
v -0.16872404 0.08394111 1.22043947
v -0.17337909 0.07859265 1.22598599
v -0.17833137 0.07601736 1.23103733
v -0.19536720 0.07839455 1.21934990
v -0.18744366 0.08077165 1.21538813
v -0.17199245 0.09869889 1.19944175
v -0.15604622 0.11187195 1.20379977
v -0.16268217 0.09572753 1.21261487
v -0.17803423 0.08948766 1.20637491
v -0.17288397 0.18407616 1.22004322
v -0.20012139 0.17763820 1.21548720
v -0.19180156 0.18387808 1.23509816
v -0.18090656 0.17803438 1.20587972
v -0.20774800 0.18011434 1.25163880
v -0.22953792 0.16585178 1.24153613
v -0.22210960 0.17149738 1.26669374
v -0.21626592 0.17367637 1.22935351
v -0.22319900 0.17020978 1.20647397
v -0.20824312 0.17407256 1.19498467
v -0.23607492 0.16238518 1.21667570
v -0.21953442 0.16921933 1.16556822
v -0.20923368 0.15921573 1.16319108
v -0.21993060 0.15891850 1.16774723
v -0.23181607 0.07888969 1.18805151
v -0.23746157 0.09523221 1.18666488
v -0.22795328 0.08780389 1.18319830
v -0.19071216 0.17436971 1.18676394
v -0.17635056 0.17120024 1.18022691
v -0.19863580 0.08225733 1.17329375
v -0.20556899 0.08899243 1.17329375
v -0.20230049 0.09146857 1.17170900
v -0.18288756 0.10781109 1.16130926
v -0.19477293 0.10167027 1.16665766
v -0.19061311 0.11127768 1.16279495
v -0.22478383 0.08621915 1.24282370
v -0.23993781 0.09949116 1.22638212
v -0.23141988 0.08720961 1.22103372
v -0.21596877 0.07908788 1.23420672
v -0.22141628 0.07720601 1.18270310
v -0.21983156 0.08661534 1.17903840
v -0.17684578 0.12405447 1.15685218
v -0.18288756 0.13702952 1.15784268
v -0.17318109 0.14188276 1.15497036
v -0.18447220 0.08889339 1.19171621
v -0.17892574 0.09800558 1.18577344
v -0.16525736 0.11256527 1.19181527
v -0.25449739 0.14534935 1.18933908
v -0.24003675 0.14990545 1.17963266
v -0.24716803 0.14000089 1.18408974
v -0.25637926 0.11444705 1.19528185
v -0.25004045 0.12742210 1.18725913
v -0.24885181 0.11563569 1.18884389
v -0.20160718 0.07789933 1.20241313
v -0.19398057 0.08067251 1.19884749
v -0.18883029 0.08413920 1.19547998
v -0.20309286 0.07918692 1.17537370
v -0.21230409 0.08631811 1.17596795
v -0.21151163 0.07671069 1.17854309
v -0.22210960 0.07938501 1.21390244
v -0.21170982 0.07680983 1.20756353
v 0.19962626 0.14297227 1.17695846
v 0.20002245 0.15000449 1.17586889
v 0.17971811 0.06135871 1.17923641
v 0.18467040 0.06710330 1.18022691
v 0.18407611 0.05977394 1.18092022
v -0.24568244 0.11415001 1.22875926
v -0.24152243 0.13069061 1.25193587
v -0.24766336 0.12970016 1.22816500
v -0.23340079 0.09859984 1.24886553
v -0.23944247 0.11375371 1.25193587
v 0.19804164 0.05759493 1.18646675
v 0.20289478 0.06601384 1.18795245
v 0.20675754 0.05947682 1.18973532
v 0.23399516 0.09166656 1.19706461
v 0.22686388 0.10622636 1.19072571
v 0.23746177 0.10721682 1.19458854
v -0.23825403 0.15010353 1.25025217
v -0.23161787 0.15347109 1.27362690
v -0.17268577 0.11127768 1.17903840
v -0.16664399 0.12861065 1.17359082
v -0.16347453 0.14653789 1.17170900
v 0.21715743 0.06482528 1.19448947
v 0.21785075 0.08295065 1.19201340
v 0.22676485 0.07740411 1.19647036
v 0.14534940 0.10989105 1.16497396
v 0.15475863 0.10840526 1.16735098
v -0.16654505 0.16248413 1.17438320
v 0.21002615 0.07334324 1.19013145
v 0.17120019 0.06908428 1.17596795
v 0.18110475 0.06918332 1.17874122
v 0.15257973 0.09295426 1.16804429
v 0.16119660 0.09513325 1.16992623
v 0.22409062 0.09404376 1.19260765
v 0.16208810 0.07918692 1.17170899
v 0.17466679 0.07631460 1.17596795
v 0.18675034 0.14366558 1.17210525
v 0.18546276 0.15049972 1.17071850
v 0.16208810 0.07918692 1.17170899
v 0.16842702 0.08443633 1.17269950
v 0.17179446 0.14643886 1.16695485
v 0.16377178 0.13445434 1.16616247
v 0.17545915 0.14019899 1.16883667
v 0.23518373 0.12187556 1.19023052
v 0.22825054 0.13514767 1.18537731
v -0.19279212 0.16812973 1.15903119
v -0.18793888 0.15129209 1.15893213
v -0.19814058 0.15773005 1.16130926
v -0.20606413 0.16981361 1.16041782
v -0.23340079 0.16585178 1.17537370
v -0.23052847 0.15604618 1.17448226
v -0.25796399 0.12989825 1.19369710
v -0.18288756 0.10781109 1.16130926
v -0.18605701 0.12296507 1.15962544
v -0.18863220 0.09503422 1.16655860
v -0.19893284 0.09404376 1.17002518
v -0.17961906 0.15971095 1.15605980
v -0.25112995 0.10058066 1.19458854
v -0.24281012 0.08869530 1.19260765
v -0.24498913 0.10493876 1.18904201
v -0.24489008 0.15881954 1.18210874
v -0.24518712 0.14742930 1.22450030
v 0.22676485 0.11801267 1.18785339
v 0.18853316 0.05809019 1.18280205
v 0.19566445 0.06373578 1.18517918
v -0.09681700 0.05799112 1.33206379
v -0.09245898 0.08701151 1.35266526
v -0.11177288 0.08235637 1.34771299
v -0.10315591 0.10662244 1.36385738
v -0.11999362 0.10434449 1.36058892
v -0.10880149 0.12781828 1.37554480
v -0.12544114 0.12762008 1.37197916
v -0.14237793 0.10196730 1.35563665
v -0.12544114 0.12762008 1.37197916
v -0.15119299 0.14911308 1.37108772
v -0.14832066 0.12633260 1.36623451
v -0.10880149 0.12781828 1.37554480
v -0.12781822 0.15139112 1.38019989
v -0.03372497 0.04927514 1.32612101
v -0.03313072 0.06185388 1.33919507
v -0.06740044 0.05898157 1.33622368
v -0.03144690 0.06868809 1.34612823
v -0.06036821 0.07354122 1.35048625
v -0.08146493 0.09255807 1.35761753
v -0.05719876 0.08176210 1.35613184
v -0.07502696 0.09760939 1.36197555
v -0.09235993 0.10939581 1.36702689
v -0.09869883 0.12851160 1.37930845
v -0.08522864 0.11256526 1.37049347
v -0.09186473 0.13108678 1.38237890
v -0.09869883 0.12851160 1.37930845
v -0.11058431 0.15267871 1.38643973
v -0.09186473 0.13108678 1.38237890
v -0.09770838 0.15456058 1.39079775
v -0.03105071 0.19863586 1.38594454
v -0.05056273 0.18367997 1.39456152
v -0.02768320 0.18783988 1.39386820
v -0.03372497 0.20428145 1.37188010
v -0.05700069 0.19249503 1.38980737
v -0.06026915 0.03293262 1.30908518
v -0.03114977 0.03214025 1.30373678
v -0.10038265 0.20081485 1.37148386
v -0.06433004 0.21428505 1.35187289
v -0.09414274 0.21745451 1.34662343
v -0.12870965 0.21161082 1.33493612
v -0.08106874 0.17684583 1.39376914
v -0.08968573 0.15485772 1.39267969
v -0.07354127 0.17377541 1.39535390
v -0.09216185 0.17763820 1.38891593
v -0.06740044 0.20150817 1.37831807
v -0.03412116 0.21289841 1.31671167
v -0.03342784 0.20873839 1.34810912
v -0.06165578 0.22181253 1.31809830
v -0.11603185 0.17674679 1.38188371
v -0.14475503 0.17159642 1.37019628
v -0.13702950 0.19526831 1.35880605
v -0.08334682 0.15178721 1.39050069
v 0.06740056 0.10404735 1.37396005
v 0.05729788 0.09305329 1.36593732
v -0.00381321 0.07086709 1.34701967
v -0.02867364 0.07542318 1.35088238
v -0.07700785 0.11365476 1.37257342
v -0.04362952 0.17496397 1.39069869
v -0.02461281 0.17961911 1.39218439
v -0.06670712 0.10058065 1.36544213
v 0.04224299 0.08295065 1.35890510
v 0.02005677 0.07413559 1.34969387
v 0.07601752 0.13693046 1.39416527
v -0.08433726 0.13039347 1.38237890
v -0.00113901 0.18031243 1.39089682
v 0.07453183 0.11840896 1.38435978
v 0.04125250 0.16902124 1.39139201
v 0.06433004 0.15604617 1.39505671
v -0.06551861 0.16981360 1.39089682
v 0.02243384 0.17704391 1.39188732
v 0.07453183 0.11840896 1.38435978
v -0.05056273 0.08661533 1.35969748
v 0.22805245 0.13445434 1.19676755
v 0.21567174 0.14584458 1.19092384
v 0.15614527 0.13990185 1.17071850
v 0.14534940 0.11137673 1.17022330
v 0.14733021 0.12861065 1.16913386
v 0.15129204 0.09473708 1.17329375
v 0.16010710 0.08067251 1.17725552
v 0.23577798 0.10592912 1.20469121
v 0.23399516 0.12048882 1.20122463
v 0.19507018 0.05908063 1.19369710
v 0.20438056 0.06046727 1.19755992
v 0.18150093 0.06106152 1.18824963
v 0.18665140 0.05957588 1.19032958
v 0.16882321 0.07106509 1.18181166
v 0.17654866 0.06383484 1.18577344
v 0.22468490 0.07631460 1.20518640
v 0.23241044 0.09097324 1.20647397
v 0.17060601 0.14802359 1.17517558
v 0.20002245 0.15139113 1.18547637
v 0.18516572 0.15168827 1.18012785
v 0.15099500 0.07274896 1.22410405
v 0.15456064 0.06106152 1.23173064
v 0.16030528 0.05610924 1.23638573
v 0.17179446 0.08919042 1.20290833
v -0.18575989 0.18912749 1.25272825
v -0.20031958 0.18635421 1.27323065
v -0.15842321 0.18130289 1.21667570
v -0.17149732 0.18754275 1.23192865
v -0.17753910 0.09562849 1.21954803
v -0.15980985 0.08681343 1.22142985
v -0.14356638 0.13128488 1.20528546
v -0.15604622 0.11187195 1.20379977
v -0.17952001 0.14297226 1.20687022
v -0.14723116 0.17030872 1.20696928
v -0.25122900 0.14604267 1.20092744
v -0.24181966 0.15990905 1.19369710
v -0.18694833 0.16852592 1.16576622
v -0.17545905 0.15971095 1.16220058
v -0.17347824 0.12534215 1.16279495
v -0.17942097 0.10929677 1.16715285
v -0.25212041 0.11454618 1.20667209
v -0.25410131 0.12979920 1.20518640
v -0.20804513 0.07760219 1.18666488
v -0.21794969 0.07710687 1.19102289
v -0.19081121 0.08730866 1.17765177
v -0.19526826 0.08295066 1.18082116
v -0.18546264 0.09661894 1.17269950
v -0.19407962 0.08562478 1.17091662
v -0.23825403 0.08820007 1.20171982
v -0.24697004 0.10058066 1.20548359
v -0.21567163 0.17080407 1.17557183
v -0.20111184 0.17110119 1.17032237
v -0.22973610 0.16723842 1.18557543
v -0.20012139 0.08007833 1.18329736
v 0.18843412 0.06482528 1.18220779
v 0.15594719 0.08354492 1.18785338
v 0.21487939 0.06532054 1.20201689
v 0.16010710 0.08067251 1.17725552
v -0.17050677 0.14317035 1.16091301
v -0.22785424 0.07918692 1.19637130
v -0.17268577 0.11127768 1.17903840
v 0.14990541 0.13336484 1.37059253
v 0.08512961 0.11781467 1.38198277
v -0.00272371 0.20982800 1.31433465
v 0.16842702 0.08443633 1.17269950
v -0.19061311 0.11127768 1.16279495
v -0.14832066 0.12633260 1.36623451
v -0.08433726 0.13039347 1.38237890
v 0.18298662 0.17248784 1.24757785
v 0.17179446 0.08919042 1.20290833
v -0.17753910 0.09562849 1.21954803
v -0.17942097 0.10929677 1.16715285
f 1 2 3
f 3 4 1
f 5 6 7
f 5 8 9
f 10 11 12
f 13 14 15
f 16 17 10
f 18 19 20
f 20 21 13
f 22 23 24
f 24 25 22
f 26 27 28
f 29 23 26
f 26 30 29
f 31 2 24
f 24 32 31
f 33 34 35
f 33 36 37
f 38 19 39
f 39 40 41
f 42 43 44
f 45 21 38
f 37 11 46
f 46 17 42
f 47 48 49
f 49 50 47
f 51 8 7
f 7 52 51
f 53 6 3
f 3 54 53
f 55 56 57
f 57 58 55
f 59 60 61
f 61 62 59
f 63 64 65
f 65 66 67
f 68 69 70
f 70 71 72
f 73 74 75
f 75 76 77
f 77 78 75
f 75 79 73
f 80 81 77
f 77 59 80
f 59 82 80
f 82 83 80
f 84 85 82
f 84 62 63
f 86 71 87
f 87 88 86
f 89 90 91
f 91 92 89
f 92 93 89
f 89 94 95
f 96 74 97
f 97 98 99
f 100 101 102
f 102 103 100
f 104 105 87
f 87 106 104
f 104 101 91
f 91 107 104
f 108 109 110
f 110 111 92
f 92 112 110
f 110 113 108
f 102 106 114
f 114 71 69
f 69 115 114
f 114 116 102
f 117 118 119
f 119 120 117
f 121 122 123
f 121 118 124
f 125 126 127
f 128 129 130
f 128 131 132
f 133 131 134
f 133 135 136
f 137 138 139
f 140 141 142
f 143 144 145
f 146 147 148
f 149 150 151
f 152 153 154
f 154 155 152
f 156 157 158
f 130 159 156
f 160 161 162
f 158 163 160
f 164 157 165
f 166 163 164
f 167 168 169
f 170 171 172
f 173 129 174
f 165 159 173
f 175 176 177
f 178 179 180
f 181 182 183
f 183 184 181
f 185 172 186
f 187 188 189
f 152 190 191
f 191 192 152
f 193 194 195
f 196 197 198
f 151 199 200
f 201 155 146
f 202 203 176
f 204 186 203
f 143 205 206
f 206 150 143
f 140 207 208
f 209 210 211
f 212 213 214
f 212 215 216
f 217 218 219
f 220 221 222
f 162 223 224
f 136 225 226
f 227 136 226
f 228 229 230
f 231 138 232
f 233 131 227
f 174 132 233
f 219 234 228
f 235 236 209
f 237 232 238
f 230 239 220
f 240 241 235
f 208 242 243
f 244 238 245
f 246 247 137
f 243 248 246
f 249 141 250
f 251 252 253
f 254 253 168
f 255 169 256
f 257 195 197
f 258 259 187
f 260 261 179
f 189 252 262
f 263 171 264
f 196 265 263
f 266 256 194
f 267 161 166
f 214 223 267
f 222 268 249
f 269 270 217
f 271 272 273
f 273 274 275
f 275 276 277
f 277 278 275
f 279 280 281
f 282 283 279
f 284 73 285
f 285 286 284
f 287 288 285
f 285 79 287
f 289 290 291
f 272 288 289
f 289 274 272
f 291 292 289
f 293 294 295
f 276 292 293
f 296 297 282
f 298 299 296
f 300 301 302
f 303 304 300
f 93 303 300
f 302 93 300
f 284 305 306
f 306 98 284
f 307 308 309
f 310 307 309
f 311 312 313
f 314 299 311
f 311 315 314
f 313 304 311
f 109 316 317
f 317 111 109
f 308 303 317
f 317 318 308
f 314 307 319
f 319 297 314
f 320 283 319
f 319 321 320
f 298 322 312
f 83 323 324
f 287 325 326
f 291 327 294
f 302 328 329
f 290 330 291
f 78 331 332
f 81 324 331
f 79 332 325
f 107 333 105
f 294 334 295
f 94 329 335
f 88 333 336
f 95 337 90
f 90 338 107
f 313 322 339
f 301 339 328
f 94 340 95
f 85 341 323
f 287 342 290
f 343 249 250
f 250 344 343
f 139 345 137
f 139 346 347
f 348 231 237
f 237 349 348
f 350 220 222
f 222 351 350
f 219 352 217
f 228 353 219
f 354 209 211
f 217 355 269
f 356 240 235
f 235 357 356
f 358 228 230
f 230 359 358
f 360 243 246
f 246 345 360
f 361 140 208
f 208 362 361
f 22 120 125
f 125 27 22
f 363 13 364
f 363 18 20
f 364 15 365
f 121 9 366
f 121 4 5
f 117 4 124
f 117 25 1
f 367 160 368
f 369 156 370
f 370 158 367
f 154 371 372
f 373 374 133
f 133 375 373
f 375 128 376
f 376 130 369
f 257 377 193
f 193 378 266
f 262 379 380
f 380 189 262
f 189 381 187
f 187 382 258
f 263 383 196
f 196 384 257
f 185 385 386
f 386 170 185
f 175 387 388
f 202 385 204
f 178 389 260
f 260 387 390
f 170 391 264
f 264 392 263
f 254 393 394
f 394 251 254
f 266 395 255
f 255 393 167
f 202 388 396
f 269 354 211
f 211 397 269
f 200 146 151
f 390 177 261
f 151 148 149
f 44 14 45
f 15 43 16
f 355 45 354
f 55 351 343
f 343 30 55
f 53 345 347
f 347 52 53
f 51 346 348
f 348 398 51
f 47 359 350
f 350 58 47
f 353 42 352
f 399 46 353
f 354 38 357
f 352 44 355
f 39 400 356
f 356 38 39
f 358 37 399
f 358 50 33
f 31 362 360
f 360 54 31
f 29 344 361
f 361 32 29
f 396 201 200
f 384 267 377
f 377 166 378
f 380 174 233
f 380 227 401
f 401 226 381
f 381 225 382
f 392 212 383
f 383 214 384
f 386 199 206
f 206 402 386
f 388 190 201
f 200 385 396
f 389 403 191
f 191 387 389
f 391 205 183
f 183 392 391
f 394 165 173
f 173 379 394
f 378 164 395
f 395 165 393
f 1 25 2
f 3 6 4
f 5 4 6
f 5 7 8
f 10 17 11
f 13 21 14
f 16 43 17
f 18 40 19
f 20 19 21
f 22 27 23
f 24 2 25
f 26 23 27
f 29 32 23
f 26 56 30
f 31 54 2
f 24 23 32
f 33 50 34
f 33 35 36
f 38 21 19
f 39 19 40
f 42 17 43
f 45 14 21
f 37 36 11
f 46 11 17
f 47 58 48
f 49 34 50
f 51 398 8
f 7 6 52
f 53 52 6
f 3 2 54
f 55 30 56
f 57 48 58
f 59 76 60
f 61 64 62
f 63 62 64
f 65 64 66
f 68 404 69
f 70 69 71
f 73 98 74
f 75 74 76
f 77 81 78
f 75 78 79
f 80 83 81
f 77 76 59
f 59 62 82
f 82 85 83
f 84 405 85
f 84 82 62
f 86 72 71
f 87 105 88
f 89 95 90
f 91 101 92
f 92 111 93
f 89 93 94
f 96 76 74
f 97 74 98
f 100 112 101
f 102 116 103
f 104 107 105
f 87 71 106
f 104 106 101
f 91 90 107
f 108 406 109
f 110 109 111
f 92 101 112
f 110 112 113
f 102 101 106
f 114 106 71
f 69 404 115
f 114 115 116
f 117 124 118
f 119 126 120
f 121 366 122
f 121 123 118
f 125 120 126
f 128 132 129
f 128 134 131
f 133 136 131
f 133 374 135
f 137 247 138
f 140 250 141
f 143 150 144
f 146 155 147
f 149 144 150
f 152 192 153
f 154 147 155
f 156 159 157
f 130 129 159
f 160 163 161
f 158 157 163
f 164 163 157
f 166 161 163
f 167 254 168
f 170 264 171
f 173 159 129
f 165 157 159
f 175 202 176
f 178 260 179
f 181 215 182
f 183 205 184
f 185 170 172
f 187 259 188
f 152 155 190
f 191 403 192
f 193 266 194
f 196 257 197
f 151 150 199
f 201 190 155
f 202 204 203
f 204 185 186
f 143 184 205
f 206 199 150
f 140 142 207
f 209 236 210
f 212 216 213
f 212 182 215
f 217 270 218
f 220 239 221
f 162 161 223
f 136 135 225
f 227 131 136
f 228 234 229
f 231 139 138
f 233 132 131
f 174 129 132
f 219 218 234
f 235 241 236
f 237 231 232
f 230 229 239
f 240 407 241
f 208 207 242
f 244 237 238
f 246 248 247
f 243 242 248
f 249 268 141
f 251 262 252
f 254 251 253
f 255 167 169
f 257 193 195
f 258 408 259
f 260 390 261
f 189 188 252
f 263 265 171
f 196 198 265
f 266 255 256
f 267 223 161
f 214 213 223
f 222 221 268
f 269 397 270
f 271 286 272
f 273 272 274
f 275 274 276
f 277 409 278
f 279 283 280
f 282 297 283
f 284 98 73
f 285 288 286
f 287 290 288
f 285 73 79
f 289 288 290
f 272 286 288
f 289 292 274
f 291 294 292
f 293 292 294
f 276 274 292
f 296 299 297
f 298 312 299
f 300 304 301
f 303 315 304
f 93 111 303
f 302 94 93
f 284 286 305
f 306 99 98
f 307 315 308
f 310 321 307
f 311 299 312
f 314 297 299
f 311 304 315
f 313 301 304
f 109 406 316
f 317 303 111
f 308 315 303
f 317 316 318
f 314 315 307
f 319 283 297
f 320 280 283
f 319 307 321
f 298 410 322
f 83 85 323
f 287 79 325
f 291 330 327
f 302 301 328
f 290 342 330
f 78 81 331
f 81 83 324
f 79 78 332
f 107 338 333
f 294 327 334
f 94 302 329
f 88 105 333
f 95 340 337
f 90 337 338
f 313 312 322
f 301 313 339
f 94 335 340
f 85 405 341
f 287 326 342
f 343 351 249
f 250 140 344
f 139 347 345
f 139 231 346
f 348 346 231
f 237 244 349
f 350 359 220
f 222 249 351
f 219 353 352
f 228 399 353
f 354 357 209
f 217 352 355
f 356 400 240
f 235 209 357
f 358 399 228
f 230 220 359
f 360 362 243
f 246 137 345
f 361 344 140
f 208 243 362
f 22 25 120
f 125 411 27
f 363 20 13
f 363 412 18
f 364 13 15
f 121 5 9
f 121 124 4
f 117 1 4
f 117 120 25
f 367 158 160
f 369 130 156
f 370 156 158
f 154 153 371
f 373 413 374
f 133 134 375
f 375 134 128
f 376 128 130
f 257 384 377
f 193 377 378
f 262 251 379
f 380 401 189
f 189 401 381
f 187 381 382
f 263 392 383
f 196 383 384
f 185 204 385
f 386 402 170
f 175 390 387
f 202 396 385
f 178 414 389
f 260 389 387
f 170 402 391
f 264 391 392
f 254 167 393
f 394 379 251
f 266 378 395
f 255 395 393
f 202 175 388
f 269 355 354
f 211 210 397
f 200 201 146
f 390 175 177
f 151 146 148
f 44 43 14
f 15 14 43
f 355 44 45
f 55 58 351
f 343 344 30
f 53 54 345
f 347 346 52
f 51 52 346
f 348 349 398
f 47 50 359
f 350 351 58
f 353 46 42
f 399 37 46
f 354 45 38
f 352 42 44
f 39 41 400
f 356 357 38
f 358 33 37
f 358 359 50
f 31 32 362
f 360 345 54
f 29 30 344
f 361 362 32
f 396 388 201
f 384 214 267
f 377 267 166
f 380 379 174
f 380 233 227
f 401 227 226
f 381 226 225
f 392 182 212
f 383 212 214
f 386 385 199
f 206 205 402
f 388 387 190
f 200 199 385
f 389 414 403
f 191 190 387
f 391 402 205
f 183 182 392
f 394 393 165
f 173 174 379
f 378 166 164
f 395 164 165

