# https://github.com/mikedh/trimesh

o aws_robomaker_warehouse_ShelfD_01_visual-lib
v -1.49999977 -0.32528524 0.10402816
v -1.49993619 -0.34995674 0.00000000
v -1.50000000 -0.34999997 0.10402816
v -1.49993619 -0.32532844 0.00000000
v -1.49993619 -0.34995674 0.00000000
v -1.45778211 -0.35000000 0.10402816
v -1.50000000 -0.34999997 0.10402816
v -1.45784592 -0.34995668 0.00000000
v -1.45778211 -0.35000000 0.10402816
v -1.45784592 -0.34995668 0.00000000
v -1.45778223 -0.32528521 0.10402816
v -1.45784592 -0.32532844 0.00000000
v -1.45784592 -0.32532844 0.00000000
v -1.49999977 -0.32528524 0.10402816
v -1.45778223 -0.32528521 0.10402816
v -1.49993619 -0.32532844 0.00000000
v -1.49617236 -0.32740080 0.10497400
v -1.50000000 -0.34999997 0.10402816
v -1.49617236 -0.34788438 0.10497400
v -1.49999977 -0.32528524 0.10402816
v -1.45778211 -0.35000000 0.10402816
v -1.49617236 -0.34788438 0.10497400
v -1.50000000 -0.34999997 0.10402816
v -1.46160975 -0.34788438 0.10497400
v -1.45778223 -0.32528521 0.10402816
v -1.46160975 -0.34788438 0.10497400
v -1.45778211 -0.35000000 0.10402816
v -1.46160975 -0.32740077 0.10497400
v -1.49999977 -0.32528524 0.10402816
v -1.46160975 -0.32740077 0.10497400
v -1.45778223 -0.32528521 0.10402816
v -1.49617236 -0.32740080 0.10497400
v -1.49600127 -0.32749516 2.40000000
v -1.49617236 -0.34788438 0.10497400
v -1.49600127 -0.34779005 2.40000000
v -1.49617236 -0.32740080 0.10497400
v -1.49600127 -0.34779005 2.40000000
v -1.46160975 -0.34788438 0.10497400
v -1.46177990 -0.34779005 2.40000000
v -1.49617236 -0.34788438 0.10497400
v -1.46177990 -0.34779005 2.40000000
v -1.46160975 -0.34788438 0.10497400
v -1.46177990 -0.32749516 2.40000000
v -1.46160975 -0.32740077 0.10497400
v -1.46177990 -0.32749516 2.40000000
v -1.46160975 -0.32740077 0.10497400
v -1.49600127 -0.32749516 2.40000000
v -1.49617236 -0.32740080 0.10497400
v -1.49600127 -0.32749516 2.40000000
v -1.46177990 -0.34779005 2.40000000
v -1.46177990 -0.32749516 2.40000000
v -1.49600127 -0.34779005 2.40000000
v 1.45778164 0.34431404 0.10402816
v 1.45784557 0.31964255 0.00000000
v 1.45778164 0.31959922 0.10402816
v 1.45784557 0.34427078 0.00000000
v 1.45778164 0.31959922 0.10402816
v 1.45784557 0.31964255 0.00000000
v 1.49999977 0.31959925 0.10402816
v 1.49993584 0.31964251 0.00000000
v 1.49999977 0.31959925 0.10402816
v 1.49993584 0.31964251 0.00000000
v 1.49999977 0.34431407 0.10402816
v 1.49993584 0.34427081 0.00000000
v 1.49999977 0.34431407 0.10402816
v 1.45784557 0.34427078 0.00000000
v 1.45778164 0.34431404 0.10402816
v 1.49993584 0.34427081 0.00000000
v 1.45778164 0.34431404 0.10402816
v 1.46160929 0.32171487 0.10497400
v 1.46160929 0.34219851 0.10497400
v 1.45778164 0.31959922 0.10402816
v 1.49999977 0.31959925 0.10402816
v 1.46160929 0.32171487 0.10497400
v 1.45778164 0.31959922 0.10402816
v 1.49617236 0.32171493 0.10497400
v 1.49999977 0.34431407 0.10402816
v 1.49617236 0.32171493 0.10497400
v 1.49999977 0.31959925 0.10402816
v 1.49617236 0.34219854 0.10497400
v 1.49999977 0.34431407 0.10402816
v 1.45778164 0.34431404 0.10402816
v 1.46160929 0.34219851 0.10497400
v 1.49617236 0.34219854 0.10497400
v 1.46178002 0.34210425 2.40000000
v 1.46160929 0.34219851 0.10497400
v 1.46178002 0.32180929 2.40000000
v 1.46160929 0.32171487 0.10497400
v 1.46178002 0.32180929 2.40000000
v 1.46160929 0.32171487 0.10497400
v 1.49600127 0.32180932 2.40000000
v 1.49617236 0.32171493 0.10497400
v 1.49600127 0.32180932 2.40000000
v 1.49617236 0.34219854 0.10497400
v 1.49600139 0.34210425 2.40000000
v 1.49617236 0.32171493 0.10497400
v 1.49600139 0.34210425 2.40000000
v 1.46160929 0.34219851 0.10497400
v 1.46178002 0.34210425 2.40000000
v 1.49617236 0.34219854 0.10497400
v 1.46178002 0.34210425 2.40000000
v 1.49600127 0.32180932 2.40000000
v 1.49600139 0.34210425 2.40000000
v 1.46178002 0.32180929 2.40000000
v -1.49999977 0.34431307 0.10402816
v -1.49993619 0.31964157 0.00000000
v -1.50000000 0.31959825 0.10402816
v -1.49993619 0.34426981 0.00000000
v -1.49993619 0.31964157 0.00000000
v -1.45778211 0.31959828 0.10402816
v -1.50000000 0.31959825 0.10402816
v -1.45784592 0.31964154 0.00000000
v -1.45778211 0.31959828 0.10402816
v -1.45784592 0.31964154 0.00000000
v -1.45778223 0.34431310 0.10402816
v -1.45784592 0.34426984 0.00000000
v -1.45784592 0.34426984 0.00000000
v -1.49999977 0.34431307 0.10402816
v -1.45778223 0.34431310 0.10402816
v -1.49993619 0.34426981 0.00000000
v -1.49999977 0.34431307 0.10402816
v -1.49617236 0.32171390 0.10497400
v -1.49617236 0.34219754 0.10497400
v -1.50000000 0.31959825 0.10402816
v -1.45778211 0.31959828 0.10402816
v -1.49617236 0.32171390 0.10497400
v -1.50000000 0.31959825 0.10402816
v -1.46160975 0.32171396 0.10497400
v -1.45778223 0.34431310 0.10402816
v -1.46160975 0.32171396 0.10497400
v -1.45778211 0.31959828 0.10402816
v -1.46160975 0.34219757 0.10497400
v -1.49999977 0.34431307 0.10402816
v -1.46160975 0.34219757 0.10497400
v -1.45778223 0.34431310 0.10402816
v -1.49617236 0.34219754 0.10497400
v -1.49600127 0.34210327 2.40000000
v -1.49617236 0.34219754 0.10497400
v -1.49600127 0.32180832 2.40000000
v -1.49617236 0.32171390 0.10497400
v -1.49600127 0.32180832 2.40000000
v -1.46160975 0.32171396 0.10497400
v -1.46177990 0.32180835 2.40000000
v -1.49617236 0.32171390 0.10497400
v -1.46177990 0.32180835 2.40000000
v -1.46160975 0.34219757 0.10497400
v -1.46177990 0.34210327 2.40000000
v -1.46160975 0.32171396 0.10497400
v -1.46177990 0.34210327 2.40000000
v -1.46160975 0.34219757 0.10497400
v -1.49600127 0.34210327 2.40000000
v -1.49617236 0.34219754 0.10497400
v -1.49600127 0.34210327 2.40000000
v -1.46177990 0.32180835 2.40000000
v -1.46177990 0.34210327 2.40000000
v -1.49600127 0.32180832 2.40000000
v -0.01033478 0.34431356 0.10402816
v -0.01027105 0.31964206 0.00000000
v -0.01033478 0.31959874 0.10402816
v -0.01027105 0.34427029 0.00000000
v -0.01033478 0.31959874 0.10402816
v 0.03181921 0.31964203 0.00000000
v 0.03188301 0.31959877 0.10402816
v -0.01027105 0.31964206 0.00000000
v 0.03188301 0.31959877 0.10402816
v 0.03181921 0.31964203 0.00000000
v 0.03188301 0.34431359 0.10402816
v 0.03181921 0.34427032 0.00000000
v 0.03188301 0.34431359 0.10402816
v 0.03181921 0.34427032 0.00000000
v -0.01033478 0.34431356 0.10402816
v -0.01027105 0.34427029 0.00000000
v -0.01033478 0.34431356 0.10402816
v -0.00650733 0.32171439 0.10497400
v -0.00650733 0.34219803 0.10497400
v -0.01033478 0.31959874 0.10402816
v 0.03188301 0.31959877 0.10402816
v -0.00650733 0.32171439 0.10497400
v -0.01033478 0.31959874 0.10402816
v 0.02805563 0.32171445 0.10497400
v 0.03188301 0.34431359 0.10402816
v 0.02805563 0.32171445 0.10497400
v 0.03188301 0.31959877 0.10402816
v 0.02805563 0.34219806 0.10497400
v 0.03188301 0.34431359 0.10402816
v -0.01033478 0.34431356 0.10402816
v -0.00650733 0.34219803 0.10497400
v 0.02805563 0.34219806 0.10497400
v -0.00633675 0.34210379 2.40000000
v -0.00650733 0.34219803 0.10497400
v -0.00633642 0.32180881 2.40000000
v -0.00650733 0.32171439 0.10497400
v -0.00633642 0.32180881 2.40000000
v 0.02805563 0.32171445 0.10497400
v 0.02788509 0.32180884 2.40000000
v -0.00650733 0.32171439 0.10497400
v 0.02788509 0.32180884 2.40000000
v 0.02805563 0.34219806 0.10497400
v 0.02788478 0.34210379 2.40000000
v 0.02805563 0.32171445 0.10497400
v 0.02788478 0.34210379 2.40000000
v -0.00650733 0.34219803 0.10497400
v -0.00633675 0.34210379 2.40000000
v 0.02805563 0.34219806 0.10497400
v 0.02788478 0.34210379 2.40000000
v -0.00633642 0.32180881 2.40000000
v 0.02788509 0.32180884 2.40000000
v -0.00633675 0.34210379 2.40000000
v -0.01033454 -0.32528476 0.10402816
v -0.01027082 -0.34995625 0.00000000
v -0.01033454 -0.34999948 0.10402816
v -0.01027082 -0.32532796 0.00000000
v -0.01033454 -0.34999948 0.10402816
v 0.03181944 -0.34995619 0.00000000
v 0.03188323 -0.34999951 0.10402816
v -0.01027082 -0.34995625 0.00000000
v 0.03188323 -0.34999951 0.10402816
v 0.03181944 -0.34995619 0.00000000
v 0.03188323 -0.32528472 0.10402816
v 0.03181944 -0.32532796 0.00000000
v 0.03188323 -0.32528472 0.10402816
v 0.03181944 -0.32532796 0.00000000
v -0.01033454 -0.32528476 0.10402816
v -0.01027082 -0.32532796 0.00000000
v -0.01033454 -0.32528476 0.10402816
v -0.00650710 -0.34788389 0.10497400
v -0.00650710 -0.32740031 0.10497400
v -0.01033454 -0.34999948 0.10402816
v 0.03188323 -0.34999951 0.10402816
v -0.00650710 -0.34788389 0.10497400
v -0.01033454 -0.34999948 0.10402816
v 0.02805586 -0.34788389 0.10497400
v 0.03188323 -0.32528472 0.10402816
v 0.02805586 -0.34788389 0.10497400
v 0.03188323 -0.34999951 0.10402816
v 0.02805586 -0.32740028 0.10497400
v 0.03188323 -0.32528472 0.10402816
v -0.01033454 -0.32528476 0.10402816
v -0.00650710 -0.32740031 0.10497400
v 0.02805586 -0.32740028 0.10497400
v -0.00633619 -0.32749467 2.40000000
v -0.00650710 -0.34788389 0.10497400
v -0.00633608 -0.34778957 2.40000000
v -0.00650710 -0.32740031 0.10497400
v -0.00633608 -0.34778957 2.40000000
v 0.02805586 -0.34788389 0.10497400
v 0.02788547 -0.34778954 2.40000000
v -0.00650710 -0.34788389 0.10497400
v 0.02788547 -0.34778954 2.40000000
v 0.02805586 -0.32740028 0.10497400
v 0.02788532 -0.32749461 2.40000000
v 0.02805586 -0.34788389 0.10497400
v 0.02788532 -0.32749461 2.40000000
v 0.02805586 -0.32740028 0.10497400
v -0.00633619 -0.32749467 2.40000000
v -0.00650710 -0.32740031 0.10497400
v 0.02788532 -0.32749461 2.40000000
v -0.00633608 -0.34778957 2.40000000
v 0.02788547 -0.34778954 2.40000000
v -0.00633619 -0.32749467 2.40000000
v 1.45778211 -0.32528427 0.10402816
v 1.45784580 -0.34995577 0.00000000
v 1.45778199 -0.34999900 0.10402816
v 1.45784592 -0.32532747 0.00000000
v 1.45778199 -0.34999900 0.10402816
v 1.49993608 -0.34995571 0.00000000
v 1.50000000 -0.34999903 0.10402816
v 1.45784580 -0.34995577 0.00000000
v 1.50000000 -0.34999903 0.10402816
v 1.49993608 -0.34995571 0.00000000
v 1.49999988 -0.32528424 0.10402816
v 1.49993608 -0.32532747 0.00000000
v 1.49999988 -0.32528424 0.10402816
v 1.45784592 -0.32532747 0.00000000
v 1.45778211 -0.32528427 0.10402816
v 1.49993608 -0.32532747 0.00000000
v 1.45778211 -0.32528427 0.10402816
v 1.46160952 -0.34788341 0.10497400
v 1.46160964 -0.32739983 0.10497400
v 1.45778199 -0.34999900 0.10402816
v 1.50000000 -0.34999903 0.10402816
v 1.46160952 -0.34788341 0.10497400
v 1.45778199 -0.34999900 0.10402816
v 1.49617247 -0.34788341 0.10497400
v 1.49999988 -0.32528424 0.10402816
v 1.49617247 -0.34788341 0.10497400
v 1.50000000 -0.34999903 0.10402816
v 1.49617247 -0.32739980 0.10497400
v 1.49999988 -0.32528424 0.10402816
v 1.45778211 -0.32528427 0.10402816
v 1.46160964 -0.32739983 0.10497400
v 1.49617247 -0.32739980 0.10497400
v 1.46178014 -0.32749419 2.40000000
v 1.46160952 -0.34788341 0.10497400
v 1.46178025 -0.34778908 2.40000000
v 1.46160964 -0.32739983 0.10497400
v 1.46178025 -0.34778908 2.40000000
v 1.46160952 -0.34788341 0.10497400
v 1.49600162 -0.34778908 2.40000000
v 1.49617247 -0.34788341 0.10497400
v 1.49600162 -0.34778908 2.40000000
v 1.49617247 -0.34788341 0.10497400
v 1.49600151 -0.32749419 2.40000000
v 1.49617247 -0.32739980 0.10497400
v 1.49600151 -0.32749419 2.40000000
v 1.46160964 -0.32739983 0.10497400
v 1.46178014 -0.32749419 2.40000000
v 1.49617247 -0.32739980 0.10497400
v 1.49600151 -0.32749419 2.40000000
v 1.46178025 -0.34778908 2.40000000
v 1.49600162 -0.34778908 2.40000000
v 1.46178014 -0.32749419 2.40000000
v -1.49586864 0.32174887 0.60913901
v -1.49586887 -0.32735736 0.08942448
v -1.49586887 -0.32735726 0.12784029
v -1.46191324 -0.32735723 0.12784025
v -1.46191312 0.32174891 0.64755485
v -1.49586864 0.32174887 0.64755485
v -1.49586887 -0.32735726 0.12784029
v -1.46191324 -0.32735723 0.12784025
v -1.46191312 0.32174891 0.64755485
v -1.46191324 -0.32735723 0.12784025
v -1.46191324 0.32174891 0.60913901
v -1.46191312 -0.32735732 0.08942448
v -1.46191312 -0.32735732 0.08942448
v -1.49586864 0.32174887 0.60913901
v -1.46191324 0.32174891 0.60913901
v -1.49586887 -0.32735736 0.08942448
v -1.49586922 -0.32784393 1.32730892
v -1.49586934 0.32174860 1.79242069
v -1.49586934 -0.32784393 1.29749073
v -1.49586934 0.32174869 1.83079281
v -1.49586934 0.32174869 1.83079281
v -1.46191347 -0.32784390 1.32730878
v -1.46191371 0.32174872 1.83079281
v -1.49586922 -0.32784393 1.32730892
v -1.46191347 -0.32784390 1.29749073
v -1.46191371 0.32174863 1.79242069
v -1.46191347 -0.32784390 1.32730878
v -1.46191371 0.32174872 1.83079281
v -1.49586934 -0.32784393 1.29749073
v -1.49586934 0.32174860 1.79242069
v -1.46191347 -0.32784390 1.29749073
v -1.46191371 0.32174863 1.79242069
v -1.49586864 0.32174887 0.70851654
v -1.49586887 -0.32735726 1.19798846
v -1.49586864 0.32174887 0.74693252
v -1.49586887 -0.32735732 1.23640416
v -1.49586887 -0.32735726 1.19798846
v -1.49586864 0.32174887 0.70851654
v -1.46191324 -0.32735723 1.19798860
v -1.46191312 0.32174891 0.70851654
v -1.46191324 0.32174891 0.74693252
v -1.46191324 -0.32735723 1.19798860
v -1.46191312 0.32174891 0.70851654
v -1.46191312 -0.32735726 1.23640416
v -1.49586864 0.32174887 0.74693252
v -1.46191312 -0.32735726 1.23640416
v -1.46191324 0.32174891 0.74693252
v -1.49586887 -0.32735732 1.23640416
v 1.46143937 0.32175073 0.60913901
v 1.46143937 -0.32735566 0.08942449
v 1.46143937 -0.32735556 0.12784029
v 1.49539512 -0.32735541 0.12784025
v 1.49539500 0.32175088 0.64755485
v 1.46143937 0.32175073 0.64755485
v 1.46143937 -0.32735556 0.12784029
v 1.49539512 -0.32735541 0.12784025
v 1.49539500 0.32175088 0.64755485
v 1.49539512 -0.32735541 0.12784025
v 1.49539500 0.32175088 0.60913901
v 1.49539512 -0.32735550 0.08942449
v 1.49539512 -0.32735550 0.08942449
v 1.46143937 0.32175073 0.60913901
v 1.49539500 0.32175088 0.60913901
v 1.46143937 -0.32735566 0.08942449
v 1.46143961 -0.32784223 1.32730892
v 1.46143925 0.32175042 1.79242069
v 1.46143961 -0.32784223 1.29749073
v 1.46143914 0.32175054 1.83079281
v 1.46143914 0.32175054 1.83079281
v 1.49539524 -0.32784211 1.32730878
v 1.49539500 0.32175064 1.83079281
v 1.46143961 -0.32784223 1.32730892
v 1.49539535 -0.32784211 1.29749073
v 1.49539500 0.32175054 1.79242069
v 1.49539524 -0.32784211 1.32730878
v 1.49539500 0.32175064 1.83079281
v 1.46143961 -0.32784223 1.29749073
v 1.46143925 0.32175042 1.79242069
v 1.49539535 -0.32784211 1.29749073
v 1.49539500 0.32175054 1.79242069
v 1.46143961 0.32175073 0.70851654
v 1.46143949 -0.32735556 1.19798846
v 1.46143961 0.32175073 0.74693231
v 1.46143949 -0.32735562 1.23640402
v 1.46143949 -0.32735556 1.19798846
v 1.46143961 0.32175073 0.70851654
v 1.49539524 -0.32735541 1.19798846
v 1.49539512 0.32175088 0.70851654
v 1.49539512 0.32175088 0.74693231
v 1.49539524 -0.32735541 1.19798846
v 1.49539512 0.32175088 0.70851654
v 1.49539524 -0.32735547 1.23640402
v 1.46143961 0.32175073 0.74693231
v 1.49539524 -0.32735547 1.23640402
v 1.49539512 0.32175088 0.74693231
v 1.46143949 -0.32735562 1.23640402
v -0.00772043 0.32175067 0.60913901
v -0.00772041 -0.32735575 0.08942449
v -0.00772041 -0.32735569 0.12784029
v 0.02623537 -0.32735553 0.12784025
v 0.02623511 0.32175085 0.64755485
v -0.00772043 0.32175067 0.64755485
v -0.00772043 0.32175067 0.60913901
v -0.00772041 -0.32735569 0.12784029
v 0.02623537 -0.32735553 0.12784025
v 0.02623511 0.32175085 0.64755485
v 0.02623537 -0.32735553 0.12784025
v 0.02623511 0.32175085 0.60913901
v 0.02623537 -0.32735559 0.08942449
v 0.02623537 -0.32735559 0.08942449
v -0.00772043 0.32175067 0.60913901
v 0.02623511 0.32175085 0.60913901
v -0.00772041 -0.32735575 0.08942449
v -0.00772023 -0.32784235 1.32730892
v -0.00772067 0.32175039 1.79242069
v -0.00772023 -0.32784235 1.29749073
v -0.00772067 0.32175045 1.83079281
v -0.00772067 0.32175045 1.83079281
v 0.02623540 -0.32784214 1.32730878
v 0.02623513 0.32175064 1.83079281
v -0.00772023 -0.32784235 1.32730892
v 0.02623540 -0.32784214 1.29749073
v 0.02623514 0.32175054 1.79242069
v 0.02623540 -0.32784214 1.32730878
v 0.02623513 0.32175064 1.83079281
v -0.00772023 -0.32784235 1.29749073
v -0.00772067 0.32175039 1.79242069
v 0.02623540 -0.32784214 1.29749073
v 0.02623514 0.32175054 1.79242069
v -0.00772026 0.32175067 0.70851654
v -0.00772040 -0.32735569 1.19798846
v -0.00772026 0.32175067 0.74693231
v -0.00772040 -0.32735572 1.23640402
v -0.00772040 -0.32735569 1.19798846
v -0.00772026 0.32175067 0.70851654
v 0.02623534 -0.32735553 1.19798846
v 0.02623523 0.32175085 0.70851654
v 0.02623523 0.32175085 0.74693231
v 0.02623534 -0.32735553 1.19798846
v 0.02623523 0.32175085 0.70851654
v 0.02623534 -0.32735556 1.23640402
v -0.00772026 0.32175067 0.74693231
v 0.02623534 -0.32735556 1.23640402
v 0.02623523 0.32175085 0.74693231
v -0.00772040 -0.32735572 1.23640402
v 1.46074744 0.32974260 2.38229734
v 1.46074756 -0.32848774 2.35451644
v 1.46074756 -0.32848774 2.38229734
v 1.46074744 0.32974260 2.35451644
v 1.49555078 0.32974263 2.38229734
v 1.49555089 -0.32848771 2.38229734
v 1.49555089 -0.32848771 2.35451644
v 1.49555078 0.32974263 2.35451644
v 1.49555089 -0.32848771 2.35451644
v 1.46074744 0.32974260 2.35451644
v 1.49555078 0.32974263 2.35451644
v 1.46074756 -0.32848774 2.35451644
v 1.49555089 -0.32848771 2.38229734
v 1.49555078 0.32974263 2.38229734
v 1.46074744 0.32974260 2.38229734
v 1.46074756 -0.32848774 2.38229734
v -0.00685660 0.32974284 2.38229734
v -0.00685637 -0.32848753 2.35451644
v -0.00685637 -0.32848753 2.38229734
v -0.00685660 0.32974284 2.35451644
v 0.02794673 0.32974287 2.38229734
v 0.02794697 -0.32848750 2.38229734
v 0.02794697 -0.32848750 2.35451644
v 0.02794673 0.32974287 2.35451644
v 0.02794697 -0.32848750 2.35451644
v -0.00685660 0.32974284 2.35451644
v 0.02794673 0.32974287 2.35451644
v -0.00685637 -0.32848753 2.35451644
v 0.02794697 -0.32848750 2.38229734
v 0.02794673 0.32974287 2.38229734
v -0.00685660 0.32974284 2.38229734
v -0.00685637 -0.32848753 2.38229734
v -1.49704752 0.32974309 2.38229734
v -1.49704752 -0.32848725 2.35451644
v -1.49704752 -0.32848725 2.38229734
v -1.49704752 0.32974309 2.35451644
v -1.46224419 0.32974312 2.38229734
v -1.46224419 -0.32848722 2.38229734
v -1.46224419 -0.32848722 2.35451644
v -1.46224419 0.32974312 2.35451644
v -1.46224419 -0.32848722 2.35451644
v -1.49704752 0.32974309 2.35451644
v -1.46224419 0.32974312 2.35451644
v -1.49704752 -0.32848725 2.35451644
v -1.46224419 -0.32848722 2.38229734
v -1.46224419 0.32974312 2.38229734
v -1.49704752 0.32974309 2.38229734
v -1.49704752 -0.32848725 2.38229734
v -1.47380214 0.30524713 2.16996115
v 1.48139537 0.34999997 2.16996115
v 1.48139537 0.30524780 2.16996115
v -1.47391269 0.34995209 2.17005211
v 1.48139537 0.35000000 2.22402597
v -1.47380214 0.30524713 2.22402597
v 1.48145707 0.30522415 2.22397999
v -1.47374675 0.34995209 2.22411791
v -1.47374675 0.34995209 2.22411791
v -1.47391269 0.34995209 2.17005211
v -1.47380214 0.30524713 2.22402597
v -1.47380214 0.30524713 2.16996115
v 1.48145707 0.30522415 2.22397999
v -1.47380214 0.30524713 2.22402597
v -1.47380214 0.30524713 2.16996115
v 1.48139537 0.30524780 2.16996115
v 1.48145707 0.30522415 2.22397999
v 1.48139537 0.30524780 2.16996115
v 1.48139537 0.35000000 2.22402597
v 1.48139537 0.34999997 2.16996115
v -1.47374675 0.34995209 2.22411791
v 1.48139537 0.35000000 2.22402597
v 1.48139537 0.34999997 2.16996115
v -1.47391269 0.34995209 2.17005211
v 1.48126285 -0.33574406 1.24013354
v -1.47351805 -0.33574633 1.24013340
v -1.47351805 0.32717025 1.24013340
v 1.48126250 0.32717246 1.24013354
v -1.47351805 0.32717028 1.29418700
v 1.48126285 -0.33574406 1.29418714
v 1.48126250 0.32717246 1.29418700
v -1.47351805 -0.33574633 1.29418700
v -1.47351805 -0.33574633 1.29418700
v -1.47351805 0.32717028 1.29418700
v -1.47351805 0.32717025 1.24013340
v -1.47351805 -0.33574633 1.24013340
v -1.47351805 -0.33574633 1.29418700
v 1.48126285 -0.33574406 1.24013354
v 1.48126285 -0.33574406 1.29418714
v -1.47351805 -0.33574633 1.24013340
v 1.48126250 0.32717246 1.29418700
v 1.48126285 -0.33574406 1.29418714
v 1.48126285 -0.33574406 1.24013354
v 1.48126250 0.32717246 1.24013354
v -1.47351805 0.32717028 1.29418700
v 1.48126250 0.32717246 1.29418700
v 1.48126250 0.32717246 1.24013354
v -1.47351805 0.32717025 1.24013340
v 1.48126285 -0.33574406 0.65122123
v -1.47351805 -0.33574633 0.65122123
v -1.47351805 0.32717025 0.65122116
v 1.48126250 0.32717246 0.65122123
v -1.47351805 0.32717028 0.70527469
v 1.48126285 -0.33574406 0.70527483
v 1.48126250 0.32717246 0.70527490
v -1.47351805 -0.33574633 0.70527476
v -1.47351805 0.32717025 0.65122116
v -1.47351805 -0.33574633 0.70527476
v -1.47351805 0.32717028 0.70527469
v -1.47351805 -0.33574633 0.65122123
v -1.47351805 -0.33574633 0.70527476
v 1.48126285 -0.33574406 0.65122123
v 1.48126285 -0.33574406 0.70527483
v -1.47351805 -0.33574633 0.65122123
v 1.48126285 -0.33574406 0.70527483
v 1.48126250 0.32717246 0.65122123
v 1.48126250 0.32717246 0.70527490
v 1.48126285 -0.33574406 0.65122123
v -1.47351805 0.32717028 0.70527469
v 1.48126250 0.32717246 0.70527490
v 1.48126250 0.32717246 0.65122123
v -1.47351805 0.32717025 0.65122116
v 1.48126285 -0.33574406 1.80912896
v -1.47351805 -0.33574633 1.80912896
v -1.47351805 0.32717025 1.80912896
v 1.48126250 0.32717253 1.80912896
v -1.47351805 0.32717028 1.86318242
v 1.48126285 -0.33574406 1.86318242
v 1.48126250 0.32717253 1.86318242
v -1.47351805 -0.33574630 1.86318242
v -1.47351805 -0.33574630 1.86318242
v -1.47351805 0.32717028 1.86318242
v -1.47351805 0.32717025 1.80912896
v -1.47351805 -0.33574633 1.80912896
v 1.48126285 -0.33574406 1.86318242
v -1.47351805 -0.33574630 1.86318242
v -1.47351805 -0.33574633 1.80912896
v 1.48126285 -0.33574406 1.80912896
v 1.48126250 0.32717253 1.86318242
v 1.48126285 -0.33574406 1.86318242
v 1.48126285 -0.33574406 1.80912896
v 1.48126250 0.32717253 1.80912896
v -1.47351805 0.32717028 1.86318242
v 1.48126250 0.32717253 1.86318242
v 1.48126250 0.32717253 1.80912896
v -1.47351805 0.32717025 1.80912896
v 1.46143937 -0.32735556 0.12784029
v 1.46143937 0.32175073 0.64755485
v 1.46143937 0.32175073 0.60913901
v 1.46143937 -0.32735556 0.12784029
v -1.49586887 -0.32735726 0.12784029
v -1.49586864 0.32174887 0.64755485
v -1.49586864 0.32174887 0.60913901
v -1.49586887 -0.32735726 0.12784029
f 1 2 3
f 2 1 4
f 5 6 7
f 6 5 8
f 9 10 11
f 11 10 12
f 13 14 15
f 14 13 16
f 17 18 19
f 18 17 20
f 21 22 23
f 22 21 24
f 25 26 27
f 26 25 28
f 29 30 31
f 30 29 32
f 33 34 35
f 34 33 36
f 37 38 39
f 38 37 40
f 41 42 43
f 43 42 44
f 45 46 47
f 47 46 48
f 49 50 51
f 50 49 52
f 53 54 55
f 54 53 56
f 57 58 59
f 59 58 60
f 61 62 63
f 63 62 64
f 65 66 67
f 66 65 68
f 69 70 71
f 69 72 70
f 73 74 75
f 74 73 76
f 77 78 79
f 78 77 80
f 81 82 83
f 81 83 84
f 85 86 87
f 87 86 88
f 89 90 91
f 91 90 92
f 93 94 95
f 94 93 96
f 97 98 99
f 98 97 100
f 101 102 103
f 102 101 104
f 105 106 107
f 106 105 108
f 109 110 111
f 110 109 112
f 113 114 115
f 115 114 116
f 117 118 119
f 118 117 120
f 121 122 123
f 121 124 122
f 125 126 127
f 126 125 128
f 129 130 131
f 130 129 132
f 133 134 135
f 134 133 136
f 137 138 139
f 139 138 140
f 141 142 143
f 142 141 144
f 145 146 147
f 146 145 148
f 149 150 151
f 151 150 152
f 153 154 155
f 154 153 156
f 157 158 159
f 158 157 160
f 161 162 163
f 162 161 164
f 165 166 167
f 167 166 168
f 169 170 171
f 171 170 172
f 173 174 175
f 173 176 174
f 177 178 179
f 178 177 180
f 181 182 183
f 182 181 184
f 185 186 187
f 185 187 188
f 189 190 191
f 191 190 192
f 193 194 195
f 194 193 196
f 197 198 199
f 198 197 200
f 201 202 203
f 202 201 204
f 205 206 207
f 206 205 208
f 209 210 211
f 210 209 212
f 213 214 215
f 214 213 216
f 217 218 219
f 219 218 220
f 221 222 223
f 223 222 224
f 225 226 227
f 225 228 226
f 229 230 231
f 230 229 232
f 233 234 235
f 234 233 236
f 237 238 239
f 237 239 240
f 241 242 243
f 242 241 244
f 245 246 247
f 246 245 248
f 249 250 251
f 250 249 252
f 253 254 255
f 255 254 256
f 257 258 259
f 258 257 260
f 261 262 263
f 262 261 264
f 265 266 267
f 266 265 268
f 269 270 271
f 271 270 272
f 273 274 275
f 274 273 276
f 277 278 279
f 277 280 278
f 281 282 283
f 282 281 284
f 285 286 287
f 286 285 288
f 289 290 291
f 289 291 292
f 293 294 295
f 294 293 296
f 297 298 299
f 299 298 300
f 301 302 303
f 303 302 304
f 305 306 307
f 306 305 308
f 309 310 311
f 310 309 312
f 313 314 315
f 316 317 318
f 318 319 320
f 321 322 323
f 324 323 322
f 325 326 327
f 326 325 328
f 329 330 331
f 329 332 330
f 333 334 335
f 334 333 336
f 337 338 339
f 340 339 338
f 341 342 343
f 343 342 344
f 345 346 347
f 348 347 346
f 349 350 351
f 351 350 352
f 353 354 355
f 353 356 354
f 357 358 359
f 358 357 360
f 361 362 363
f 364 365 366
f 366 367 368
f 369 370 371
f 372 371 370
f 373 374 375
f 374 373 376
f 377 378 379
f 377 380 378
f 381 382 383
f 382 381 384
f 385 386 387
f 388 387 386
f 389 390 391
f 391 390 392
f 393 394 395
f 396 395 394
f 397 398 399
f 399 398 400
f 401 402 403
f 401 404 402
f 405 406 407
f 406 405 408
f 409 410 411
f 412 413 414
f 415 416 414
f 414 416 417
f 418 419 420
f 421 420 419
f 422 423 424
f 423 422 425
f 426 427 428
f 426 429 427
f 430 431 432
f 431 430 433
f 434 435 436
f 437 436 435
f 438 439 440
f 440 439 441
f 442 443 444
f 445 444 443
f 446 447 448
f 448 447 449
f 450 451 452
f 450 453 451
f 454 455 456
f 455 454 457
f 458 459 460
f 459 458 461
f 462 463 464
f 462 464 465
f 466 467 468
f 467 466 469
f 470 471 472
f 472 473 470
f 474 475 476
f 475 474 477
f 478 479 480
f 478 480 481
f 482 483 484
f 483 482 485
f 486 487 488
f 488 489 486
f 490 491 492
f 491 490 493
f 494 495 496
f 494 496 497
f 498 499 500
f 499 498 501
f 502 503 504
f 504 505 502
f 506 507 508
f 507 506 509
f 510 511 512
f 511 510 513
f 514 515 516
f 516 515 517
f 518 519 520
f 518 520 521
f 522 523 524
f 524 523 525
f 526 527 528
f 526 528 529
f 530 531 532
f 530 532 533
f 534 535 536
f 535 534 537
f 538 539 540
f 538 540 541
f 542 543 544
f 543 542 545
f 546 547 548
f 546 548 549
f 550 551 552
f 550 552 553
f 554 555 556
f 554 556 557
f 558 559 560
f 559 558 561
f 562 563 564
f 563 562 565
f 566 567 568
f 567 566 569
f 570 571 572
f 571 570 573
f 574 575 576
f 574 576 577
f 578 579 580
f 578 580 581
f 582 583 584
f 583 582 585
f 586 587 588
f 586 588 589
f 590 591 592
f 590 592 593
f 594 595 596
f 594 596 597
f 598 599 600
f 598 600 601
f 602 603 604
f 602 604 605
f 606 607 608
f 606 608 609

