# https://github.com/mikedh/trimesh

o aws_robomaker_warehouse_PalletJackB_01_visual-lib_1
v -0.52065466 -0.06059812 0.23349630
v -0.52065466 -0.08639569 0.23349630
v -0.47986182 -0.06059812 0.24068954
v -0.47986182 -0.08639569 0.24068954
v -0.55652857 -0.06059812 0.21278461
v -0.55652857 -0.08639569 0.21278461
v -0.52065466 -0.06059812 0.23349630
v -0.52065466 -0.08639569 0.23349630
v -0.55652857 -0.08639569 0.21278461
v -0.55652857 -0.06059812 0.21278461
v -0.58315374 -0.08639569 0.18105281
v -0.58315374 -0.06059812 0.18105281
v -0.58315374 -0.08639569 0.18105281
v -0.58315374 -0.06059812 0.18105281
v -0.59732143 -0.08639569 0.14212881
v -0.59732143 -0.06059812 0.14212881
v -0.59732143 -0.08639569 0.14212881
v -0.59732143 -0.06059812 0.14212881
v -0.59732143 -0.08639569 0.10070543
v -0.59732143 -0.06059812 0.10070543
v -0.59732143 -0.08639569 0.10070543
v -0.59732143 -0.06059812 0.10070543
v -0.58315374 -0.08639569 0.06178143
v -0.58315374 -0.06059812 0.06178143
v -0.58315374 -0.08639569 0.06178143
v -0.58315374 -0.06059812 0.06178143
v -0.55652857 -0.08639569 0.03004963
v -0.55652857 -0.06059812 0.03004963
v -0.52065466 -0.08639569 0.00933794
v -0.55652857 -0.08639569 0.03004963
v -0.55652857 -0.06059812 0.03004963
v -0.52065466 -0.06059812 0.00933794
v -0.47986182 -0.08639569 0.00214574
v -0.52065466 -0.08639569 0.00933794
v -0.52065466 -0.06059812 0.00933794
v -0.47986182 -0.06059812 0.00214574
v -0.43906794 -0.08639569 0.00933794
v -0.47986182 -0.08639569 0.00214574
v -0.47986182 -0.06059812 0.00214574
v -0.43906794 -0.06059812 0.00933794
v -0.40319505 -0.08639569 0.03004963
v -0.43906794 -0.08639569 0.00933794
v -0.43906794 -0.06059812 0.00933794
v -0.40319505 -0.06059812 0.03004963
v -0.40319505 -0.08639569 0.03004963
v -0.37656885 -0.06059812 0.06178143
v -0.37656885 -0.08639569 0.06178143
v -0.40319505 -0.06059812 0.03004963
v -0.36240119 -0.06059812 0.10070543
v -0.36240119 -0.08639569 0.10070543
v -0.37656885 -0.06059812 0.06178143
v -0.37656885 -0.08639569 0.06178143
v -0.36240119 -0.06059812 0.14212881
v -0.36240119 -0.08639569 0.14212881
v -0.36240119 -0.06059812 0.10070543
v -0.36240119 -0.08639569 0.10070543
v -0.37656885 -0.06059812 0.18105281
v -0.37656885 -0.08639569 0.18105281
v -0.36240119 -0.06059812 0.14212881
v -0.36240119 -0.08639569 0.14212881
v -0.37656885 -0.08639569 0.18105281
v -0.40319505 -0.06059812 0.21278461
v -0.40319505 -0.08639569 0.21278461
v -0.37656885 -0.06059812 0.18105281
v -0.40319505 -0.06059812 0.21278461
v -0.43906794 -0.06059812 0.23349630
v -0.40319505 -0.08639569 0.21278461
v -0.43906794 -0.08639569 0.23349630
v -0.43906794 -0.06059812 0.23349630
v -0.47986182 -0.06059812 0.24068954
v -0.43906794 -0.08639569 0.23349630
v -0.47986182 -0.08639569 0.24068954
v -0.52065466 -0.06059812 0.23349630
v -0.47986182 -0.06059812 0.24068954
v -0.47986077 -0.06059812 0.22952529
v -0.51727478 -0.06059812 0.22293252
v -0.44244781 -0.06059812 0.22293252
v -0.43906794 -0.06059812 0.23349630
v -0.40319505 -0.06059812 0.21278461
v -0.40966235 -0.06059812 0.20401707
v -0.37656885 -0.06059812 0.18105281
v -0.38546914 -0.06059812 0.17520883
v -0.36240119 -0.06059812 0.14212881
v -0.37266939 -0.06059812 0.14007019
v -0.36240119 -0.06059812 0.10070543
v -0.37266939 -0.06059812 0.10276405
v -0.37656885 -0.06059812 0.06178143
v -0.38547016 -0.06059812 0.06762542
v -0.40319505 -0.06059812 0.03004963
v -0.40966235 -0.06059812 0.03881718
v -0.43906794 -0.06059812 0.00933794
v -0.44244781 -0.06059812 0.01990172
v -0.47986182 -0.06059812 0.01330895
v -0.47986182 -0.06059812 0.00214574
v -0.47986182 -0.06059812 0.00214574
v -0.52065466 -0.06059812 0.00933794
v -0.47986182 -0.06059812 0.01330895
v -0.51727580 -0.06059812 0.01990172
v -0.55652857 -0.06059812 0.03004963
v -0.55006130 -0.06059812 0.03881718
v -0.57425345 -0.06059812 0.06762542
v -0.58315374 -0.06059812 0.06178143
v -0.58705422 -0.06059812 0.10276405
v -0.59732143 -0.06059812 0.10070543
v -0.59732143 -0.06059812 0.14212881
v -0.58705422 -0.06059812 0.14006916
v -0.57425345 -0.06059812 0.17520883
v -0.58315374 -0.06059812 0.18105281
v -0.55006130 -0.06059812 0.20401707
v -0.55652857 -0.06059812 0.21278461
v -0.51727478 -0.06059812 0.22293252
v -0.47986077 -0.03165402 0.22952529
v -0.51727580 -0.03165402 0.22293252
v -0.47986077 -0.06059812 0.22952529
v -0.55006025 -0.03165402 0.20401810
v -0.51727478 -0.06059812 0.22293252
v -0.51727580 -0.03165402 0.22293252
v -0.55006130 -0.06059812 0.20401707
v -0.55006025 -0.03165402 0.20401810
v -0.57425345 -0.03165402 0.17520883
v -0.55006130 -0.06059812 0.20401707
v -0.57425345 -0.06059812 0.17520883
v -0.58705422 -0.03165402 0.14007019
v -0.57425345 -0.06059812 0.17520883
v -0.57425345 -0.03165402 0.17520883
v -0.58705422 -0.06059812 0.14006916
v -0.58705422 -0.03165402 0.14007019
v -0.58705422 -0.03165402 0.10276405
v -0.58705422 -0.06059812 0.14006916
v -0.58705422 -0.06059812 0.10276405
v -0.58705422 -0.03165402 0.10276405
v -0.57425345 -0.03165402 0.06762542
v -0.58705422 -0.06059812 0.10276405
v -0.57425345 -0.06059812 0.06762542
v -0.55006130 -0.03165402 0.03881718
v -0.57425345 -0.06059812 0.06762542
v -0.57425345 -0.03165402 0.06762542
v -0.55006130 -0.06059812 0.03881718
v -0.51727580 -0.06059812 0.01990172
v -0.55006130 -0.06059812 0.03881718
v -0.51727580 -0.03165402 0.01990172
v -0.55006130 -0.03165402 0.03881718
v -0.47986182 -0.06059812 0.01330895
v -0.51727580 -0.06059812 0.01990172
v -0.47986182 -0.03165402 0.01330895
v -0.51727580 -0.03165402 0.01990172
v -0.44244781 -0.06059812 0.01990172
v -0.47986182 -0.06059812 0.01330895
v -0.44244781 -0.03165402 0.01990172
v -0.47986182 -0.03165402 0.01330895
v -0.40966235 -0.06059812 0.03881718
v -0.44244781 -0.06059812 0.01990172
v -0.40966235 -0.03165402 0.03881718
v -0.44244781 -0.03165402 0.01990172
v -0.38547016 -0.06059812 0.06762542
v -0.40966235 -0.06059812 0.03881718
v -0.38547016 -0.03165402 0.06762542
v -0.40966235 -0.03165402 0.03881718
v -0.38547016 -0.06059812 0.06762542
v -0.37266939 -0.03165402 0.10276405
v -0.37266939 -0.06059812 0.10276405
v -0.38547016 -0.03165402 0.06762542
v -0.37266939 -0.06059812 0.10276405
v -0.37266939 -0.03165402 0.14007019
v -0.37266939 -0.06059812 0.14007019
v -0.37266939 -0.03165402 0.10276405
v -0.38547016 -0.03165402 0.17520883
v -0.38546914 -0.06059812 0.17520883
v -0.37266939 -0.03165402 0.14007019
v -0.37266939 -0.06059812 0.14007019
v -0.40966235 -0.03165402 0.20401810
v -0.40966235 -0.06059812 0.20401707
v -0.38547016 -0.03165402 0.17520883
v -0.38546914 -0.06059812 0.17520883
v -0.44244781 -0.06059812 0.22293252
v -0.40966235 -0.03165402 0.20401810
v -0.44244781 -0.03165402 0.22293252
v -0.40966235 -0.06059812 0.20401707
v -0.47986077 -0.06059812 0.22952529
v -0.44244781 -0.03165402 0.22293252
v -0.47986077 -0.03165402 0.22952529
v -0.44244781 -0.06059812 0.22293252
v -0.38547016 -0.03165402 0.06762542
v -0.47986182 -0.03165402 0.01330895
v -0.51727580 -0.03165402 0.01990172
v -0.40966235 -0.03165402 0.03881718
v -0.44244781 -0.03165402 0.01990172
v -0.37266939 -0.03165402 0.10276405
v -0.55006130 -0.03165402 0.03881718
v -0.37266939 -0.03165402 0.14007019
v -0.57425345 -0.03165402 0.06762542
v -0.38547016 -0.03165402 0.17520883
v -0.58705422 -0.03165402 0.10276405
v -0.40966235 -0.03165402 0.20401810
v -0.58705422 -0.03165402 0.14007019
v -0.44244781 -0.03165402 0.22293252
v -0.57425345 -0.03165402 0.17520883
v -0.47986077 -0.03165402 0.22952529
v -0.55006025 -0.03165402 0.20401810
v -0.51727580 -0.03165402 0.22293252
v -0.52065466 -0.08639569 0.23349630
v -0.43906794 -0.08639569 0.23349630
v -0.47986182 -0.08639569 0.24068954
v -0.55652857 -0.08639569 0.21278461
v -0.58315374 -0.08639569 0.18105281
v -0.40319505 -0.08639569 0.21278461
v -0.37656885 -0.08639569 0.18105281
v -0.59732143 -0.08639569 0.14212881
v -0.59732143 -0.08639569 0.10070543
v -0.36240119 -0.08639569 0.14212881
v -0.58315374 -0.08639569 0.06178143
v -0.36240119 -0.08639569 0.10070543
v -0.37656885 -0.08639569 0.06178143
v -0.55652857 -0.08639569 0.03004963
v -0.40319505 -0.08639569 0.03004963
v -0.52065466 -0.08639569 0.00933794
v -0.47986182 -0.08639569 0.00214574
v -0.43906794 -0.08639569 0.00933794
v -0.52065466 0.08639568 0.23349630
v -0.52065466 0.06059810 0.23349630
v -0.47986182 0.08639568 0.24068954
v -0.47986182 0.06059810 0.24068954
v -0.52065466 0.08639568 0.23349630
v -0.55652857 0.08639568 0.21278461
v -0.52065466 0.06059810 0.23349630
v -0.55652857 0.06059810 0.21278461
v -0.55652857 0.06059810 0.21278461
v -0.55652857 0.08639568 0.21278461
v -0.58315374 0.08639568 0.18105281
v -0.58315374 0.06059810 0.18105281
v -0.58315374 0.06059810 0.18105281
v -0.58315374 0.08639568 0.18105281
v -0.59732143 0.08639568 0.14212881
v -0.59732143 0.06059810 0.14212881
v -0.59732143 0.06059810 0.14212881
v -0.59732143 0.08639568 0.14212881
v -0.59732143 0.08639568 0.10070543
v -0.59732143 0.06059810 0.10070543
v -0.59732143 0.06059810 0.10070543
v -0.59732143 0.08639568 0.10070543
v -0.58315374 0.08639568 0.06178143
v -0.58315374 0.06059810 0.06178143
v -0.58315374 0.06059810 0.06178143
v -0.58315374 0.08639568 0.06178143
v -0.55652857 0.08639568 0.03004963
v -0.55652857 0.06059810 0.03004963
v -0.52065466 0.06059810 0.00933794
v -0.55652857 0.06059810 0.03004963
v -0.52065466 0.08639568 0.00933794
v -0.55652857 0.08639568 0.03004963
v -0.47986182 0.06059810 0.00214574
v -0.52065466 0.06059810 0.00933794
v -0.47986182 0.08639568 0.00214574
v -0.52065466 0.08639568 0.00933794
v -0.47986182 0.06059810 0.00214574
v -0.47986182 0.08639568 0.00214574
v -0.43906794 0.06059810 0.00933794
v -0.43906794 0.08639568 0.00933794
v -0.40319505 0.06059810 0.03004963
v -0.43906794 0.06059810 0.00933794
v -0.40319505 0.08639568 0.03004963
v -0.43906794 0.08639568 0.00933794
v -0.37656885 0.08639568 0.06178143
v -0.37656885 0.06059810 0.06178143
v -0.40319505 0.08639568 0.03004963
v -0.40319505 0.06059810 0.03004963
v -0.36240119 0.08639568 0.10070543
v -0.36240119 0.06059810 0.10070543
v -0.37656885 0.08639568 0.06178143
v -0.37656885 0.06059810 0.06178143
v -0.36240119 0.06059810 0.14212881
v -0.36240119 0.06059810 0.10070543
v -0.36240119 0.08639568 0.14212881
v -0.36240119 0.08639568 0.10070543
v -0.36240119 0.06059810 0.14212881
v -0.37656885 0.08639568 0.18105281
v -0.37656885 0.06059810 0.18105281
v -0.36240119 0.08639568 0.14212881
v -0.40319505 0.06059810 0.21278461
v -0.37656885 0.06059810 0.18105281
v -0.40319505 0.08639568 0.21278461
v -0.37656885 0.08639568 0.18105281
v -0.43906794 0.08639568 0.23349630
v -0.43906794 0.06059810 0.23349630
v -0.40319505 0.08639568 0.21278461
v -0.40319505 0.06059810 0.21278461
v -0.47986182 0.08639568 0.24068954
v -0.47986182 0.06059810 0.24068954
v -0.43906794 0.08639568 0.23349630
v -0.43906794 0.06059810 0.23349630
v -0.52065466 0.06059810 0.23349630
v -0.47986077 0.06059810 0.22952529
v -0.47986182 0.06059810 0.24068954
v -0.51727478 0.06059810 0.22293252
v -0.43906794 0.06059810 0.23349630
v -0.44244781 0.06059810 0.22293252
v -0.40966235 0.06059810 0.20401707
v -0.40319505 0.06059810 0.21278461
v -0.38546914 0.06059810 0.17520883
v -0.37656885 0.06059810 0.18105281
v -0.37266939 0.06059810 0.14007019
v -0.36240119 0.06059810 0.14212881
v -0.36240119 0.06059810 0.10070543
v -0.37266939 0.06059810 0.10276405
v -0.38547016 0.06059810 0.06762542
v -0.37656885 0.06059810 0.06178143
v -0.40966235 0.06059810 0.03881718
v -0.40319505 0.06059810 0.03004963
v -0.43906794 0.06059810 0.00933794
v -0.44244781 0.06059810 0.01990172
v -0.47986182 0.06059810 0.01330895
v -0.47986182 0.06059810 0.00214574
v -0.47986182 0.06059810 0.01330895
v -0.51727580 0.06059810 0.01990172
v -0.52065466 0.06059810 0.00933794
v -0.47986182 0.06059810 0.00214574
v -0.55652857 0.06059810 0.03004963
v -0.55006130 0.06059810 0.03881718
v -0.58315374 0.06059810 0.06178143
v -0.57425345 0.06059810 0.06762542
v -0.59732143 0.06059810 0.10070543
v -0.58705422 0.06059810 0.10276405
v -0.59732143 0.06059810 0.14212881
v -0.58705422 0.06059810 0.14006916
v -0.57425345 0.06059810 0.17520883
v -0.58315374 0.06059810 0.18105281
v -0.55652857 0.06059810 0.21278461
v -0.55006130 0.06059810 0.20401707
v -0.47986077 0.06059810 0.22952529
v -0.51727478 0.06059810 0.22293252
v -0.47986077 0.03165400 0.22952529
v -0.51727580 0.03165400 0.22293252
v -0.51727478 0.06059810 0.22293252
v -0.55006025 0.03165400 0.20401810
v -0.51727580 0.03165400 0.22293252
v -0.55006130 0.06059810 0.20401707
v -0.55006025 0.03165400 0.20401810
v -0.55006130 0.06059810 0.20401707
v -0.57425345 0.03165400 0.17520883
v -0.57425345 0.06059810 0.17520883
v -0.57425345 0.03165400 0.17520883
v -0.57425345 0.06059810 0.17520883
v -0.58705422 0.03165400 0.14007019
v -0.58705422 0.06059810 0.14006916
v -0.58705422 0.03165400 0.14007019
v -0.58705422 0.06059810 0.14006916
v -0.58705422 0.03165400 0.10276405
v -0.58705422 0.06059810 0.10276405
v -0.58705422 0.03165400 0.10276405
v -0.58705422 0.06059810 0.10276405
v -0.57425345 0.03165400 0.06762542
v -0.57425345 0.06059810 0.06762542
v -0.57425345 0.03165400 0.06762542
v -0.57425345 0.06059810 0.06762542
v -0.55006130 0.03165400 0.03881718
v -0.55006130 0.06059810 0.03881718
v -0.55006130 0.03165400 0.03881718
v -0.55006130 0.06059810 0.03881718
v -0.51727580 0.03165400 0.01990172
v -0.51727580 0.06059810 0.01990172
v -0.51727580 0.03165400 0.01990172
v -0.51727580 0.06059810 0.01990172
v -0.47986182 0.03165400 0.01330895
v -0.47986182 0.06059810 0.01330895
v -0.47986182 0.03165400 0.01330895
v -0.47986182 0.06059810 0.01330895
v -0.44244781 0.03165400 0.01990172
v -0.44244781 0.06059810 0.01990172
v -0.44244781 0.03165400 0.01990172
v -0.44244781 0.06059810 0.01990172
v -0.40966235 0.03165400 0.03881718
v -0.40966235 0.06059810 0.03881718
v -0.38547016 0.06059810 0.06762542
v -0.38547016 0.03165400 0.06762542
v -0.40966235 0.06059810 0.03881718
v -0.40966235 0.03165400 0.03881718
v -0.37266939 0.06059810 0.10276405
v -0.37266939 0.03165400 0.10276405
v -0.38547016 0.06059810 0.06762542
v -0.38547016 0.03165400 0.06762542
v -0.37266939 0.06059810 0.14007019
v -0.37266939 0.03165400 0.14007019
v -0.37266939 0.06059810 0.10276405
v -0.37266939 0.03165400 0.10276405
v -0.38547016 0.03165400 0.17520883
v -0.37266939 0.03165400 0.14007019
v -0.38546914 0.06059810 0.17520883
v -0.37266939 0.06059810 0.14007019
v -0.40966235 0.03165400 0.20401810
v -0.38547016 0.03165400 0.17520883
v -0.40966235 0.06059810 0.20401707
v -0.38546914 0.06059810 0.17520883
v -0.40966235 0.06059810 0.20401707
v -0.44244781 0.06059810 0.22293252
v -0.40966235 0.03165400 0.20401810
v -0.44244781 0.03165400 0.22293252
v -0.44244781 0.06059810 0.22293252
v -0.47986077 0.06059810 0.22952529
v -0.44244781 0.03165400 0.22293252
v -0.47986077 0.03165400 0.22952529
v -0.38547016 0.03165400 0.06762542
v -0.47986182 0.03165400 0.01330895
v -0.40966235 0.03165400 0.03881718
v -0.51727580 0.03165400 0.01990172
v -0.44244781 0.03165400 0.01990172
v -0.37266939 0.03165400 0.10276405
v -0.55006130 0.03165400 0.03881718
v -0.37266939 0.03165400 0.14007019
v -0.57425345 0.03165400 0.06762542
v -0.38547016 0.03165400 0.17520883
v -0.58705422 0.03165400 0.10276405
v -0.40966235 0.03165400 0.20401810
v -0.58705422 0.03165400 0.14007019
v -0.44244781 0.03165400 0.22293252
v -0.57425345 0.03165400 0.17520883
v -0.47986077 0.03165400 0.22952529
v -0.55006025 0.03165400 0.20401810
v -0.51727580 0.03165400 0.22293252
v -0.43906794 0.08639568 0.23349630
v -0.55652857 0.08639568 0.21278461
v -0.52065466 0.08639568 0.23349630
v -0.47986182 0.08639568 0.24068954
v -0.58315374 0.08639568 0.18105281
v -0.40319505 0.08639568 0.21278461
v -0.37656885 0.08639568 0.18105281
v -0.59732143 0.08639568 0.14212881
v -0.36240119 0.08639568 0.14212881
v -0.59732143 0.08639568 0.10070543
v -0.58315374 0.08639568 0.06178143
v -0.36240119 0.08639568 0.10070543
v -0.37656885 0.08639568 0.06178143
v -0.55652857 0.08639568 0.03004963
v -0.40319505 0.08639568 0.03004963
v -0.52065466 0.08639568 0.00933794
v -0.47986182 0.08639568 0.00214574
v -0.43906794 0.08639568 0.00933794
v -0.43107717 0.03867924 0.51468313
v -0.43107717 0.03867924 0.32962505
v -0.45434426 0.02524583 0.51468313
v -0.45434426 0.02524583 0.32962505
v -0.45434426 0.02524583 0.51468313
v -0.45434426 0.02524583 0.32962505
v -0.46353285 -0.00000001 0.51468313
v -0.46353285 -0.00000001 0.32962505
v -0.46353285 -0.00000001 0.51468313
v -0.46353285 -0.00000001 0.32962505
v -0.45434426 -0.02524585 0.51468313
v -0.45434426 -0.02524585 0.32962505
v -0.45434426 -0.02524585 0.51468313
v -0.45434426 -0.02524585 0.32962505
v -0.43107717 -0.03867926 0.51468313
v -0.43107717 -0.03867926 0.32962505
v -0.43107717 -0.03867926 0.51468313
v -0.43107717 -0.03867926 0.32962505
v -0.40461896 -0.03401340 0.51468313
v -0.40461896 -0.03401340 0.32962505
v -0.40461896 -0.03401340 0.51468313
v -0.40461896 -0.03401340 0.32962505
v -0.38734938 -0.01343342 0.51468313
v -0.38734938 -0.01343342 0.32962505
v -0.38734938 -0.01343342 0.51468313
v -0.38734938 -0.01343342 0.32962505
v -0.38734938 0.01343339 0.51468313
v -0.38734938 0.01343339 0.32962505
v -0.38734938 0.01343339 0.51468313
v -0.38734938 0.01343339 0.32962505
v -0.40461896 0.03401338 0.51468313
v -0.40461896 0.03401338 0.32962505
v -0.40461896 0.03401338 0.51468313
v -0.40461896 0.03401338 0.32962505
v -0.43107717 0.03867924 0.51468313
v -0.43107717 0.03867924 0.32962505
v -0.43107717 0.03867924 0.51468313
v -0.45434426 0.02524583 0.51468313
v -0.44322978 0.01592033 0.51468313
v -0.42855807 0.02439127 0.51468313
v -0.44902502 -0.00000001 0.51468313
v -0.46353285 -0.00000001 0.51468313
v -0.45434426 -0.02524585 0.51468313
v -0.44902502 -0.00000001 0.51468313
v -0.46353285 -0.00000001 0.51468313
v -0.44322978 -0.01592035 0.51468313
v -0.43107717 -0.03867926 0.51468313
v -0.42855807 -0.02439129 0.51468313
v -0.41187342 -0.02144907 0.51468313
v -0.40461896 -0.03401340 0.51468313
v -0.40098295 -0.00847095 0.51468313
v -0.38734938 -0.01343342 0.51468313
v -0.38734938 0.01343339 0.51468313
v -0.40098295 0.00847093 0.51468313
v -0.40461896 0.03401338 0.51468313
v -0.41187342 0.02144905 0.51468313
v -0.42855807 0.02439127 0.55879773
v -0.42855807 0.02439127 0.51468313
v -0.44322978 0.01592033 0.55879773
v -0.44322978 0.01592033 0.51468313
v -0.44322978 0.01592033 0.55879773
v -0.44322978 0.01592033 0.51468313
v -0.44902502 -0.00000001 0.55879773
v -0.44902502 -0.00000001 0.51468313
v -0.44902502 -0.00000001 0.55879773
v -0.44902502 -0.00000001 0.51468313
v -0.44322978 -0.01592035 0.55879773
v -0.44322978 -0.01592035 0.51468313
v -0.44322978 -0.01592035 0.55879773
v -0.44322978 -0.01592035 0.51468313
v -0.42855807 -0.02439129 0.55879773
v -0.42855807 -0.02439129 0.51468313
v -0.42855807 -0.02439129 0.55879773
v -0.42855807 -0.02439129 0.51468313
v -0.41187342 -0.02144907 0.55879773
v -0.41187342 -0.02144907 0.51468313
v -0.41187342 -0.02144907 0.55879773
v -0.41187342 -0.02144907 0.51468313
v -0.40098295 -0.00847095 0.55879773
v -0.40098295 -0.00847095 0.51468313
v -0.40098295 -0.00847095 0.55879773
v -0.40098295 -0.00847095 0.51468313
v -0.40098295 0.00847093 0.55879773
v -0.40098295 0.00847093 0.51468313
v -0.40098295 0.00847093 0.55879773
v -0.40098295 0.00847093 0.51468313
v -0.41187342 0.02144905 0.55879773
v -0.41187342 0.02144905 0.51468313
v -0.41187342 0.02144905 0.55879773
v -0.41187342 0.02144905 0.51468313
v -0.42855807 0.02439127 0.55879773
v -0.42855807 0.02439127 0.51468313
v -0.43107717 0.03867924 0.32962505
v -0.43834612 0.01182280 0.32962505
v -0.45434426 0.02524583 0.32962505
v -0.42745047 0.01811274 0.32962505
v -0.44264902 -0.00000001 0.32962505
v -0.46353285 -0.00000001 0.32962505
v -0.45434426 -0.02524585 0.32962505
v -0.44264902 -0.00000001 0.32962505
v -0.43834612 -0.01182282 0.32962505
v -0.46353285 -0.00000001 0.32962505
v -0.43107717 -0.03867926 0.32962505
v -0.42745047 -0.01811276 0.32962505
v -0.40461896 -0.03401340 0.32962505
v -0.41506040 -0.01592865 0.32962505
v -0.40697422 -0.00629099 0.32962505
v -0.38734938 -0.01343342 0.32962505
v -0.38734938 0.01343339 0.32962505
v -0.40697422 0.00629097 0.32962505
v -0.40461896 0.03401338 0.32962505
v -0.41506040 0.01592863 0.32962505
v -0.40697422 0.00629097 0.10504253
v -0.42745047 0.01811274 0.10504253
v -0.41506040 0.01592863 0.10504253
v -0.44264902 -0.00000001 0.10504253
v -0.43834612 0.01182280 0.10504253
v -0.41506040 0.01592863 0.32962505
v -0.41506040 0.01592863 0.10504253
v -0.42745047 0.01811274 0.32962505
v -0.42745047 0.01811274 0.10504253
v -0.40697422 0.00629097 0.32962505
v -0.40697422 0.00629097 0.10504253
v -0.41506040 0.01592863 0.32962505
v -0.41506040 0.01592863 0.10504253
v -0.40697422 -0.00629099 0.32962505
v -0.40697422 -0.00629099 0.10504253
v -0.40697422 0.00629097 0.32962505
v -0.40697422 0.00629097 0.10504253
v -0.41506040 -0.01592865 0.32962505
v -0.41506040 -0.01592865 0.10504253
v -0.40697422 -0.00629099 0.32962505
v -0.40697422 -0.00629099 0.10504253
v -0.42745047 -0.01811276 0.32962505
v -0.42745047 -0.01811276 0.10504253
v -0.41506040 -0.01592865 0.32962505
v -0.41506040 -0.01592865 0.10504253
v -0.43834612 -0.01182282 0.32962505
v -0.43834612 -0.01182282 0.10504253
v -0.42745047 -0.01811276 0.32962505
v -0.42745047 -0.01811276 0.10504253
v -0.43834612 -0.01182282 0.10504253
v -0.43834612 -0.01182282 0.32962505
v -0.44264902 -0.00000001 0.32962505
v -0.44264902 -0.00000001 0.10504253
v -0.43834612 0.01182280 0.32962505
v -0.43834612 0.01182280 0.10504253
v -0.44264902 -0.00000001 0.32962505
v -0.44264902 -0.00000001 0.10504253
v -0.42745047 0.01811274 0.32962505
v -0.42745047 0.01811274 0.10504253
v -0.43834612 0.01182280 0.32962505
v -0.43834612 0.01182280 0.10504253
v -0.42745047 -0.01811276 0.10504253
v -0.40697422 -0.00629099 0.10504253
v -0.41506040 -0.01592865 0.10504253
v -0.43834612 -0.01182282 0.10504253
v -0.49926159 0.03389515 0.52288126
v -0.51815630 -0.01868938 1.00000000
v -0.49926159 -0.03389517 0.52288126
v -0.51815630 0.01868936 1.00000000
v -0.53681975 0.01868936 1.00000000
v -0.53863567 0.03389515 0.52288126
v -0.53681975 -0.01868938 1.00000000
v -0.53863567 -0.03389517 0.52288126
v -0.53681975 -0.01868938 1.00000000
v -0.53863567 -0.03389517 0.52288126
v -0.51815630 -0.01868938 1.00000000
v -0.49926159 -0.03389517 0.52288126
v -0.53681975 0.01868936 1.00000000
v -0.53681975 -0.01868938 1.00000000
v -0.51815630 0.01868936 1.00000000
v -0.51815630 -0.01868938 1.00000000
v -0.51815630 0.01868936 1.00000000
v -0.53863567 0.03389515 0.52288126
v -0.53681975 0.01868936 1.00000000
v -0.49926159 0.03389515 0.52288126
v -0.52163260 -0.00000001 0.98456917
v -0.52163260 -0.05516585 0.98130860
v -0.52945122 -0.05504037 0.97921368
v -0.52945122 -0.00000001 0.98247425
v -0.52163260 -0.05516585 0.98130860
v -0.52163260 -0.00000001 0.98456917
v -0.51953874 -0.05563461 0.98912824
v -0.51953874 -0.00000001 0.99238677
v -0.51953874 -0.05563461 0.98912824
v -0.51953874 -0.00000001 0.99238677
v -0.52526138 -0.05597997 0.99485190
v -0.52526138 -0.00000001 0.99810944
v -0.53154512 -0.00000001 0.99754834
v -0.53154512 -0.05594575 0.99429086
v -0.52526138 -0.00000001 0.99810944
v -0.52526138 -0.05597997 0.99485190
v -0.53154512 -0.05594575 0.99429086
v -0.53154512 -0.00000001 0.99754834
v -0.53517389 -0.00000001 0.99238677
v -0.53517389 -0.05563461 0.98912824
v -0.53517389 -0.05563461 0.98912824
v -0.53517389 -0.00000001 0.99238677
v -0.53461177 -0.00000001 0.98610306
v -0.53461177 -0.05525712 0.98284243
v -0.52945122 -0.05504037 0.97921368
v -0.53461177 -0.00000001 0.98610306
v -0.52945122 -0.00000001 0.98247425
v -0.53461177 -0.05525712 0.98284243
v -0.52163260 -0.05516585 0.98130860
v -0.52163260 -0.08548409 0.97693622
v -0.52945122 -0.08506511 0.97488278
v -0.52945122 -0.05504037 0.97921368
v -0.52163260 -0.08548409 0.97693622
v -0.52163260 -0.05516585 0.98130860
v -0.51953874 -0.08704491 0.98460033
v -0.51953874 -0.05563461 0.98912824
v -0.51953874 -0.08704491 0.98460033
v -0.51953874 -0.05563461 0.98912824
v -0.52526138 -0.08818779 0.99021093
v -0.52526138 -0.05597997 0.99485190
v -0.53154512 -0.05594575 0.99429086
v -0.53154512 -0.08807578 0.98966028
v -0.52526138 -0.05597997 0.99485190
v -0.52526138 -0.08818779 0.99021093
v -0.53154512 -0.08807578 0.98966028
v -0.53154512 -0.05594575 0.99429086
v -0.53517389 -0.05563461 0.98912824
v -0.53517389 -0.08704491 0.98460033
v -0.53517389 -0.08704491 0.98460033
v -0.53517389 -0.05563461 0.98912824
v -0.53461177 -0.05525712 0.98284243
v -0.53461177 -0.08579003 0.97843895
v -0.52945122 -0.08506511 0.97488278
v -0.53461177 -0.05525712 0.98284243
v -0.52945122 -0.05504037 0.97921368
v -0.53461177 -0.08579003 0.97843895
v -0.52163260 -0.08548409 0.97693622
v -0.52163260 -0.10073759 0.97400439
v -0.52945122 -0.10014541 0.97197790
v -0.52945122 -0.08506511 0.97488278
v -0.52163260 -0.10073759 0.97400439
v -0.51953874 -0.08704491 0.98460033
v -0.51953874 -0.10294452 0.98156372
v -0.52163260 -0.08548409 0.97693622
v -0.51953874 -0.10294452 0.98156372
v -0.52526138 -0.08818779 0.99021093
v -0.52526138 -0.10455615 0.98709136
v -0.51953874 -0.08704491 0.98460033
v -0.53154512 -0.08807578 0.98966028
v -0.53154512 -0.10439851 0.98654899
v -0.52526138 -0.08818779 0.99021093
v -0.52526138 -0.10455615 0.98709136
v -0.53517389 -0.08704491 0.98460033
v -0.53517389 -0.10294452 0.98156372
v -0.53154512 -0.08807578 0.98966028
v -0.53154512 -0.10439851 0.98654899
v -0.53517389 -0.10294452 0.98156372
v -0.53517389 -0.08704491 0.98460033
v -0.53461177 -0.10117109 0.97548845
v -0.53461177 -0.08579003 0.97843895
v -0.53461177 -0.10117109 0.97548845
v -0.53461177 -0.08579003 0.97843895
v -0.52945122 -0.10014541 0.97197790
v -0.52945122 -0.08506511 0.97488278
v -0.52945122 -0.12226133 0.96210068
v -0.52163260 -0.12381903 0.96350487
v -0.52163260 -0.13044913 0.95011191
v -0.52945122 -0.12844445 0.94947824
v -0.51953874 -0.13793381 0.95247542
v -0.52163260 -0.12381903 0.96350487
v -0.51953874 -0.12963191 0.96874112
v -0.52163260 -0.13044913 0.95011191
v -0.52526138 -0.14341274 0.95420637
v -0.51953874 -0.12963191 0.96874112
v -0.52526138 -0.13388708 0.97257528
v -0.51953874 -0.13793381 0.95247542
v -0.52526138 -0.14341274 0.95420637
v -0.52526138 -0.13388708 0.97257528
v -0.53307897 -0.13233042 0.97117207
v -0.53307897 -0.14140701 0.95357270
v -0.53307897 -0.14140701 0.95357270
v -0.53307897 -0.13233042 0.97117207
v -0.53517389 -0.12651649 0.96593477
v -0.53517389 -0.13392339 0.95120913
v -0.53517389 -0.13392339 0.95120913
v -0.53517389 -0.12651649 0.96593477
v -0.52945122 -0.12226133 0.96210068
v -0.52945122 -0.12844445 0.94947824
v -0.52163260 -0.13044913 0.95011191
v -0.52163260 -0.13358736 0.93582813
v -0.52945122 -0.12844445 0.94947824
v -0.52945122 -0.13150179 0.93556158
v -0.51953874 -0.14137176 0.93682682
v -0.52163260 -0.13044913 0.95011191
v -0.51953874 -0.13793381 0.95247542
v -0.52163260 -0.13358736 0.93582813
v -0.52526138 -0.14707055 0.93755797
v -0.51953874 -0.13793381 0.95247542
v -0.52526138 -0.14341274 0.95420637
v -0.51953874 -0.14137176 0.93682682
v -0.52526138 -0.14707055 0.93755797
v -0.52526138 -0.14341274 0.95420637
v -0.53307897 -0.14140701 0.95357270
v -0.53307897 -0.14498497 0.93729037
v -0.53517389 -0.13392339 0.95120913
v -0.53517389 -0.13719955 0.93629168
v -0.53307897 -0.14498497 0.93729037
v -0.53307897 -0.14140701 0.95357270
v -0.52945122 -0.12844445 0.94947824
v -0.52945122 -0.13150179 0.93556158
v -0.53517389 -0.13719955 0.93629168
v -0.53517389 -0.13392339 0.95120913
v -0.52163260 -0.13358736 0.93582813
v -0.52163260 -0.13418265 0.92051241
v -0.52945122 -0.13150179 0.93556158
v -0.52945122 -0.13208047 0.92068456
v -0.52163260 -0.13418265 0.92051241
v -0.52163260 -0.13358736 0.93582813
v -0.51953874 -0.14137176 0.93682682
v -0.51953874 -0.14203134 0.91987045
v -0.51953874 -0.14203134 0.91987045
v -0.51953874 -0.14137176 0.93682682
v -0.52526138 -0.14707055 0.93755797
v -0.52526138 -0.14777784 0.91940060
v -0.52526138 -0.14777784 0.91940060
v -0.52526138 -0.14707055 0.93755797
v -0.53307897 -0.14498497 0.93729037
v -0.53307897 -0.14567463 0.91957176
v -0.53517389 -0.13719955 0.93629168
v -0.53517389 -0.13782594 0.92021477
v -0.53307897 -0.14498497 0.93729037
v -0.53307897 -0.14567463 0.91957176
v -0.52945122 -0.13150179 0.93556158
v -0.52945122 -0.13208047 0.92068456
v -0.53517389 -0.13719955 0.93629168
v -0.53517389 -0.13782594 0.92021477
v -0.52945122 -0.13208047 0.92068456
v -0.52163260 -0.13418265 0.92051241
v -0.52945122 -0.12960806 0.90863355
v -0.52163260 -0.13157023 0.90777382
v -0.51953874 -0.14203134 0.91987045
v -0.51953874 -0.13889207 0.90456610
v -0.52163260 -0.13157023 0.90777382
v -0.52163260 -0.13418265 0.92051241
v -0.52526138 -0.14777784 0.91940060
v -0.52526138 -0.14425278 0.90221817
v -0.51953874 -0.13889207 0.90456610
v -0.51953874 -0.14203134 0.91987045
v -0.53307897 -0.14567463 0.91957176
v -0.53307897 -0.14229061 0.90307685
v -0.52526138 -0.14777784 0.91940060
v -0.52526138 -0.14425278 0.90221817
v -0.53307897 -0.14567463 0.91957176
v -0.53517389 -0.13496876 0.90628457
v -0.53307897 -0.14229061 0.90307685
v -0.53517389 -0.13782594 0.92021477
v -0.53517389 -0.13782594 0.92021477
v -0.52945122 -0.12960806 0.90863355
v -0.53517389 -0.13496876 0.90628457
v -0.52945122 -0.13208047 0.92068456
v -0.52945122 -0.12960806 0.90863355
v -0.52163260 -0.13157023 0.90777382
v -0.52945122 -0.12330879 0.89987327
v -0.52163260 -0.12481671 0.89838093
v -0.52163260 -0.12481671 0.89838093
v -0.52163260 -0.13157023 0.90777382
v -0.51953874 -0.13044291 0.89281588
v -0.51953874 -0.13889207 0.90456610
v -0.51953874 -0.13044291 0.89281588
v -0.51953874 -0.13889207 0.90456610
v -0.52526138 -0.13456016 0.88874015
v -0.52526138 -0.14425278 0.90221817
v -0.52526138 -0.14425278 0.90221817
v -0.53307897 -0.14229061 0.90307685
v -0.53307897 -0.13305326 0.89023250
v -0.52526138 -0.13456016 0.88874015
v -0.53307897 -0.13305326 0.89023250
v -0.53307897 -0.14229061 0.90307685
v -0.53517389 -0.13496876 0.90628457
v -0.53517389 -0.12742810 0.89579859
v -0.53517389 -0.12742810 0.89579859
v -0.53517389 -0.13496876 0.90628457
v -0.52945122 -0.12960806 0.90863355
v -0.52945122 -0.12330879 0.89987327
v -0.52163260 -0.11153990 0.88861572
v -0.52945122 -0.11034414 0.89033622
v -0.52945122 -0.12330879 0.89987327
v -0.52163260 -0.12481671 0.89838093
v -0.52163260 -0.12481671 0.89838093
v -0.51953874 -0.11600145 0.88219299
v -0.52163260 -0.11153990 0.88861572
v -0.51953874 -0.13044291 0.89281588
v -0.51953874 -0.11600145 0.88219299
v -0.51953874 -0.13044291 0.89281588
v -0.52526138 -0.11926621 0.87748983
v -0.52526138 -0.13456016 0.88874015
v -0.52526138 -0.11926621 0.87748983
v -0.52526138 -0.13456016 0.88874015
v -0.53307897 -0.13305326 0.89023250
v -0.53307897 -0.11807149 0.87921139
v -0.53307897 -0.11807149 0.87921139
v -0.53307897 -0.13305326 0.89023250
v -0.53517389 -0.12742810 0.89579859
v -0.53517389 -0.11361097 0.88563406
v -0.52945122 -0.12330879 0.89987327
v -0.52945122 -0.11034414 0.89033622
v -0.53517389 -0.11361097 0.88563406
v -0.53517389 -0.12742810 0.89579859
v -0.52945122 -0.00400421 0.82070094
v -0.52945122 -0.11034414 0.89033622
v -0.52163260 -0.00515123 0.81894822
v -0.52163260 -0.11153990 0.88861572
v -0.52163260 -0.00515123 0.81894822
v -0.52163260 -0.11153990 0.88861572
v -0.51953874 -0.00943440 0.81240835
v -0.51953874 -0.11600145 0.88219299
v -0.51953874 -0.00943440 0.81240835
v -0.51953874 -0.11600145 0.88219299
v -0.52526138 -0.01256848 0.80762119
v -0.52526138 -0.11926621 0.87748983
v -0.52526138 -0.01256848 0.80762119
v -0.52526138 -0.11926621 0.87748983
v -0.53307897 -0.11807149 0.87921139
v -0.53307897 -0.01142147 0.80937279
v -0.53517389 -0.11361097 0.88563406
v -0.53307897 -0.01142147 0.80937279
v -0.53307897 -0.11807149 0.87921139
v -0.53517389 -0.00713829 0.81591266
v -0.52945122 -0.11034414 0.89033622
v -0.53517389 -0.00713829 0.81591266
v -0.53517389 -0.11361097 0.88563406
v -0.52945122 -0.00400421 0.82070094
v -0.52163260 -0.11347303 0.97032477
v -0.52945122 -0.11235195 0.96854202
v -0.52163260 -0.10073759 0.97400439
v -0.52945122 -0.10014541 0.97197790
v -0.51953874 -0.10294452 0.98156372
v -0.51953874 -0.11765458 0.97697356
v -0.52163260 -0.11347303 0.97032477
v -0.52163260 -0.10073759 0.97400439
v -0.52526138 -0.10455615 0.98709136
v -0.52526138 -0.12071709 0.98183855
v -0.51953874 -0.11765458 0.97697356
v -0.51953874 -0.10294452 0.98156372
v -0.53154512 -0.10439851 0.98654899
v -0.53307897 -0.11959601 0.98005783
v -0.52526138 -0.10455615 0.98709136
v -0.52526138 -0.12071709 0.98183855
v -0.53517389 -0.10294452 0.98156372
v -0.53517389 -0.11541343 0.97341114
v -0.53307897 -0.11959601 0.98005783
v -0.53154512 -0.10439851 0.98654899
v -0.53517389 -0.11541343 0.97341114
v -0.53517389 -0.10294452 0.98156372
v -0.53461177 -0.10117109 0.97548845
v -0.53517389 -0.11541343 0.97341114
v -0.53461177 -0.10117109 0.97548845
v -0.52945122 -0.11235195 0.96854202
v -0.52945122 -0.10014541 0.97197790
v -0.52163260 -0.12381903 0.96350487
v -0.52945122 -0.12226133 0.96210068
v -0.52163260 -0.11347303 0.97032477
v -0.52945122 -0.11235195 0.96854202
v -0.52163260 -0.12381903 0.96350487
v -0.51953874 -0.11765458 0.97697356
v -0.51953874 -0.12963191 0.96874112
v -0.52163260 -0.11347303 0.97032477
v -0.52526138 -0.12071709 0.98183855
v -0.51953874 -0.12963191 0.96874112
v -0.51953874 -0.11765458 0.97697356
v -0.52526138 -0.13388708 0.97257528
v -0.52526138 -0.12071709 0.98183855
v -0.53307897 -0.11959601 0.98005783
v -0.53307897 -0.13233042 0.97117207
v -0.52526138 -0.13388708 0.97257528
v -0.53307897 -0.11959601 0.98005783
v -0.53517389 -0.12651649 0.96593477
v -0.53307897 -0.13233042 0.97117207
v -0.53517389 -0.11541343 0.97341114
v -0.53517389 -0.12651649 0.96593477
v -0.53517389 -0.11541343 0.97341114
v -0.52945122 -0.12226133 0.96210068
v -0.52945122 -0.11235195 0.96854202
v -0.52945122 -0.00000001 0.98247425
v -0.52945122 0.05504034 0.97921368
v -0.52163260 -0.00000001 0.98456917
v -0.52163260 0.05516479 0.98130860
v -0.51953874 0.05563563 0.98912824
v -0.51953874 -0.00000001 0.99238677
v -0.52163260 -0.00000001 0.98456917
v -0.52163260 0.05516479 0.98130860
v -0.52526138 0.05597891 0.99485190
v -0.52526138 -0.00000001 0.99810944
v -0.51953874 -0.00000001 0.99238677
v -0.51953874 0.05563563 0.98912824
v -0.52526138 -0.00000001 0.99810944
v -0.52526138 0.05597891 0.99485190
v -0.53154512 0.05594572 0.99429086
v -0.53154512 -0.00000001 0.99754834
v -0.53517389 0.05563563 0.98912824
v -0.53517389 -0.00000001 0.99238677
v -0.53154512 0.05594572 0.99429086
v -0.53154512 -0.00000001 0.99754834
v -0.53461177 0.05525710 0.98284243
v -0.53461177 -0.00000001 0.98610306
v -0.53517389 0.05563563 0.98912824
v -0.53517389 -0.00000001 0.99238677
v -0.53461177 -0.00000001 0.98610306
v -0.52945122 0.05504034 0.97921368
v -0.52945122 -0.00000001 0.98247425
v -0.53461177 0.05525710 0.98284243
v -0.52945122 0.05504034 0.97921368
v -0.52945122 0.08506509 0.97488278
v -0.52163260 0.05516479 0.98130860
v -0.52163260 0.08548304 0.97693622
v -0.51953874 0.08704489 0.98460033
v -0.51953874 0.05563563 0.98912824
v -0.52163260 0.05516479 0.98130860
v -0.52163260 0.08548304 0.97693622
v -0.52526138 0.08818776 0.99021093
v -0.52526138 0.05597891 0.99485190
v -0.51953874 0.05563563 0.98912824
v -0.51953874 0.08704489 0.98460033
v -0.52526138 0.05597891 0.99485190
v -0.52526138 0.08818776 0.99021093
v -0.53154512 0.08807575 0.98966028
v -0.53154512 0.05594572 0.99429086
v -0.53517389 0.08704489 0.98460033
v -0.53517389 0.05563563 0.98912824
v -0.53154512 0.08807575 0.98966028
v -0.53154512 0.05594572 0.99429086
v -0.53461177 0.08579001 0.97843895
v -0.53461177 0.05525710 0.98284243
v -0.53517389 0.08704489 0.98460033
v -0.53517389 0.05563563 0.98912824
v -0.53461177 0.05525710 0.98284243
v -0.52945122 0.08506509 0.97488278
v -0.52945122 0.05504034 0.97921368
v -0.53461177 0.08579001 0.97843895
v -0.52945122 0.08506509 0.97488278
v -0.52945122 0.10014435 0.97197790
v -0.52163260 0.08548304 0.97693622
v -0.52163260 0.10073757 0.97400439
v -0.51953874 0.10294449 0.98156372
v -0.51953874 0.08704489 0.98460033
v -0.52163260 0.10073757 0.97400439
v -0.52163260 0.08548304 0.97693622
v -0.52526138 0.10455613 0.98709136
v -0.52526138 0.08818776 0.99021093
v -0.51953874 0.10294449 0.98156372
v -0.51953874 0.08704489 0.98460033
v -0.52526138 0.08818776 0.99021093
v -0.52526138 0.10455613 0.98709136
v -0.53154512 0.10439849 0.98654899
v -0.53154512 0.08807575 0.98966028
v -0.53154512 0.08807575 0.98966028
v -0.53154512 0.10439849 0.98654899
v -0.53517389 0.10294449 0.98156372
v -0.53517389 0.08704489 0.98460033
v -0.53517389 0.08704489 0.98460033
v -0.53517389 0.10294449 0.98156372
v -0.53461177 0.10117107 0.97548845
v -0.53461177 0.08579001 0.97843895
v -0.53461177 0.08579001 0.97843895
v -0.52945122 0.10014435 0.97197790
v -0.52945122 0.08506509 0.97488278
v -0.53461177 0.10117107 0.97548845
v -0.52945122 0.12226234 0.96210068
v -0.52163260 0.13044911 0.95011191
v -0.52163260 0.12381900 0.96350487
v -0.52945122 0.12844442 0.94947824
v -0.52163260 0.12381900 0.96350487
v -0.52163260 0.13044911 0.95011191
v -0.51953874 0.13793482 0.95247542
v -0.51953874 0.12963189 0.96874112
v -0.51953874 0.12963189 0.96874112
v -0.51953874 0.13793482 0.95247542
v -0.52526138 0.14341375 0.95420637
v -0.52526138 0.13388706 0.97257528
v -0.52526138 0.13388706 0.97257528
v -0.52526138 0.14341375 0.95420637
v -0.53154512 0.13347016 0.97219882
v -0.53154512 0.14287551 0.95403731
v -0.53154512 0.13347016 0.97219882
v -0.53154512 0.14287551 0.95403731
v -0.53517389 0.12963189 0.96874112
v -0.53517389 0.13793482 0.95247542
v -0.53517389 0.13793482 0.95247542
v -0.53461177 0.12495877 0.96453163
v -0.53517389 0.12963189 0.96874112
v -0.53461177 0.13191763 0.95057553
v -0.53461177 0.12495877 0.96453163
v -0.53461177 0.13191763 0.95057553
v -0.52945122 0.12226234 0.96210068
v -0.52945122 0.12844442 0.94947824
v -0.52945122 0.12844442 0.94947824
v -0.52163260 0.13358631 0.93582813
v -0.52163260 0.13044911 0.95011191
v -0.52945122 0.13150072 0.93556158
v -0.51953874 0.14137173 0.93682682
v -0.52163260 0.13044911 0.95011191
v -0.52163260 0.13358631 0.93582813
v -0.51953874 0.13793482 0.95247542
v -0.52526138 0.14707052 0.93755797
v -0.51953874 0.13793482 0.95247542
v -0.51953874 0.14137173 0.93682682
v -0.52526138 0.14341375 0.95420637
v -0.52526138 0.14341375 0.95420637
v -0.52526138 0.14707052 0.93755797
v -0.53154512 0.14287551 0.95403731
v -0.53154512 0.14651154 0.93748639
v -0.53154512 0.14287551 0.95403731
v -0.53154512 0.14651154 0.93748639
v -0.53517389 0.13793482 0.95247542
v -0.53517389 0.14137173 0.93682682
v -0.53517389 0.13793482 0.95247542
v -0.53517389 0.14137173 0.93682682
v -0.53461177 0.13191763 0.95057553
v -0.53461177 0.13511394 0.93602409
v -0.53461177 0.13191763 0.95057553
v -0.53461177 0.13511394 0.93602409
v -0.52945122 0.12844442 0.94947824
v -0.52945122 0.13150072 0.93556158
v -0.52945122 0.13150072 0.93556158
v -0.52163260 0.13418263 0.92051241
v -0.52163260 0.13358631 0.93582813
v -0.52945122 0.13207942 0.92068456
v -0.52163260 0.13418263 0.92051241
v -0.51953874 0.14137173 0.93682682
v -0.52163260 0.13358631 0.93582813
v -0.51953874 0.14203235 0.91987045
v -0.51953874 0.14203235 0.91987045
v -0.52526138 0.14707052 0.93755797
v -0.51953874 0.14137173 0.93682682
v -0.52526138 0.14777679 0.91940060
v -0.52526138 0.14707052 0.93755797
v -0.52526138 0.14777679 0.91940060
v -0.53154512 0.14651154 0.93748639
v -0.53154512 0.14721364 0.91944628
v -0.53154512 0.14651154 0.93748639
v -0.53517389 0.14203235 0.91987045
v -0.53517389 0.14137173 0.93682682
v -0.53154512 0.14721364 0.91944628
v -0.53517389 0.14137173 0.93682682
v -0.53461177 0.13572270 0.92038692
v -0.53461177 0.13511394 0.93602409
v -0.53517389 0.14203235 0.91987045
v -0.52945122 0.13150072 0.93556158
v -0.53461177 0.13572270 0.92038692
v -0.52945122 0.13207942 0.92068456
v -0.53461177 0.13511394 0.93602409
v -0.52945122 0.13207942 0.92068456
v -0.52945122 0.12960804 0.90863355
v -0.52163260 0.13418263 0.92051241
v -0.52163260 0.13157021 0.90777382
v -0.52163260 0.13418263 0.92051241
v -0.52163260 0.13157021 0.90777382
v -0.51953874 0.14203235 0.91987045
v -0.51953874 0.13889205 0.90456610
v -0.51953874 0.14203235 0.91987045
v -0.51953874 0.13889205 0.90456610
v -0.52526138 0.14777679 0.91940060
v -0.52526138 0.14425276 0.90221817
v -0.52526138 0.14777679 0.91940060
v -0.53154512 0.14372696 0.90244837
v -0.53154512 0.14721364 0.91944628
v -0.52526138 0.14425276 0.90221817
v -0.53154512 0.14721364 0.91944628
v -0.53154512 0.14372696 0.90244837
v -0.53517389 0.13889205 0.90456610
v -0.53517389 0.14203235 0.91987045
v -0.53517389 0.14203235 0.91987045
v -0.53517389 0.13889205 0.90456610
v -0.53461177 0.13300657 0.90714429
v -0.53461177 0.13572270 0.92038692
v -0.53461177 0.13572270 0.92038692
v -0.52945122 0.12960804 0.90863355
v -0.52945122 0.13207942 0.92068456
v -0.53461177 0.13300657 0.90714429
v -0.52945122 0.12960804 0.90863355
v -0.52945122 0.12330772 0.89987327
v -0.52163260 0.13157021 0.90777382
v -0.52163260 0.12481669 0.89838093
v -0.51953874 0.13044186 0.89281588
v -0.51953874 0.13889205 0.90456610
v -0.52163260 0.13157021 0.90777382
v -0.52163260 0.12481669 0.89838093
v -0.52526138 0.13456117 0.88874015
v -0.52526138 0.14425276 0.90221817
v -0.51953874 0.13889205 0.90456610
v -0.51953874 0.13044186 0.89281588
v -0.52526138 0.14425276 0.90221817
v -0.53154512 0.13415671 0.88914047
v -0.53154512 0.14372696 0.90244837
v -0.52526138 0.13456117 0.88874015
v -0.53517389 0.13044186 0.89281588
v -0.53517389 0.13889205 0.90456610
v -0.53154512 0.13415671 0.88914047
v -0.53154512 0.14372696 0.90244837
v -0.53461177 0.12592015 0.89728989
v -0.53461177 0.13300657 0.90714429
v -0.53517389 0.13044186 0.89281588
v -0.53517389 0.13889205 0.90456610
v -0.53461177 0.13300657 0.90714429
v -0.52945122 0.12330772 0.89987327
v -0.52945122 0.12960804 0.90863355
v -0.53461177 0.12592015 0.89728989
v -0.52945122 0.12330772 0.89987327
v -0.52163260 0.11153988 0.88861572
v -0.52163260 0.12481669 0.89838093
v -0.52945122 0.11034516 0.89033622
v -0.52163260 0.12481669 0.89838093
v -0.51953874 0.11600040 0.88219299
v -0.51953874 0.13044186 0.89281588
v -0.52163260 0.11153988 0.88861572
v -0.51953874 0.13044186 0.89281588
v -0.52526138 0.11926619 0.87748983
v -0.52526138 0.13456117 0.88874015
v -0.51953874 0.11600040 0.88219299
v -0.53154512 0.11894573 0.87795128
v -0.53154512 0.13415671 0.88914047
v -0.52526138 0.11926619 0.87748983
v -0.52526138 0.13456117 0.88874015
v -0.53517389 0.11600040 0.88219299
v -0.53517389 0.13044186 0.89281588
v -0.53154512 0.11894573 0.87795128
v -0.53154512 0.13415671 0.88914047
v -0.53461177 0.11241518 0.88735561
v -0.53461177 0.12592015 0.89728989
v -0.53517389 0.11600040 0.88219299
v -0.53517389 0.13044186 0.89281588
v -0.53461177 0.12592015 0.89728989
v -0.53461177 0.11241518 0.88735561
v -0.52945122 0.12330772 0.89987327
v -0.52945122 0.11034516 0.89033622
v -0.52945122 0.11034516 0.89033622
v -0.52163260 0.00515121 0.81894822
v -0.52163260 0.11153988 0.88861572
v -0.52945122 0.00400315 0.82070094
v -0.52163260 0.11153988 0.88861572
v -0.51953874 0.00943335 0.81240835
v -0.51953874 0.11600040 0.88219299
v -0.52163260 0.00515121 0.81894822
v -0.51953874 0.11600040 0.88219299
v -0.52526138 0.01256846 0.80762119
v -0.52526138 0.11926619 0.87748983
v -0.51953874 0.00943335 0.81240835
v -0.53154512 0.01226148 0.80808994
v -0.53154512 0.11894573 0.87795128
v -0.52526138 0.01256846 0.80762119
v -0.52526138 0.11926619 0.87748983
v -0.53461177 0.01058140 0.81065570
v -0.53517389 0.11600040 0.88219299
v -0.53154512 0.01226148 0.80808994
v -0.53154512 0.11894573 0.87795128
v -0.53573496 0.00828633 0.81416001
v -0.53517389 0.11600040 0.88219299
v -0.53461177 0.01058140 0.81065570
v -0.53461177 0.11241518 0.88735561
v -0.53573496 0.00828633 0.81416001
v -0.53461177 0.00599125 0.81766537
v -0.53461177 0.11241518 0.88735561
v -0.53461177 0.00599125 0.81766537
v -0.52945122 0.11034516 0.89033622
v -0.52945122 0.00400315 0.82070094
v -0.52945122 0.10014435 0.97197790
v -0.52945122 0.11235192 0.96854202
v -0.52163260 0.10073757 0.97400439
v -0.52163260 0.11347301 0.97032477
v -0.51953874 0.11765455 0.97697356
v -0.51953874 0.10294449 0.98156372
v -0.52163260 0.11347301 0.97032477
v -0.52163260 0.10073757 0.97400439
v -0.52526138 0.12071604 0.98183855
v -0.52526138 0.10455613 0.98709136
v -0.51953874 0.11765455 0.97697356
v -0.51953874 0.10294449 0.98156372
v -0.52526138 0.10455613 0.98709136
v -0.52526138 0.12071604 0.98183855
v -0.53154512 0.12041632 0.98136146
v -0.53154512 0.10439849 0.98654899
v -0.53154512 0.10439849 0.98654899
v -0.53154512 0.12041632 0.98136146
v -0.53517389 0.11765455 0.97697356
v -0.53517389 0.10294449 0.98156372
v -0.53517389 0.10294449 0.98156372
v -0.53517389 0.11765455 0.97697356
v -0.53461177 0.11429335 0.97162944
v -0.53461177 0.10117107 0.97548845
v -0.53461177 0.10117107 0.97548845
v -0.52945122 0.11235192 0.96854202
v -0.52945122 0.10014435 0.97197790
v -0.53461177 0.11429335 0.97162944
v -0.52163260 0.11347301 0.97032477
v -0.52945122 0.11235192 0.96854202
v -0.52945122 0.12226234 0.96210068
v -0.52163260 0.12381900 0.96350487
v -0.52163260 0.12381900 0.96350487
v -0.51953874 0.12963189 0.96874112
v -0.51953874 0.11765455 0.97697356
v -0.52163260 0.11347301 0.97032477
v -0.52526138 0.13388706 0.97257528
v -0.52526138 0.12071604 0.98183855
v -0.51953874 0.12963189 0.96874112
v -0.51953874 0.11765455 0.97697356
v -0.52526138 0.12071604 0.98183855
v -0.52526138 0.13388706 0.97257528
v -0.53154512 0.13347016 0.97219882
v -0.53154512 0.12041632 0.98136146
v -0.53154512 0.12041632 0.98136146
v -0.53517389 0.12963189 0.96874112
v -0.53517389 0.11765455 0.97697356
v -0.53154512 0.13347016 0.97219882
v -0.53517389 0.11765455 0.97697356
v -0.53461177 0.12495877 0.96453163
v -0.53461177 0.11429335 0.97162944
v -0.53517389 0.12963189 0.96874112
v -0.52945122 0.11235192 0.96854202
v -0.53461177 0.11429335 0.97162944
v -0.52945122 0.12226234 0.96210068
v -0.53461177 0.12495877 0.96453163
v -0.54583826 -0.03643292 0.48434515
v -0.54050762 -0.03643292 0.54021105
v -0.49427319 -0.03643292 0.51421538
v -0.49618248 -0.03643292 0.54021105
v -0.54050762 -0.04342186 0.54021105
v -0.49427319 -0.04342186 0.51421538
v -0.49618248 -0.04342186 0.54021105
v -0.54583826 -0.04342186 0.48434515
v -0.51366363 -0.04342186 0.45942185
v -0.48402261 -0.04342186 0.45944156
v -0.48402261 -0.03643292 0.45944156
v -0.47769844 -0.04342186 0.46186006
v -0.47769844 -0.03643292 0.46186006
v -0.49427319 -0.03643292 0.51421538
v -0.49618248 -0.03643292 0.54021105
v -0.49618248 -0.04342186 0.54021105
v -0.49427319 -0.04342186 0.51421538
v -0.49618248 -0.03643292 0.54021105
v -0.54050762 -0.03643292 0.54021105
v -0.54050762 -0.04342186 0.54021105
v -0.49618248 -0.04342186 0.54021105
v -0.54050762 -0.03643292 0.54021105
v -0.54583826 -0.03643292 0.48434515
v -0.54050762 -0.04342186 0.54021105
v -0.54583826 -0.04342186 0.48434515
v -0.48402261 -0.03643292 0.45944156
v -0.51366363 -0.03643292 0.45942185
v -0.46397155 -0.03643292 0.48969446
v -0.49427319 -0.03643292 0.51421538
v -0.46397155 -0.04342186 0.48969446
v -0.46397155 -0.03643292 0.48969446
v -0.49427319 -0.04342186 0.51421538
v -0.48402261 -0.04342186 0.45944156
v -0.46397155 -0.04342186 0.48969446
v -0.54583826 -0.04342186 0.48434515
v -0.51366363 -0.03643292 0.45942185
v -0.51366363 -0.04342186 0.45942185
v -0.54583826 -0.03643292 0.48434515
v -0.47769844 -0.03643292 0.46186006
v -0.46397155 -0.04342186 0.48969446
v -0.47769844 -0.04342186 0.46186006
v -0.46397155 -0.03643292 0.48969446
v -0.47769844 -0.03643292 0.46186006
v -0.47769844 -0.04342186 0.46186006
v -0.48402261 -0.04342186 0.45944156
v -0.51366363 -0.04342186 0.45942185
v -0.51366363 -0.03643292 0.45942185
v -0.48402261 -0.03643292 0.45944156
v -0.54050762 0.03643290 0.54021105
v -0.49427319 0.03643290 0.51421538
v -0.49618248 0.03643290 0.54021105
v -0.54583826 0.03643290 0.48434515
v -0.51366363 0.03643290 0.45942185
v -0.54583826 0.04342184 0.48434515
v -0.54050762 0.04342184 0.54021105
v -0.49427319 0.04342184 0.51421538
v -0.49618248 0.04342184 0.54021105
v -0.47769844 0.03643290 0.46186006
v -0.48402261 0.03643290 0.45944156
v -0.47769844 0.04342184 0.46186006
v -0.48402261 0.04342184 0.45944156
v -0.49618248 0.03643290 0.54021105
v -0.49427319 0.03643290 0.51421538
v -0.49618248 0.04342184 0.54021105
v -0.49427319 0.04342184 0.51421538
v -0.54050762 0.03643290 0.54021105
v -0.49618248 0.03643290 0.54021105
v -0.54050762 0.04342184 0.54021105
v -0.49618248 0.04342184 0.54021105
v -0.54583826 0.03643290 0.48434515
v -0.54050762 0.03643290 0.54021105
v -0.54050762 0.04342184 0.54021105
v -0.54583826 0.04342184 0.48434515
v -0.48402261 0.03643290 0.45944156
v -0.46397155 0.03643290 0.48969446
v -0.46397155 0.04342184 0.48969446
v -0.49427319 0.04342184 0.51421538
v -0.49427319 0.03643290 0.51421538
v -0.46397155 0.03643290 0.48969446
v -0.51366363 0.04342184 0.45942185
v -0.48402261 0.04342184 0.45944156
v -0.46397155 0.04342184 0.48969446
v -0.54583826 0.04342184 0.48434515
v -0.51366363 0.04342184 0.45942185
v -0.54583826 0.03643290 0.48434515
v -0.51366363 0.03643290 0.45942185
v -0.47769844 0.03643290 0.46186006
v -0.46397155 0.03643290 0.48969446
v -0.47769844 0.04342184 0.46186006
v -0.46397155 0.04342184 0.48969446
v -0.47769844 0.03643290 0.46186006
v -0.47769844 0.04342184 0.46186006
v -0.51366363 0.04342184 0.45942185
v -0.48402261 0.04342184 0.45944156
v -0.51366363 0.03643290 0.45942185
v -0.48402261 0.03643290 0.45944156
v -0.38178331 -0.04922956 0.31358336
v -0.55249429 -0.04922956 0.31358336
v -0.55249429 0.04200000 0.31358336
v -0.38178331 0.04200000 0.31358336
v -0.55249429 -0.04922956 0.34028321
v -0.38178331 -0.04922956 0.34028321
v -0.55249429 0.04200000 0.34028321
v -0.38178331 0.04200000 0.34028321
v -0.38178331 0.04200000 0.34028321
v -0.38178331 -0.04922956 0.34028321
v -0.38178331 -0.04922956 0.31358336
v -0.38178331 0.04200000 0.31358336
v -0.55249429 0.04200000 0.34028321
v -0.38178331 0.04200000 0.34028321
v -0.38178331 0.04200000 0.31358336
v -0.55249429 0.04200000 0.31358336
v -0.55249429 -0.04922956 0.34028321
v -0.55249429 0.04200000 0.34028321
v -0.55249429 0.04200000 0.31358336
v -0.55249429 -0.04922956 0.31358336
v -0.55249429 -0.04922956 0.31358336
v -0.38178331 -0.04922956 0.34028321
v -0.55249429 -0.04922956 0.34028321
v -0.38178331 -0.04922956 0.31358336
v -0.53960018 -0.04032201 0.51559157
v -0.53960018 0.03712257 0.51559157
v -0.49715112 -0.04032201 0.51559157
v -0.49715112 0.03712257 0.51559157
v -0.49715112 -0.04032201 0.52530912
v -0.49715112 0.03712257 0.52530912
v -0.53960018 0.03712257 0.52530912
v -0.53960018 -0.04032201 0.52530912
v -0.49715112 0.03712257 0.52530912
v -0.49715112 -0.04032201 0.52530912
v -0.49715112 -0.04032201 0.51559157
v -0.49715112 0.03712257 0.51559157
v -0.53960018 -0.04032201 0.52530912
v -0.53960018 0.03712257 0.52530912
v -0.53960018 0.03712257 0.51559157
v -0.53960018 -0.04032201 0.51559157
v -0.53960018 -0.04032201 0.49578632
v -0.53960018 0.03729991 0.49578632
v -0.49715112 -0.04032201 0.49578632
v -0.49715112 0.03729991 0.49578632
v -0.49715112 -0.04032201 0.50550384
v -0.49715112 0.03729991 0.50550384
v -0.53960018 0.03729991 0.50550384
v -0.53960018 -0.04032201 0.50550384
v -0.49715112 -0.04032201 0.49578632
v -0.49715112 0.03729991 0.50550384
v -0.49715112 -0.04032201 0.50550384
v -0.49715112 0.03729991 0.49578632
v -0.53960018 0.03729991 0.49578632
v -0.53960018 -0.04032201 0.50550384
v -0.53960018 0.03729991 0.50550384
v -0.53960018 -0.04032201 0.49578632
v -0.52130387 0.01522445 0.50261762
v -0.52130387 0.01522445 0.33419966
v -0.53250026 0.00876027 0.50261762
v -0.53250026 0.00876027 0.33419966
v -0.53250026 0.00876027 0.50261762
v -0.53250026 0.00876027 0.33419966
v -0.53692138 -0.00338818 0.50261762
v -0.53692138 -0.00338818 0.33419966
v -0.53692138 -0.00338818 0.50261762
v -0.53692138 -0.00338818 0.33419966
v -0.53250026 -0.01553767 0.50261762
v -0.53250026 -0.01553767 0.33419966
v -0.53250026 -0.01553767 0.50261762
v -0.53250026 -0.01553767 0.33419966
v -0.52130387 -0.02200184 0.50261762
v -0.52130387 -0.02200184 0.33419966
v -0.52130387 -0.02200184 0.50261762
v -0.52130387 -0.02200184 0.33419966
v -0.50857153 -0.01975654 0.50261762
v -0.50857153 -0.01975654 0.33419966
v -0.50857153 -0.01975654 0.50261762
v -0.50857153 -0.01975654 0.33419966
v -0.50026133 -0.00985235 0.50261762
v -0.50026133 -0.00985235 0.33419966
v -0.50026133 -0.00985235 0.50261762
v -0.50026133 -0.00985235 0.33419966
v -0.50026133 0.00307599 0.50261762
v -0.50026133 0.00307599 0.33419966
v -0.50026133 0.00307599 0.50261762
v -0.50026133 0.00307599 0.33419966
v -0.50857153 0.01297915 0.50261762
v -0.50857153 0.01297915 0.33419966
v -0.50857153 0.01297915 0.50261762
v -0.50857153 0.01297915 0.33419966
v -0.52130387 0.01522445 0.50261762
v -0.52130387 0.01522445 0.33419966
v -0.48248254 -0.06350300 0.10134013
v -0.48248254 0.05672561 0.10134013
v -0.47009346 -0.06350300 0.10352528
v -0.47009346 0.05672561 0.10352528
v -0.47009346 -0.06350300 0.10352528
v -0.46200626 0.05672561 0.11316293
v -0.46200626 -0.06350300 0.11316293
v -0.47009346 0.05672561 0.10352528
v -0.46200626 0.05672561 0.12574385
v -0.46200626 -0.06350300 0.12574385
v -0.46200626 -0.06350300 0.11316293
v -0.46200626 0.05672561 0.11316293
v -0.47009346 0.05672561 0.13538152
v -0.47009346 -0.06350300 0.13538152
v -0.46200626 -0.06350300 0.12574385
v -0.46200626 0.05672561 0.12574385
v -0.48248254 0.05672561 0.13756562
v -0.48248254 -0.06350300 0.13756666
v -0.47009346 0.05672561 0.13538152
v -0.47009346 -0.06350300 0.13538152
v -0.48248254 -0.06350300 0.13756666
v -0.48248254 0.05672561 0.13756562
v -0.49337820 0.05672561 0.13127569
v -0.49337820 -0.06350300 0.13127569
v -0.49337820 0.05672561 0.13127569
v -0.49768107 -0.06350300 0.11945288
v -0.49337820 -0.06350300 0.13127569
v -0.49768107 0.05672561 0.11945288
v -0.49768107 0.05672561 0.11945288
v -0.49337820 -0.06350300 0.10763111
v -0.49768107 -0.06350300 0.11945288
v -0.49337820 0.05672561 0.10763111
v -0.49337820 -0.06350300 0.10763111
v -0.49337820 0.05672561 0.10763111
v -0.48248254 -0.06350300 0.10134013
v -0.48248254 0.05672561 0.10134013
v -0.47803447 0.00173400 0.10730027
v -0.41857611 0.00173400 0.10730027
v -0.47803447 -0.00640507 0.10873561
v -0.41857611 -0.00640507 0.10873561
v -0.47803447 -0.00640507 0.10873561
v -0.41857611 -0.00640507 0.10873561
v -0.47803447 -0.01171600 0.11506600
v -0.41857611 -0.01171600 0.11506600
v -0.47803447 -0.01171600 0.11506600
v -0.41857611 -0.01171600 0.11506600
v -0.47803447 -0.01171600 0.12332952
v -0.41857611 -0.01171600 0.12332952
v -0.47803447 -0.01171600 0.12332952
v -0.41857611 -0.01171600 0.12332952
v -0.47803447 -0.00640507 0.12965990
v -0.41857611 -0.00640507 0.12965990
v -0.47803447 -0.00640507 0.12965990
v -0.41857611 0.00173400 0.13109523
v -0.47803447 0.00173400 0.13109523
v -0.41857611 -0.00640507 0.12965990
v -0.41857611 0.00888991 0.12696347
v -0.47803447 0.00888991 0.12696347
v -0.47803447 0.00173400 0.13109523
v -0.41857611 0.00173400 0.13109523
v -0.41857611 0.00888991 0.12696347
v -0.47803447 0.01171598 0.11919775
v -0.47803447 0.00888991 0.12696347
v -0.41857611 0.01171598 0.11919775
v -0.47803447 0.01171598 0.11919775
v -0.41857611 0.01171598 0.11919775
v -0.41857611 0.00888991 0.11143204
v -0.47803447 0.00888991 0.11143204
v -0.47803447 0.00888991 0.11143204
v -0.41857611 0.00888991 0.11143204
v -0.47803447 0.00173400 0.10730027
v -0.41857611 0.00173400 0.10730027
v -0.52830628 -0.08166553 0.92560555
v -0.52791736 -0.10047520 0.91754113
v -0.52549266 -0.08166553 0.92560555
v -0.52588157 -0.10047520 0.91754113
v -0.52959021 -0.01887294 0.93463547
v -0.52509442 -0.06274179 0.93014279
v -0.52420771 -0.01887294 0.93463547
v -0.52870452 -0.06274179 0.93014279
v -0.52870452 -0.06274179 0.93014279
v -0.52549266 -0.08166553 0.92560555
v -0.52509442 -0.06274179 0.93014279
v -0.52830628 -0.08166553 0.92560555
v -0.52545947 -0.10231293 0.92228892
v -0.52491085 -0.08348044 0.93143912
v -0.52549266 -0.08348044 0.93143912
v -0.52588157 -0.10231293 0.92228892
v -0.52888808 -0.08348044 0.93143912
v -0.52833842 -0.10231293 0.92228892
v -0.52830628 -0.08348044 0.93143912
v -0.52791736 -0.10231293 0.92228892
v -0.53070403 -0.01895280 0.94721531
v -0.52945122 -0.06416882 0.93752688
v -0.52959021 -0.01895280 0.94721531
v -0.52870452 -0.06416882 0.93752688
v -0.52434772 -0.06416882 0.93752688
v -0.52309491 -0.01895280 0.94721531
v -0.52420771 -0.01895280 0.94721531
v -0.52509442 -0.06416882 0.93752688
v -0.52945122 -0.06416882 0.93752688
v -0.52888808 -0.08348044 0.93143912
v -0.52870452 -0.06416882 0.93752688
v -0.52830628 -0.08348044 0.93143912
v -0.52491085 -0.08348044 0.93143912
v -0.52434772 -0.06416882 0.93752688
v -0.52509442 -0.06416882 0.93752688
v -0.52549266 -0.08348044 0.93143912
v -0.52545947 -0.10014230 0.91665754
v -0.52491085 -0.08166553 0.92392541
v -0.52545947 -0.10231293 0.92228892
v -0.52491085 -0.08348044 0.93143912
v -0.52434772 -0.06274179 0.92846377
v -0.52491085 -0.08348044 0.93143912
v -0.52434772 -0.06416882 0.93752688
v -0.52309491 -0.01887294 0.93295638
v -0.52309491 -0.01895280 0.94721531
v -0.52420771 -0.01887294 0.93463547
v -0.52420771 -0.01895280 0.94721531
v -0.52309491 -0.01895280 0.94721531
v -0.52309491 -0.01887294 0.93295638
v -0.52509442 -0.06416882 0.93752688
v -0.52420771 -0.01895280 0.94721531
v -0.52420771 -0.01887294 0.93463547
v -0.52509442 -0.06274179 0.93014279
v -0.52549266 -0.08348044 0.93143912
v -0.52549266 -0.08166553 0.92560555
v -0.52588157 -0.10231293 0.92228892
v -0.52549266 -0.08348044 0.93143912
v -0.52588157 -0.10047520 0.91754113
v -0.52791736 -0.10047520 0.91754113
v -0.52830628 -0.08166553 0.92560555
v -0.52791736 -0.10231293 0.92228892
v -0.52830628 -0.08348044 0.93143912
v -0.52870452 -0.06274179 0.93014279
v -0.52830628 -0.08348044 0.93143912
v -0.52870452 -0.06416882 0.93752688
v -0.52959021 -0.01887294 0.93463547
v -0.52959021 -0.01895280 0.94721531
v -0.52959021 -0.01895280 0.94721531
v -0.52959021 -0.01887294 0.93463547
v -0.53070403 -0.01895280 0.94721531
v -0.53070403 -0.01887294 0.93295638
v -0.52945122 -0.06416882 0.93752688
v -0.53070403 -0.01895280 0.94721531
v -0.53070403 -0.01887294 0.93295638
v -0.52945122 -0.06274179 0.92846377
v -0.52888808 -0.08348044 0.93143912
v -0.52888808 -0.08166553 0.92392541
v -0.52833842 -0.10231293 0.92228892
v -0.52888808 -0.08348044 0.93143912
v -0.52833842 -0.10014230 0.91665754
v -0.52833842 -0.10014230 0.91665754
v -0.52491085 -0.08166553 0.92392541
v -0.52545947 -0.10014230 0.91665754
v -0.52888808 -0.08166553 0.92392541
v -0.52888808 -0.08166553 0.92392541
v -0.52945122 -0.06274179 0.92846377
v -0.52491085 -0.08166553 0.92392541
v -0.52434772 -0.06274179 0.92846377
v -0.52945122 -0.06274179 0.92846377
v -0.53070403 -0.01887294 0.93295638
v -0.52434772 -0.06274179 0.92846377
v -0.52309491 -0.01887294 0.93295638
v -0.52309491 -0.01887294 0.93295638
v -0.52959021 -0.01887294 0.93463547
v -0.52420771 -0.01887294 0.93463547
v -0.53070403 -0.01887294 0.93295638
v -0.52833842 -0.10014230 0.91665754
v -0.52588157 -0.10047520 0.91754113
v -0.52791736 -0.10047520 0.91754113
v -0.52545947 -0.10014230 0.91665754
v -0.52833842 -0.10231293 0.92228892
v -0.52791736 -0.10047520 0.91754113
v -0.52791736 -0.10231293 0.92228892
v -0.52833842 -0.10014230 0.91665754
v -0.52588157 -0.10231293 0.92228892
v -0.52588157 -0.10047520 0.91754113
v -0.52545947 -0.10231293 0.92228892
v -0.52545947 -0.10014230 0.91665754
f 1 2 3
f 3 2 4
f 5 6 7
f 7 6 8
f 9 10 11
f 10 12 11
f 13 14 15
f 14 16 15
f 17 18 19
f 18 20 19
f 21 22 23
f 22 24 23
f 25 26 27
f 26 28 27
f 29 30 31
f 29 31 32
f 33 34 35
f 33 35 36
f 37 38 39
f 37 39 40
f 41 42 43
f 41 43 44
f 45 46 47
f 46 45 48
f 49 50 51
f 50 52 51
f 53 54 55
f 54 56 55
f 57 58 59
f 58 60 59
f 61 62 63
f 62 61 64
f 65 66 67
f 66 68 67
f 69 70 71
f 70 72 71
f 73 74 75
f 73 75 76
f 77 75 78
f 74 78 75
f 77 79 80
f 79 77 78
f 79 81 80
f 82 80 81
f 81 83 82
f 82 83 84
f 83 85 84
f 84 85 86
f 85 87 88
f 85 88 86
f 87 89 90
f 87 90 88
f 89 91 92
f 92 90 89
f 91 93 92
f 93 91 94
f 95 96 97
f 97 96 98
f 96 99 98
f 98 99 100
f 101 100 102
f 99 102 100
f 103 101 104
f 102 104 101
f 104 105 106
f 106 103 104
f 105 107 106
f 107 105 108
f 108 109 107
f 109 108 110
f 110 76 109
f 76 110 73
f 111 112 113
f 112 111 114
f 115 116 117
f 116 115 118
f 119 120 121
f 121 120 122
f 123 124 125
f 124 123 126
f 127 128 129
f 129 128 130
f 131 132 133
f 133 132 134
f 135 136 137
f 136 135 138
f 139 140 141
f 140 142 141
f 143 144 145
f 144 146 145
f 147 148 149
f 148 150 149
f 151 152 153
f 152 154 153
f 155 156 157
f 157 156 158
f 159 160 161
f 160 159 162
f 163 164 165
f 164 163 166
f 167 168 169
f 168 170 169
f 171 172 173
f 172 174 173
f 175 176 177
f 176 175 178
f 179 180 181
f 180 179 182
f 183 184 185
f 184 183 186
f 184 186 187
f 188 185 189
f 185 188 183
f 190 189 191
f 189 190 188
f 192 191 193
f 191 192 190
f 194 193 195
f 193 194 192
f 195 196 194
f 196 195 197
f 197 198 196
f 198 197 199
f 198 199 200
f 201 202 203
f 204 202 201
f 205 202 204
f 202 205 206
f 207 205 208
f 205 207 206
f 207 208 209
f 209 210 207
f 211 210 209
f 210 211 212
f 213 211 214
f 212 211 213
f 214 215 213
f 215 214 216
f 215 216 217
f 215 217 218
f 219 220 221
f 221 220 222
f 223 224 225
f 224 226 225
f 227 228 229
f 227 229 230
f 231 232 233
f 231 233 234
f 235 236 237
f 235 237 238
f 239 240 241
f 239 241 242
f 243 244 245
f 243 245 246
f 247 248 249
f 248 250 249
f 251 252 253
f 252 254 253
f 255 256 257
f 257 256 258
f 259 260 261
f 260 262 261
f 263 264 265
f 264 266 265
f 267 268 269
f 268 270 269
f 271 272 273
f 273 272 274
f 275 276 277
f 276 275 278
f 279 280 281
f 281 280 282
f 283 284 285
f 285 284 286
f 287 288 289
f 289 288 290
f 291 292 293
f 292 291 294
f 295 293 292
f 295 292 296
f 296 297 298
f 298 295 296
f 297 299 300
f 300 298 297
f 299 301 302
f 299 302 300
f 303 302 301
f 301 304 303
f 303 305 306
f 305 303 304
f 306 307 308
f 307 306 305
f 309 308 310
f 310 308 307
f 309 311 312
f 311 309 310
f 313 314 315
f 313 315 316
f 317 315 314
f 314 318 317
f 319 317 318
f 319 318 320
f 321 319 320
f 321 320 322
f 323 321 324
f 324 321 322
f 323 325 326
f 325 323 324
f 327 326 328
f 325 328 326
f 328 294 327
f 327 294 291
f 329 330 331
f 330 332 331
f 333 334 335
f 334 333 336
f 337 338 339
f 338 340 339
f 341 342 343
f 342 344 343
f 345 346 347
f 346 348 347
f 349 350 351
f 350 352 351
f 353 354 355
f 354 356 355
f 357 358 359
f 359 358 360
f 361 362 363
f 363 362 364
f 365 366 367
f 367 366 368
f 369 370 371
f 371 370 372
f 373 374 375
f 374 376 375
f 377 378 379
f 378 380 379
f 381 382 383
f 382 384 383
f 385 386 387
f 387 386 388
f 389 390 391
f 391 390 392
f 393 394 395
f 394 396 395
f 397 398 399
f 398 400 399
f 401 402 403
f 402 401 404
f 403 402 405
f 404 406 407
f 406 404 401
f 408 407 406
f 407 408 409
f 409 410 411
f 410 409 408
f 411 412 413
f 412 411 410
f 413 414 415
f 414 413 412
f 415 416 417
f 416 415 414
f 417 416 418
f 419 420 421
f 419 421 422
f 423 419 424
f 419 423 420
f 425 423 424
f 423 425 426
f 427 428 425
f 426 425 428
f 429 427 430
f 427 429 428
f 429 430 431
f 429 431 432
f 433 432 431
f 432 433 434
f 435 433 436
f 434 433 435
f 437 438 439
f 439 438 440
f 441 442 443
f 443 442 444
f 445 446 447
f 447 446 448
f 449 450 451
f 451 450 452
f 453 454 455
f 455 454 456
f 457 458 459
f 459 458 460
f 461 462 463
f 463 462 464
f 465 466 467
f 467 466 468
f 469 470 471
f 471 470 472
f 473 474 475
f 473 475 476
f 474 477 475
f 477 474 478
f 479 480 481
f 480 479 482
f 483 484 482
f 483 482 479
f 483 485 484
f 485 483 486
f 486 487 485
f 487 486 488
f 489 490 487
f 489 487 488
f 491 490 489
f 490 491 492
f 491 473 492
f 473 476 492
f 493 494 495
f 495 494 496
f 497 498 499
f 499 498 500
f 501 502 503
f 503 502 504
f 505 506 507
f 507 506 508
f 509 510 511
f 511 510 512
f 513 514 515
f 515 514 516
f 517 518 519
f 519 518 520
f 521 522 523
f 523 522 524
f 525 526 527
f 527 526 528
f 529 530 531
f 530 529 532
f 531 533 534
f 533 531 530
f 535 536 537
f 536 535 538
f 537 539 535
f 539 537 540
f 541 539 542
f 539 540 542
f 541 543 544
f 543 541 542
f 544 543 545
f 543 546 545
f 547 546 548
f 546 547 545
f 529 547 548
f 529 548 532
f 549 550 551
f 550 552 553
f 552 550 549
f 554 555 556
f 556 555 557
f 558 559 560
f 560 559 561
f 562 563 564
f 564 563 565
f 566 567 568
f 568 567 569
f 570 571 572
f 572 571 573
f 574 575 576
f 576 575 577
f 578 579 580
f 580 581 578
f 582 583 584
f 584 583 585
f 586 587 588
f 588 587 589
f 590 591 592
f 591 590 593
f 591 593 552
f 591 552 549
f 594 595 596
f 595 594 597
f 598 599 600
f 599 601 600
f 602 603 604
f 603 605 604
f 606 607 608
f 608 607 609
f 610 611 612
f 611 610 613
f 614 615 616
f 616 617 614
f 618 619 620
f 621 620 619
f 622 623 624
f 625 624 623
f 626 627 628
f 628 627 629
f 630 631 632
f 630 632 633
f 634 635 636
f 634 636 637
f 638 639 640
f 639 638 641
f 642 643 644
f 644 645 642
f 646 647 648
f 649 648 647
f 650 651 652
f 653 652 651
f 654 655 656
f 656 655 657
f 658 659 660
f 658 660 661
f 662 663 664
f 662 664 665
f 666 667 668
f 667 666 669
f 670 671 672
f 672 673 670
f 674 675 676
f 675 674 677
f 678 679 680
f 679 678 681
f 682 683 684
f 684 683 685
f 686 687 688
f 689 688 687
f 690 691 692
f 691 693 692
f 694 695 696
f 696 695 697
f 698 699 700
f 698 700 701
f 702 703 704
f 703 702 705
f 706 707 708
f 707 706 709
f 710 711 712
f 712 713 710
f 714 715 716
f 714 716 717
f 718 719 720
f 718 720 721
f 722 723 724
f 724 723 725
f 726 727 728
f 727 726 729
f 730 731 732
f 731 730 733
f 734 735 736
f 736 737 734
f 738 739 740
f 738 740 741
f 742 743 744
f 742 744 745
f 746 747 748
f 748 747 749
f 750 751 752
f 752 753 750
f 754 755 756
f 756 757 754
f 758 759 760
f 760 761 758
f 762 763 764
f 764 763 765
f 766 767 768
f 768 767 769
f 770 771 772
f 771 773 772
f 774 775 776
f 774 776 777
f 778 779 780
f 778 780 781
f 782 783 784
f 784 783 785
f 786 787 788
f 787 786 789
f 790 791 792
f 791 790 793
f 794 795 796
f 795 797 796
f 798 799 800
f 801 800 799
f 802 803 804
f 805 804 803
f 806 807 808
f 806 808 809
f 810 811 812
f 810 812 813
f 814 815 816
f 814 816 817
f 818 819 820
f 818 820 821
f 822 823 824
f 823 822 825
f 826 827 828
f 828 827 829
f 830 831 832
f 832 833 830
f 834 835 836
f 834 836 837
f 838 839 840
f 840 841 838
f 842 843 844
f 844 843 845
f 846 847 848
f 848 847 849
f 850 851 852
f 852 851 853
f 854 855 856
f 856 857 854
f 858 859 860
f 859 858 861
f 862 863 864
f 863 862 865
f 866 867 868
f 867 869 868
f 870 871 872
f 872 873 870
f 874 875 876
f 876 877 874
f 878 879 880
f 880 879 881
f 882 883 884
f 884 885 882
f 886 887 888
f 889 890 891
f 891 890 892
f 893 894 895
f 894 896 895
f 897 898 899
f 898 897 900
f 901 902 903
f 902 901 904
f 905 906 907
f 905 907 908
f 909 910 911
f 910 909 912
f 913 914 915
f 915 914 916
f 917 918 919
f 919 918 920
f 921 922 923
f 921 923 924
f 925 926 927
f 925 927 928
f 929 930 931
f 931 932 929
f 933 934 935
f 936 935 934
f 937 938 939
f 940 939 938
f 941 942 943
f 942 941 944
f 945 946 947
f 947 946 948
f 949 950 951
f 949 951 952
f 953 954 955
f 953 955 956
f 957 958 959
f 959 960 957
f 961 962 963
f 964 963 962
f 965 966 967
f 968 967 966
f 969 970 971
f 970 969 972
f 973 974 975
f 975 974 976
f 977 978 979
f 978 980 979
f 981 982 983
f 982 984 983
f 985 986 987
f 987 988 985
f 989 990 991
f 989 991 992
f 993 994 995
f 993 995 996
f 997 998 999
f 998 997 1000
f 1001 1002 1003
f 1002 1001 1004
f 1005 1006 1007
f 1005 1007 1008
f 1009 1010 1011
f 1009 1011 1012
f 1013 1014 1015
f 1015 1014 1016
f 1017 1018 1019
f 1019 1018 1020
f 1021 1022 1023
f 1022 1021 1024
f 1025 1026 1027
f 1027 1026 1028
f 1029 1030 1031
f 1030 1029 1032
f 1033 1034 1035
f 1034 1033 1036
f 1037 1038 1039
f 1038 1037 1040
f 1041 1042 1043
f 1043 1042 1044
f 1045 1046 1047
f 1047 1046 1048
f 1049 1050 1051
f 1051 1050 1052
f 1053 1054 1055
f 1055 1054 1056
f 1057 1058 1059
f 1058 1057 1060
f 1061 1062 1063
f 1062 1061 1064
f 1065 1066 1067
f 1066 1065 1068
f 1069 1070 1071
f 1071 1070 1072
f 1073 1074 1075
f 1074 1073 1076
f 1077 1078 1079
f 1078 1077 1080
f 1081 1082 1083
f 1082 1081 1084
f 1085 1086 1087
f 1087 1086 1088
f 1089 1090 1091
f 1092 1091 1090
f 1093 1094 1095
f 1096 1095 1094
f 1097 1098 1099
f 1098 1097 1100
f 1101 1102 1103
f 1101 1103 1104
f 1105 1106 1107
f 1105 1107 1108
f 1109 1110 1111
f 1110 1109 1112
f 1113 1114 1115
f 1115 1114 1116
f 1117 1118 1119
f 1117 1119 1120
f 1121 1122 1123
f 1121 1123 1124
f 1125 1126 1127
f 1126 1125 1128
f 1129 1130 1131
f 1132 1131 1130
f 1133 1134 1135
f 1136 1135 1134
f 1137 1138 1139
f 1138 1137 1140
f 1141 1142 1143
f 1142 1141 1144
f 1145 1146 1147
f 1146 1145 1148
f 1149 1150 1151
f 1150 1149 1152
f 1153 1154 1155
f 1155 1154 1156
f 1157 1158 1159
f 1159 1158 1160
f 1161 1162 1163
f 1163 1162 1164
f 1165 1166 1167
f 1167 1166 1168
f 1169 1170 1171
f 1170 1169 1172
f 1173 1174 1175
f 1174 1173 1176
f 1177 1178 1179
f 1178 1177 1180
f 1181 1182 1183
f 1183 1182 1184
f 1185 1186 1187
f 1187 1186 1188
f 1189 1190 1191
f 1190 1189 1192
f 1192 1193 1194
f 1195 1196 1197
f 1197 1196 1198
f 1199 1200 1201
f 1201 1200 1202
f 1203 1204 1205
f 1204 1206 1205
f 1207 1208 1209
f 1208 1210 1209
f 1211 1212 1213
f 1213 1214 1211
f 1215 1216 1217
f 1217 1218 1215
f 1219 1220 1221
f 1221 1222 1219
f 1223 1224 1225
f 1223 1226 1224
f 1227 1228 1229
f 1227 1229 1230
f 1231 1232 1233
f 1231 1233 1234
f 1235 1236 1237
f 1237 1236 1238
f 1239 1240 1241
f 1241 1242 1239
f 1243 1244 1245
f 1244 1243 1246
f 1247 1248 1249
f 1248 1247 1250
f 1251 1252 1253
f 1252 1254 1253
f 1255 1256 1257
f 1256 1258 1257
f 1259 1260 1261
f 1259 1262 1260
f 1263 1260 1262
f 1264 1265 1266
f 1266 1265 1267
f 1268 1269 1270
f 1270 1271 1268
f 1272 1273 1274
f 1272 1274 1275
f 1276 1277 1278
f 1278 1277 1279
f 1257 1280 1281
f 1280 1257 1282
f 1257 1281 1255
f 1283 1284 1285
f 1284 1283 1286
f 1260 1287 1288
f 1287 1260 1263
f 1289 1290 1291
f 1290 1289 1292
f 1280 1282 1293
f 1294 1295 1296
f 1296 1295 1297
f 1288 1287 1298
f 1299 1300 1301
f 1299 1301 1302
f 1303 1304 1305
f 1303 1306 1304
f 1307 1304 1306
f 1308 1309 1310
f 1309 1311 1310
f 1312 1313 1314
f 1313 1315 1314
f 1316 1317 1318
f 1318 1317 1319
f 1320 1321 1322
f 1323 1322 1321
f 1324 1325 1326
f 1326 1327 1324
f 1304 1328 1329
f 1328 1304 1307
f 1330 1331 1332
f 1330 1332 1333
f 1334 1308 1310
f 1310 1335 1334
f 1335 1310 1336
f 1337 1338 1339
f 1340 1339 1338
f 1329 1328 1341
f 1342 1343 1344
f 1343 1342 1345
f 1335 1336 1346
f 1347 1348 1349
f 1350 1349 1348
f 1351 1352 1353
f 1351 1353 1354
f 1355 1356 1357
f 1358 1357 1356
f 1359 1360 1361
f 1359 1361 1362
f 1363 1364 1365
f 1363 1365 1366
f 1367 1368 1369
f 1367 1369 1370
f 1371 1372 1373
f 1372 1371 1374
f 1375 1376 1377
f 1377 1376 1378
f 1379 1380 1381
f 1381 1382 1379
f 1383 1384 1385
f 1383 1385 1386
f 1387 1388 1389
f 1387 1389 1390
f 1391 1392 1393
f 1393 1392 1394
f 1395 1396 1397
f 1397 1398 1395
f 1399 1400 1401
f 1400 1399 1402
f 1403 1404 1405
f 1404 1403 1406
f 1407 1408 1409
f 1409 1408 1410
f 1411 1412 1413
f 1413 1412 1414
f 1415 1416 1417
f 1417 1416 1418
f 1419 1420 1421
f 1421 1420 1422
f 1423 1424 1425
f 1425 1424 1426
f 1427 1428 1429
f 1429 1428 1430
f 1431 1432 1433
f 1433 1432 1434
f 1435 1436 1437
f 1437 1436 1438
f 1439 1440 1441
f 1441 1440 1442
f 1443 1444 1445
f 1445 1444 1446
f 1447 1448 1449
f 1448 1447 1450
f 1451 1452 1453
f 1451 1453 1454
f 1455 1456 1457
f 1455 1457 1458
f 1459 1460 1461
f 1461 1460 1462
f 1463 1464 1465
f 1465 1466 1463
f 1467 1468 1469
f 1468 1467 1470
f 1471 1472 1473
f 1472 1471 1474
f 1475 1476 1477
f 1477 1476 1478
f 1479 1480 1481
f 1482 1481 1480
f 1483 1484 1485
f 1486 1485 1484
f 1487 1488 1489
f 1490 1489 1488
f 1491 1492 1493
f 1494 1493 1492
f 1495 1496 1497
f 1496 1495 1498
f 1499 1500 1501
f 1499 1501 1502
f 1503 1504 1505
f 1504 1503 1506
f 1507 1508 1509
f 1507 1509 1510
f 1511 1512 1513
f 1514 1513 1512
f 1515 1516 1517
f 1517 1516 1518
f 1519 1520 1521
f 1520 1519 1522
f 1523 1524 1525
f 1524 1523 1526
f 1527 1528 1529
f 1529 1530 1527
f 1531 1532 1533
f 1532 1534 1533
f 1535 1536 1537
f 1537 1536 1538
f 1539 1540 1541
f 1541 1542 1539
f 1543 1544 1545
f 1545 1544 1546
f 1547 1548 1549
f 1549 1550 1547
f 1551 1552 1553
f 1553 1552 1554
f 1552 1555 1556
f 1557 1556 1555
f 1555 1558 1557
f 1559 1557 1558
f 1560 1561 1562
f 1562 1563 1560
f 1564 1565 1566
f 1564 1566 1567
f 1568 1564 1567
f 1568 1567 1569
f 1569 1570 1571
f 1570 1569 1572
f 1573 1574 1575
f 1575 1574 1576
f 1574 1577 1578
f 1579 1578 1577
f 1577 1580 1579
f 1581 1579 1580
f 1582 1583 1584
f 1585 1584 1583
f 1586 1587 1588
f 1586 1588 1589
f 1590 1586 1589
f 1590 1589 1591
f 1591 1592 1593
f 1592 1591 1594
f 1595 1596 1597
f 1596 1595 1598
f 1599 1600 1601
f 1601 1600 1602
f 1603 1604 1605
f 1605 1604 1606
f 1607 1608 1609
f 1608 1607 1610
f 1611 1612 1613
f 1612 1611 1614
f 1615 1616 1617
f 1615 1618 1616
f 1619 1620 1621
f 1622 1621 1620

