# https://github.com/mikedh/trimesh

o aws_robomaker_warehouse_PalletJackB_01_visual-lib
v 0.58848957 0.23917227 0.13081833
v 0.59732143 0.17348829 0.13081833
v 0.59728410 0.22752681 0.13081833
v 0.58818260 0.16122367 0.13081833
v 0.59728410 0.22752681 0.13081833
v 0.59732143 0.17348829 0.13081833
v 0.59732143 0.17348829 0.09777566
v 0.59728410 0.22752681 0.09777566
v 0.58818260 0.16122367 0.13081833
v 0.58818260 0.16122367 0.09777566
v 0.59732143 0.17348829 0.13081833
v 0.59732143 0.17348829 0.09777566
v 0.58848957 0.23917227 0.09777566
v 0.58848957 0.23917227 0.13081833
v 0.59728410 0.22752681 0.13081833
v 0.59728410 0.22752681 0.09777566
v 0.57107065 0.15489640 0.13081833
v 0.57098250 0.24576400 0.13081833
v 0.58848957 0.23917227 0.09777566
v 0.59732143 0.17348829 0.09777566
v 0.58818260 0.16122367 0.09777566
v 0.59728410 0.22752681 0.09777566
v 0.57107065 0.15489640 0.13081833
v 0.57107065 0.15489640 0.09777566
v 0.58818260 0.16122367 0.13081833
v 0.58818260 0.16122367 0.09777566
v 0.57098250 0.24576400 0.09777566
v 0.57098250 0.24576400 0.13081833
v 0.58848957 0.23917227 0.13081833
v 0.58848957 0.23917227 0.09777566
v 0.57107065 0.15489640 0.09777566
v 0.57098250 0.24576400 0.09777566
v 0.53522681 0.25724250 0.13081833
v 0.53410263 0.14274172 0.13081833
v 0.57107065 0.15489640 0.13081833
v 0.53410263 0.14274172 0.13081833
v 0.53410263 0.14274172 0.09777566
v 0.57107065 0.15489640 0.09777566
v 0.53522681 0.25724250 0.13081833
v 0.57098250 0.24576400 0.09777566
v 0.53522681 0.25724250 0.09777566
v 0.46237861 0.20051895 0.13081833
v 0.47543968 0.12345395 0.13081833
v 0.53410263 0.14274172 0.09777566
v 0.53522681 0.25724250 0.09777566
v 0.47543968 0.12345395 0.13081833
v 0.47543968 0.12345395 0.07444635
v 0.47777624 0.27568713 0.13081833
v 0.47777624 0.27568713 0.07444635
v 0.45359243 0.17572010 0.13081833
v 0.44614403 0.17143588 0.13081833
v 0.45955878 0.18597794 0.13081833
v 0.47543968 0.12345395 0.07444635
v 0.46237861 0.20051895 0.07444635
v 0.53410263 0.14274172 0.09777566
v 0.27760679 0.12556132 0.13081833
v 0.47543968 0.12345395 0.07444635
v 0.47543968 0.12345395 0.13081833
v 0.27760679 0.12556132 0.07444635
v 0.27871337 0.27500784 0.13081833
v -0.34315281 0.27288594 0.07444635
v -0.34315281 0.27288594 0.13081833
v 0.27871337 0.27500784 0.07444635
v -0.34303150 0.13217172 0.13081833
v -0.34315281 0.27288594 0.13081833
v -0.34315281 0.27288594 0.07444635
v -0.34303150 0.13217172 0.07444635
v 0.31783960 0.18597794 0.13081833
v 0.31783960 0.18597794 0.07444635
v 0.31501978 0.20051895 0.13081833
v 0.31501978 0.20051895 0.07444635
v 0.31501978 0.20051895 0.13081833
v 0.31501978 0.20051895 0.07444635
v 0.31783960 0.21506100 0.13081833
v 0.31783960 0.21506100 0.07444635
v 0.32380598 0.17572010 0.13081833
v 0.32380598 0.17572010 0.07444635
v 0.31783960 0.18597794 0.13081833
v 0.31783960 0.18597794 0.07444635
v 0.31783960 0.21506100 0.13081833
v 0.31783960 0.21506100 0.07444635
v 0.32380598 0.22531781 0.13081833
v 0.32380598 0.22531781 0.07444635
v 0.44614403 0.17143588 0.07444635
v 0.33125436 0.17143588 0.13081833
v 0.44614403 0.17143588 0.13081833
v 0.33125436 0.17143588 0.07444635
v 0.45955878 0.18597794 0.13081833
v 0.45955878 0.18597794 0.07444635
v 0.45359243 0.17572010 0.13081833
v 0.45359243 0.17572010 0.07444635
v 0.45359243 0.22531781 0.13081833
v 0.45359243 0.22531781 0.07444635
v 0.45955878 0.21506100 0.13081833
v 0.45955878 0.21506100 0.07444635
v 0.46237861 0.20051895 0.13081833
v 0.46237861 0.20051895 0.07444635
v 0.45955878 0.18597794 0.13081833
v 0.45955878 0.18597794 0.07444635
v 0.45955878 0.21506100 0.13081833
v 0.45955878 0.21506100 0.07444635
v 0.46237861 0.20051895 0.13081833
v 0.46237861 0.20051895 0.07444635
v 0.27871337 0.27500784 0.13081833
v -0.34315281 0.27288594 0.13081833
v -0.34303150 0.13217172 0.13081833
v 0.27760679 0.12556132 0.13081833
v -0.34303150 0.13217172 0.13081833
v -0.34303150 0.13217172 0.07444635
v 0.47777624 0.27568713 0.07444635
v 0.47777624 0.27568713 0.13081833
v -0.34315281 0.27288594 0.07444635
v 0.27871337 0.27500784 0.07444635
v -0.34303150 0.13217172 0.07444635
v 0.27760679 0.12556132 0.07444635
v 0.33125436 0.17143588 0.13081833
v 0.45955878 0.21506100 0.13081833
v 0.47777624 0.27568713 0.13081833
v 0.45359243 0.22531781 0.13081833
v 0.31501978 0.20051895 0.13081833
v 0.31783960 0.18597794 0.13081833
v 0.31783960 0.21506100 0.13081833
v 0.33125436 0.22960203 0.13081833
v 0.44614403 0.22960203 0.13081833
v 0.32380598 0.22531781 0.13081833
v 0.33125436 0.22960203 0.13081833
v 0.44614403 0.22960203 0.07444635
v 0.44614403 0.22960203 0.13081833
v 0.33125436 0.22960203 0.07444635
v 0.31783960 0.18597794 0.07444635
v 0.32380598 0.17572010 0.07444635
v 0.31501978 0.20051895 0.07444635
v 0.31783960 0.21506100 0.07444635
v 0.32380598 0.22531781 0.07444635
v 0.47543968 0.12345395 0.07444635
v 0.33125436 0.17143588 0.07444635
v 0.44614403 0.17143588 0.07444635
v 0.45955878 0.18597794 0.07444635
v 0.45359243 0.17572010 0.07444635
v 0.47777624 0.27568713 0.07444635
v 0.45359243 0.22531781 0.07444635
v 0.44614403 0.22960203 0.07444635
v 0.45955878 0.21506100 0.07444635
v 0.33125436 0.22960203 0.07444635
v 0.32380598 0.17572010 0.13081833
v 0.32380598 0.17572010 0.07444635
v 0.32380598 0.17572010 0.13081833
v 0.33125436 0.17143588 0.13081833
v 0.33125436 0.17143588 0.07444635
v 0.32380598 0.22531781 0.13081833
v 0.33125436 0.22960203 0.07444635
v 0.33125436 0.22960203 0.13081833
v 0.32380598 0.22531781 0.07444635
v 0.44614403 0.17143588 0.07444635
v 0.44614403 0.17143588 0.13081833
v 0.45359243 0.17572010 0.13081833
v 0.45359243 0.17572010 0.07444635
v 0.45359243 0.22531781 0.07444635
v 0.45359243 0.22531781 0.13081833
v 0.44614403 0.22960203 0.13081833
v 0.44614403 0.22960203 0.07444635
v -0.22253425 -0.00000001 0.50899675
v -0.20239089 -0.00000001 0.13100708
v -0.22253425 0.06565702 0.50899675
v -0.20239089 0.26890975 0.13100708
v -0.22253425 0.06565702 0.50899675
v -0.32805075 0.26890975 0.13100708
v -0.30790841 0.07202578 0.50899675
v -0.20239089 0.26890975 0.13100708
v -0.22716278 -0.00000001 0.59586119
v -0.22716278 0.04047340 0.59586119
v -0.30327988 0.04883026 0.59586119
v -0.22716278 0.04047340 0.59586119
v -0.30790841 0.07202578 0.50899675
v -0.22253425 0.06565702 0.50899675
v -0.20245623 -0.00000001 0.54590362
v -0.18843168 -0.00000001 0.54590362
v -0.18843168 -0.01613711 0.54590362
v -0.21648284 -0.00000001 0.54590362
v -0.18843168 0.01613708 0.54590362
v -0.20245623 -0.00000001 0.54590362
v -0.20946902 0.04576255 0.54590362
v -0.24453298 -0.00000001 0.54590362
v -0.24453298 0.06603244 0.54590362
v -0.40739422 0.06603244 0.54590362
v -0.24453298 0.06603244 0.62169194
v -0.40739422 0.06603244 0.62211612
v -0.44946994 0.03796676 0.62211612
v -0.44946994 0.03796676 0.54590362
v -0.46349657 0.01613708 0.62211612
v -0.46349657 0.01613708 0.54590362
v -0.42843259 0.05823665 0.62211612
v -0.42843259 0.05823665 0.54590362
v -0.44946994 0.03796676 0.62211612
v -0.44946994 0.03796676 0.54590362
v -0.40739422 0.06603244 0.62211612
v -0.40739422 0.06603244 0.54590362
v -0.42843259 0.05823665 0.62211612
v -0.42843259 0.05823665 0.54590362
v -0.20946902 0.04576255 0.61637688
v -0.24453298 0.06603244 0.54590362
v -0.24453298 0.06603244 0.62169194
v -0.20946902 0.04576255 0.54590362
v -0.20946902 0.04576255 0.61637688
v -0.24453298 -0.00000001 0.62169194
v -0.21648284 -0.00000001 0.61904322
v -0.24453298 0.06603244 0.62169194
v -0.18843168 0.01613708 0.60521990
v -0.20946902 0.04576255 0.54590362
v -0.20946902 0.04576255 0.61637688
v -0.18843168 0.01613708 0.54590362
v -0.40739422 -0.00000001 0.54590362
v -0.40739422 0.06603244 0.54590362
v -0.24453298 0.06603244 0.54590362
v -0.43544538 -0.00000001 0.54590362
v -0.44946994 0.03796676 0.54590362
v -0.44307422 0.04885722 0.28966292
v -0.42852284 0.04885722 0.29806439
v -0.43767305 0.05063272 0.28513087
v -0.42729803 0.05063272 0.29112108
v -0.44882072 0.04885722 0.27387326
v -0.44307422 0.04885722 0.28966292
v -0.43767305 0.05063272 0.28513087
v -0.44177060 0.05063272 0.27387326
v -0.44307422 0.04885722 0.25808464
v -0.44882072 0.04885722 0.27387326
v -0.44177060 0.05063272 0.27387326
v -0.43767305 0.05063272 0.26261567
v -0.43767305 0.05063272 0.26261567
v -0.42729803 0.05063272 0.25662648
v -0.42852284 0.04885722 0.24968317
v -0.44307422 0.04885722 0.25808464
v -0.41550012 0.05063272 0.25870586
v -0.42852284 0.04885722 0.24968317
v -0.42729803 0.05063272 0.25662648
v -0.41197504 0.04885722 0.25260051
v -0.41197504 0.04885722 0.25260051
v -0.40779973 0.05063272 0.26788304
v -0.40117480 0.04885722 0.26547182
v -0.41550012 0.05063272 0.25870586
v -0.40117480 0.04885722 0.28227472
v -0.40117480 0.04885722 0.26547182
v -0.40779973 0.05063272 0.27986350
v -0.40779973 0.05063272 0.26788304
v -0.40779973 0.05063272 0.27986350
v -0.41197504 0.04885722 0.29514603
v -0.40117480 0.04885722 0.28227472
v -0.41550012 0.05063272 0.28904069
v -0.41197504 0.04885722 0.29514603
v -0.42729803 0.05063272 0.29112108
v -0.42852284 0.04885722 0.29806439
v -0.41550012 0.05063272 0.28904069
v -0.43564659 0.08876542 0.28343107
v -0.42592493 0.08876542 0.28333254
v -0.43161437 0.08876542 0.28004706
v -0.42683859 0.08876542 0.28851591
v -0.43912499 0.08876542 0.27387326
v -0.43386176 0.08876542 0.27387326
v -0.43564659 0.08876542 0.26431649
v -0.43161437 0.08876542 0.26769948
v -0.42592493 0.08876542 0.26441502
v -0.43564659 0.08876542 0.26431649
v -0.43161437 0.08876542 0.26769948
v -0.42683859 0.08876542 0.25923061
v -0.41945454 0.08876542 0.26555582
v -0.41682238 0.08876542 0.26099676
v -0.41028563 0.08876542 0.26878842
v -0.41523150 0.08876542 0.27058879
v -0.41523150 0.08876542 0.27715877
v -0.41028563 0.08876542 0.27895914
v -0.41682238 0.08876542 0.28674975
v -0.41945454 0.08876542 0.28219174
v -0.41945454 0.08876542 0.28219174
v -0.41682238 0.08876542 0.28674975
v -0.43161437 0.09271050 0.28004706
v -0.41945454 0.09271050 0.28219174
v -0.41523150 0.09271050 0.27715877
v -0.42592493 0.09271050 0.28333254
v -0.42592493 0.09271050 0.28333254
v -0.43161437 0.09271050 0.28004706
v -0.42592493 0.08876542 0.28333254
v -0.43161437 0.08876542 0.28004706
v -0.43161437 0.08876542 0.28004706
v -0.43161437 0.09271050 0.28004706
v -0.43386176 0.09271050 0.27387326
v -0.43386176 0.08876542 0.27387326
v -0.43386176 0.08876542 0.27387326
v -0.43386176 0.09271050 0.27387326
v -0.43161437 0.09271050 0.26769948
v -0.43161437 0.08876542 0.26769948
v -0.42592493 0.08876542 0.26441502
v -0.43161437 0.08876542 0.26769948
v -0.42592493 0.09271050 0.26441502
v -0.43161437 0.09271050 0.26769948
v -0.41945454 0.08876542 0.26555582
v -0.42592493 0.08876542 0.26441502
v -0.41945454 0.09271050 0.26555582
v -0.42592493 0.09271050 0.26441502
v -0.41523150 0.08876542 0.27058879
v -0.41945454 0.08876542 0.26555582
v -0.41523150 0.09271050 0.27058879
v -0.41945454 0.09271050 0.26555582
v -0.41523150 0.08876542 0.27715877
v -0.41523150 0.08876542 0.27058879
v -0.41523150 0.09271050 0.27715877
v -0.41523150 0.09271050 0.27058879
v -0.41945454 0.08876542 0.28219174
v -0.41523150 0.08876542 0.27715877
v -0.41945454 0.09271050 0.28219174
v -0.41523150 0.09271050 0.27715877
v -0.41945454 0.09271050 0.28219174
v -0.42592493 0.09271050 0.28333254
v -0.41945454 0.08876542 0.28219174
v -0.42592493 0.08876542 0.28333254
v -0.44307422 0.04885722 0.28966292
v -0.44307422 -0.04885724 0.28966292
v -0.42852284 0.04885722 0.29806439
v -0.42852284 -0.04885724 0.29806439
v -0.44882072 0.04885722 0.27387326
v -0.44882072 -0.04885724 0.27387326
v -0.44307422 0.04885722 0.28966292
v -0.44307422 -0.04885724 0.28966292
v -0.44307422 0.04885722 0.25808464
v -0.44307422 -0.04885724 0.25808464
v -0.44882072 0.04885722 0.27387326
v -0.44882072 -0.04885724 0.27387326
v -0.44307422 -0.04885724 0.25808464
v -0.44307422 0.04885722 0.25808464
v -0.42852284 -0.04885724 0.24968317
v -0.42852284 0.04885722 0.24968317
v -0.42852284 -0.04885724 0.24968317
v -0.42852284 0.04885722 0.24968317
v -0.41197504 -0.04885724 0.25260051
v -0.41197504 0.04885722 0.25260051
v -0.40117480 -0.04885724 0.26547182
v -0.41197504 0.04885722 0.25260051
v -0.40117480 0.04885722 0.26547182
v -0.41197504 -0.04885724 0.25260051
v -0.40117480 -0.04885724 0.28227472
v -0.40117480 0.04885722 0.26547182
v -0.40117480 0.04885722 0.28227472
v -0.40117480 -0.04885724 0.26547182
v -0.41197504 -0.04885724 0.29514603
v -0.40117480 0.04885722 0.28227472
v -0.41197504 0.04885722 0.29514603
v -0.40117480 -0.04885724 0.28227472
v -0.42852284 0.04885722 0.29806439
v -0.42852284 -0.04885724 0.29806439
v -0.41197504 0.04885722 0.29514603
v -0.41197504 -0.04885724 0.29514603
v -0.41523150 0.09271050 0.27058879
v -0.41945454 0.09271050 0.26555582
v -0.43386176 0.09271050 0.27387326
v -0.42592493 0.09271050 0.26441502
v -0.43161437 0.09271050 0.26769948
v -0.42729803 0.05063272 0.29112108
v -0.42683859 0.08876542 0.28851591
v -0.43564659 0.08876542 0.28343107
v -0.43767305 0.05063272 0.28513087
v -0.43912499 0.08876542 0.27387326
v -0.44177060 0.05063272 0.27387326
v -0.43564659 0.08876542 0.28343107
v -0.43767305 0.05063272 0.28513087
v -0.44177060 0.05063272 0.27387326
v -0.43912499 0.08876542 0.27387326
v -0.43564659 0.08876542 0.26431649
v -0.43767305 0.05063272 0.26261567
v -0.43767305 0.05063272 0.26261567
v -0.43564659 0.08876542 0.26431649
v -0.42729803 0.05063272 0.25662648
v -0.42683859 0.08876542 0.25923061
v -0.42729803 0.05063272 0.25662648
v -0.41682238 0.08876542 0.26099676
v -0.41550012 0.05063272 0.25870586
v -0.42683859 0.08876542 0.25923061
v -0.41550012 0.05063272 0.25870586
v -0.41682238 0.08876542 0.26099676
v -0.40779973 0.05063272 0.26788304
v -0.41028563 0.08876542 0.26878842
v -0.40779973 0.05063272 0.27986350
v -0.41028563 0.08876542 0.26878842
v -0.41028563 0.08876542 0.27895914
v -0.40779973 0.05063272 0.26788304
v -0.41682238 0.08876542 0.28674975
v -0.41550012 0.05063272 0.28904069
v -0.40779973 0.05063272 0.27986350
v -0.41028563 0.08876542 0.27895914
v -0.42683859 0.08876542 0.28851591
v -0.42729803 0.05063272 0.29112108
v -0.41682238 0.08876542 0.28674975
v -0.41550012 0.05063272 0.28904069
v -0.45902358 0.07503333 0.26449591
v -0.30647516 0.07503333 0.26175696
v -0.44791636 0.07503333 0.30251765
v -0.46084577 0.07503333 0.27219630
v -0.30647516 0.07503333 0.20465488
v -0.44791636 0.08614263 0.30251765
v -0.30647516 0.08614263 0.26175696
v -0.45902358 0.08614263 0.26449591
v -0.46084577 0.08614263 0.27219630
v -0.45749597 0.08614263 0.29202439
v -0.46008143 0.08614263 0.28596052
v -0.45902358 0.07503333 0.26449591
v -0.30647516 0.08614263 0.20465488
v -0.30647516 0.07503333 0.20465488
v -0.45902358 0.08614263 0.26449591
v -0.30647516 0.08614263 0.20465488
v -0.30647516 0.08614263 0.26175696
v -0.30647516 0.07503333 0.26175696
v -0.30647516 0.07503333 0.20465488
v -0.30647516 0.08614263 0.26175696
v -0.44791636 0.08614263 0.30251765
v -0.44791636 0.07503333 0.30251765
v -0.30647516 0.07503333 0.26175696
v -0.45749597 0.08614263 0.29202439
v -0.46008143 0.07503333 0.28596052
v -0.45749597 0.07503333 0.29202439
v -0.46008143 0.08614263 0.28596052
v -0.46084577 0.07503333 0.27219630
v -0.46084577 0.08614263 0.27219630
v -0.45902358 0.07503333 0.26449591
v -0.45902358 0.08614263 0.26449591
v -0.46008143 0.07503333 0.28596052
v -0.46008143 0.08614263 0.28596052
v -0.46084577 0.07503333 0.27219630
v -0.46084577 0.08614263 0.27219630
v -0.44791636 0.08614263 0.30251765
v -0.45749597 0.07503333 0.29202439
v -0.44791636 0.07503333 0.30251765
v -0.45749597 0.08614263 0.29202439
v -0.45749597 0.07503333 0.29202439
v -0.46008143 0.07503333 0.28596052
v -0.30647516 0.08614263 0.20465488
v -0.32805075 -0.00000001 0.13100708
v -0.32805075 0.26890975 0.13100708
v -0.20239089 -0.00000001 0.13100708
v -0.20239089 0.26890975 0.13100708
v -0.30790841 0.07202578 0.50899675
v -0.32805075 -0.00000001 0.13100708
v -0.30790841 -0.00000001 0.50899675
v -0.32805075 0.26890975 0.13100708
v -0.30327988 0.04883026 0.59586119
v -0.30327988 -0.00000001 0.59586119
v -0.42843259 0.05823665 0.62211612
v -0.40739422 -0.00000001 0.62211612
v -0.40739422 0.06603244 0.62211612
v -0.44946994 0.03796676 0.62211612
v -0.44946994 -0.00000001 0.62211612
v -0.46349657 0.01613708 0.62211612
v -0.46349657 0.01613708 0.62211612
v -0.46349657 -0.00000001 0.54590362
v -0.46349657 -0.00000001 0.62211612
v -0.46349657 0.01613708 0.54590362
v -0.44946994 -0.00000001 0.62211612
v -0.46349657 -0.00000001 0.62211612
v -0.46349657 -0.01613711 0.62211612
v -0.18843168 0.01613708 0.54590362
v -0.18843168 0.01613708 0.60521990
v -0.18843168 -0.00000001 0.60521990
v -0.18843168 -0.00000001 0.54590362
v -0.20946902 0.04576255 0.61637688
v -0.21648284 -0.00000001 0.61904322
v -0.18843168 0.01613708 0.60521990
v -0.24453298 0.06603244 0.62169194
v -0.24453298 -0.00000001 0.62169194
v 0.59732143 -0.17348830 0.13081833
v 0.59728410 -0.22752682 0.13081833
v 0.59732143 -0.17348830 0.09777566
v 0.59728410 -0.22752682 0.09777566
v 0.59732143 -0.17348830 0.13081833
v 0.58818260 -0.16122369 0.09777566
v 0.58818260 -0.16122369 0.13081833
v 0.59732143 -0.17348830 0.09777566
v 0.58848957 -0.23917230 0.13081833
v 0.59732143 -0.17348830 0.13081833
v 0.58818260 -0.16122369 0.13081833
v 0.59728410 -0.22752682 0.13081833
v 0.58848957 -0.23917230 0.09777566
v 0.59728410 -0.22752682 0.13081833
v 0.58848957 -0.23917230 0.13081833
v 0.59728410 -0.22752682 0.09777566
v 0.58848957 -0.23917230 0.09777566
v 0.59732143 -0.17348830 0.09777566
v 0.59728410 -0.22752682 0.09777566
v 0.58818260 -0.16122369 0.09777566
v 0.57107065 -0.15489642 0.13081833
v 0.57098250 -0.24576402 0.13081833
v 0.58818260 -0.16122369 0.13081833
v 0.57107065 -0.15489642 0.09777566
v 0.57107065 -0.15489642 0.13081833
v 0.58818260 -0.16122369 0.09777566
v 0.57098250 -0.24576402 0.13081833
v 0.57098250 -0.24576402 0.09777566
v 0.58848957 -0.23917230 0.13081833
v 0.58848957 -0.23917230 0.09777566
v 0.57107065 -0.15489642 0.09777566
v 0.57098250 -0.24576402 0.09777566
v 0.53410263 -0.14274174 0.13081833
v 0.53522681 -0.25724253 0.13081833
v 0.53410263 -0.14274174 0.13081833
v 0.57107065 -0.15489642 0.13081833
v 0.53410263 -0.14274174 0.09777566
v 0.57107065 -0.15489642 0.09777566
v 0.57098250 -0.24576402 0.13081833
v 0.53522681 -0.25724253 0.13081833
v 0.53522681 -0.25724253 0.09777566
v 0.47543968 -0.12345398 0.13081833
v 0.46237861 -0.20051897 0.13081833
v 0.53522681 -0.25724253 0.09777566
v 0.53410263 -0.14274174 0.09777566
v 0.47543968 -0.12345398 0.13081833
v 0.47543968 -0.12345398 0.07444635
v 0.47777624 -0.27568713 0.13081833
v 0.47777624 -0.27568713 0.07444635
v 0.45955878 -0.18597796 0.13081833
v 0.45359243 -0.17572011 0.13081833
v 0.53410263 -0.14274174 0.09777566
v 0.46237861 -0.20051897 0.07444635
v 0.47543968 -0.12345398 0.07444635
v 0.27760679 -0.12556134 0.13081833
v 0.47543968 -0.12345398 0.13081833
v 0.47543968 -0.12345398 0.07444635
v 0.27760679 -0.12556134 0.07444635
v 0.27871337 -0.27500784 0.13081833
v -0.34315281 -0.27288597 0.13081833
v -0.34315281 -0.27288597 0.07444635
v 0.27871337 -0.27500784 0.07444635
v -0.34303150 -0.13217174 0.13081833
v -0.34315281 -0.27288597 0.07444635
v -0.34315281 -0.27288597 0.13081833
v -0.34303150 -0.13217174 0.07444635
v 0.31783960 -0.18597796 0.07444635
v 0.31783960 -0.18597796 0.13081833
v 0.31501978 -0.20051897 0.13081833
v 0.31501978 -0.20051897 0.07444635
v 0.31501978 -0.20051897 0.07444635
v 0.31501978 -0.20051897 0.13081833
v 0.31783960 -0.21506103 0.13081833
v 0.31783960 -0.21506103 0.07444635
v 0.31783960 -0.18597796 0.13081833
v 0.32380598 -0.17572011 0.07444635
v 0.32380598 -0.17572011 0.13081833
v 0.31783960 -0.18597796 0.07444635
v 0.31783960 -0.21506103 0.07444635
v 0.31783960 -0.21506103 0.13081833
v 0.32380598 -0.22531782 0.13081833
v 0.32380598 -0.22531782 0.07444635
v 0.33125436 -0.17143590 0.07444635
v 0.44614403 -0.17143590 0.07444635
v 0.33125436 -0.17143590 0.13081833
v 0.44614403 -0.17143590 0.13081833
v 0.45359243 -0.17572011 0.13081833
v 0.45955878 -0.18597796 0.07444635
v 0.45955878 -0.18597796 0.13081833
v 0.45359243 -0.17572011 0.07444635
v 0.45359243 -0.22531782 0.07444635
v 0.45359243 -0.22531782 0.13081833
v 0.45955878 -0.21506103 0.13081833
v 0.45955878 -0.21506103 0.07444635
v 0.46237861 -0.20051897 0.07444635
v 0.46237861 -0.20051897 0.13081833
v 0.45955878 -0.18597796 0.13081833
v 0.45955878 -0.18597796 0.07444635
v 0.45955878 -0.21506103 0.07444635
v 0.45955878 -0.21506103 0.13081833
v 0.46237861 -0.20051897 0.13081833
v 0.46237861 -0.20051897 0.07444635
v -0.34315281 -0.27288597 0.13081833
v 0.27871337 -0.27500784 0.13081833
v -0.34303150 -0.13217174 0.13081833
v 0.27760679 -0.12556134 0.13081833
v -0.34303150 -0.13217174 0.07444635
v -0.34303150 -0.13217174 0.13081833
v 0.47777624 -0.27568713 0.07444635
v 0.47777624 -0.27568713 0.13081833
v -0.34303150 -0.13217174 0.07444635
v 0.27871337 -0.27500784 0.07444635
v -0.34315281 -0.27288597 0.07444635
v 0.27760679 -0.12556134 0.07444635
v 0.33125436 -0.17143590 0.13081833
v 0.44614403 -0.17143590 0.13081833
v 0.47777624 -0.27568713 0.13081833
v 0.45955878 -0.21506103 0.13081833
v 0.45359243 -0.22531782 0.13081833
v 0.31783960 -0.18597796 0.13081833
v 0.31501978 -0.20051897 0.13081833
v 0.31783960 -0.21506103 0.13081833
v 0.33125436 -0.22960204 0.13081833
v 0.44614403 -0.22960204 0.13081833
v 0.32380598 -0.22531782 0.13081833
v 0.33125436 -0.22960204 0.13081833
v 0.44614403 -0.22960204 0.13081833
v 0.44614403 -0.22960204 0.07444635
v 0.33125436 -0.22960204 0.07444635
v 0.31501978 -0.20051897 0.07444635
v 0.31783960 -0.18597796 0.07444635
v 0.31783960 -0.21506103 0.07444635
v 0.32380598 -0.22531782 0.07444635
v 0.47543968 -0.12345398 0.07444635
v 0.33125436 -0.17143590 0.07444635
v 0.44614403 -0.17143590 0.07444635
v 0.45955878 -0.18597796 0.07444635
v 0.45359243 -0.17572011 0.07444635
v 0.47777624 -0.27568713 0.07444635
v 0.45955878 -0.21506103 0.07444635
v 0.46237861 -0.20051897 0.07444635
v 0.33125436 -0.22960204 0.07444635
v 0.44614403 -0.22960204 0.07444635
v 0.32380598 -0.17572011 0.13081833
v 0.32380598 -0.17572011 0.07444635
v 0.45359243 -0.22531782 0.07444635
v 0.32380598 -0.17572011 0.13081833
v 0.32380598 -0.17572011 0.07444635
v 0.33125436 -0.17143590 0.13081833
v 0.33125436 -0.17143590 0.07444635
v 0.33125436 -0.22960204 0.13081833
v 0.33125436 -0.22960204 0.07444635
v 0.32380598 -0.22531782 0.13081833
v 0.32380598 -0.22531782 0.07444635
v 0.44614403 -0.17143590 0.13081833
v 0.44614403 -0.17143590 0.07444635
v 0.45359243 -0.17572011 0.13081833
v 0.45359243 -0.17572011 0.07444635
v 0.45359243 -0.22531782 0.13081833
v 0.45359243 -0.22531782 0.07444635
v 0.44614403 -0.22960204 0.13081833
v 0.44614403 -0.22960204 0.07444635
v -0.20239089 -0.00000001 0.13100708
v -0.22253425 -0.00000001 0.50899675
v -0.22253425 -0.06565704 0.50899675
v -0.20239089 -0.26890976 0.13100708
v -0.22253425 -0.06565704 0.50899675
v -0.32805075 -0.26890976 0.13100708
v -0.20239089 -0.26890976 0.13100708
v -0.30790841 -0.07202580 0.50899675
v -0.22716278 -0.04047342 0.59586119
v -0.22716278 -0.00000001 0.59586119
v -0.30790841 -0.07202580 0.50899675
v -0.22716278 -0.04047342 0.59586119
v -0.30327988 -0.04883028 0.59586119
v -0.22253425 -0.06565704 0.50899675
v -0.21648284 -0.00000001 0.54590362
v -0.20946902 -0.04576257 0.54590362
v -0.24453298 -0.06603246 0.62169194
v -0.40739422 -0.06603246 0.62211612
v -0.40739422 -0.06603246 0.54590362
v -0.24453298 -0.06603246 0.54590362
v -0.44946994 -0.03796678 0.54590362
v -0.44946994 -0.03796678 0.62211612
v -0.46349657 -0.01613711 0.62211612
v -0.46349657 -0.01613711 0.54590362
v -0.42843259 -0.05823667 0.54590362
v -0.42843259 -0.05823667 0.62211612
v -0.44946994 -0.03796678 0.62211612
v -0.44946994 -0.03796678 0.54590362
v -0.42843259 -0.05823667 0.62211612
v -0.40739422 -0.06603246 0.54590362
v -0.40739422 -0.06603246 0.62211612
v -0.42843259 -0.05823667 0.54590362
v -0.24453298 -0.06603246 0.62169194
v -0.24453298 -0.06603246 0.54590362
v -0.20946902 -0.04576257 0.61637688
v -0.20946902 -0.04576257 0.54590362
v -0.20946902 -0.04576257 0.61637688
v -0.20946902 -0.04576257 0.54590362
v -0.18843168 -0.01613711 0.60521990
v -0.18843168 -0.01613711 0.54590362
v -0.40739422 -0.06603246 0.54590362
v -0.24453298 -0.00000001 0.54590362
v -0.24453298 -0.06603246 0.54590362
v -0.40739422 -0.00000001 0.54590362
v -0.42843259 -0.05823667 0.54590362
v -0.44946994 -0.03796678 0.54590362
v -0.46349657 -0.01613711 0.54590362
v -0.43544538 -0.00000001 0.54590362
v -0.42852284 -0.04885724 0.29806439
v -0.44307422 -0.04885724 0.28966292
v -0.43767305 -0.05063274 0.28513087
v -0.42729803 -0.05063274 0.29112108
v -0.44882072 -0.04885724 0.27387326
v -0.43767305 -0.05063274 0.28513087
v -0.44307422 -0.04885724 0.28966292
v -0.44177060 -0.05063274 0.27387326
v -0.44882072 -0.04885724 0.27387326
v -0.44307422 -0.04885724 0.25808464
v -0.44177060 -0.05063274 0.27387326
v -0.43767305 -0.05063274 0.26261567
v -0.43767305 -0.05063274 0.26261567
v -0.42852284 -0.04885724 0.24968317
v -0.42729803 -0.05063274 0.25662648
v -0.44307422 -0.04885724 0.25808464
v -0.42852284 -0.04885724 0.24968317
v -0.41550012 -0.05063274 0.25870586
v -0.42729803 -0.05063274 0.25662648
v -0.41197504 -0.04885724 0.25260051
v -0.41197504 -0.04885724 0.25260051
v -0.40117480 -0.04885724 0.26547182
v -0.40779973 -0.05063274 0.26788304
v -0.41550012 -0.05063274 0.25870586
v -0.40117480 -0.04885724 0.26547182
v -0.40117480 -0.04885724 0.28227472
v -0.40779973 -0.05063274 0.27986350
v -0.40779973 -0.05063274 0.26788304
v -0.40779973 -0.05063274 0.27986350
v -0.41197504 -0.04885724 0.29514603
v -0.41550012 -0.05063274 0.28904069
v -0.40117480 -0.04885724 0.28227472
v -0.41197504 -0.04885724 0.29514603
v -0.42852284 -0.04885724 0.29806439
v -0.42729803 -0.05063274 0.29112108
v -0.41550012 -0.05063274 0.28904069
v -0.43564659 -0.08876544 0.28343107
v -0.42592493 -0.08876544 0.28333254
v -0.42683859 -0.08876544 0.28851591
v -0.43161437 -0.08876544 0.28004706
v -0.43912499 -0.08876544 0.27387326
v -0.43386176 -0.08876544 0.27387326
v -0.43564659 -0.08876544 0.26431649
v -0.43161437 -0.08876544 0.26769948
v -0.42592493 -0.08876544 0.26441502
v -0.43564659 -0.08876544 0.26431649
v -0.42683859 -0.08876544 0.25923061
v -0.43161437 -0.08876544 0.26769948
v -0.41945454 -0.08876544 0.26555582
v -0.41682238 -0.08876544 0.26099676
v -0.41028563 -0.08876544 0.26878842
v -0.41523150 -0.08876544 0.27058879
v -0.41028563 -0.08876544 0.27895914
v -0.41523150 -0.08876544 0.27715877
v -0.41682238 -0.08876544 0.28674975
v -0.41945454 -0.08876544 0.28219174
v -0.41945454 -0.08876544 0.28219174
v -0.41682238 -0.08876544 0.28674975
v -0.43161437 -0.09271052 0.28004706
v -0.41523150 -0.09271052 0.27715877
v -0.41945454 -0.09271052 0.28219174
v -0.42592493 -0.09271052 0.28333254
v -0.42592493 -0.08876544 0.28333254
v -0.43161437 -0.08876544 0.28004706
v -0.43161437 -0.09271052 0.28004706
v -0.42592493 -0.09271052 0.28333254
v -0.43161437 -0.09271052 0.28004706
v -0.43161437 -0.08876544 0.28004706
v -0.43386176 -0.09271052 0.27387326
v -0.43386176 -0.08876544 0.27387326
v -0.43386176 -0.09271052 0.27387326
v -0.43386176 -0.08876544 0.27387326
v -0.43161437 -0.09271052 0.26769948
v -0.43161437 -0.08876544 0.26769948
v -0.43161437 -0.09271052 0.26769948
v -0.43161437 -0.08876544 0.26769948
v -0.42592493 -0.09271052 0.26441502
v -0.42592493 -0.08876544 0.26441502
v -0.42592493 -0.09271052 0.26441502
v -0.42592493 -0.08876544 0.26441502
v -0.41945454 -0.09271052 0.26555582
v -0.41945454 -0.08876544 0.26555582
v -0.41523150 -0.08876544 0.27058879
v -0.41523150 -0.09271052 0.27058879
v -0.41945454 -0.08876544 0.26555582
v -0.41945454 -0.09271052 0.26555582
v -0.41523150 -0.08876544 0.27715877
v -0.41523150 -0.09271052 0.27715877
v -0.41523150 -0.08876544 0.27058879
v -0.41523150 -0.09271052 0.27058879
v -0.41945454 -0.08876544 0.28219174
v -0.41945454 -0.09271052 0.28219174
v -0.41523150 -0.08876544 0.27715877
v -0.41523150 -0.09271052 0.27715877
v -0.41945454 -0.08876544 0.28219174
v -0.42592493 -0.08876544 0.28333254
v -0.42592493 -0.09271052 0.28333254
v -0.41945454 -0.09271052 0.28219174
v -0.41523150 -0.09271052 0.27058879
v -0.41945454 -0.09271052 0.26555582
v -0.43386176 -0.09271052 0.27387326
v -0.42592493 -0.09271052 0.26441502
v -0.43161437 -0.09271052 0.26769948
v -0.43767305 -0.05063274 0.28513087
v -0.43564659 -0.08876544 0.28343107
v -0.42729803 -0.05063274 0.29112108
v -0.42683859 -0.08876544 0.28851591
v -0.43564659 -0.08876544 0.28343107
v -0.43767305 -0.05063274 0.28513087
v -0.44177060 -0.05063274 0.27387326
v -0.43912499 -0.08876544 0.27387326
v -0.44177060 -0.05063274 0.27387326
v -0.43564659 -0.08876544 0.26431649
v -0.43912499 -0.08876544 0.27387326
v -0.43767305 -0.05063274 0.26261567
v -0.42729803 -0.05063274 0.25662648
v -0.42683859 -0.08876544 0.25923061
v -0.43564659 -0.08876544 0.26431649
v -0.43767305 -0.05063274 0.26261567
v -0.42683859 -0.08876544 0.25923061
v -0.42729803 -0.05063274 0.25662648
v -0.41682238 -0.08876544 0.26099676
v -0.41550012 -0.05063274 0.25870586
v -0.40779973 -0.05063274 0.26788304
v -0.41028563 -0.08876544 0.26878842
v -0.41682238 -0.08876544 0.26099676
v -0.41550012 -0.05063274 0.25870586
v -0.41028563 -0.08876544 0.26878842
v -0.40779973 -0.05063274 0.27986350
v -0.41028563 -0.08876544 0.27895914
v -0.40779973 -0.05063274 0.26788304
v -0.41028563 -0.08876544 0.27895914
v -0.40779973 -0.05063274 0.27986350
v -0.41682238 -0.08876544 0.28674975
v -0.41550012 -0.05063274 0.28904069
v -0.41682238 -0.08876544 0.28674975
v -0.41550012 -0.05063274 0.28904069
v -0.42729803 -0.05063274 0.29112108
v -0.42683859 -0.08876544 0.28851591
v -0.30647516 -0.07503335 0.20465488
v -0.45902358 -0.07503335 0.26449591
v -0.30647516 -0.07503335 0.26175696
v -0.44791636 -0.07503335 0.30251765
v -0.46084577 -0.07503335 0.27219630
v -0.45902358 -0.08614264 0.26449591
v -0.30647516 -0.08614264 0.26175696
v -0.44791636 -0.08614264 0.30251765
v -0.46084577 -0.08614264 0.27219630
v -0.45749597 -0.08614264 0.29202439
v -0.46008143 -0.08614264 0.28596052
v -0.30647516 -0.08614264 0.20465488
v -0.45902358 -0.08614264 0.26449591
v -0.45902358 -0.07503335 0.26449591
v -0.30647516 -0.07503335 0.20465488
v -0.30647516 -0.08614264 0.20465488
v -0.30647516 -0.07503335 0.26175696
v -0.30647516 -0.08614264 0.26175696
v -0.30647516 -0.07503335 0.20465488
v -0.44791636 -0.08614264 0.30251765
v -0.30647516 -0.08614264 0.26175696
v -0.44791636 -0.07503335 0.30251765
v -0.30647516 -0.07503335 0.26175696
v -0.45749597 -0.08614264 0.29202439
v -0.45749597 -0.07503335 0.29202439
v -0.46008143 -0.07503335 0.28596052
v -0.46008143 -0.08614264 0.28596052
v -0.46084577 -0.08614264 0.27219630
v -0.46084577 -0.07503335 0.27219630
v -0.45902358 -0.07503335 0.26449591
v -0.45902358 -0.08614264 0.26449591
v -0.46008143 -0.08614264 0.28596052
v -0.46008143 -0.07503335 0.28596052
v -0.46084577 -0.07503335 0.27219630
v -0.46084577 -0.08614264 0.27219630
v -0.45749597 -0.07503335 0.29202439
v -0.44791636 -0.08614264 0.30251765
v -0.44791636 -0.07503335 0.30251765
v -0.45749597 -0.08614264 0.29202439
v -0.45749597 -0.07503335 0.29202439
v -0.46008143 -0.07503335 0.28596052
v -0.30647516 -0.08614264 0.20465488
v -0.20239089 -0.00000001 0.13100708
v -0.20239089 -0.26890976 0.13100708
v -0.32805075 -0.26890976 0.13100708
v -0.32805075 -0.00000001 0.13100708
v -0.30790841 -0.00000001 0.50899675
v -0.32805075 -0.00000001 0.13100708
v -0.30790841 -0.07202580 0.50899675
v -0.32805075 -0.26890976 0.13100708
v -0.30327988 -0.00000001 0.59586119
v -0.30327988 -0.04883028 0.59586119
v -0.46349657 -0.00000001 0.62211612
v -0.46349657 -0.01613711 0.54590362
v -0.46349657 -0.01613711 0.62211612
v -0.46349657 -0.00000001 0.54590362
v -0.40739422 -0.00000001 0.62211612
v -0.44946994 -0.03796678 0.62211612
v -0.18843168 -0.01613711 0.60521990
v -0.18843168 -0.01613711 0.54590362
v -0.18843168 -0.00000001 0.60521990
v -0.18843168 -0.00000001 0.54590362
v -0.24453298 -0.00000001 0.62169194
v -0.24453298 -0.06603246 0.62169194
v -0.20946902 -0.04576257 0.61637688
v -0.21648284 -0.00000001 0.61904322
v -0.24453298 -0.06603246 0.62169194
v -0.24453298 -0.00000001 0.62169194
v -0.40739422 -0.06603246 0.62211612
v 0.38934583 0.21126940 0.12154468
v 0.36934555 0.21126940 0.11802065
v 0.38934583 0.19015740 0.12154468
v 0.36934555 0.19015740 0.11802065
v 0.36934555 0.21126940 0.11802065
v 0.35182086 0.21126940 0.10791008
v 0.36934555 0.19015740 0.11802065
v 0.35182086 0.19015740 0.10791008
v 0.35182086 0.19015740 0.10791008
v 0.35182086 0.21126940 0.10791008
v 0.33888836 0.19015740 0.09251036
v 0.33888836 0.21126940 0.09251036
v 0.33888836 0.19015740 0.09251036
v 0.33888836 0.21126940 0.09251036
v 0.33204565 0.19015740 0.07372661
v 0.33204565 0.21126940 0.07372661
v 0.33204565 0.19015740 0.07372661
v 0.33204565 0.21126940 0.07372661
v 0.33204565 0.19015740 0.05378548
v 0.33204565 0.21126940 0.05378548
v 0.33204565 0.19015740 0.05378548
v 0.33204565 0.21126940 0.05378548
v 0.33888836 0.19015740 0.03500277
v 0.33888836 0.21126940 0.03500277
v 0.33888836 0.19015740 0.03500277
v 0.33888836 0.21126940 0.03500277
v 0.35182086 0.19015740 0.01960304
v 0.35182086 0.21126940 0.01960304
v 0.35182086 0.21126940 0.01960304
v 0.36934555 0.19015740 0.00949143
v 0.35182086 0.19015740 0.01960304
v 0.36934555 0.21126940 0.00949143
v 0.36934555 0.19015740 0.00949143
v 0.36934555 0.21126940 0.00949143
v 0.38934477 0.19015740 0.00596741
v 0.38934477 0.21126940 0.00596741
v 0.38934477 0.19015740 0.00596741
v 0.38934477 0.21126940 0.00596741
v 0.40934502 0.19015740 0.00949143
v 0.40934502 0.21126940 0.00949143
v 0.40934502 0.19015740 0.00949143
v 0.40934502 0.21126940 0.00949143
v 0.42686974 0.19015740 0.01960304
v 0.42686974 0.21126940 0.01960304
v 0.43980224 0.21126940 0.03500277
v 0.43980224 0.19015740 0.03500277
v 0.42686974 0.21126940 0.01960304
v 0.42686974 0.19015740 0.01960304
v 0.44664390 0.21126940 0.05378548
v 0.44664390 0.19015740 0.05378548
v 0.43980224 0.21126940 0.03500277
v 0.43980224 0.19015740 0.03500277
v 0.44664390 0.21126940 0.07372661
v 0.44664495 0.19015740 0.07372661
v 0.44664390 0.21126940 0.05378548
v 0.44664390 0.19015740 0.05378548
v 0.43980224 0.19015740 0.09251036
v 0.44664495 0.19015740 0.07372661
v 0.43980224 0.21126940 0.09251036
v 0.44664390 0.21126940 0.07372661
v 0.42686974 0.19015740 0.10791008
v 0.43980224 0.19015740 0.09251036
v 0.42686974 0.21126940 0.10791008
v 0.43980224 0.21126940 0.09251036
v 0.42686974 0.21126940 0.10791008
v 0.40934502 0.21126940 0.11802065
v 0.42686974 0.19015740 0.10791008
v 0.40934400 0.19015740 0.11802065
v 0.40934502 0.21126940 0.11802065
v 0.38934583 0.21126940 0.12154468
v 0.40934400 0.19015740 0.11802065
v 0.38934583 0.19015740 0.12154468
v 0.36753897 0.21126940 0.12366760
v 0.38934477 0.21126940 0.12751313
v 0.36753897 0.22067684 0.12366760
v 0.38934477 0.22067684 0.12751209
v 0.36753897 0.19015740 0.12366760
v 0.38934477 0.18074998 0.12751313
v 0.38934477 0.19015740 0.12751313
v 0.36753897 0.18074998 0.12366760
v 0.34836319 0.21126940 0.11259668
v 0.36753897 0.21126940 0.12366760
v 0.34836319 0.22067684 0.11259668
v 0.36753897 0.22067684 0.12366760
v 0.34836319 0.19015740 0.11259668
v 0.36753897 0.18074998 0.12366760
v 0.36753897 0.19015740 0.12366760
v 0.34836319 0.18074998 0.11259668
v 0.34836319 0.22067684 0.11259668
v 0.33413019 0.22067684 0.09563407
v 0.34836319 0.21126940 0.11259668
v 0.33413019 0.21126940 0.09563407
v 0.34836319 0.19015740 0.11259668
v 0.33413019 0.19015740 0.09563407
v 0.34836319 0.18074998 0.11259668
v 0.33413019 0.18074998 0.09563407
v 0.33413019 0.22067684 0.09563407
v 0.32655738 0.22067684 0.07482800
v 0.33413019 0.21126940 0.09563407
v 0.32655738 0.21126940 0.07482800
v 0.33413019 0.19015740 0.09563407
v 0.32655738 0.19015740 0.07482800
v 0.33413019 0.18074998 0.09563407
v 0.32655738 0.18074998 0.07482800
v 0.32655738 0.22067684 0.07482800
v 0.32655738 0.22067684 0.05268512
v 0.32655738 0.21126940 0.07482800
v 0.32655738 0.21126940 0.05268512
v 0.32655738 0.19015740 0.07482800
v 0.32655738 0.19015740 0.05268512
v 0.32655738 0.18074998 0.07482800
v 0.32655738 0.18074998 0.05268512
v 0.32655738 0.22067684 0.05268512
v 0.33413019 0.22067684 0.03187802
v 0.32655738 0.21126940 0.05268512
v 0.33413019 0.21126940 0.03187802
v 0.32655738 0.19015740 0.05268512
v 0.33413019 0.19015740 0.03187802
v 0.32655738 0.18074998 0.05268512
v 0.33413019 0.18074998 0.03187802
v 0.33413019 0.22067684 0.03187802
v 0.34836319 0.22067684 0.01491644
v 0.33413019 0.21126940 0.03187802
v 0.34836319 0.21126940 0.01491644
v 0.33413019 0.19015740 0.03187802
v 0.34836319 0.19015740 0.01491644
v 0.33413019 0.18074998 0.03187802
v 0.34836319 0.18074998 0.01491644
v 0.34836319 0.21126940 0.01491644
v 0.36753897 0.22067684 0.00384552
v 0.36753897 0.21126940 0.00384552
v 0.34836319 0.22067684 0.01491644
v 0.34836319 0.19015740 0.01491644
v 0.36753897 0.19015740 0.00384552
v 0.34836319 0.18074998 0.01491644
v 0.36753897 0.18074998 0.00384552
v 0.36753897 0.21126940 0.00384552
v 0.38934477 0.22067684 0.00000000
v 0.38934477 0.21126940 0.00000000
v 0.36753897 0.22067684 0.00384552
v 0.36753897 0.19015740 0.00384552
v 0.38934477 0.19015740 0.00000000
v 0.36753897 0.18074998 0.00384552
v 0.38934477 0.18074998 0.00000000
v 0.38934477 0.21126940 0.00000000
v 0.41115061 0.22067684 0.00384552
v 0.41115061 0.21126940 0.00384552
v 0.38934477 0.22067684 0.00000000
v 0.38934477 0.19015740 0.00000000
v 0.41115061 0.19015740 0.00384552
v 0.38934477 0.18074998 0.00000000
v 0.41115163 0.18074998 0.00384552
v 0.41115061 0.21126940 0.00384552
v 0.43032636 0.22067684 0.01491644
v 0.43032636 0.21126940 0.01491644
v 0.41115061 0.22067684 0.00384552
v 0.41115061 0.19015740 0.00384552
v 0.43032636 0.19015740 0.01491644
v 0.41115163 0.18074998 0.00384552
v 0.43032741 0.18074998 0.01491644
v 0.44455936 0.21126940 0.03187802
v 0.43032636 0.21126940 0.01491644
v 0.44455936 0.22067684 0.03187802
v 0.43032636 0.22067684 0.01491644
v 0.43032636 0.19015740 0.01491644
v 0.44455936 0.19015740 0.03187802
v 0.44455936 0.18074998 0.03187802
v 0.43032741 0.18074998 0.01491644
v 0.45213322 0.21126940 0.05268512
v 0.44455936 0.21126940 0.03187802
v 0.45213322 0.22067684 0.05268512
v 0.44455936 0.22067684 0.03187802
v 0.45213322 0.18074998 0.05268512
v 0.44455936 0.18074998 0.03187802
v 0.45213322 0.19015740 0.05268512
v 0.44455936 0.19015740 0.03187802
v 0.45213322 0.21126940 0.07482800
v 0.45213322 0.21126940 0.05268512
v 0.45213322 0.22067684 0.07482800
v 0.45213322 0.22067684 0.05268512
v 0.45213322 0.18074998 0.07482800
v 0.45213322 0.18074998 0.05268512
v 0.45213322 0.19015740 0.07482800
v 0.45213322 0.19015740 0.05268512
v 0.44455936 0.21126940 0.09563407
v 0.45213322 0.21126940 0.07482800
v 0.44455936 0.22067684 0.09563407
v 0.45213322 0.22067684 0.07482800
v 0.44455936 0.18074998 0.09563407
v 0.45213322 0.18074998 0.07482800
v 0.44455936 0.19015740 0.09563407
v 0.45213322 0.19015740 0.07482800
v 0.43032636 0.21126940 0.11259668
v 0.44455936 0.21126940 0.09563407
v 0.43032636 0.22067684 0.11259668
v 0.44455936 0.22067684 0.09563407
v 0.43032741 0.18074998 0.11259668
v 0.44455936 0.18074998 0.09563407
v 0.43032636 0.19015740 0.11259668
v 0.44455936 0.19015740 0.09563407
v 0.41115061 0.21126940 0.12366760
v 0.43032636 0.21126940 0.11259668
v 0.41115061 0.22067684 0.12366760
v 0.43032636 0.22067684 0.11259668
v 0.43032636 0.19015740 0.11259668
v 0.41115061 0.19015740 0.12366760
v 0.41115163 0.18074998 0.12366760
v 0.43032741 0.18074998 0.11259668
v 0.38934477 0.21126940 0.12751313
v 0.41115061 0.21126940 0.12366760
v 0.38934477 0.22067684 0.12751209
v 0.41115061 0.22067684 0.12366760
v 0.41115061 0.19015740 0.12366760
v 0.38934477 0.19015740 0.12751313
v 0.38934477 0.18074998 0.12751313
v 0.41115163 0.18074998 0.12366760
v 0.36753897 0.21126940 0.12366760
v 0.38934583 0.21126940 0.12154468
v 0.38934477 0.21126940 0.12751313
v 0.36934555 0.21126940 0.11802065
v 0.41115061 0.21126940 0.12366760
v 0.40934502 0.21126940 0.11802065
v 0.42686974 0.21126940 0.10791008
v 0.43032636 0.21126940 0.11259668
v 0.43980224 0.21126940 0.09251036
v 0.44455936 0.21126940 0.09563407
v 0.44664390 0.21126940 0.07372661
v 0.45213322 0.21126940 0.07482800
v 0.45213322 0.21126940 0.05268512
v 0.44664390 0.21126940 0.05378548
v 0.43980224 0.21126940 0.03500277
v 0.44455936 0.21126940 0.03187802
v 0.42686974 0.21126940 0.01960304
v 0.43032636 0.21126940 0.01491644
v 0.41115061 0.21126940 0.00384552
v 0.40934502 0.21126940 0.00949143
v 0.38934477 0.21126940 0.00596741
v 0.38934477 0.21126940 0.00000000
v 0.38934477 0.21126940 0.00596741
v 0.36934555 0.21126940 0.00949143
v 0.36753897 0.21126940 0.00384552
v 0.38934477 0.21126940 0.00000000
v 0.34836319 0.21126940 0.01491644
v 0.35182086 0.21126940 0.01960304
v 0.33413019 0.21126940 0.03187802
v 0.33888836 0.21126940 0.03500277
v 0.32655738 0.21126940 0.05268512
v 0.33204565 0.21126940 0.05378548
v 0.32655738 0.21126940 0.07482800
v 0.33204565 0.21126940 0.07372661
v 0.33888836 0.21126940 0.09251036
v 0.33413019 0.21126940 0.09563407
v 0.34836319 0.21126940 0.11259668
v 0.35182086 0.21126940 0.10791008
v 0.36753897 0.19015740 0.12366760
v 0.38934477 0.19015740 0.12751313
v 0.38934583 0.19015740 0.12154468
v 0.36934555 0.19015740 0.11802065
v 0.35182086 0.19015740 0.10791008
v 0.34836319 0.19015740 0.11259668
v 0.33888836 0.19015740 0.09251036
v 0.33413019 0.19015740 0.09563407
v 0.33204565 0.19015740 0.07372661
v 0.32655738 0.19015740 0.07482800
v 0.32655738 0.19015740 0.05268512
v 0.33204565 0.19015740 0.05378548
v 0.33888836 0.19015740 0.03500277
v 0.33413019 0.19015740 0.03187802
v 0.35182086 0.19015740 0.01960304
v 0.34836319 0.19015740 0.01491644
v 0.36753897 0.19015740 0.00384552
v 0.36934555 0.19015740 0.00949143
v 0.38934477 0.19015740 0.00596741
v 0.38934477 0.19015740 0.00000000
v 0.38934477 0.19015740 0.00596741
v 0.40934502 0.19015740 0.00949143
v 0.41115061 0.19015740 0.00384552
v 0.38934477 0.19015740 0.00000000
v 0.43032636 0.19015740 0.01491644
v 0.42686974 0.19015740 0.01960304
v 0.44455936 0.19015740 0.03187802
v 0.43980224 0.19015740 0.03500277
v 0.45213322 0.19015740 0.05268512
v 0.44664390 0.19015740 0.05378548
v 0.45213322 0.19015740 0.07482800
v 0.44664495 0.19015740 0.07372661
v 0.43980224 0.19015740 0.09251036
v 0.44455936 0.19015740 0.09563407
v 0.43032636 0.19015740 0.11259668
v 0.42686974 0.19015740 0.10791008
v 0.40934400 0.19015740 0.11802065
v 0.41115061 0.19015740 0.12366760
v 0.43032636 0.22067684 0.11259668
v 0.38934477 0.22067684 0.12751209
v 0.41115061 0.22067684 0.12366760
v 0.36753897 0.22067684 0.12366760
v 0.44455936 0.22067684 0.09563407
v 0.34836319 0.22067684 0.11259668
v 0.33413019 0.22067684 0.09563407
v 0.45213322 0.22067684 0.07482800
v 0.45213322 0.22067684 0.05268512
v 0.32655738 0.22067684 0.07482800
v 0.44455936 0.22067684 0.03187802
v 0.32655738 0.22067684 0.05268512
v 0.43032636 0.22067684 0.01491644
v 0.33413019 0.22067684 0.03187802
v 0.34836319 0.22067684 0.01491644
v 0.41115061 0.22067684 0.00384552
v 0.36753897 0.22067684 0.00384552
v 0.38934477 0.22067684 0.00000000
v 0.41115163 0.18074998 0.00384552
v 0.36753897 0.18074998 0.00384552
v 0.38934477 0.18074998 0.00000000
v 0.34836319 0.18074998 0.01491644
v 0.33413019 0.18074998 0.03187802
v 0.43032741 0.18074998 0.01491644
v 0.32655738 0.18074998 0.05268512
v 0.44455936 0.18074998 0.03187802
v 0.32655738 0.18074998 0.07482800
v 0.33413019 0.18074998 0.09563407
v 0.45213322 0.18074998 0.05268512
v 0.45213322 0.18074998 0.07482800
v 0.34836319 0.18074998 0.11259668
v 0.44455936 0.18074998 0.09563407
v 0.36753897 0.18074998 0.12366760
v 0.43032741 0.18074998 0.11259668
v 0.41115163 0.18074998 0.12366760
v 0.38934477 0.18074998 0.12751313
v 0.38934583 -0.19015743 0.12154468
v 0.36934555 -0.19015743 0.11802065
v 0.36934555 -0.21126944 0.11802065
v 0.38934583 -0.21126944 0.12154468
v 0.36934555 -0.19015743 0.11802065
v 0.35182086 -0.19015743 0.10791008
v 0.35182086 -0.21126944 0.10791008
v 0.36934555 -0.21126944 0.11802065
v 0.33888836 -0.19015743 0.09251036
v 0.35182086 -0.21126944 0.10791008
v 0.35182086 -0.19015743 0.10791008
v 0.33888836 -0.21126944 0.09251036
v 0.33204565 -0.19015743 0.07372661
v 0.33888836 -0.21126944 0.09251036
v 0.33888836 -0.19015743 0.09251036
v 0.33204565 -0.21126944 0.07372661
v 0.33204565 -0.19015743 0.05378548
v 0.33204565 -0.21126944 0.07372661
v 0.33204565 -0.19015743 0.07372661
v 0.33204565 -0.21126944 0.05378548
v 0.33204565 -0.19015743 0.05378548
v 0.33888836 -0.19015743 0.03500277
v 0.33204565 -0.21126944 0.05378548
v 0.33888836 -0.21126944 0.03500277
v 0.35182086 -0.19015743 0.01960304
v 0.33888836 -0.21126944 0.03500277
v 0.33888836 -0.19015743 0.03500277
v 0.35182086 -0.21126944 0.01960304
v 0.36934555 -0.21126944 0.00949143
v 0.35182086 -0.21126944 0.01960304
v 0.36934555 -0.19015743 0.00949143
v 0.35182086 -0.19015743 0.01960304
v 0.38934477 -0.21126944 0.00596741
v 0.36934555 -0.21126944 0.00949143
v 0.38934477 -0.19015743 0.00596741
v 0.36934555 -0.19015743 0.00949143
v 0.40934502 -0.21126944 0.00949143
v 0.38934477 -0.21126944 0.00596741
v 0.40934502 -0.19015743 0.00949143
v 0.38934477 -0.19015743 0.00596741
v 0.42686974 -0.21126944 0.01960304
v 0.40934502 -0.21126944 0.00949143
v 0.42686974 -0.19015743 0.01960304
v 0.40934502 -0.19015743 0.00949143
v 0.43980224 -0.21126944 0.03500277
v 0.42686974 -0.21126944 0.01960304
v 0.43980224 -0.19015743 0.03500277
v 0.42686974 -0.19015743 0.01960304
v 0.44664390 -0.21126944 0.05378548
v 0.43980224 -0.21126944 0.03500277
v 0.44664390 -0.19015743 0.05378548
v 0.43980224 -0.19015743 0.03500277
v 0.44664390 -0.21126944 0.05378548
v 0.44664495 -0.19015743 0.07372661
v 0.44664390 -0.21126944 0.07372661
v 0.44664390 -0.19015743 0.05378548
v 0.43980224 -0.19015743 0.09251036
v 0.43980224 -0.21126944 0.09251036
v 0.44664495 -0.19015743 0.07372661
v 0.44664390 -0.21126944 0.07372661
v 0.42686974 -0.19015743 0.10791008
v 0.42686974 -0.21126944 0.10791008
v 0.43980224 -0.19015743 0.09251036
v 0.43980224 -0.21126944 0.09251036
v 0.42686974 -0.19015743 0.10791008
v 0.40934400 -0.19015743 0.11802065
v 0.40934502 -0.21126944 0.11802065
v 0.42686974 -0.21126944 0.10791008
v 0.40934400 -0.19015743 0.11802065
v 0.38934583 -0.19015743 0.12154468
v 0.38934583 -0.21126944 0.12154468
v 0.40934502 -0.21126944 0.11802065
v 0.38934477 -0.21126944 0.12751313
v 0.36753897 -0.21126944 0.12366760
v 0.36753897 -0.22067686 0.12366760
v 0.38934477 -0.22067686 0.12751209
v 0.36753897 -0.19015743 0.12366760
v 0.38934477 -0.18074999 0.12751313
v 0.36753897 -0.18074999 0.12366760
v 0.38934477 -0.19015743 0.12751313
v 0.36753897 -0.21126944 0.12366760
v 0.34836319 -0.21126944 0.11259668
v 0.34836319 -0.22067686 0.11259668
v 0.36753897 -0.22067686 0.12366760
v 0.36753897 -0.18074999 0.12366760
v 0.34836319 -0.18074999 0.11259668
v 0.34836319 -0.19015743 0.11259668
v 0.36753897 -0.19015743 0.12366760
v 0.34836319 -0.21126944 0.11259668
v 0.33413019 -0.22067686 0.09563407
v 0.34836319 -0.22067686 0.11259668
v 0.33413019 -0.21126944 0.09563407
v 0.33413019 -0.19015743 0.09563407
v 0.34836319 -0.19015743 0.11259668
v 0.34836319 -0.18074999 0.11259668
v 0.33413019 -0.18074999 0.09563407
v 0.33413019 -0.21126944 0.09563407
v 0.32655738 -0.22067686 0.07482800
v 0.33413019 -0.22067686 0.09563407
v 0.32655738 -0.21126944 0.07482800
v 0.32655738 -0.19015743 0.07482800
v 0.33413019 -0.19015743 0.09563407
v 0.33413019 -0.18074999 0.09563407
v 0.32655738 -0.18074999 0.07482800
v 0.32655738 -0.21126944 0.07482800
v 0.32655738 -0.22067686 0.05268512
v 0.32655738 -0.22067686 0.07482800
v 0.32655738 -0.21126944 0.05268512
v 0.32655738 -0.19015743 0.05268512
v 0.32655738 -0.19015743 0.07482800
v 0.32655738 -0.18074999 0.07482800
v 0.32655738 -0.18074999 0.05268512
v 0.32655738 -0.21126944 0.05268512
v 0.33413019 -0.22067686 0.03187802
v 0.32655738 -0.22067686 0.05268512
v 0.33413019 -0.21126944 0.03187802
v 0.33413019 -0.19015743 0.03187802
v 0.32655738 -0.19015743 0.05268512
v 0.32655738 -0.18074999 0.05268512
v 0.33413019 -0.18074999 0.03187802
v 0.33413019 -0.21126944 0.03187802
v 0.34836319 -0.22067686 0.01491644
v 0.33413019 -0.22067686 0.03187802
v 0.34836319 -0.21126944 0.01491644
v 0.34836319 -0.19015743 0.01491644
v 0.33413019 -0.19015743 0.03187802
v 0.33413019 -0.18074999 0.03187802
v 0.34836319 -0.18074999 0.01491644
v 0.36753897 -0.22067686 0.00384552
v 0.34836319 -0.22067686 0.01491644
v 0.34836319 -0.21126944 0.01491644
v 0.36753897 -0.21126944 0.00384552
v 0.36753897 -0.19015743 0.00384552
v 0.34836319 -0.19015743 0.01491644
v 0.34836319 -0.18074999 0.01491644
v 0.36753897 -0.18074999 0.00384552
v 0.38934477 -0.22067686 0.00000000
v 0.36753897 -0.22067686 0.00384552
v 0.36753897 -0.21126944 0.00384552
v 0.38934477 -0.21126944 0.00000000
v 0.36753897 -0.18074999 0.00384552
v 0.38934477 -0.19015743 0.00000000
v 0.36753897 -0.19015743 0.00384552
v 0.38934477 -0.18074999 0.00000000
v 0.38934477 -0.21126944 0.00000000
v 0.41115061 -0.22067686 0.00384552
v 0.38934477 -0.22067686 0.00000000
v 0.41115061 -0.21126944 0.00384552
v 0.41115061 -0.19015743 0.00384552
v 0.38934477 -0.19015743 0.00000000
v 0.38934477 -0.18074999 0.00000000
v 0.41115163 -0.18074999 0.00384552
v 0.43032636 -0.22067686 0.01491644
v 0.41115061 -0.22067686 0.00384552
v 0.41115061 -0.21126944 0.00384552
v 0.43032636 -0.21126944 0.01491644
v 0.43032636 -0.19015743 0.01491644
v 0.41115061 -0.19015743 0.00384552
v 0.41115163 -0.18074999 0.00384552
v 0.43032741 -0.18074999 0.01491644
v 0.43032636 -0.21126944 0.01491644
v 0.44455936 -0.21126944 0.03187802
v 0.44455936 -0.22067686 0.03187802
v 0.43032636 -0.22067686 0.01491644
v 0.44455936 -0.19015743 0.03187802
v 0.43032636 -0.19015743 0.01491644
v 0.44455936 -0.18074999 0.03187802
v 0.43032741 -0.18074999 0.01491644
v 0.44455936 -0.21126944 0.03187802
v 0.45213322 -0.21126944 0.05268512
v 0.45213322 -0.22067686 0.05268512
v 0.44455936 -0.22067686 0.03187802
v 0.45213322 -0.19015743 0.05268512
v 0.44455936 -0.18074999 0.03187802
v 0.45213322 -0.18074999 0.05268512
v 0.44455936 -0.19015743 0.03187802
v 0.45213322 -0.21126944 0.05268512
v 0.45213322 -0.21126944 0.07482800
v 0.45213322 -0.22067686 0.07482800
v 0.45213322 -0.22067686 0.05268512
v 0.45213322 -0.19015743 0.07482800
v 0.45213322 -0.18074999 0.05268512
v 0.45213322 -0.18074999 0.07482800
v 0.45213322 -0.19015743 0.05268512
v 0.45213322 -0.21126944 0.07482800
v 0.44455936 -0.21126944 0.09563407
v 0.44455936 -0.22067686 0.09563407
v 0.45213322 -0.22067686 0.07482800
v 0.44455936 -0.19015743 0.09563407
v 0.45213322 -0.18074999 0.07482800
v 0.44455936 -0.18074999 0.09563407
v 0.45213322 -0.19015743 0.07482800
v 0.44455936 -0.21126944 0.09563407
v 0.43032636 -0.21126944 0.11259668
v 0.43032636 -0.22067686 0.11259668
v 0.44455936 -0.22067686 0.09563407
v 0.43032636 -0.19015743 0.11259668
v 0.44455936 -0.18074999 0.09563407
v 0.43032741 -0.18074999 0.11259668
v 0.44455936 -0.19015743 0.09563407
v 0.43032636 -0.21126944 0.11259668
v 0.41115061 -0.21126944 0.12366760
v 0.41115061 -0.22067686 0.12366760
v 0.43032636 -0.22067686 0.11259668
v 0.41115061 -0.19015743 0.12366760
v 0.43032636 -0.19015743 0.11259668
v 0.41115163 -0.18074999 0.12366760
v 0.43032741 -0.18074999 0.11259668
v 0.38934477 -0.22067686 0.12751209
v 0.41115061 -0.21126944 0.12366760
v 0.38934477 -0.21126944 0.12751313
v 0.41115061 -0.22067686 0.12366760
v 0.38934477 -0.19015743 0.12751313
v 0.41115061 -0.19015743 0.12366760
v 0.38934477 -0.18074999 0.12751313
v 0.41115163 -0.18074999 0.12366760
v 0.36753897 -0.21126944 0.12366760
v 0.38934477 -0.21126944 0.12751313
v 0.38934583 -0.21126944 0.12154468
v 0.36934555 -0.21126944 0.11802065
v 0.40934502 -0.21126944 0.11802065
v 0.41115061 -0.21126944 0.12366760
v 0.43032636 -0.21126944 0.11259668
v 0.42686974 -0.21126944 0.10791008
v 0.44455936 -0.21126944 0.09563407
v 0.43980224 -0.21126944 0.09251036
v 0.45213322 -0.21126944 0.07482800
v 0.44664390 -0.21126944 0.07372661
v 0.45213322 -0.21126944 0.05268512
v 0.44664390 -0.21126944 0.05378548
v 0.44455936 -0.21126944 0.03187802
v 0.43980224 -0.21126944 0.03500277
v 0.43032636 -0.21126944 0.01491644
v 0.42686974 -0.21126944 0.01960304
v 0.41115061 -0.21126944 0.00384552
v 0.40934502 -0.21126944 0.00949143
v 0.38934477 -0.21126944 0.00596741
v 0.38934477 -0.21126944 0.00000000
v 0.38934477 -0.21126944 0.00000000
v 0.36753897 -0.21126944 0.00384552
v 0.38934477 -0.21126944 0.00596741
v 0.36934555 -0.21126944 0.00949143
v 0.34836319 -0.21126944 0.01491644
v 0.35182086 -0.21126944 0.01960304
v 0.33888836 -0.21126944 0.03500277
v 0.33413019 -0.21126944 0.03187802
v 0.33204565 -0.21126944 0.05378548
v 0.32655738 -0.21126944 0.05268512
v 0.32655738 -0.21126944 0.07482800
v 0.33204565 -0.21126944 0.07372661
v 0.33888836 -0.21126944 0.09251036
v 0.33413019 -0.21126944 0.09563407
v 0.35182086 -0.21126944 0.10791008
v 0.34836319 -0.21126944 0.11259668
v 0.36934555 -0.19015743 0.11802065
v 0.38934583 -0.19015743 0.12154468
v 0.36753897 -0.19015743 0.12366760
v 0.38934477 -0.19015743 0.12751313
v 0.34836319 -0.19015743 0.11259668
v 0.35182086 -0.19015743 0.10791008
v 0.33413019 -0.19015743 0.09563407
v 0.33888836 -0.19015743 0.09251036
v 0.32655738 -0.19015743 0.07482800
v 0.33204565 -0.19015743 0.07372661
v 0.32655738 -0.19015743 0.05268512
v 0.33204565 -0.19015743 0.05378548
v 0.33413019 -0.19015743 0.03187802
v 0.33888836 -0.19015743 0.03500277
v 0.34836319 -0.19015743 0.01491644
v 0.35182086 -0.19015743 0.01960304
v 0.36753897 -0.19015743 0.00384552
v 0.36934555 -0.19015743 0.00949143
v 0.38934477 -0.19015743 0.00596741
v 0.38934477 -0.19015743 0.00000000
v 0.38934477 -0.19015743 0.00000000
v 0.41115061 -0.19015743 0.00384552
v 0.38934477 -0.19015743 0.00596741
v 0.40934502 -0.19015743 0.00949143
v 0.43032636 -0.19015743 0.01491644
v 0.42686974 -0.19015743 0.01960304
v 0.43980224 -0.19015743 0.03500277
v 0.44455936 -0.19015743 0.03187802
v 0.44664390 -0.19015743 0.05378548
v 0.45213322 -0.19015743 0.05268512
v 0.45213322 -0.19015743 0.07482800
v 0.44664495 -0.19015743 0.07372661
v 0.43980224 -0.19015743 0.09251036
v 0.44455936 -0.19015743 0.09563407
v 0.42686974 -0.19015743 0.10791008
v 0.43032636 -0.19015743 0.11259668
v 0.40934400 -0.19015743 0.11802065
v 0.41115061 -0.19015743 0.12366760
v 0.43032636 -0.22067686 0.11259668
v 0.38934477 -0.22067686 0.12751209
v 0.36753897 -0.22067686 0.12366760
v 0.41115061 -0.22067686 0.12366760
v 0.44455936 -0.22067686 0.09563407
v 0.34836319 -0.22067686 0.11259668
v 0.33413019 -0.22067686 0.09563407
v 0.45213322 -0.22067686 0.07482800
v 0.45213322 -0.22067686 0.05268512
v 0.32655738 -0.22067686 0.07482800
v 0.32655738 -0.22067686 0.05268512
v 0.44455936 -0.22067686 0.03187802
v 0.43032636 -0.22067686 0.01491644
v 0.33413019 -0.22067686 0.03187802
v 0.34836319 -0.22067686 0.01491644
v 0.41115061 -0.22067686 0.00384552
v 0.36753897 -0.22067686 0.00384552
v 0.38934477 -0.22067686 0.00000000
v 0.41115163 -0.18074999 0.00384552
v 0.36753897 -0.18074999 0.00384552
v 0.34836319 -0.18074999 0.01491644
v 0.38934477 -0.18074999 0.00000000
v 0.33413019 -0.18074999 0.03187802
v 0.43032741 -0.18074999 0.01491644
v 0.44455936 -0.18074999 0.03187802
v 0.32655738 -0.18074999 0.05268512
v 0.32655738 -0.18074999 0.07482800
v 0.33413019 -0.18074999 0.09563407
v 0.45213322 -0.18074999 0.05268512
v 0.45213322 -0.18074999 0.07482800
v 0.34836319 -0.18074999 0.11259668
v 0.44455936 -0.18074999 0.09563407
v 0.36753897 -0.18074999 0.12366760
v 0.43032741 -0.18074999 0.11259668
v 0.41115163 -0.18074999 0.12366760
v 0.38934477 -0.18074999 0.12751313
v -0.21648284 -0.00000001 0.61904322
v -0.18843168 -0.01613711 0.60521990
v -0.18843168 -0.00000001 0.60521990
v -0.18843168 0.01613708 0.54590362
v -0.21648284 -0.00000001 0.61904322
v -0.18843168 0.01613708 0.60521990
v -0.21648284 -0.00000001 0.61904322
v -0.20946902 -0.04576257 0.61637688
v -0.18843168 -0.01613711 0.60521990
v -0.42843259 -0.05823667 0.62211612
v -0.46349657 0.01613708 0.62211612
v -0.42843259 0.05823665 0.54590362
v -0.46349657 0.01613708 0.54590362
v -0.46349657 -0.00000001 0.54590362
v -0.46349657 0.01613708 0.54590362
v 0.46237861 0.20051895 0.07444635
v 0.47777624 0.27568713 0.07444635
v 0.53522681 0.25724250 0.09777566
v 0.46237861 0.20051895 0.07444635
v 0.53522681 0.25724250 0.09777566
v 0.53410263 0.14274172 0.09777566
v 0.53410263 -0.14274174 0.09777566
v 0.53522681 -0.25724253 0.09777566
v 0.46237861 -0.20051897 0.07444635
v 0.53522681 -0.25724253 0.09777566
v 0.47777624 -0.27568713 0.07444635
v 0.46237861 -0.20051897 0.07444635
f 1 2 3
f 2 1 4
f 5 6 7
f 5 7 8
f 9 10 11
f 11 10 12
f 13 14 15
f 15 16 13
f 1 17 4
f 17 1 18
f 19 20 21
f 20 19 22
f 23 24 25
f 25 24 26
f 27 28 29
f 29 30 27
f 31 19 21
f 19 31 32
f 33 17 18
f 17 33 34
f 35 36 37
f 35 37 38
f 39 28 40
f 39 40 41
f 34 42 43
f 44 45 31
f 31 45 32
f 46 37 36
f 37 46 47
f 48 39 41
f 48 41 49
f 43 50 51
f 43 52 50
f 53 54 55
f 56 57 58
f 57 56 59
f 60 61 62
f 61 60 63
f 64 65 66
f 64 66 67
f 68 69 70
f 70 69 71
f 72 73 74
f 74 73 75
f 76 77 78
f 78 77 79
f 80 81 82
f 82 81 83
f 84 85 86
f 85 84 87
f 88 89 90
f 90 89 91
f 92 93 94
f 94 93 95
f 96 97 98
f 98 97 99
f 100 101 102
f 102 101 103
f 104 105 106
f 104 106 107
f 56 108 109
f 56 109 59
f 110 60 111
f 60 110 63
f 112 113 114
f 115 114 113
f 43 116 107
f 116 43 51
f 43 42 52
f 117 118 119
f 42 118 117
f 120 107 121
f 122 104 120
f 104 107 120
f 118 104 123
f 118 123 124
f 104 125 123
f 126 127 128
f 127 126 129
f 115 130 131
f 115 113 132
f 132 113 133
f 133 113 134
f 135 115 136
f 135 136 137
f 138 135 139
f 140 141 142
f 143 140 54
f 140 144 113
f 144 140 142
f 118 124 119
f 145 107 116
f 137 139 135
f 131 136 115
f 146 147 148
f 148 149 146
f 150 151 152
f 151 150 153
f 154 155 156
f 156 157 154
f 158 159 160
f 160 161 158
f 162 163 164
f 163 165 164
f 166 167 168
f 167 166 169
f 170 162 171
f 162 164 171
f 172 173 174
f 173 175 174
f 176 177 178
f 179 180 181
f 180 179 182
f 179 183 182
f 184 185 186
f 187 186 185
f 188 189 190
f 190 189 191
f 192 193 194
f 194 193 195
f 196 197 198
f 198 197 199
f 200 201 202
f 201 200 203
f 204 205 206
f 205 204 207
f 208 209 210
f 209 208 211
f 183 212 213
f 183 213 214
f 215 216 212
f 217 218 219
f 219 218 220
f 221 222 223
f 221 223 224
f 225 226 227
f 225 227 228
f 229 230 231
f 231 232 229
f 233 234 235
f 234 233 236
f 237 238 239
f 238 237 240
f 241 242 243
f 243 242 244
f 245 246 247
f 246 245 248
f 249 250 251
f 250 249 252
f 253 254 255
f 254 253 256
f 257 255 258
f 255 257 253
f 258 259 257
f 259 258 260
f 261 262 263
f 262 261 264
f 265 264 261
f 264 265 266
f 265 267 266
f 267 265 268
f 269 270 268
f 270 267 268
f 271 269 272
f 269 271 270
f 273 256 274
f 256 273 254
f 275 276 277
f 276 275 278
f 279 280 281
f 280 282 281
f 283 284 285
f 283 285 286
f 287 288 289
f 287 289 290
f 291 292 293
f 292 294 293
f 295 296 297
f 296 298 297
f 299 300 301
f 301 300 302
f 303 304 305
f 305 304 306
f 307 308 309
f 309 308 310
f 311 312 313
f 312 314 313
f 315 316 317
f 317 316 318
f 319 320 321
f 322 321 320
f 323 324 325
f 326 325 324
f 327 328 329
f 329 328 330
f 331 332 333
f 333 332 334
f 335 336 337
f 336 335 338
f 339 340 341
f 340 339 342
f 343 344 345
f 344 343 346
f 347 348 349
f 349 348 350
f 351 275 277
f 352 275 351
f 275 352 353
f 354 353 352
f 353 354 355
f 356 357 358
f 358 359 356
f 360 361 362
f 363 362 361
f 364 365 366
f 364 366 367
f 368 369 370
f 370 369 371
f 372 373 374
f 373 372 375
f 376 377 378
f 379 378 377
f 380 381 382
f 381 380 383
f 384 385 386
f 384 386 387
f 388 389 390
f 390 389 391
f 392 393 394
f 392 394 395
f 393 392 396
f 397 398 399
f 397 399 400
f 401 400 402
f 397 400 401
f 403 404 405
f 404 403 406
f 407 408 409
f 409 410 407
f 411 412 413
f 411 413 414
f 415 416 417
f 416 415 418
f 419 420 421
f 420 422 421
f 423 424 425
f 424 426 425
f 427 428 429
f 428 427 430
f 395 394 431
f 395 431 432
f 433 399 398
f 434 435 436
f 436 435 437
f 438 439 440
f 439 438 441
f 442 440 443
f 440 442 438
f 444 445 446
f 447 448 445
f 448 447 449
f 450 451 452
f 451 450 453
f 454 455 456
f 457 458 459
f 459 460 457
f 461 462 463
f 464 446 445
f 464 445 465
f 466 467 468
f 467 469 468
f 470 471 472
f 471 470 473
f 474 475 476
f 475 474 477
f 478 479 480
f 479 478 481
f 482 483 484
f 483 482 485
f 486 474 476
f 474 486 487
f 488 489 490
f 489 488 491
f 492 493 494
f 494 493 495
f 482 496 485
f 496 482 497
f 498 499 486
f 486 499 487
f 500 501 502
f 501 503 502
f 504 505 493
f 505 506 493
f 507 508 498
f 509 496 497
f 496 509 510
f 502 511 500
f 511 502 512
f 513 506 505
f 506 513 514
f 508 507 515
f 515 507 516
f 517 518 519
f 520 521 522
f 520 522 523
f 524 525 526
f 524 526 527
f 528 529 530
f 529 528 531
f 532 533 534
f 534 535 532
f 536 537 538
f 538 539 536
f 540 541 542
f 541 540 543
f 544 545 546
f 546 547 544
f 548 549 550
f 551 550 549
f 552 553 554
f 553 552 555
f 556 557 558
f 558 559 556
f 560 561 562
f 562 563 560
f 564 565 566
f 566 567 564
f 568 569 570
f 571 570 569
f 520 572 573
f 572 520 523
f 524 574 575
f 574 524 527
f 576 577 578
f 577 576 579
f 507 571 580
f 507 580 581
f 582 508 583
f 582 583 584
f 585 571 586
f 586 569 587
f 571 569 586
f 582 588 569
f 588 582 589
f 569 590 587
f 591 592 593
f 591 593 594
f 595 579 596
f 597 577 595
f 577 579 595
f 597 598 577
f 599 600 579
f 600 599 601
f 602 603 599
f 604 605 606
f 599 606 602
f 604 577 607
f 604 607 608
f 582 584 589
f 609 580 571
f 507 581 516
f 610 579 600
f 611 604 608
f 612 613 614
f 614 613 615
f 616 617 618
f 618 617 619
f 620 621 622
f 622 621 623
f 624 625 626
f 626 625 627
f 628 629 630
f 630 631 628
f 632 633 634
f 633 632 635
f 636 629 637
f 629 636 630
f 638 639 640
f 639 638 641
f 642 178 643
f 178 642 176
f 644 645 646
f 644 646 647
f 648 649 650
f 650 651 648
f 652 653 654
f 654 655 652
f 656 657 658
f 657 656 659
f 660 661 662
f 662 661 663
f 664 665 666
f 666 665 667
f 668 669 670
f 669 668 671
f 671 668 672
f 672 673 671
f 673 674 675
f 676 677 678
f 676 678 679
f 680 681 682
f 681 680 683
f 684 685 686
f 685 687 686
f 688 689 690
f 689 688 691
f 692 693 694
f 693 692 695
f 696 697 698
f 696 698 699
f 700 701 702
f 700 702 703
f 704 705 706
f 705 704 707
f 708 709 710
f 708 710 711
f 712 713 714
f 713 712 715
f 716 715 712
f 715 716 717
f 716 718 717
f 718 719 717
f 720 721 722
f 721 720 723
f 722 724 720
f 724 722 725
f 725 726 724
f 726 727 724
f 727 728 729
f 726 728 727
f 730 729 728
f 729 730 731
f 714 732 733
f 732 714 713
f 734 735 736
f 734 736 737
f 738 739 740
f 738 740 741
f 742 743 744
f 743 745 744
f 746 747 748
f 747 749 748
f 750 751 752
f 752 751 753
f 754 755 756
f 756 755 757
f 758 759 760
f 759 761 760
f 762 763 764
f 763 765 764
f 766 767 768
f 767 769 768
f 770 771 772
f 770 772 773
f 734 774 735
f 775 734 776
f 734 775 774
f 776 777 775
f 777 776 778
f 779 780 781
f 781 780 782
f 783 784 785
f 783 785 786
f 787 788 789
f 788 787 790
f 791 792 793
f 793 794 791
f 795 796 797
f 797 796 798
f 799 800 801
f 799 801 802
f 803 804 805
f 804 803 806
f 807 808 809
f 810 809 808
f 811 812 813
f 813 814 811
f 815 816 817
f 818 816 819
f 817 816 818
f 820 821 822
f 820 822 823
f 823 822 824
f 823 824 825
f 826 827 828
f 826 828 829
f 830 831 832
f 831 830 833
f 834 835 836
f 837 836 835
f 838 839 840
f 838 840 841
f 842 843 844
f 842 844 845
f 846 847 848
f 846 848 849
f 850 851 852
f 851 850 853
f 854 819 855
f 818 819 854
f 821 820 856
f 857 858 859
f 859 860 857
f 861 862 863
f 862 864 863
f 865 861 866
f 861 863 866
f 867 868 869
f 868 867 870
f 871 454 872
f 872 454 456
f 873 874 875
f 875 874 876
f 877 878 879
f 877 879 880
f 670 669 643
f 871 881 882
f 881 871 883
f 884 885 886
f 885 887 886
f 888 889 890
f 889 891 890
f 892 893 894
f 893 895 894
f 896 897 898
f 897 899 898
f 900 901 902
f 901 903 902
f 904 905 906
f 905 907 906
f 908 909 910
f 909 911 910
f 912 913 914
f 913 912 915
f 916 917 918
f 918 917 919
f 920 921 922
f 922 921 923
f 924 925 926
f 926 925 927
f 928 929 930
f 929 931 930
f 932 933 934
f 933 935 934
f 936 937 938
f 937 939 938
f 940 941 942
f 942 941 943
f 944 945 946
f 946 945 947
f 948 949 950
f 949 951 950
f 952 953 954
f 953 955 954
f 956 957 958
f 959 958 957
f 960 961 962
f 961 960 963
f 964 965 966
f 967 966 965
f 968 969 970
f 969 968 971
f 972 973 974
f 974 973 975
f 976 977 978
f 978 977 979
f 980 981 982
f 982 981 983
f 984 985 986
f 986 985 987
f 988 989 990
f 990 989 991
f 992 993 994
f 994 993 995
f 996 997 998
f 998 997 999
f 1000 1001 1002
f 1002 1001 1003
f 1004 1005 1006
f 1006 1005 1007
f 1008 1009 1010
f 1010 1009 1011
f 1012 1013 1014
f 1013 1012 1015
f 1016 1017 1018
f 1019 1018 1017
f 1020 1021 1022
f 1021 1020 1023
f 1024 1025 1026
f 1027 1026 1025
f 1028 1029 1030
f 1029 1028 1031
f 1032 1033 1034
f 1035 1034 1033
f 1036 1037 1038
f 1037 1036 1039
f 1040 1041 1042
f 1043 1042 1041
f 1044 1045 1046
f 1046 1045 1047
f 1048 1049 1050
f 1050 1051 1048
f 1052 1053 1054
f 1054 1053 1055
f 1056 1057 1058
f 1058 1057 1059
f 1060 1061 1062
f 1062 1061 1063
f 1064 1065 1066
f 1066 1065 1067
f 1068 1069 1070
f 1070 1069 1071
f 1072 1073 1074
f 1074 1073 1075
f 1076 1077 1078
f 1078 1077 1079
f 1080 1081 1082
f 1082 1081 1083
f 1084 1085 1086
f 1087 1086 1085
f 1088 1089 1090
f 1088 1090 1091
f 1092 1093 1094
f 1095 1094 1093
f 1096 1097 1098
f 1096 1098 1099
f 1100 1101 1102
f 1101 1100 1103
f 1104 1102 1101
f 1104 1101 1105
f 1105 1106 1107
f 1107 1104 1105
f 1106 1108 1109
f 1109 1107 1106
f 1108 1110 1111
f 1108 1111 1109
f 1110 1112 1111
f 1112 1110 1113
f 1112 1114 1115
f 1114 1112 1113
f 1115 1116 1117
f 1116 1115 1114
f 1118 1117 1119
f 1119 1117 1116
f 1118 1120 1121
f 1120 1118 1119
f 1122 1123 1124
f 1122 1124 1125
f 1126 1124 1123
f 1123 1127 1126
f 1128 1126 1127
f 1128 1127 1129
f 1130 1128 1129
f 1130 1129 1131
f 1132 1130 1133
f 1133 1130 1131
f 1132 1134 1135
f 1134 1132 1133
f 1136 1135 1137
f 1134 1137 1135
f 1137 1103 1136
f 1136 1103 1100
f 1138 1139 1140
f 1138 1140 1141
f 1141 1142 1143
f 1143 1138 1141
f 1142 1144 1145
f 1145 1143 1142
f 1144 1146 1147
f 1144 1147 1145
f 1146 1148 1147
f 1148 1146 1149
f 1148 1150 1151
f 1150 1148 1149
f 1151 1152 1153
f 1152 1151 1150
f 1154 1153 1155
f 1155 1153 1152
f 1154 1156 1157
f 1156 1154 1155
f 1158 1159 1160
f 1158 1160 1161
f 1162 1160 1159
f 1159 1163 1162
f 1164 1162 1163
f 1164 1163 1165
f 1166 1164 1165
f 1166 1165 1167
f 1168 1166 1169
f 1169 1166 1167
f 1168 1170 1171
f 1170 1168 1169
f 1172 1171 1173
f 1170 1173 1171
f 1173 1174 1172
f 1172 1174 1175
f 1175 1140 1139
f 1140 1175 1174
f 1176 1177 1178
f 1177 1176 1179
f 1180 1179 1176
f 1179 1180 1181
f 1182 1180 1183
f 1180 1182 1181
f 1184 1182 1183
f 1182 1184 1185
f 1186 1185 1184
f 1185 1186 1187
f 1188 1187 1186
f 1187 1188 1189
f 1190 1188 1191
f 1189 1188 1190
f 1191 1192 1190
f 1192 1191 1193
f 1194 1195 1196
f 1195 1194 1197
f 1198 1194 1199
f 1194 1198 1197
f 1198 1199 1200
f 1200 1199 1201
f 1201 1202 1200
f 1201 1203 1202
f 1203 1201 1204
f 1203 1204 1205
f 1205 1206 1203
f 1206 1205 1207
f 1207 1208 1206
f 1208 1207 1209
f 1210 1208 1209
f 1208 1210 1211
f 1212 1213 1214
f 1212 1214 1215
f 1216 1217 1218
f 1216 1218 1219
f 1220 1221 1222
f 1221 1220 1223
f 1224 1225 1226
f 1225 1224 1227
f 1228 1229 1230
f 1229 1228 1231
f 1232 1233 1234
f 1234 1233 1235
f 1236 1237 1238
f 1237 1236 1239
f 1240 1241 1242
f 1241 1243 1242
f 1244 1245 1246
f 1245 1247 1246
f 1248 1249 1250
f 1249 1251 1250
f 1252 1253 1254
f 1253 1255 1254
f 1256 1257 1258
f 1258 1257 1259
f 1260 1261 1262
f 1262 1261 1263
f 1264 1265 1266
f 1265 1264 1267
f 1268 1269 1270
f 1269 1271 1270
f 1272 1273 1274
f 1273 1275 1274
f 1276 1277 1278
f 1276 1278 1279
f 1280 1281 1282
f 1280 1282 1283
f 1284 1285 1286
f 1284 1286 1287
f 1288 1289 1290
f 1289 1288 1291
f 1292 1293 1294
f 1292 1294 1295
f 1296 1297 1298
f 1296 1298 1299
f 1300 1301 1302
f 1301 1300 1303
f 1304 1305 1306
f 1306 1307 1304
f 1308 1309 1310
f 1309 1308 1311
f 1312 1313 1314
f 1314 1315 1312
f 1316 1317 1318
f 1317 1316 1319
f 1320 1321 1322
f 1322 1323 1320
f 1324 1325 1326
f 1325 1324 1327
f 1328 1329 1330
f 1330 1331 1328
f 1332 1333 1334
f 1333 1332 1335
f 1336 1337 1338
f 1338 1339 1336
f 1340 1341 1342
f 1340 1342 1343
f 1344 1345 1346
f 1344 1346 1347
f 1348 1349 1350
f 1348 1350 1351
f 1352 1353 1354
f 1353 1352 1355
f 1356 1357 1358
f 1357 1356 1359
f 1360 1361 1362
f 1360 1362 1363
f 1364 1365 1366
f 1364 1366 1367
f 1368 1369 1370
f 1368 1370 1371
f 1372 1373 1374
f 1374 1375 1372
f 1376 1377 1378
f 1378 1377 1379
f 1380 1381 1382
f 1382 1383 1380
f 1384 1385 1386
f 1385 1384 1387
f 1388 1389 1390
f 1390 1391 1388
f 1392 1393 1394
f 1393 1392 1395
f 1396 1397 1398
f 1398 1399 1396
f 1400 1401 1402
f 1401 1400 1403
f 1404 1405 1406
f 1406 1407 1404
f 1408 1409 1410
f 1409 1408 1411
f 1412 1413 1414
f 1412 1414 1415
f 1416 1417 1418
f 1419 1418 1417
f 1420 1421 1422
f 1421 1420 1423
f 1424 1425 1426
f 1427 1426 1425
f 1428 1429 1430
f 1428 1430 1431
f 1432 1430 1433
f 1429 1433 1430
f 1432 1434 1435
f 1434 1432 1433
f 1434 1436 1435
f 1437 1435 1436
f 1436 1438 1437
f 1437 1438 1439
f 1439 1440 1441
f 1440 1439 1438
f 1440 1442 1443
f 1440 1443 1441
f 1442 1444 1445
f 1442 1445 1443
f 1444 1446 1447
f 1447 1445 1444
f 1446 1448 1447
f 1448 1446 1449
f 1450 1451 1452
f 1452 1451 1453
f 1451 1454 1453
f 1453 1454 1455
f 1456 1455 1457
f 1454 1457 1455
f 1458 1456 1459
f 1457 1459 1456
f 1459 1460 1461
f 1461 1458 1459
f 1460 1462 1461
f 1462 1460 1463
f 1463 1464 1462
f 1464 1463 1465
f 1465 1431 1464
f 1431 1465 1428
f 1466 1467 1468
f 1469 1468 1467
f 1466 1470 1471
f 1470 1466 1468
f 1470 1472 1471
f 1473 1471 1472
f 1472 1474 1473
f 1473 1474 1475
f 1475 1476 1477
f 1476 1475 1474
f 1476 1478 1479
f 1476 1479 1477
f 1478 1480 1481
f 1478 1481 1479
f 1480 1482 1483
f 1483 1481 1480
f 1482 1484 1483
f 1484 1482 1485
f 1486 1487 1488
f 1488 1487 1489
f 1487 1490 1489
f 1489 1490 1491
f 1492 1491 1493
f 1490 1493 1491
f 1494 1492 1495
f 1493 1495 1492
f 1495 1496 1497
f 1497 1494 1495
f 1496 1498 1497
f 1498 1496 1499
f 1499 1500 1498
f 1500 1499 1501
f 1501 1502 1500
f 1502 1501 1503
f 1503 1469 1467
f 1503 1467 1502
f 1504 1505 1506
f 1505 1504 1507
f 1508 1506 1509
f 1506 1508 1504
f 1510 1508 1509
f 1508 1510 1511
f 1510 1512 1511
f 1512 1510 1513
f 1514 1515 1513
f 1512 1513 1515
f 1514 1516 1515
f 1516 1514 1517
f 1516 1517 1518
f 1516 1518 1519
f 1520 1519 1518
f 1519 1520 1521
f 1522 1523 1524
f 1523 1522 1525
f 1522 1526 1527
f 1526 1522 1524
f 1528 1529 1530
f 1527 1529 1528
f 1529 1527 1526
f 1528 1531 1532
f 1531 1528 1530
f 1532 1531 1533
f 1533 1531 1534
f 1533 1534 1535
f 1535 1536 1537
f 1536 1535 1534
f 1536 1538 1537
f 1538 1536 1539
f 1540 1541 1542
f 176 1543 177
f 1544 1542 1545
f 1546 1547 1548
f 1549 883 871
f 445 444 447
f 872 1549 871
f 454 1550 455
f 1551 213 212
f 216 1551 212
f 673 675 671
f 1552 216 215
f 1553 1554 675
f 675 674 1553
f 183 214 182
f 669 642 643
f 1555 1556 1557
f 1558 1559 1560
f 1561 1562 1563
f 1564 1565 1566
f 579 610 596
f 598 607 577
f 603 601 599
f 604 611 605
f 138 54 135
f 140 143 141
f 115 132 130
f 113 144 134
f 107 145 121
f 104 122 125
f 34 33 42
f 33 118 42
f 508 582 499
f 508 499 498
f 585 609 571
f 569 588 590

