# https://github.com/mikedh/trimesh

o v2_Low-Poly-mesh
v 0.01761929 -0.17133274 1.62118658
v 0.01574968 -0.16497615 1.62128008
v 0.02472366 -0.16338700 1.61249302
v 0.01621709 -0.15861957 1.62230841
v 0.02453673 -0.15703042 1.61417570
v 0.02612586 -0.17217406 1.64063025
v 0.02799548 -0.17712845 1.63689113
v 0.03696946 -0.17628714 1.63689113
v 0.03033245 -0.18002630 1.63184331
v 0.02163889 -0.17722184 1.63072148
v 0.02687371 -0.18021326 1.62838456
v 0.01761929 -0.17226752 1.63259104
v 0.02500415 -0.16600442 1.64221944
v 0.01593666 -0.16609790 1.63361937
v 0.02481716 -0.15946088 1.64175207
v 0.01631053 -0.15955436 1.63371287
v 0.04482173 -0.15572172 1.62230841
v 0.04482173 -0.15665650 1.63371287
v 0.04669130 -0.16301309 1.63361937
v 0.04594345 -0.16834140 1.62118658
v 0.04659780 -0.16189134 1.62128008
v 0.04332605 -0.17507190 1.63072148
v 0.04323255 -0.17432407 1.62202792
v 0.03865209 -0.17899803 1.62838456
v 0.03855859 -0.17862412 1.62380410
v 0.03528684 -0.17965238 1.63184331
v 0.03799774 -0.17105230 1.64063025
v 0.03631511 -0.15590866 1.61417570
v 0.03753032 -0.16217178 1.61258652
v 0.02584543 -0.16974358 1.61305399
v 0.03781075 -0.16478920 1.64221944
v 0.04613044 -0.16946315 1.63259104
v 0.03659554 -0.17432407 1.61585827
v 0.02780848 -0.17535235 1.61585827
v 0.03509985 -0.17862412 1.62043885
v 0.03023896 -0.17909151 1.62043885
v 0.03762382 -0.16862184 1.61305399
v 0.02154540 -0.17647409 1.62202792
v 0.02687371 -0.17974586 1.62380410
v 0.03575425 -0.18011978 1.62726273
v 0.03407163 -0.18040022 1.62894542
v 0.03659554 -0.15833912 1.64175207
v 0.03575425 -0.17983934 1.62483232
v 0.03397813 -0.17993272 1.62314975
v 0.03154766 -0.18021326 1.62314975
v 0.02986503 -0.18040022 1.62483232
v 0.02986503 -0.18068065 1.62726273
v 0.03154766 -0.18068065 1.62894542
v -0.02313759 -0.16338690 1.61249213
v -0.01416361 -0.16497615 1.62127918
v -0.01603317 -0.17133274 1.62118569
v -0.02295066 -0.15703032 1.61417470
v -0.01463102 -0.15861957 1.62230740
v -0.03538340 -0.17628714 1.63689024
v -0.02640936 -0.17712845 1.63689024
v -0.02453979 -0.17217396 1.64062936
v -0.03370077 -0.17965238 1.63184230
v -0.02874633 -0.18002630 1.63184230
v -0.02528764 -0.18021317 1.62838356
v -0.02005277 -0.17722184 1.63072059
v -0.02341802 -0.16600442 1.64221854
v -0.01603317 -0.17226752 1.63259015
v -0.02323109 -0.15946088 1.64175107
v -0.01435054 -0.16609780 1.63361848
v -0.04323561 -0.15572162 1.62230740
v -0.04501174 -0.16189134 1.62127918
v -0.04510523 -0.16301309 1.63361848
v -0.04435738 -0.16834140 1.62118569
v -0.04164648 -0.17432407 1.62202703
v -0.04173998 -0.17507190 1.63072059
v -0.03697253 -0.17862412 1.62380310
v -0.03706602 -0.17899803 1.62838356
v -0.03641167 -0.17105230 1.64062936
v -0.04454432 -0.16946306 1.63259015
v -0.03594425 -0.16217178 1.61258562
v -0.03472904 -0.15590866 1.61417470
v -0.02425936 -0.16974350 1.61305299
v -0.03622468 -0.16478910 1.64221854
v -0.03500947 -0.15833904 1.64175107
v -0.04323561 -0.15665641 1.63371186
v -0.03500947 -0.17432407 1.61585738
v -0.03603775 -0.16862184 1.61305299
v -0.02865289 -0.17909151 1.62043784
v -0.03351379 -0.17862412 1.62043784
v -0.01472447 -0.15955436 1.63371186
v -0.01995933 -0.17647400 1.62202703
v -0.02528764 -0.17974586 1.62380310
v -0.03416813 -0.18011978 1.62726184
v -0.03248550 -0.18040022 1.62894441
v -0.02622242 -0.17535235 1.61585738
v -0.03416813 -0.17983926 1.62483143
v -0.03239206 -0.17993272 1.62314874
v -0.02996159 -0.18021317 1.62314874
v -0.02827897 -0.18040022 1.62483143
v -0.02827897 -0.18068065 1.62726184
v -0.02996159 -0.18068065 1.62894441
f 1 2 3
f 2 4 5
f 6 7 8
f 8 7 9
f 7 10 11
f 6 12 10
f 13 14 12
f 15 16 14
f 17 18 19
f 20 21 19
f 22 23 20
f 22 24 25
f 8 26 24
f 27 8 22
f 28 29 3
f 30 3 29
f 31 27 32
f 31 19 18
f 33 34 30
f 33 35 36
f 14 16 4
f 12 14 2
f 33 23 25
f 23 33 37
f 10 12 1
f 10 38 39
f 20 37 29
f 17 21 29
f 40 24 26
f 41 26 9
f 34 36 39
f 30 34 38
f 42 15 13
f 31 13 6
f 24 40 43
f 43 44 35
f 44 45 36
f 36 45 46
f 46 47 11
f 47 48 9
f 47 40 41
f 46 43 40
f 46 45 44
f 49 50 51
f 52 53 50
f 54 55 56
f 54 57 58
f 55 58 59
f 56 55 60
f 61 56 62
f 63 61 64
f 65 66 67
f 67 66 68
f 68 69 70
f 70 69 71
f 54 70 72
f 73 74 70
f 49 75 76
f 75 49 77
f 78 67 74
f 78 79 80
f 81 82 77
f 83 84 81
f 53 85 64
f 50 64 62
f 81 84 71
f 69 68 82
f 60 86 51
f 87 86 60
f 68 66 75
f 75 66 65
f 57 72 88
f 58 57 89
f 90 86 87
f 77 51 86
f 79 78 61
f 78 73 56
f 72 71 91
f 84 92 91
f 83 93 92
f 83 87 94
f 94 87 59
f 95 59 58
f 89 88 95
f 88 91 94
f 94 91 92
f 30 1 3
f 3 2 5
f 27 6 8
f 26 8 9
f 9 7 11
f 7 6 10
f 6 13 12
f 13 15 14
f 21 17 19
f 32 20 19
f 32 22 20
f 23 22 25
f 22 8 24
f 32 27 22
f 5 28 3
f 37 30 29
f 19 31 32
f 42 31 18
f 37 33 30
f 34 33 36
f 2 14 4
f 1 12 2
f 35 33 25
f 20 23 37
f 38 10 1
f 11 10 39
f 21 20 29
f 28 17 29
f 41 40 26
f 48 41 9
f 38 34 39
f 1 30 38
f 31 42 13
f 27 31 6
f 25 24 43
f 25 43 35
f 35 44 36
f 39 36 46
f 39 46 11
f 11 47 9
f 48 47 41
f 47 46 40
f 43 46 44
f 77 49 51
f 49 52 50
f 73 54 56
f 55 54 58
f 60 55 59
f 62 56 60
f 64 61 62
f 85 63 64
f 80 65 67
f 74 67 68
f 74 68 70
f 72 70 71
f 57 54 72
f 54 73 70
f 52 49 76
f 82 75 77
f 73 78 74
f 67 78 80
f 90 81 77
f 90 83 81
f 50 53 64
f 51 50 62
f 69 81 71
f 81 69 82
f 62 60 51
f 59 87 60
f 82 68 75
f 76 75 65
f 89 57 88
f 96 58 89
f 83 90 87
f 90 77 86
f 63 79 61
f 61 78 56
f 88 72 91
f 71 84 91
f 84 83 92
f 93 83 94
f 95 94 59
f 96 95 58
f 96 89 95
f 95 88 94
f 93 94 92

