# https://github.com/mikedh/trimesh

o v2_jeans01-mesh
v 0.14918883 -0.05420300 1.00843419
v 0.14126890 -0.03225932 1.01128818
v 0.13859735 -0.03911703 1.02580738
v -0.00556355 0.03161060 1.01086004
v -0.00444178 0.03693890 0.99917610
v -0.02631591 0.03656498 0.99983045
v -0.10595329 -0.15485806 0.98079620
v -0.06962157 -0.16714729 0.97043779
v -0.06744673 -0.16750000 0.99375430
v 0.09735704 -0.16170438 1.00263485
v 0.11941813 -0.14497160 1.01067406
v 0.11511809 -0.14777598 1.02104929
v 0.09371133 -0.16254569 1.01394581
v 0.06305014 -0.17226752 1.00730880
v 0.10531932 -0.15712979 0.98133744
v 0.13110566 -0.13717404 0.98986931
v -0.06557717 -0.16656529 1.00684044
v -0.09502314 -0.15796521 1.01357094
v -0.10044494 -0.15731086 1.00170001
v -0.11343854 -0.14459769 1.01889925
v -0.04164648 0.03534972 1.00179351
v -0.04202041 0.02824535 1.01516102
v -0.02762461 0.03020840 1.01254362
v -0.11886034 -0.14141939 1.00646746
v -0.11577553 -0.01036156 1.03095806
v -0.11633640 -0.00886592 1.02628411
v -0.14347482 -0.04283570 1.02294404
v -0.11633640 -0.00372456 1.01572099
v -0.14278634 -0.03757075 1.00814357
v -0.00388092 -0.17525887 0.98917384
v -0.00294609 -0.17301537 0.96655091
v 0.06342574 -0.17007385 0.97137719
v 0.07613723 0.01880394 1.01936761
v 0.10689183 0.00347331 1.02544377
v 0.10848106 0.00898861 1.01048707
v 0.04622388 0.02693658 1.01581537
v 0.04556953 0.02469310 1.02357320
v 0.07557637 0.01665390 1.02609812
v 0.10595713 0.00207117 1.03039720
v -0.08530127 0.01843001 1.01039357
v -0.08660997 0.01197994 1.02151755
v -0.06286627 0.02469310 1.01712408
v -0.08623605 0.00964296 1.02721983
v -0.06286627 0.02188870 1.02385458
v 0.13927686 -0.11826419 1.01616773
v -0.13057888 -0.13484005 0.98688729
v -0.13889153 -0.11507457 1.01126667
v 0.14797958 -0.08891862 1.02004715
v 0.14682100 -0.09286261 1.02703942
v 0.13550974 -0.12164472 1.02415746
v 0.14671845 -0.11110690 0.99685500
v 0.15087987 -0.08059764 1.00260298
v -0.13489342 -0.11734674 1.02108573
v -0.14855381 -0.08800774 1.02285623
v -0.00388092 -0.17525887 0.98917384
v -0.14712591 -0.10755922 0.99116208
v -0.15122545 -0.08544154 1.01597049
v 0.14641586 -0.06261000 1.02346478
v 0.13783353 -0.04120969 1.03123944
v 0.14569355 -0.06614831 1.02899400
v -0.15107700 -0.05575875 1.00346304
v -0.15063112 -0.06195113 1.01950312
v -0.14979409 -0.06438556 1.02528018
v -0.14271193 -0.04459020 1.02767884
v -0.15330630 -0.07797110 0.99785235
v 0.06230235 -0.17264145 0.99366080
v 0.03577281 -0.17730111 0.83552571
v 0.04093039 -0.19599423 0.79241289
v 0.07023029 -0.20462535 0.80540676
v 0.06575318 -0.18661705 0.85200329
v 0.10261824 -0.20052620 0.81584084
v 0.09751044 -0.18138007 0.86162070
v 0.09599814 -0.16266582 0.88929976
v 0.06662746 -0.16536503 0.87913859
v 0.03169047 -0.15917726 0.86619314
v -0.08015867 -0.13941913 0.81743632
v -0.11698683 -0.14161074 0.83304080
v -0.11744665 -0.13502280 0.78489492
v -0.07857427 -0.13626813 0.77510082
v -0.11371290 -0.12748473 0.72580577
v -0.07807477 -0.12662813 0.71953839
v -0.04444570 -0.11027747 0.71700361
v -0.04120676 -0.11952431 0.76566310
v -0.04361054 -0.12855712 0.81516281
v 0.04955520 -0.21747678 0.74151667
v 0.06081028 -0.24113683 0.67303257
v 0.08414417 -0.24682252 0.67818704
v 0.07517348 -0.22521189 0.74872540
v 0.10917103 -0.24366955 0.67979540
v 0.10297505 -0.22149208 0.75246697
v -0.10815828 -0.11020817 0.66280783
v -0.07497975 -0.11197069 0.66022146
v -0.10114687 -0.08982799 0.59729133
v -0.07237994 -0.09223706 0.59583726
v -0.04656365 -0.08185798 0.59616416
v -0.04495324 -0.10037979 0.66073323
v 0.06445518 -0.25549318 0.62086621
v 0.06498383 -0.27349447 0.56339716
v 0.08326199 -0.27047481 0.56539203
v 0.08428208 -0.25757084 0.62356741
v 0.10704794 -0.26852510 0.56865537
v 0.10740764 -0.25507280 0.62566826
v -0.09338548 -0.06877424 0.54259732
v -0.09529582 -0.04555106 0.48476555
v -0.06919734 -0.05094004 0.48102231
v -0.04694125 -0.05100729 0.47967766
v -0.04814420 -0.06684155 0.54362281
v -0.06797794 -0.07114671 0.54242103
v 0.09101625 -0.27705602 0.51397111
v 0.07326659 -0.27812486 0.51091760
v 0.08243213 -0.27368497 0.46036850
v 0.10218580 -0.27420006 0.46477785
v 0.12504998 -0.26980542 0.46606616
v 0.11291880 -0.27142213 0.51642326
v -0.07420136 -0.01881983 0.43292555
v -0.10148237 -0.01567138 0.43818003
v -0.10885993 0.02273656 0.40503763
v -0.08011482 0.01972824 0.39757134
v -0.05697632 0.02593389 0.39941073
v -0.05548944 -0.01530910 0.43440422
v 0.08246790 -0.26274595 0.41620139
v 0.07873535 -0.25863585 0.38219224
v 0.10299861 -0.26618701 0.38620680
v 0.10574222 -0.26902130 0.41986877
v 0.13164119 -0.26273305 0.38904371
v 0.13122277 -0.26317296 0.42369813
v -0.11327374 0.05388668 0.37923830
v -0.08195529 0.05552479 0.37361834
v -0.11270669 0.08049255 0.35489232
v -0.08229975 0.08207590 0.35297102
v -0.05965290 0.09164827 0.35725986
v -0.05788976 0.06417379 0.37684925
v 0.10955365 -0.28129108 0.13178719
v 0.09003645 -0.28253811 0.13256280
v 0.09291022 -0.29018696 0.08524119
v 0.11407205 -0.28440647 0.08092535
v 0.13624878 -0.26901756 0.07487883
v 0.13136160 -0.27206274 0.13051476
v 0.12813039 -0.26966854 0.18834192
v 0.10730940 -0.27483850 0.18685514
v 0.08795896 -0.27232543 0.18449796
v -0.09208297 0.24451284 0.16011953
v -0.08614690 0.21274579 0.20066210
v -0.10800170 0.21335735 0.20264162
v -0.11266622 0.25139757 0.16392459
v -0.12157619 0.28701819 0.12931962
v -0.09747809 0.27393757 0.12716633
v -0.07636083 0.26826289 0.13005801
v -0.07404619 0.24579901 0.16302495
v -0.06856655 0.21829033 0.20306882
v 0.13758731 -0.16309301 0.86260379
v 0.13389834 -0.18784911 0.80908754
v 0.16254467 -0.15963046 0.80334965
v 0.16461000 -0.13863278 0.85218309
v 0.16501000 -0.12423304 0.88722622
v 0.13825269 -0.14670901 0.89349738
v -0.15033722 -0.11127884 0.79196146
v -0.14835649 -0.12197446 0.84253241
v -0.17416908 -0.09005253 0.85094069
v -0.16865334 -0.07547432 0.79901636
v -0.16561722 -0.06291656 0.74110508
v -0.14646531 -0.09952508 0.73277842
v 0.13999308 -0.20690877 0.75107603
v 0.13708271 -0.22700016 0.67470551
v 0.15904864 -0.20348211 0.66644632
v 0.16560621 -0.17961882 0.74202058
v -0.14240457 -0.08531884 0.66812182
v -0.16355031 -0.04974355 0.67840228
v -0.15275216 -0.03529840 0.60904147
v -0.13081268 -0.06654680 0.60188427
v 0.12859704 -0.25041361 0.56630514
v 0.14163487 -0.22496288 0.55964060
v 0.14928007 -0.21691861 0.61522599
v 0.13194191 -0.24027252 0.62215775
v -0.12128696 -0.04966605 0.54760380
v -0.14158130 -0.02362561 0.55489572
v -0.13532820 -0.00649730 0.49882748
v -0.12097129 -0.02492612 0.49398993
v 0.14389407 -0.24623790 0.46561992
v 0.15986022 -0.21276066 0.45980736
v 0.14635107 -0.22643564 0.50769153
v 0.13252280 -0.25267544 0.51486594
v -0.12756035 -0.00252266 0.44719293
v -0.14318110 0.02030805 0.46229272
v -0.15485066 0.05865073 0.43804831
v -0.13482864 0.03812057 0.41794907
v 0.15094305 -0.24173257 0.42487121
v 0.15547866 -0.24469576 0.38918936
v 0.17363073 -0.21543436 0.39029670
v 0.16671776 -0.21103008 0.42591509
v -0.13991887 0.06447190 0.39441512
v -0.16075668 0.08205627 0.41734960
v -0.16165717 0.10659288 0.38975267
v -0.13988605 0.08981018 0.36783253
v 0.15149422 -0.24683486 0.06905899
v 0.15711539 -0.22187777 0.06544267
v 0.16278948 -0.22635169 0.12308008
v 0.14954835 -0.25293652 0.12702162
v 0.16595656 -0.22738248 0.18114514
v 0.15116863 -0.25318358 0.18485084
v -0.13312675 0.22452138 0.21376022
v -0.13433404 0.26512126 0.17506759
v -0.15338463 0.24511914 0.23154352
v -0.15318337 0.28743716 0.19303579
v -0.15118208 0.32863222 0.15261539
v -0.14058360 0.30625350 0.13799309
v 0.17331207 -0.12170935 0.78499394
v 0.16570455 -0.08367661 0.76388631
v 0.16696362 -0.05997170 0.81181639
v 0.16784849 -0.03325715 0.85408140
v 0.17670218 -0.08433336 0.87173847
v 0.17514790 -0.10094590 0.83327331
v -0.18023625 -0.05034308 0.86050573
v -0.16879609 -0.00231512 0.87075332
v -0.16509524 0.00191784 0.82012348
v -0.17594163 -0.03589910 0.80965837
v -0.15433662 0.00876969 0.75871652
v -0.17041113 -0.02674726 0.75083137
v 0.16330120 -0.16990848 0.65491633
v 0.15760615 -0.13643219 0.64249920
v 0.16532501 -0.10669091 0.71100469
v 0.17137910 -0.14322513 0.72698888
v -0.16510187 -0.01740565 0.69025650
v -0.15143485 0.01331265 0.70594221
v -0.14720416 0.02490042 0.62762306
v -0.15681701 -0.00442699 0.61774188
v 0.14881407 -0.20021706 0.54943263
v 0.15453013 -0.16912373 0.54307359
v 0.15090801 -0.15803364 0.58940312
v 0.15316534 -0.18767664 0.60553023
v -0.14877246 0.00575837 0.56348675
v -0.14325841 0.03450614 0.57307347
v -0.14140368 0.04290529 0.52689795
v -0.14482969 0.01779261 0.51198727
v 0.15923606 -0.18628258 0.46493665
v 0.15456182 -0.15210940 0.45869083
v 0.15289219 -0.16519508 0.49995220
v 0.15738293 -0.19459615 0.50040530
v -0.14643642 0.06035423 0.50213317
v -0.15123695 0.10048738 0.48377377
v -0.16035855 0.07972836 0.46108241
v -0.14908599 0.04228102 0.47991898
v 0.17512977 -0.18023503 0.38716797
v 0.16440424 -0.14693542 0.38303542
v 0.15545082 -0.14867048 0.42108287
v 0.16976013 -0.17856550 0.42389445
v -0.16511263 0.10454530 0.44148675
v -0.15620891 0.12682056 0.46342156
v -0.15978385 0.15697274 0.43800803
v -0.16554702 0.13166568 0.41478713
v 0.15559570 -0.19230265 0.06391183
v 0.14513202 -0.16161482 0.06653335
v 0.14940729 -0.16132261 0.11607623
v 0.16079361 -0.19278397 0.11858588
v 0.15351027 -0.15747417 0.17195446
v 0.16361127 -0.19113069 0.17672704
v -0.15824135 0.27412021 0.25899620
v -0.15432093 0.30156149 0.28385634
v -0.15259296 0.33914369 0.24030280
v -0.15777554 0.31389672 0.21635539
v -0.14928436 0.37704950 0.19763309
v -0.15431214 0.35336224 0.17300114
v 0.14544900 -0.05662572 0.74697296
v 0.11382536 -0.03796896 0.73553340
v 0.11299770 -0.01344382 0.77837643
v 0.11173909 0.01150088 0.80952209
v 0.14364991 -0.00571709 0.82501452
v 0.14529766 -0.03293887 0.79472240
v -0.13760600 0.03120246 0.85728373
v -0.13921805 0.03194278 0.81902512
v -0.10950728 0.05208978 0.84659831
v -0.10632477 0.05621536 0.81046261
v -0.10753515 0.05529841 0.76615336
v -0.13226591 0.03785418 0.76395194
v 0.14096761 -0.10797678 0.63104938
v 0.11430417 -0.08906604 0.62388021
v 0.11655290 -0.05900426 0.68477513
v 0.14531748 -0.07734727 0.69573552
v -0.13016852 0.04280154 0.70646991
v -0.10212737 0.06085856 0.71006088
v -0.09999109 0.06554382 0.63752955
v -0.12712465 0.04890221 0.63293488
v 0.12982714 -0.12718419 0.58701678
v 0.13209840 -0.14272361 0.53203648
v 0.10372887 -0.13015730 0.52795882
v 0.10332606 -0.11547312 0.58338007
v -0.12205330 0.05680168 0.58187195
v -0.09372331 0.07216767 0.59348357
v -0.09332294 0.07147470 0.54051012
v -0.12099437 0.06081275 0.53541416
v 0.13643031 -0.12812674 0.44952150
v 0.11317120 -0.12078114 0.45266210
v 0.10596012 -0.13311760 0.49524693
v 0.13011897 -0.14845408 0.50240134
v -0.10364211 0.08591247 0.52333117
v -0.10966469 0.12501248 0.50267001
v -0.13202623 0.11682492 0.49727411
v -0.12922036 0.08133657 0.51530093
v 0.14155895 -0.12677199 0.37753567
v 0.11312362 -0.11692507 0.37224673
v 0.11480521 -0.11623724 0.41402257
v 0.14238625 -0.12926654 0.41704766
v -0.13746036 0.14520025 0.47574203
v -0.11085478 0.15473607 0.48286066
v -0.11000206 0.18674979 0.45520166
v -0.13734304 0.17655308 0.44894576
v 0.12888393 -0.14033887 0.11318277
v 0.12882055 -0.14315783 0.06872897
v 0.10750037 -0.13608986 0.07070389
v 0.10476798 -0.13521425 0.11194904
v 0.10918824 -0.13341879 0.16167099
v 0.13247129 -0.13888405 0.16607218
v -0.13779941 0.32055468 0.29774727
v -0.13746766 0.35786289 0.25654202
v -0.11736625 0.32985044 0.30097248
v -0.11587760 0.36624958 0.26335234
v -0.11876863 0.39840343 0.22319020
v -0.13618662 0.39318391 0.21545285
v 0.04573462 -0.01486960 0.77165779
v 0.03836515 0.00903374 0.79382300
v 0.07012877 0.00735363 0.79138874
v 0.07740815 -0.00838825 0.77094538
v 0.08054518 -0.03644068 0.72932865
v 0.04997854 -0.04253193 0.73269044
v -0.07406764 0.05720113 0.80916499
v -0.07298643 0.06490583 0.76058435
v -0.06644581 0.05468953 0.82585898
v -0.03952408 0.05533207 0.82114262
v -0.03808014 0.05688921 0.80083193
v -0.04127835 0.05596998 0.75493594
v 0.05344124 -0.06428203 0.68659661
v 0.08442343 -0.05620873 0.68165203
v 0.08467277 -0.08636980 0.62201734
v 0.05496870 -0.09729030 0.62679047
v -0.07218053 0.06497248 0.70421217
v -0.07026327 0.06831885 0.63824458
v -0.04363974 0.05369964 0.70372480
v -0.04328771 0.05673577 0.63567397
v 0.07992287 -0.12269712 0.57930396
v 0.05780368 -0.12722429 0.58039431
v 0.08008166 -0.13230087 0.52973522
v 0.05952153 -0.14428743 0.53108883
v -0.06588585 0.07249232 0.59220306
v -0.06799099 0.07002887 0.53501160
v -0.04211223 0.06162527 0.58344214
v -0.04492860 0.06600365 0.53021245
v 0.06224919 -0.14521156 0.49373352
v 0.08372027 -0.13334345 0.49759277
v 0.08594960 -0.12129837 0.45024700
v 0.06701414 -0.13605631 0.44578522
v -0.08311880 0.12750304 0.50067330
v -0.07619300 0.08949488 0.52103776
v -0.05422353 0.08264659 0.51458852
v -0.05961681 0.12173062 0.49303326
v 0.08991344 -0.11984615 0.41241594
v 0.06529970 -0.13058263 0.41010130
v 0.08768209 -0.12020575 0.36963724
v 0.06581876 -0.13389554 0.36947496
v -0.08334713 0.15809019 0.48072594
v -0.08351924 0.18897544 0.45304098
v -0.05930707 0.15433224 0.47291334
v -0.06030197 0.18329621 0.44509170
v 0.08635250 -0.14227145 0.10868016
v 0.06973212 -0.16060936 0.10911110
v 0.06883846 -0.15082779 0.15873883
v 0.08885368 -0.13621036 0.15907788
v 0.08677188 -0.14548686 0.06955538
v 0.06865726 -0.16664401 0.06887016
v -0.09594868 0.36444813 0.25823202
v -0.09384858 0.39234775 0.21852756
v -0.09701332 0.33238207 0.29873693
v -0.07550505 0.32275418 0.28762251
v -0.07554399 0.35244390 0.24359999
v -0.07228316 0.37604956 0.20431125
v -0.00042217 -0.17123926 0.94149945
v -0.00098303 -0.16880880 0.91523178
v 0.04061955 -0.16550505 0.91049247
v -0.00294609 -0.17301537 0.96655091
v -0.07108561 -0.16622222 0.94116002
v -0.00042217 -0.17123926 0.94149945
v -0.04630891 -0.16593086 0.90802874
v -0.00051567 -0.16946315 0.88737460
v -0.00060850 -0.16964917 0.85961012
v 0.02199660 -0.16354928 0.85999396
v 0.02845275 -0.16497549 0.88447085
v -0.03461404 -0.16475704 0.88397764
v -0.00051567 -0.16946315 0.88737460
v -0.00098303 -0.16880880 0.91523178
v -0.02849911 -0.16168269 0.85843241
v -0.00060850 -0.16964917 0.85961012
v 0.06742534 -0.16123288 0.90450547
v 0.07285131 -0.15723290 0.90063385
v 0.09980077 -0.15240890 0.92269788
v 0.09392312 -0.15691180 0.93551958
v 0.06490627 -0.16726649 0.94372516
v 0.05313396 -0.16097533 0.88644277
v 0.05816941 -0.15854852 0.88337004
v -0.06300306 -0.15875623 0.87014572
v -0.07782191 -0.16300841 0.89331207
v -0.09796465 -0.15889159 0.91519534
v -0.10794318 -0.15249126 0.89294182
v -0.08579983 -0.15623921 0.87326614
v -0.07285745 -0.15364778 0.85577494
v 0.07178732 -0.15850580 0.88927998
v 0.05128714 -0.15755539 0.87943306
v 0.09809085 -0.15368713 0.90826425
v -0.08367586 -0.14827721 0.84264440
v -0.11383461 -0.14648092 0.86595907
v -0.06538294 -0.14740478 0.84302083
v 0.03918074 -0.15938675 0.87348890
v 0.01868930 -0.15621266 0.83828987
v 0.02508549 -0.15256464 0.85819021
v -0.03395361 -0.13570651 0.82327918
v -0.05060615 -0.14971483 0.84790969
v -0.01984043 -0.15395579 0.83204473
v -0.00027391 0.04850522 0.84545960
v -0.03141105 0.05523105 0.83994904
v -0.02895494 0.06198610 0.87819100
v -0.00467078 -0.15942395 0.82999431
v -0.00467078 -0.15942395 0.82999431
v -0.02575974 0.05674629 0.94535446
v -0.02612893 0.05124120 0.97113226
v -0.00388092 0.04778245 0.96851396
v 0.12281891 -0.14556370 0.95072578
v 0.14864628 -0.12647262 0.96228637
v 0.13900138 -0.13291036 0.97920612
v 0.11264650 -0.15292716 0.96813630
v 0.13244361 -0.14044469 0.93710308
v 0.15732553 -0.11940747 0.94400932
v -0.14040981 -0.13669252 0.91443435
v -0.11616730 -0.15174089 0.96120767
v -0.13113378 -0.14266117 0.93880070
v -0.14053386 -0.13003045 0.97050409
v -0.15012250 -0.12057221 0.94933384
v -0.16035585 -0.10953688 0.93007437
v 0.13802077 -0.14036158 0.91804643
v 0.16284895 -0.11644535 0.91789399
v -0.14874722 -0.13004073 0.88682098
v -0.16836327 -0.10000872 0.89829592
v 0.15114339 -0.04709249 0.99566587
v 0.14222210 -0.02625856 0.99768509
v 0.15439244 -0.07401891 0.98967207
v -0.14261144 -0.03077522 0.99683539
v -0.15197020 -0.04917155 0.99091993
v -0.15691198 -0.07199652 0.98501305
v 0.15673446 -0.02201135 0.94828222
v 0.14457665 0.00033238 0.95396389
v 0.14454188 -0.01371111 0.97912667
v 0.15442254 -0.03587258 0.97632974
v 0.15921923 -0.06416448 0.97163238
v 0.16360817 -0.05074637 0.94545821
v -0.15917548 -0.06185474 0.96657141
v -0.15322610 -0.03855244 0.97361516
v -0.14158915 -0.01943546 0.97970625
v -0.13907166 -0.00365118 0.95788532
v -0.15724449 -0.02199385 0.95032105
v -0.16489707 -0.04775961 0.94219303
v 0.15232001 -0.10423447 0.98497839
v -0.15217314 -0.10127279 0.97720195
v 0.16510076 -0.08678723 0.94483194
v 0.15873735 -0.09701343 0.96770538
v -0.15988041 -0.09153190 0.95838266
v -0.16739174 -0.07853954 0.93737131
v 0.17249786 -0.07965729 0.91065322
v 0.16744250 -0.03713141 0.90613594
v -0.17501376 -0.06548849 0.90476695
v -0.17044580 -0.02883869 0.91202717
v 0.15819994 -0.00531747 0.91116905
v 0.14267613 0.01805514 0.92249696
v 0.15441721 0.00918992 0.87311944
v 0.13639816 0.03216483 0.89037813
v -0.15564767 -0.00088021 0.92114713
v -0.14583207 0.02155970 0.89526158
v -0.13516937 0.01820647 0.93015940
v -0.12499341 0.03873268 0.90569922
v 0.12158105 0.04132897 0.86956586
v 0.13241473 0.01706236 0.84694978
v 0.10664336 0.03322436 0.83153095
v 0.09810955 0.04710135 0.85563793
v -0.12625847 0.04193050 0.87691077
v -0.09806729 0.05506440 0.85953028
v -0.11173423 0.05099782 0.88720783
v -0.08871093 0.05652493 0.86858712
v 0.06824244 0.03605922 0.81989476
v 0.06407429 0.05257937 0.84224256
v 0.03513250 0.03149030 0.81057505
v 0.02575483 0.05157478 0.83161030
v -0.03741627 0.05382667 0.83129114
v -0.06827782 0.05293207 0.84615920
v -0.06447290 0.05864928 0.85633240
v 0.11025717 0.01366256 0.99898911
v 0.11137892 0.02132785 0.98524762
v -0.11633640 0.00225810 1.00571962
v 0.10959777 0.02901024 0.96524031
v -0.11399942 0.01029731 0.99085552
v 0.10752533 0.03848156 0.94581068
v -0.11231679 0.02142134 0.97131836
v 0.10924779 0.04361474 0.92353275
v -0.11146165 0.03633442 0.94218278
v 0.09796522 0.05474084 0.91005581
v -0.11001814 0.04746698 0.92022445
v 0.08090551 0.06141373 0.89739591
v -0.09722308 0.05537441 0.91126684
v 0.05630426 0.06272562 0.88180865
v -0.07999252 0.06290407 0.89473906
v 0.02510995 0.06027945 0.87737278
v -0.06058300 0.06497874 0.88622357
v -0.00027391 0.04850522 0.84545960
v 0.00032564 0.05937390 0.87755927
v -0.00397436 0.03955631 0.98917384
v -0.02640941 0.04105195 0.99038905
v -0.00444178 0.03693890 0.99917610
v -0.00556355 0.03161060 1.01086004
v 0.01696489 0.03404101 1.01104792
v 0.08043726 0.02796486 0.99534338
v 0.05117292 0.03559699 0.99082554
v 0.04842886 0.03171166 1.00050910
v 0.07847421 0.02338440 1.00525225
v -0.06410505 0.03129735 1.00331438
v -0.06254773 0.03639175 0.99457502
v -0.08268386 0.02403874 1.00179351
v -0.00640483 0.02843227 1.01983498
v -0.04258127 0.02525396 1.02263937
v -0.02827897 0.02656272 1.02039494
v 0.08380252 0.03964980 0.96440175
v 0.06079686 0.04976011 0.95889871
v 0.05589992 0.04351496 0.97687655
v 0.08296123 0.03385408 0.98291070
v -0.08137516 0.03039533 0.98851949
v -0.06146106 0.04343834 0.98241146
v -0.06404738 0.05011313 0.96399044
v -0.08128166 0.04039760 0.96879534
v 0.08791561 0.04796944 0.94252678
v 0.06772410 0.05591515 0.93673200
v -0.08586218 0.04853029 0.94355589
v -0.06867208 0.05673477 0.94154804
v 0.04622388 0.06086959 0.92822443
v 0.02089105 0.05984126 0.91915789
v 0.02014320 0.05722385 0.94374199
v 0.04048381 0.05607879 0.95016771
v -0.04893784 0.06301960 0.93084273
v -0.04504706 0.05706272 0.95406206
v -0.02622242 0.06292613 0.92280352
v -0.04147838 0.04046279 0.99247546
v -0.04134204 0.05000627 0.97643070
v 0.01380211 0.02070944 0.81567987
v 0.00010459 0.02841696 0.82574609
v 0.00010459 0.02841696 0.82574609
v -0.01388273 0.02973574 0.82457546
v 0.02708739 -0.05733819 0.73953183
v 0.01417164 -0.07691496 0.74797577
v 0.01392898 -0.05496873 0.77730597
v 0.02674856 -0.03125506 0.77332894
v 0.00964204 -0.03985841 0.79143549
v 0.02217947 -0.00449346 0.79006912
v -0.01446487 0.03536097 0.80936340
v -0.01659124 0.03638735 0.79377703
v -0.00477453 0.00593131 0.79897262
v -0.00577115 0.00968458 0.78606127
v -0.01031088 0.01177155 0.75192405
v -0.02074150 0.03523572 0.75286129
v 0.00709852 -0.10174461 0.75961113
v 0.00438361 -0.13493867 0.76430464
v -0.00069993 -0.10452973 0.78850684
v 0.00480779 -0.08204670 0.78201353
v -0.00360829 -0.08917353 0.79644258
v 0.00300102 -0.06587223 0.79344033
v -0.00090090 -0.02112889 0.79098239
v -0.00020493 -0.01998784 0.77598479
v 0.00274890 -0.04111368 0.78465411
v 0.00194795 -0.04226905 0.77093017
v -0.00062989 -0.04934199 0.73310409
v -0.00243554 -0.01545664 0.74801165
v 0.03340619 -0.11924734 0.63721630
v 0.01928648 -0.14829731 0.64334160
v 0.01424607 -0.10090388 0.71003698
v 0.03024732 -0.08139279 0.69632479
v -0.00775053 0.00971969 0.70482635
v -0.00717753 0.01211617 0.62448965
v -0.02239599 0.03559571 0.63135433
v -0.02460682 0.03594986 0.70304872
v 0.03913349 -0.16540765 0.53230816
v 0.02530514 -0.18826864 0.53454652
v 0.02172949 -0.17205299 0.59518826
v 0.03417415 -0.14601511 0.58821159
v -0.02358641 0.03631452 0.57710918
v -0.00952721 0.01617728 0.57082353
v -0.01329786 0.03148652 0.51288511
v -0.02616603 0.05265855 0.52677972
v 0.01992830 -0.19191769 0.60071865
v 0.02505747 -0.21018017 0.54129731
v 0.03034922 -0.22845872 0.54841968
v 0.02434745 -0.20923163 0.60622091
v 0.01774872 -0.18929795 0.65426811
v 0.01483061 -0.17395642 0.64796875
v -0.00246814 -0.01413055 0.61222848
v -0.00646467 -0.00486109 0.56210005
v -0.00454775 -0.03053313 0.60997591
v -0.00953139 -0.02106113 0.55671741
v -0.01665319 -0.00450761 0.49782845
v -0.01195071 0.01323415 0.50365126
v 0.04339865 -0.16451118 0.49344401
v 0.04817635 -0.15526647 0.44893367
v 0.03685029 -0.17838911 0.44903101
v 0.03181567 -0.18842195 0.49177370
v -0.03425805 0.07204241 0.50081265
v -0.02236250 0.05875030 0.48607715
v -0.02673720 0.09576499 0.46451826
v -0.03890622 0.11076532 0.48024354
v 0.03179856 -0.21333911 0.49490159
v 0.03646533 -0.20505760 0.45192868
v 0.04182489 -0.22819296 0.45469257
v 0.03706775 -0.23431537 0.50002586
v -0.01919906 0.04037324 0.47057731
v -0.02340443 0.02245029 0.45942525
v -0.02680305 0.06111899 0.43228655
v -0.02346282 0.07736782 0.44761672
v 0.04589397 -0.15725459 0.37260502
v 0.03768638 -0.18365236 0.37488620
v 0.03638231 -0.17728222 0.40955407
v 0.04683956 -0.15169229 0.40957427
v -0.03970054 0.14299217 0.45873602
v -0.02756015 0.12796942 0.44127978
v -0.02874650 0.14985739 0.41286904
v -0.03899525 0.16780006 0.43102373
v 0.03757511 -0.20600426 0.37239695
v 0.04223302 -0.22329222 0.36984804
v 0.04103392 -0.22231414 0.40826164
v 0.03635117 -0.20210225 0.40874006
v -0.02429491 0.11217349 0.42239260
v -0.02703050 0.09940265 0.40624846
v -0.02943311 0.12684028 0.37849898
v -0.02662241 0.13670038 0.39399726
v 0.05558934 -0.18769533 0.11328972
v 0.05662881 -0.19257570 0.07041957
v 0.05200289 -0.21869668 0.07403462
v 0.04924819 -0.21706847 0.11780065
v 0.04553710 -0.20797359 0.16905894
v 0.05339110 -0.17941860 0.16328099
v -0.05440250 0.29995693 0.26719359
v -0.05720081 0.32981567 0.22566536
v -0.04207556 0.27496275 0.24661656
v -0.04608041 0.30458152 0.20568081
v -0.04846363 0.33060082 0.17371934
v -0.05651153 0.35355976 0.18791864
v 0.05543172 -0.24483141 0.07856930
v 0.06152781 -0.26378582 0.08037990
v 0.05850829 -0.25514618 0.12368508
v 0.05172792 -0.23861345 0.12102541
v 0.05355347 -0.24301782 0.17325167
v 0.04809617 -0.22797486 0.17176058
v -0.03979809 0.25787269 0.23134104
v -0.04470518 0.28553701 0.19169596
v -0.04247328 0.24695122 0.22040378
v -0.04898147 0.27082770 0.18108672
v -0.05070661 0.29196951 0.14621869
v -0.04789118 0.30781338 0.15841652
v -0.00302448 -0.05441194 0.80739199
v 0.00297339 -0.02148565 0.80789446
v 0.00444066 -0.03170064 0.80188572
v -0.00083616 -0.05841527 0.80275982
v -0.00438511 -0.08293551 0.80268745
v -0.00529426 -0.08140561 0.80695873
v 0.00343284 -0.04224342 0.79238035
v 0.00256821 -0.02186269 0.80252492
v -0.00041058 0.00226824 0.81259794
v 0.00084740 -0.00048099 0.81675272
v 0.00519865 -0.02281514 0.80891237
v 0.00512984 -0.04474615 0.79798268
v 0.01682999 0.01001304 0.80493650
v -0.01400247 0.03023637 0.81885144
v 0.00126893 -0.00432481 0.80861818
v 0.00042886 -0.03630879 0.79728325
v 0.00126893 -0.00432481 0.80861818
v 0.00042886 -0.03630879 0.79728325
v 0.00002799 -0.06357709 0.79046694
v -0.00443593 -0.13161146 0.82678919
v 0.01125591 -0.14211525 0.81914413
v 0.00088651 -0.14712162 0.81296507
v -0.01079724 -0.13470740 0.80829746
v 0.00088651 -0.14712162 0.81296507
v 0.00002799 -0.06357709 0.79046694
v 0.10435368 -0.26981483 0.24058016
v 0.12594672 -0.26648362 0.24187418
v 0.12640309 -0.26424293 0.29156623
v 0.10298103 -0.26717135 0.28973367
v 0.08274626 -0.26104940 0.28781789
v 0.08472960 -0.26521015 0.23764107
v -0.08535075 0.17996358 0.24264343
v -0.06683958 0.18613816 0.24516185
v -0.06581766 0.15471382 0.28586718
v -0.08517011 0.14793162 0.28134709
v -0.10949297 0.14690522 0.28344119
v -0.10670308 0.17994310 0.24507677
v 0.10217281 -0.26521773 0.33746322
v 0.12784230 -0.26271145 0.33914517
v 0.08035245 -0.25832111 0.33460508
v -0.08464268 0.11682183 0.31822855
v -0.06395255 0.12552568 0.32240277
v -0.11144286 0.11479044 0.31976115
v 0.16117753 -0.22597881 0.23739382
v 0.14673752 -0.25211840 0.24040563
v 0.16332362 -0.22390263 0.28959111
v 0.14850287 -0.25047371 0.29114548
v -0.13090719 0.18826882 0.25438347
v -0.13531342 0.15336865 0.29207176
v -0.15400907 0.17055041 0.31122611
v -0.15044967 0.20616608 0.27258828
v 0.15197413 -0.24669576 0.34018437
v 0.16895088 -0.21984424 0.33996219
v -0.13818650 0.12238506 0.33115542
v -0.15409227 0.14004721 0.35156660
v 0.15418585 -0.15365955 0.23095926
v 0.16406034 -0.18858685 0.23455513
v 0.15713166 -0.15132024 0.28768422
v 0.16620990 -0.18755651 0.28903987
v -0.16019945 0.23334142 0.30091350
v -0.16217672 0.19495783 0.33984357
v -0.15750950 0.22120864 0.36866758
v -0.15499163 0.26077691 0.32792497
v 0.16057403 -0.14977924 0.33699142
v 0.17123833 -0.18390607 0.33881276
v -0.16440013 0.16297775 0.37706669
v -0.15872688 0.18763999 0.40426521
v 0.10960020 -0.13123007 0.22116377
v 0.13284922 -0.13775809 0.22568584
v 0.11025184 -0.12561596 0.27944301
v 0.13475834 -0.13323071 0.28419221
v -0.13635973 0.23821730 0.38248092
v -0.13703111 0.27776272 0.33971166
v -0.11212376 0.24898666 0.38678226
v -0.11524251 0.28779445 0.34411725
v 0.11119972 -0.12174562 0.32735119
v 0.13804049 -0.12950042 0.33193363
v -0.13364230 0.20432380 0.41519724
v -0.10954308 0.21655675 0.42187033
v 0.08671595 -0.12324416 0.32423355
v 0.08693915 -0.12942713 0.27632052
v 0.06553911 -0.14315147 0.27481243
v 0.06554970 -0.13845273 0.32294786
v -0.06219159 0.21381128 0.40974385
v -0.06687323 0.24430437 0.37214137
v -0.08825984 0.24993612 0.38258700
v -0.08478984 0.21983366 0.42007395
v 0.08842532 -0.13428833 0.21673210
v 0.06858611 -0.14738309 0.21621256
v -0.07246307 0.28349880 0.32977314
v -0.09415491 0.29078241 0.34038303
v 0.05098364 -0.17415880 0.22191788
v 0.04457234 -0.20056059 0.22566163
v 0.04438368 -0.19234499 0.27837763
v 0.05200472 -0.16994588 0.27721791
v -0.05071257 0.26170684 0.31132222
v -0.04792311 0.22573726 0.35334812
v -0.03780590 0.20944776 0.33550688
v -0.03906607 0.24059044 0.29145209
v 0.04162085 -0.18778592 0.32700345
v 0.04918451 -0.16314835 0.32567547
v -0.04319795 0.19664270 0.39340612
v -0.03330735 0.17968893 0.37501474
v 0.05224036 -0.23460758 0.22629372
v 0.04557393 -0.22016393 0.22627653
v 0.05262236 -0.22981669 0.27693102
v 0.04744878 -0.21449264 0.27705452
v -0.03712442 0.19562498 0.31703276
v -0.03756932 0.22625223 0.27531423
v -0.04043869 0.18464894 0.30394782
v -0.04177051 0.21659993 0.26360137
v 0.04837754 -0.22588317 0.32184236
v 0.04298767 -0.20983093 0.32430097
v -0.03264335 0.16698614 0.35567173
v -0.03647330 0.15752146 0.34100551
v 0.00981433 -0.16293316 0.71655001
v -0.00389441 -0.04367559 0.67442614
v 0.00837418 -0.13478564 0.71594269
v 0.00536246 -0.15325255 0.80630243
v 0.01130728 -0.17471808 0.77439934
v 0.02386895 -0.18483291 0.78225601
v 0.01692109 -0.16560339 0.81798219
v 0.01098997 -0.14871563 0.83542463
v -0.00004924 -0.14025548 0.81716899
v -0.01407813 -0.10308913 0.78732696
v -0.01988322 -0.10116642 0.75902146
v -0.02498503 -0.09798644 0.71451932
v -0.01475511 -0.08459334 0.71535865
v -0.00903744 -0.08480513 0.75369589
v -0.00344420 -0.08455702 0.77810508
v 0.00981433 -0.16293316 0.71655001
v 0.01774872 -0.18929795 0.65426811
v 0.02354651 -0.20455908 0.65833652
v 0.03195819 -0.21868341 0.66174741
v 0.02100276 -0.19233359 0.73087928
v 0.01361946 -0.17694570 0.72604959
v 0.00470906 -0.15925728 0.76641083
v 0.00438361 -0.13493867 0.76430464
v -0.00976607 -0.06020025 0.67266606
v -0.00776274 -0.06928144 0.71968721
v -0.01793533 -0.07481178 0.66594631
v -0.01905810 -0.05812782 0.60004675
v -0.01071813 -0.04537142 0.60498642
v -0.00454775 -0.03053313 0.60997591
v -0.00389441 -0.04367559 0.67442614
v -0.00062989 -0.04934199 0.73310409
v 0.03285932 -0.20572485 0.73651270
v 0.04368788 -0.23160092 0.66732238
v -0.02588694 -0.09047883 0.66156911
v -0.03004768 -0.07024447 0.59686152
v 0.03070705 -0.22383253 0.61042817
v 0.02434745 -0.20923163 0.60622091
v 0.03034922 -0.22845872 0.54841968
v 0.03512743 -0.24280777 0.55312701
v 0.04333981 -0.25190507 0.55618592
v 0.03903833 -0.23700514 0.61386162
v -0.01531480 -0.03545074 0.55283126
v -0.02338002 -0.04750414 0.54924480
v -0.02919580 -0.02792307 0.49026926
v -0.02208196 -0.01811817 0.49384635
v -0.01665319 -0.00450761 0.49782845
v -0.00953139 -0.02106113 0.55671741
v 0.05218564 -0.26124664 0.55895282
v 0.05053906 -0.24584547 0.61720203
v -0.03275730 -0.03966134 0.48501009
v -0.03320795 -0.05859630 0.54572354
v 0.03706775 -0.23431537 0.50002586
v 0.04182489 -0.22819296 0.45469257
v 0.04857880 -0.24307147 0.45576910
v 0.04328481 -0.24884232 0.50279192
v 0.05668760 -0.25430421 0.45647883
v 0.05044373 -0.25930133 0.50462459
v -0.02965960 0.01081750 0.45133406
v -0.03571169 0.00220445 0.44454363
v -0.03712252 0.04128117 0.41215337
v -0.03040149 0.04986880 0.42171086
v -0.02680305 0.06111899 0.43228655
v -0.02340443 0.02245029 0.45942525
v 0.06763066 -0.26313697 0.45853560
v 0.06139326 -0.26851828 0.50763247
v -0.04285735 -0.00680459 0.43836933
v -0.04417925 0.03330164 0.40419306
v 0.04103392 -0.22231414 0.40826164
v 0.04223302 -0.22329222 0.36984804
v 0.04754100 -0.23368541 0.37160480
v 0.04726915 -0.23523997 0.40919511
v 0.05370524 -0.24084349 0.37440421
v 0.05553117 -0.24492600 0.41052214
v -0.03773135 0.08223341 0.39016687
v -0.03173348 0.08962556 0.39687885
v -0.03928048 0.11035617 0.36727569
v -0.03419599 0.11799500 0.37071376
v -0.02943311 0.12684028 0.37849898
v -0.02703050 0.09940265 0.40624846
v 0.06343126 -0.24957773 0.37802869
v 0.06706596 -0.25393245 0.41317911
v -0.04513488 0.07284810 0.38253326
v -0.04562920 0.10237481 0.36232540
v 0.06471298 -0.26519800 0.12584537
v 0.05850829 -0.25514618 0.12368508
v 0.06152781 -0.26378582 0.08037990
v 0.06729167 -0.27396663 0.08249458
v 0.07315448 -0.28011167 0.08473612
v 0.07200067 -0.27286731 0.12728785
v 0.06605111 -0.26035951 0.17795760
v 0.05879774 -0.25396694 0.17537496
v 0.05355347 -0.24301782 0.17325167
v -0.05296302 0.26213601 0.17448652
v -0.04594122 0.23697412 0.21259602
v -0.05024243 0.22999681 0.20812381
v -0.05755696 0.25602264 0.17028174
v -0.05917736 0.27649160 0.13831999
v -0.05461310 0.28241285 0.14111342
v -0.05070661 0.29196951 0.14621869
v -0.04898147 0.27082770 0.18108672
v -0.04247328 0.24695122 0.22040378
v 0.08105344 -0.28817866 0.08581675
v 0.07508393 -0.26783562 0.17895605
v -0.06352375 0.25018682 0.16683011
v -0.05811315 0.22472974 0.20426180
v -0.06562420 0.27030618 0.13349954
v -0.00634978 -0.11117733 0.80770457
v -0.00438511 -0.08293551 0.80268745
v -0.00360829 -0.08917353 0.79644258
v -0.00420147 -0.11296437 0.80375255
v -0.00160089 -0.13402678 0.82181809
v -0.00823422 -0.10840574 0.80961129
v -0.00529426 -0.08140561 0.80695873
v 0.00616346 -0.06734424 0.78999189
v 0.00532474 -0.09352370 0.79551192
v 0.00115311 -0.08996160 0.78843842
v 0.00392104 -0.06397865 0.78735866
v 0.00213740 -0.06484846 0.78163799
v 0.00274890 -0.04111368 0.78465411
v 0.00343284 -0.04224342 0.79238035
v 0.00512984 -0.04474615 0.79798268
v 0.00787450 -0.14164112 0.84054963
v -0.01021037 -0.11107151 0.80176771
v 0.00125658 -0.08953720 0.78697315
v 0.00002799 -0.06357709 0.79046694
v 0.00125658 -0.08953720 0.78697315
v 0.02818241 0.03189103 1.01301009
v 0.00097999 -0.12580835 0.79632585
v -0.00518962 0.06077601 0.91915789
v 0.00097999 -0.12580835 0.79632585
v 0.05327159 -0.23507620 0.32339981
v 0.04837754 -0.22588317 0.32184236
v 0.05262236 -0.22981669 0.27693102
v 0.05795869 -0.23948374 0.27800370
v 0.06385710 -0.24664089 0.28101019
v 0.05874871 -0.24146597 0.32725444
v -0.04537168 0.14250337 0.33159224
v -0.04070173 0.14987356 0.33446122
v -0.04929015 0.17021958 0.29300974
v -0.04451969 0.17732971 0.29681865
v -0.04043869 0.18464894 0.30394782
v -0.03647330 0.15752146 0.34100551
v 0.07150846 -0.25372848 0.28491696
v 0.06722520 -0.24977057 0.33058060
v -0.05182493 0.13432796 0.32776155
v -0.05540246 0.16211334 0.28954297
v 0.05224036 -0.23460758 0.22629372
v 0.05885424 -0.24440767 0.22812116
v 0.06280581 -0.25329847 0.23095656
v -0.04949719 0.20038729 0.25178008
v -0.04401740 0.20703570 0.25505989
v -0.04177051 0.21659993 0.26360137
v 0.07242558 -0.25930292 0.23514956
v -0.05613037 0.19221477 0.24886194
v 0.00194795 -0.04226905 0.77093017
v -0.00112762 -0.13065816 0.79553755
v -0.00069993 -0.10452973 0.78850684
v -0.00095294 -0.06508270 0.76249525
v 0.01621709 0.03030183 1.01852627
v -0.00397436 0.03955631 0.98917384
v 0.01902143 0.03899546 0.99833476
v 0.00163435 0.05395209 0.94280815
v -0.00388092 0.04778245 0.96851396
v 0.02051713 0.05077378 0.96823448
v 0.02752806 0.02833878 1.02133067
v 0.02986503 0.03712583 0.99842825
v 0.03248244 0.04039760 0.98851949
v 0.01948885 0.04245415 0.98739677
v 0.03690617 0.04895152 0.97182873
v -0.00518962 0.06077601 0.91915789
v -0.00378743 -0.17647409 1.00188700
v 0.00032564 0.05937390 0.87755927
v -0.00270171 -0.01835620 0.69096812
v 0.00163435 0.05395209 0.94280815
v 0.07857679 -0.27927747 0.13034668
v 0.00002799 -0.06357709 0.79046694
v -0.00640483 0.02843227 1.01983498
v -0.00378743 -0.17647409 1.00188700
f 1 2 3
f 4 5 6
f 7 8 9
f 10 11 12
f 10 13 14
f 15 16 11
f 9 17 18
f 19 18 20
f 21 22 23
f 7 19 24
f 25 26 27
f 26 28 29
f 30 31 32
f 33 34 35
f 33 36 37
f 38 39 34
f 40 41 42
f 26 25 43
f 41 43 44
f 28 26 41
f 45 11 16
f 46 24 47
f 45 48 49
f 50 12 11
f 51 52 48
f 24 20 53
f 47 53 54
f 55 9 8
f 56 47 57
f 58 48 52
f 58 3 59
f 60 49 48
f 61 62 27
f 57 54 63
f 62 63 64
f 65 57 62
f 10 66 32
f 67 68 69
f 70 69 71
f 72 73 74
f 70 74 75
f 76 77 78
f 79 78 80
f 81 82 83
f 79 83 84
f 85 86 87
f 88 87 89
f 90 71 69
f 88 69 68
f 81 80 91
f 92 91 93
f 94 95 96
f 92 96 82
f 97 98 99
f 100 99 101
f 102 89 87
f 100 87 86
f 94 93 103
f 103 104 105
f 105 106 107
f 108 107 95
f 109 110 111
f 112 113 114
f 114 101 99
f 99 98 110
f 115 105 104
f 116 117 118
f 118 119 120
f 120 106 105
f 121 122 123
f 124 123 125
f 124 126 113
f 124 112 111
f 118 117 127
f 128 127 129
f 130 131 132
f 128 132 119
f 133 134 135
f 136 137 138
f 133 138 139
f 140 141 134
f 142 143 144
f 145 146 147
f 142 147 148
f 149 150 143
f 151 152 153
f 154 155 156
f 151 156 73
f 72 71 152
f 157 78 77
f 158 159 160
f 157 160 161
f 162 80 78
f 163 164 165
f 163 166 153
f 152 71 90
f 90 89 164
f 167 91 80
f 162 161 168
f 167 168 169
f 170 93 91
f 171 172 173
f 173 165 164
f 174 164 89
f 102 101 171
f 175 103 93
f 170 169 176
f 176 177 178
f 175 178 104
f 179 180 181
f 182 181 172
f 171 101 114
f 182 114 113
f 116 104 178
f 183 178 177
f 184 185 186
f 183 186 117
f 187 188 189
f 187 190 180
f 179 113 126
f 187 126 125
f 127 117 186
f 191 186 185
f 191 192 193
f 194 129 127
f 195 196 197
f 198 197 199
f 200 139 138
f 198 138 137
f 145 144 201
f 202 201 203
f 204 205 206
f 202 206 146
f 207 208 209
f 209 210 211
f 211 155 154
f 212 154 153
f 160 159 213
f 213 214 215
f 216 215 217
f 218 161 160
f 219 220 221
f 222 221 208
f 207 153 166
f 222 166 165
f 223 168 161
f 218 217 224
f 223 224 225
f 226 169 168
f 227 228 229
f 230 229 220
f 219 165 173
f 230 173 172
f 231 176 169
f 226 225 232
f 231 232 233
f 234 177 176
f 235 236 237
f 238 237 228
f 227 172 181
f 238 181 180
f 184 177 234
f 234 233 239
f 239 240 241
f 242 241 185
f 243 244 245
f 246 245 236
f 235 180 190
f 246 190 189
f 192 185 241
f 247 241 240
f 248 249 250
f 250 193 192
f 251 252 253
f 254 253 255
f 256 199 197
f 254 197 196
f 204 203 257
f 257 258 259
f 260 259 261
f 260 262 205
f 263 264 265
f 265 266 267
f 267 210 209
f 268 209 208
f 215 214 269
f 270 269 271
f 272 273 274
f 270 274 217
f 275 276 277
f 278 277 264
f 263 208 221
f 278 221 220
f 224 217 274
f 279 274 273
f 279 280 281
f 279 282 225
f 283 284 285
f 283 286 276
f 283 275 220
f 229 228 284
f 287 232 225
f 282 281 288
f 287 288 289
f 290 233 232
f 291 292 293
f 294 293 285
f 284 228 237
f 294 237 236
f 239 233 290
f 290 289 295
f 295 296 297
f 298 297 240
f 299 300 301
f 301 292 291
f 291 236 245
f 302 245 244
f 248 240 297
f 303 297 296
f 304 305 306
f 303 306 249
f 307 308 309
f 307 310 311
f 312 255 253
f 307 253 252
f 259 258 313
f 314 313 315
f 314 316 317
f 318 261 259
f 319 320 321
f 321 266 265
f 322 265 264
f 322 323 324
f 325 326 273
f 272 271 327
f 325 327 328
f 329 330 326
f 331 324 323
f 323 264 277
f 332 277 276
f 332 333 334
f 335 336 281
f 280 273 326
f 335 326 330
f 337 338 336
f 339 340 334
f 333 276 286
f 339 286 285
f 341 342 340
f 343 344 289
f 288 281 336
f 343 336 338
f 345 346 344
f 347 342 341
f 348 341 285
f 293 292 349
f 348 349 350
f 351 296 295
f 352 295 289
f 344 346 353
f 352 353 354
f 355 356 350
f 355 349 292
f 355 301 300
f 357 358 356
f 359 360 305
f 304 296 351
f 359 351 354
f 361 362 360
f 363 364 365
f 366 311 310
f 363 310 309
f 367 368 364
f 369 370 317
f 316 315 371
f 369 371 372
f 373 374 370
f 375 376 377
f 32 31 375
f 378 8 379
f 380 379 381
f 382 383 384
f 376 382 385
f 386 387 388
f 389 390 387
f 391 392 393
f 391 394 395
f 377 385 396
f 391 396 397
f 398 386 381
f 399 381 379
f 399 400 401
f 402 403 398
f 404 392 397
f 405 75 74
f 404 74 73
f 406 393 392
f 407 408 77
f 76 84 409
f 407 409 403
f 402 401 408
f 410 396 385
f 384 411 412
f 410 412 75
f 405 397 396
f 409 84 413
f 414 413 415
f 389 386 398
f 414 398 403
f 416 417 418
f 383 419 411
f 415 420 390
f 421 422 423
f 424 425 426
f 427 395 394
f 424 394 393
f 428 429 425
f 430 401 400
f 400 379 431
f 432 431 433
f 434 435 430
f 436 437 429
f 436 428 393
f 406 73 156
f 436 156 155
f 158 77 408
f 438 408 401
f 430 435 439
f 438 439 159
f 427 426 16
f 32 395 427
f 46 433 431
f 431 379 8
f 440 441 2
f 1 52 442
f 29 443 444
f 61 444 445
f 446 447 448
f 449 448 441
f 440 442 450
f 449 450 451
f 452 445 444
f 453 444 443
f 454 455 456
f 453 456 457
f 458 442 52
f 51 16 426
f 65 445 459
f 56 459 433
f 460 451 450
f 461 450 442
f 458 426 425
f 461 425 429
f 434 433 459
f 462 459 445
f 452 457 463
f 462 463 435
f 464 465 451
f 460 429 437
f 464 437 155
f 211 210 465
f 466 213 159
f 439 435 463
f 466 463 457
f 467 214 213
f 468 469 447
f 446 451 465
f 465 210 470
f 468 470 471
f 472 473 214
f 467 457 456
f 472 456 455
f 474 475 473
f 476 471 470
f 470 210 267
f 477 267 266
f 478 479 476
f 480 481 271
f 269 214 473
f 480 473 475
f 482 483 481
f 484 485 479
f 484 478 266
f 321 320 486
f 484 486 487
f 488 328 327
f 489 327 271
f 489 481 483
f 490 417 488
f 441 491 35
f 448 492 491
f 28 493 443
f 447 494 492
f 493 495 454
f 447 469 496
f 495 497 455
f 498 496 469
f 497 499 474
f 471 476 500
f 499 501 475
f 502 500 476
f 475 501 503
f 479 485 504
f 482 503 505
f 506 504 485
f 483 505 507
f 508 509 506
f 490 507 418
f 510 423 422
f 511 6 5
f 512 513 514
f 515 516 517
f 518 35 491
f 519 520 521
f 40 521 493
f 522 4 23
f 22 523 524
f 519 42 22
f 518 517 36
f 42 44 523
f 525 526 527
f 528 527 516
f 515 491 492
f 528 492 494
f 495 493 521
f 529 521 520
f 530 531 532
f 529 532 497
f 533 534 526
f 525 494 496
f 533 496 498
f 500 502 534
f 535 503 501
f 499 497 532
f 535 532 531
f 536 505 503
f 537 538 539
f 540 526 534
f 537 534 502
f 504 506 538
f 541 507 505
f 536 531 542
f 541 542 421
f 543 418 507
f 6 511 544
f 21 544 520
f 530 520 544
f 545 544 511
f 422 421 542
f 545 542 531
f 487 546 547
f 416 548 549
f 550 551 552
f 553 552 554
f 555 320 319
f 553 319 324
f 329 328 556
f 557 556 558
f 559 560 561
f 557 561 330
f 562 563 564
f 565 564 566
f 567 554 552
f 565 552 551
f 559 558 568
f 569 568 570
f 571 572 573
f 569 573 560
f 574 575 576
f 576 551 550
f 577 550 324
f 577 331 334
f 337 330 561
f 561 560 578
f 578 579 580
f 581 580 338
f 582 583 584
f 585 584 575
f 574 334 340
f 585 340 342
f 345 338 580
f 586 580 579
f 587 588 589
f 586 589 346
f 590 591 592
f 590 593 594
f 595 575 584
f 584 583 591
f 587 579 596
f 597 596 598
f 599 600 601
f 597 601 588
f 602 603 604
f 605 583 582
f 602 582 342
f 347 350 603
f 606 353 346
f 589 588 607
f 606 607 608
f 609 354 353
f 610 611 612
f 613 592 591
f 610 591 583
f 605 604 611
f 614 607 588
f 601 600 615
f 614 615 616
f 617 608 607
f 618 619 620
f 620 604 603
f 621 603 350
f 621 356 358
f 622 361 354
f 609 608 623
f 623 624 625
f 622 625 362
f 626 627 628
f 628 612 611
f 629 611 604
f 629 620 619
f 630 623 608
f 617 616 631
f 631 632 633
f 630 633 624
f 634 635 636
f 637 638 639
f 639 365 364
f 634 364 368
f 373 372 640
f 641 640 642
f 641 643 644
f 641 645 374
f 646 647 648
f 649 648 650
f 651 638 637
f 637 636 646
f 643 642 652
f 653 652 654
f 655 656 657
f 657 644 643
f 658 659 660
f 661 660 554
f 567 566 662
f 661 662 663
f 664 570 568
f 665 568 558
f 665 666 667
f 665 668 669
f 546 487 486
f 670 486 320
f 555 554 660
f 670 660 659
f 671 666 558
f 671 556 328
f 488 417 549
f 549 667 666
f 672 547 546
f 659 658 673
f 674 675 668
f 548 674 667
f 676 673 658
f 677 678 679
f 415 680 681
f 675 682 669
f 683 140 139
f 684 685 686
f 683 686 687
f 688 141 140
f 689 690 691
f 692 693 694
f 689 694 144
f 143 150 690
f 695 686 685
f 696 125 123
f 695 123 122
f 697 687 686
f 698 699 131
f 130 129 700
f 698 700 693
f 692 691 699
f 200 199 701
f 702 701 703
f 702 704 685
f 702 684 139
f 705 694 693
f 706 707 708
f 708 203 201
f 201 144 694
f 709 704 703
f 710 189 188
f 709 188 125
f 696 685 704
f 711 700 129
f 194 193 712
f 711 712 707
f 706 693 700
f 256 255 713
f 714 713 715
f 716 703 701
f 714 701 199
f 717 708 707
f 718 719 720
f 720 258 257
f 257 203 708
f 716 715 721
f 722 721 244
f 722 243 189
f 710 703 716
f 723 712 193
f 250 249 724
f 723 724 719
f 718 707 712
f 312 311 725
f 726 725 727
f 728 715 713
f 726 713 255
f 720 719 729
f 730 729 731
f 732 315 313
f 730 313 258
f 728 727 733
f 734 733 300
f 299 244 721
f 734 721 715
f 724 249 306
f 735 306 305
f 736 731 729
f 735 729 719
f 357 300 733
f 737 733 727
f 738 739 740
f 737 740 358
f 741 742 743
f 744 743 731
f 736 305 360
f 744 360 362
f 738 727 725
f 745 725 311
f 366 365 746
f 745 746 739
f 747 372 371
f 748 371 315
f 732 731 743
f 748 743 742
f 749 639 638
f 749 750 751
f 749 752 739
f 746 365 639
f 753 747 742
f 753 754 755
f 756 642 640
f 640 372 747
f 752 751 757
f 758 757 619
f 758 618 358
f 758 740 739
f 741 362 625
f 759 625 624
f 760 755 754
f 759 754 742
f 651 650 761
f 762 761 763
f 764 751 750
f 762 750 638
f 756 755 765
f 766 765 767
f 768 654 652
f 766 652 642
f 764 763 769
f 770 769 627
f 626 619 757
f 770 757 751
f 760 624 633
f 771 633 632
f 772 767 765
f 771 765 755
f 595 594 773
f 578 560 573
f 774 598 596
f 563 562 775
f 775 576 575
f 776 777 778
f 779 778 68
f 67 75 780
f 780 781 776
f 782 84 83
f 783 83 82
f 784 785 786
f 783 786 787
f 788 789 790
f 790 791 792
f 793 792 777
f 794 795 788
f 796 797 785
f 798 799 800
f 796 800 801
f 802 803 797
f 804 792 791
f 805 86 85
f 804 85 68
f 778 777 792
f 784 82 96
f 806 96 95
f 806 807 799
f 798 785 784
f 808 809 810
f 811 812 813
f 808 813 791
f 790 789 809
f 814 800 799
f 815 816 817
f 814 817 818
f 819 801 800
f 813 812 820
f 821 820 98
f 97 86 805
f 805 791 813
f 807 95 107
f 107 106 822
f 823 822 816
f 815 799 807
f 824 825 826
f 827 826 828
f 829 812 811
f 827 811 810
f 830 817 816
f 830 831 832
f 833 834 835
f 830 835 818
f 829 828 836
f 837 836 111
f 110 98 820
f 820 812 829
f 822 106 120
f 838 120 119
f 839 832 831
f 838 831 816
f 840 841 842
f 843 842 844
f 845 828 826
f 843 826 825
f 833 832 846
f 847 846 848
f 849 850 851
f 847 851 834
f 845 844 852
f 853 852 122
f 121 111 836
f 853 836 828
f 839 119 132
f 854 132 131
f 855 848 846
f 854 846 832
f 856 857 858
f 856 859 860
f 856 861 862
f 863 864 857
f 865 866 867
f 865 868 869
f 865 870 871
f 872 873 866
f 861 860 874
f 874 135 134
f 134 141 875
f 875 862 861
f 876 877 150
f 149 148 878
f 876 878 869
f 868 867 877
f 879 880 881
f 882 781 883
f 879 883 677
f 884 885 880
f 886 887 888
f 889 888 787
f 889 890 891
f 889 892 893
f 883 781 780
f 780 75 412
f 894 412 411
f 678 677 883
f 680 415 413
f 895 413 84
f 782 787 888
f 895 888 887
f 885 884 896
f 678 411 419
f 897 898 886
f 899 36 517
f 884 677 900
f 887 886 898
f 901 543 421
f 902 681 680
f 903 904 905
f 903 906 907
f 908 844 842
f 903 842 841
f 849 848 909
f 910 909 911
f 910 912 913
f 914 850 849
f 908 907 915
f 916 915 687
f 697 122 852
f 916 852 844
f 855 131 699
f 917 699 691
f 918 911 909
f 917 909 848
f 919 864 863
f 920 863 862
f 921 907 906
f 920 906 905
f 912 911 922
f 923 922 867
f 923 866 873
f 924 913 912
f 921 862 875
f 925 875 141
f 688 687 915
f 925 915 907
f 918 691 690
f 926 690 150
f 877 867 922
f 926 922 911
f 794 777 776
f 786 785 797
f 927 891 890
f 928 929 795
f 803 927 930
f 930 890 787
f 931 514 513
f 932 512 933
f 934 935 936
f 899 514 931
f 937 37 36
f 938 933 514
f 517 516 939
f 938 939 940
f 941 936 940
f 939 516 527
f 941 527 526
f 540 539 936
f 940 936 935
f 509 942 538
f 943 30 66
f 901 944 418
f 3 34 39
f 538 942 934
f 17 9 55
f 945 573 572
f 579 578 945
f 562 551 576
f 781 882 928
f 882 881 929
f 2 35 34
f 58 1 3
f 23 4 6
f 19 7 9
f 13 10 12
f 66 10 14
f 10 15 11
f 19 9 18
f 24 19 20
f 6 21 23
f 46 7 24
f 64 25 27
f 27 26 29
f 66 30 32
f 518 33 35
f 38 33 37
f 33 38 34
f 519 40 42
f 41 26 43
f 42 41 44
f 40 28 41
f 51 45 16
f 56 46 47
f 50 45 49
f 45 50 11
f 45 51 48
f 47 24 53
f 57 47 54
f 378 55 8
f 65 56 57
f 1 58 52
f 60 58 59
f 58 60 48
f 29 61 27
f 62 57 63
f 27 62 64
f 61 65 62
f 15 10 32
f 70 67 69
f 72 70 71
f 70 72 74
f 67 70 75
f 79 76 78
f 81 79 80
f 79 81 83
f 76 79 84
f 88 85 87
f 90 88 89
f 88 90 69
f 85 88 68
f 92 81 91
f 94 92 93
f 92 94 96
f 81 92 82
f 100 97 99
f 102 100 101
f 100 102 87
f 97 100 86
f 108 94 103
f 108 103 105
f 108 105 107
f 94 108 95
f 112 109 111
f 109 112 114
f 109 114 99
f 109 99 110
f 116 115 104
f 115 116 118
f 115 118 120
f 115 120 105
f 124 121 123
f 126 124 125
f 112 124 113
f 121 124 111
f 128 118 127
f 130 128 129
f 128 130 132
f 118 128 119
f 136 133 135
f 133 136 138
f 140 133 139
f 133 140 134
f 145 142 144
f 142 145 147
f 149 142 148
f 142 149 143
f 154 151 153
f 151 154 156
f 72 151 73
f 151 72 152
f 158 157 77
f 157 158 160
f 162 157 161
f 157 162 78
f 166 163 165
f 152 163 153
f 163 152 90
f 163 90 164
f 162 167 80
f 167 162 168
f 170 167 169
f 167 170 91
f 174 171 173
f 174 173 164
f 102 174 89
f 174 102 171
f 170 175 93
f 175 170 176
f 175 176 178
f 103 175 104
f 182 179 181
f 171 182 172
f 182 171 114
f 179 182 113
f 183 116 178
f 184 183 177
f 183 184 186
f 116 183 117
f 190 187 189
f 179 187 180
f 187 179 126
f 188 187 125
f 191 127 186
f 192 191 185
f 194 191 193
f 191 194 127
f 198 195 197
f 200 198 199
f 198 200 138
f 195 198 137
f 202 145 201
f 204 202 203
f 202 204 206
f 145 202 146
f 212 207 209
f 212 209 211
f 212 211 154
f 207 212 153
f 216 160 213
f 216 213 215
f 218 216 217
f 216 218 160
f 222 219 221
f 207 222 208
f 222 207 166
f 219 222 165
f 218 223 161
f 223 218 224
f 226 223 225
f 223 226 168
f 230 227 229
f 219 230 220
f 230 219 173
f 227 230 172
f 226 231 169
f 231 226 232
f 234 231 233
f 231 234 176
f 238 235 237
f 227 238 228
f 238 227 181
f 235 238 180
f 242 184 234
f 242 234 239
f 242 239 241
f 184 242 185
f 246 243 245
f 235 246 236
f 246 235 190
f 243 246 189
f 247 192 241
f 248 247 240
f 247 248 250
f 247 250 192
f 254 251 253
f 256 254 255
f 254 256 197
f 251 254 196
f 260 204 257
f 260 257 259
f 262 260 261
f 204 260 205
f 268 263 265
f 268 265 267
f 268 267 209
f 263 268 208
f 270 215 269
f 272 270 271
f 270 272 274
f 215 270 217
f 278 275 277
f 263 278 264
f 278 263 221
f 275 278 220
f 279 224 274
f 280 279 273
f 282 279 281
f 224 279 225
f 286 283 285
f 275 283 276
f 229 283 220
f 283 229 284
f 282 287 225
f 287 282 288
f 290 287 289
f 287 290 232
f 294 291 293
f 284 294 285
f 294 284 237
f 291 294 236
f 298 239 290
f 298 290 295
f 298 295 297
f 239 298 240
f 302 299 301
f 302 301 291
f 302 291 245
f 299 302 244
f 303 248 297
f 304 303 296
f 303 304 306
f 248 303 249
f 310 307 309
f 312 307 311
f 307 312 253
f 308 307 252
f 314 259 313
f 316 314 315
f 318 314 317
f 314 318 259
f 322 319 321
f 322 321 265
f 323 322 264
f 319 322 324
f 272 325 273
f 325 272 327
f 329 325 328
f 325 329 326
f 332 331 323
f 332 323 277
f 333 332 276
f 331 332 334
f 280 335 281
f 335 280 326
f 337 335 330
f 335 337 336
f 333 339 334
f 339 333 286
f 341 339 285
f 339 341 340
f 288 343 289
f 343 288 336
f 345 343 338
f 343 345 344
f 348 347 341
f 293 348 285
f 348 293 349
f 347 348 350
f 352 351 295
f 344 352 289
f 352 344 353
f 351 352 354
f 349 355 350
f 301 355 292
f 357 355 300
f 355 357 356
f 304 359 305
f 359 304 351
f 361 359 354
f 359 361 360
f 366 363 365
f 363 366 310
f 367 363 309
f 363 367 364
f 316 369 317
f 369 316 371
f 373 369 372
f 369 373 370
f 395 375 377
f 395 32 375
f 380 378 379
f 388 380 381
f 385 382 384
f 377 376 385
f 381 386 388
f 386 389 387
f 394 391 393
f 377 391 395
f 391 377 396
f 392 391 397
f 399 398 381
f 400 399 379
f 402 399 401
f 399 402 398
f 405 404 397
f 404 405 74
f 406 404 73
f 404 406 392
f 76 407 77
f 407 76 409
f 402 407 403
f 407 402 408
f 384 410 385
f 410 384 412
f 405 410 75
f 410 405 396
f 414 409 413
f 389 414 415
f 414 389 398
f 409 414 403
f 944 416 418
f 384 383 411
f 389 415 390
f 946 421 423
f 427 424 426
f 424 427 394
f 428 424 393
f 424 428 425
f 432 430 400
f 432 400 431
f 434 432 433
f 432 434 430
f 428 436 429
f 406 436 393
f 436 406 156
f 437 436 155
f 438 158 408
f 430 438 401
f 438 430 439
f 158 438 159
f 15 427 16
f 15 32 427
f 7 46 431
f 7 431 8
f 1 440 2
f 440 1 442
f 61 29 444
f 65 61 445
f 449 446 448
f 440 449 441
f 449 440 450
f 446 449 451
f 453 452 444
f 454 453 443
f 453 454 456
f 452 453 457
f 51 458 52
f 458 51 426
f 56 65 459
f 46 56 433
f 461 460 450
f 458 461 442
f 461 458 425
f 460 461 429
f 462 434 459
f 452 462 445
f 462 452 463
f 434 462 435
f 460 464 451
f 464 460 437
f 211 464 155
f 464 211 465
f 439 466 159
f 466 439 463
f 467 466 457
f 466 467 213
f 446 468 447
f 468 446 465
f 468 465 470
f 469 468 471
f 467 472 214
f 472 467 456
f 474 472 455
f 472 474 473
f 477 476 470
f 477 470 267
f 478 477 266
f 477 478 476
f 269 480 271
f 480 269 473
f 482 480 475
f 480 482 481
f 478 484 479
f 321 484 266
f 484 321 486
f 485 484 487
f 489 488 327
f 481 489 271
f 490 489 483
f 489 490 488
f 2 441 35
f 441 448 491
f 29 28 443
f 448 447 492
f 443 493 454
f 494 447 496
f 454 495 455
f 471 498 469
f 455 497 474
f 498 471 500
f 474 499 475
f 479 502 476
f 482 475 503
f 502 479 504
f 483 482 505
f 487 506 485
f 490 483 507
f 487 508 506
f 417 490 418
f 511 510 422
f 510 511 5
f 933 512 514
f 518 515 517
f 515 518 491
f 40 519 521
f 28 40 493
f 524 522 23
f 23 22 524
f 21 519 22
f 33 518 36
f 22 42 523
f 528 525 527
f 515 528 516
f 528 515 492
f 525 528 494
f 529 495 521
f 530 529 520
f 529 530 532
f 495 529 497
f 525 533 526
f 533 525 496
f 500 533 498
f 533 500 534
f 499 535 501
f 535 499 532
f 536 535 531
f 535 536 503
f 540 537 539
f 537 540 534
f 504 537 502
f 537 504 538
f 536 541 505
f 541 536 542
f 543 541 421
f 541 543 507
f 21 6 544
f 519 21 520
f 545 530 544
f 422 545 511
f 545 422 542
f 530 545 531
f 508 487 547
f 417 416 549
f 553 550 552
f 555 553 554
f 553 555 319
f 550 553 324
f 557 329 556
f 559 557 558
f 557 559 561
f 329 557 330
f 565 562 564
f 567 565 566
f 565 567 552
f 562 565 551
f 569 559 568
f 571 569 570
f 569 571 573
f 559 569 560
f 577 574 576
f 577 576 550
f 331 577 324
f 574 577 334
f 581 337 561
f 581 561 578
f 581 578 580
f 337 581 338
f 585 582 584
f 574 585 575
f 585 574 340
f 582 585 342
f 586 345 580
f 587 586 579
f 586 587 589
f 345 586 346
f 593 590 592
f 595 590 594
f 590 595 584
f 590 584 591
f 597 587 596
f 599 597 598
f 597 599 601
f 587 597 588
f 605 602 604
f 602 605 582
f 347 602 342
f 602 347 603
f 589 606 346
f 606 589 607
f 609 606 608
f 606 609 353
f 613 610 612
f 610 613 591
f 605 610 583
f 610 605 611
f 601 614 588
f 614 601 615
f 617 614 616
f 614 617 607
f 621 618 620
f 621 620 603
f 356 621 350
f 618 621 358
f 609 622 354
f 622 609 623
f 622 623 625
f 361 622 362
f 629 626 628
f 629 628 611
f 620 629 604
f 626 629 619
f 617 630 608
f 630 617 631
f 630 631 633
f 623 630 624
f 637 634 636
f 634 637 639
f 634 639 364
f 635 634 368
f 641 373 640
f 643 641 642
f 645 641 644
f 373 641 374
f 649 646 648
f 651 649 650
f 649 651 637
f 649 637 646
f 653 643 652
f 655 653 654
f 653 655 657
f 653 657 643
f 661 658 660
f 567 661 554
f 661 567 662
f 658 661 663
f 665 664 568
f 666 665 558
f 668 665 667
f 664 665 669
f 670 546 486
f 555 670 320
f 670 555 660
f 546 670 659
f 556 671 558
f 488 671 328
f 671 488 549
f 671 549 666
f 659 672 546
f 672 659 673
f 667 674 668
f 549 548 667
f 663 676 658
f 900 677 679
f 420 415 681
f 668 675 669
f 684 683 139
f 683 684 686
f 688 683 687
f 683 688 140
f 692 689 691
f 689 692 694
f 143 689 144
f 689 143 690
f 696 695 685
f 695 696 123
f 697 695 122
f 695 697 686
f 130 698 131
f 698 130 700
f 692 698 693
f 698 692 699
f 702 200 701
f 704 702 703
f 684 702 685
f 200 702 139
f 706 705 693
f 705 706 708
f 705 708 201
f 705 201 694
f 710 709 703
f 709 710 188
f 696 709 125
f 709 696 704
f 194 711 129
f 711 194 712
f 706 711 707
f 711 706 700
f 714 256 713
f 716 714 715
f 714 716 701
f 256 714 199
f 718 717 707
f 717 718 720
f 717 720 257
f 717 257 708
f 722 716 721
f 243 722 244
f 710 722 189
f 722 710 716
f 250 723 193
f 723 250 724
f 718 723 719
f 723 718 712
f 726 312 725
f 728 726 727
f 726 728 713
f 312 726 255
f 730 720 729
f 732 730 731
f 730 732 313
f 720 730 258
f 734 728 733
f 299 734 300
f 734 299 721
f 728 734 715
f 735 724 306
f 736 735 305
f 735 736 729
f 724 735 719
f 737 357 733
f 738 737 727
f 737 738 740
f 357 737 358
f 744 741 743
f 736 744 731
f 744 736 360
f 741 744 362
f 745 738 725
f 366 745 311
f 745 366 746
f 738 745 739
f 748 747 371
f 732 748 315
f 748 732 743
f 747 748 742
f 750 749 638
f 752 749 751
f 746 749 739
f 749 746 639
f 754 753 742
f 756 753 755
f 753 756 640
f 753 640 747
f 758 752 757
f 618 758 619
f 740 758 358
f 752 758 739
f 759 741 625
f 760 759 624
f 759 760 754
f 741 759 742
f 762 651 761
f 764 762 763
f 762 764 750
f 651 762 638
f 766 756 765
f 768 766 767
f 766 768 652
f 756 766 642
f 770 764 769
f 626 770 627
f 770 626 757
f 764 770 751
f 771 760 633
f 772 771 632
f 771 772 765
f 760 771 755
f 775 595 773
f 945 578 573
f 945 774 596
f 773 563 775
f 595 775 575
f 779 776 778
f 67 779 68
f 779 67 780
f 779 780 776
f 783 782 83
f 784 783 82
f 783 784 786
f 782 783 787
f 793 788 790
f 793 790 792
f 794 793 777
f 793 794 788
f 798 796 785
f 796 798 800
f 802 796 801
f 796 802 797
f 805 804 791
f 804 805 85
f 778 804 68
f 804 778 792
f 806 784 96
f 807 806 95
f 798 806 799
f 806 798 784
f 811 808 810
f 808 811 813
f 790 808 791
f 808 790 809
f 815 814 799
f 814 815 817
f 819 814 818
f 814 819 800
f 821 813 820
f 97 821 98
f 821 97 805
f 821 805 813
f 823 807 107
f 823 107 822
f 815 823 816
f 823 815 807
f 827 824 826
f 829 827 828
f 827 829 811
f 824 827 810
f 831 830 816
f 833 830 832
f 830 833 835
f 817 830 818
f 837 829 836
f 110 837 111
f 837 110 820
f 837 820 829
f 838 822 120
f 839 838 119
f 838 839 831
f 822 838 816
f 843 840 842
f 845 843 844
f 843 845 826
f 840 843 825
f 847 833 846
f 849 847 848
f 847 849 851
f 833 847 834
f 853 845 852
f 121 853 122
f 853 121 836
f 845 853 828
f 854 839 132
f 855 854 131
f 854 855 846
f 839 854 832
f 859 856 858
f 861 856 860
f 863 856 862
f 856 863 857
f 868 865 867
f 870 865 869
f 872 865 871
f 865 872 866
f 947 861 874
f 947 874 134
f 947 134 875
f 947 875 861
f 149 876 150
f 876 149 878
f 868 876 869
f 876 868 877
f 882 879 881
f 879 882 883
f 884 879 677
f 879 884 880
f 889 886 888
f 890 889 787
f 892 889 891
f 886 889 893
f 894 883 780
f 894 780 412
f 678 894 411
f 894 678 883
f 895 680 413
f 782 895 84
f 895 782 888
f 680 895 887
f 948 885 896
f 679 678 419
f 893 897 886
f 938 899 517
f 896 884 900
f 902 887 898
f 946 901 421
f 887 902 680
f 906 903 905
f 908 903 907
f 903 908 842
f 904 903 841
f 910 849 909
f 912 910 911
f 914 910 913
f 910 914 849
f 916 908 915
f 697 916 687
f 916 697 852
f 908 916 844
f 917 855 699
f 918 917 691
f 917 918 909
f 855 917 848
f 920 919 863
f 921 920 862
f 920 921 906
f 919 920 905
f 923 912 922
f 866 923 867
f 924 923 873
f 923 924 912
f 925 921 875
f 688 925 141
f 925 688 915
f 921 925 907
f 926 918 690
f 877 926 150
f 926 877 922
f 918 926 911
f 928 794 776
f 930 786 797
f 930 927 890
f 794 928 795
f 797 803 930
f 786 930 787
f 949 931 513
f 940 932 933
f 539 934 936
f 937 899 931
f 899 937 36
f 899 938 514
f 938 517 939
f 933 938 940
f 939 941 940
f 941 939 527
f 540 941 526
f 941 540 936
f 932 940 935
f 506 509 538
f 14 943 66
f 543 901 418
f 59 3 39
f 539 538 934
f 950 17 55
f 774 945 572
f 596 579 945
f 775 562 576
f 776 781 928
f 928 882 929
f 3 2 34

