# https://github.com/mikedh/trimesh

o v2_Eyebrow001-mesh
v 0.01705838 -0.19348731 1.64651852
v 0.01687145 -0.19236555 1.64717287
v 0.01229093 -0.19283294 1.64623815
v 0.01799316 -0.19002858 1.63885329
v 0.02191932 -0.19012206 1.63997501
v 0.02163889 -0.19105685 1.64034898
v 0.02818241 -0.18946771 1.64081635
v 0.02752806 -0.19049597 1.64137720
v 0.03425857 -0.18787855 1.64147070
v 0.03416507 -0.18890682 1.64231204
v 0.04126950 -0.18535462 1.64249892
v 0.04098907 -0.18600897 1.64352725
v 0.04678479 -0.18133500 1.64362074
v 0.04706522 -0.18189589 1.64502294
v 0.05145875 -0.17722184 1.64380762
v 0.05566529 -0.17142621 1.64249892
v 0.05594571 -0.17226752 1.64324676
v 0.05856318 -0.16656529 1.64081635
v 0.05903053 -0.16740661 1.64156419
v 0.06061973 -0.16263917 1.63894679
v 0.06090016 -0.16263917 1.63932065
v 0.00939310 -0.19227207 1.64221854
v 0.01014094 -0.19311339 1.64240542
v 0.01462791 -0.19049597 1.63801195
v 0.01789972 -0.19143076 1.63978802
v 0.02154540 -0.19432862 1.64390111
v 0.02762155 -0.19311339 1.64418160
v 0.03416507 -0.19030892 1.64502294
v 0.04098907 -0.18638288 1.64586417
v 0.04743914 -0.18142848 1.64670551
v 0.05201960 -0.17750236 1.64502294
v 0.05631964 -0.17189361 1.64436859
v 0.05912403 -0.16684564 1.64221854
v 0.01397355 -0.19152424 1.63894679
v 0.01144964 -0.19189816 1.63819894
v 0.01350619 -0.19414166 1.64231204
v 0.01771273 -0.19488949 1.64334026
v 0.01247791 -0.19395470 1.64586417
v 0.02135841 -0.19311339 1.64698599
v 0.02117148 -0.19171120 1.64801421
v 0.02724763 -0.19189816 1.64764035
v 0.02696720 -0.19068283 1.64857507
v 0.03425857 -0.18974813 1.64773384
v 0.03453900 -0.18834595 1.64913593
v 0.04136298 -0.18563495 1.64848157
v 0.04108256 -0.18460669 1.64969689
v 0.04762607 -0.18068065 1.64857507
v 0.04725215 -0.17946543 1.64960340
v 0.05164568 -0.17656747 1.64792072
v 0.05145875 -0.17553921 1.64857507
v 0.05613270 -0.17114578 1.64539681
v 0.05594571 -0.16955664 1.64586417
v 0.05940446 -0.16628486 1.64296639
v 0.05931096 -0.16497615 1.64315327
v 0.06174144 -0.16151741 1.64044237
v 0.01070180 -0.19273948 1.63960114
v 0.06164794 -0.16207830 1.63941415
v 0.05183267 -0.17740888 1.64614465
v 0.00976702 -0.19161772 1.63847931
v 0.06174144 -0.16058263 1.63875980
v -0.01070486 -0.19283294 1.64623815
v -0.01528538 -0.19236555 1.64717287
v -0.01547231 -0.19348731 1.64651852
v -0.02005283 -0.19105685 1.64034898
v -0.02033325 -0.19012206 1.63997501
v -0.01640709 -0.19002858 1.63885329
v -0.02594199 -0.19049597 1.64137720
v -0.02659634 -0.18946771 1.64081635
v -0.03257900 -0.18890682 1.64231204
v -0.03267250 -0.18787855 1.64147070
v -0.03940300 -0.18600897 1.64352725
v -0.03968343 -0.18535462 1.64249892
v -0.04547915 -0.18189589 1.64502294
v -0.04519872 -0.18133500 1.64352725
v -0.05043354 -0.17750236 1.64492944
v -0.04987268 -0.17722184 1.64380762
v -0.05435964 -0.17226752 1.64324676
v -0.05407922 -0.17142621 1.64249892
v -0.05744447 -0.16740661 1.64156419
v -0.05697711 -0.16656529 1.64081635
v -0.05931409 -0.16263917 1.63932065
v -0.05903366 -0.16263917 1.63894679
v -0.00855488 -0.19311339 1.64240542
v -0.00780703 -0.19227207 1.64221854
v -0.01304184 -0.19049597 1.63801195
v -0.01238749 -0.19152424 1.63894679
v -0.01631365 -0.19143076 1.63978802
v -0.01995933 -0.19432862 1.64390111
v -0.02603549 -0.19311339 1.64418160
v -0.03257900 -0.19030892 1.64502294
v -0.03940300 -0.18638288 1.64586417
v -0.04585308 -0.18142848 1.64670551
v -0.05024661 -0.17740888 1.64614465
v -0.05473357 -0.17189361 1.64436859
v -0.05753797 -0.16684564 1.64221854
v -0.06006187 -0.16207830 1.63941415
v -0.00948965 -0.19068283 1.63698373
v -0.00986358 -0.19189816 1.63819894
v -0.01192013 -0.19414166 1.64231204
v -0.01089185 -0.19395470 1.64586417
v -0.00911573 -0.19273948 1.63960114
v -0.01958541 -0.19171120 1.64801421
v -0.01977234 -0.19311339 1.64698599
v -0.02538113 -0.19068283 1.64857507
v -0.02566156 -0.19189816 1.64764035
v -0.03295293 -0.18834595 1.64913593
v -0.03267250 -0.18974813 1.64773384
v -0.03949649 -0.18460669 1.64969689
v -0.03977692 -0.18563495 1.64848157
v -0.04566609 -0.17946543 1.64960340
v -0.04604001 -0.18068065 1.64857507
v -0.04987268 -0.17553921 1.64857507
v -0.05005961 -0.17656747 1.64792072
v -0.05435964 -0.16955664 1.64586417
v -0.05454663 -0.17114578 1.64539681
v -0.05772490 -0.16497615 1.64315327
v -0.05781840 -0.16628486 1.64296639
v -0.06015537 -0.16048915 1.64062936
v -0.06015537 -0.16151741 1.64044237
v -0.00818095 -0.19161772 1.63847931
v -0.06015537 -0.16058263 1.63875980
v -0.01612666 -0.19488949 1.64334026
v 0.01107572 -0.19068283 1.63698373
v 0.06174144 -0.16048915 1.64062936
f 1 2 3
f 4 5 6
f 5 7 8
f 7 9 10
f 9 11 12
f 11 13 14
f 14 13 15
f 15 16 17
f 16 18 19
f 18 20 21
f 3 22 23
f 24 4 25
f 25 6 26
f 6 8 27
f 8 10 28
f 10 12 29
f 29 12 14
f 30 14 31
f 31 17 32
f 32 17 19
f 33 19 21
f 24 34 35
f 36 37 1
f 36 38 23
f 2 1 39
f 40 39 41
f 42 41 43
f 44 43 45
f 46 45 47
f 48 47 49
f 50 49 51
f 52 51 53
f 54 53 55
f 56 23 22
f 57 21 20
f 1 37 26
f 39 26 27
f 41 27 28
f 43 28 29
f 45 29 30
f 47 30 58
f 49 58 32
f 51 32 33
f 53 33 57
f 25 37 36
f 34 36 56
f 35 56 59
f 55 57 60
f 61 62 63
f 64 65 66
f 67 68 65
f 69 70 68
f 71 72 70
f 73 74 72
f 73 75 76
f 77 78 76
f 79 80 78
f 81 82 80
f 83 84 61
f 85 86 87
f 88 64 87
f 89 67 64
f 90 69 67
f 91 71 69
f 91 92 73
f 92 93 75
f 94 77 75
f 94 95 79
f 95 96 81
f 85 97 98
f 99 100 63
f 99 101 83
f 62 102 103
f 102 104 105
f 104 106 107
f 106 108 109
f 108 110 111
f 110 112 113
f 112 114 115
f 114 116 117
f 116 118 119
f 101 120 84
f 96 121 82
f 63 103 88
f 103 105 89
f 105 107 90
f 107 109 91
f 109 111 92
f 111 113 93
f 113 115 94
f 115 117 95
f 117 119 96
f 99 122 87
f 86 98 101
f 98 97 120
f 119 118 121
f 38 1 3
f 25 4 6
f 6 5 8
f 8 7 10
f 10 9 12
f 12 11 14
f 31 14 15
f 31 15 17
f 17 16 19
f 19 18 21
f 38 3 23
f 34 24 25
f 37 25 26
f 26 6 27
f 27 8 28
f 28 10 29
f 30 29 14
f 58 30 31
f 58 31 32
f 33 32 19
f 57 33 21
f 123 24 35
f 38 36 1
f 56 36 23
f 40 2 39
f 42 40 41
f 44 42 43
f 46 44 45
f 48 46 47
f 50 48 49
f 52 50 51
f 54 52 53
f 124 54 55
f 59 56 22
f 60 57 20
f 39 1 26
f 41 39 27
f 43 41 28
f 45 43 29
f 47 45 30
f 49 47 58
f 51 49 32
f 53 51 33
f 55 53 57
f 34 25 36
f 35 34 56
f 123 35 59
f 124 55 60
f 100 61 63
f 87 64 66
f 64 67 65
f 67 69 68
f 69 71 70
f 71 73 72
f 74 73 76
f 75 77 76
f 77 79 78
f 79 81 80
f 100 83 61
f 66 85 87
f 122 88 87
f 88 89 64
f 89 90 67
f 90 91 69
f 71 91 73
f 73 92 75
f 93 94 75
f 77 94 79
f 79 95 81
f 86 85 98
f 122 99 63
f 100 99 83
f 63 62 103
f 103 102 105
f 105 104 107
f 107 106 109
f 109 108 111
f 111 110 113
f 113 112 115
f 115 114 117
f 117 116 119
f 83 101 84
f 81 96 82
f 122 63 88
f 88 103 89
f 89 105 90
f 90 107 91
f 91 109 92
f 92 111 93
f 93 113 94
f 94 115 95
f 95 117 96
f 86 99 87
f 99 86 101
f 101 98 120
f 96 119 121

