# https://github.com/mikedh/trimesh

o v2_tshirt02-mesh
v 0.09660921 0.03104969 1.00777617
v 0.10777081 0.04501661 0.96066263
v 0.07823222 0.05661257 0.96066642
v 0.07261462 0.04259656 1.00567382
v 0.06837844 0.02992797 1.05591702
v 0.09520702 0.02749749 1.06358326
v 0.12259643 0.02132785 1.06582668
v 0.12053988 0.01702781 1.00983271
v 0.13619596 0.02501682 0.95820414
v -0.12362778 0.01244735 1.00992621
v -0.12194515 0.01543869 1.06676063
v -0.09567750 0.02955404 1.06339538
v -0.09736012 0.02768443 1.00749479
v -0.06473588 0.03478886 1.05816145
v -0.07233414 0.03951942 1.00565509
v -0.07839553 0.05318436 0.96013164
v -0.11278419 0.04208022 0.96112910
v -0.14388649 0.01831535 0.96108988
v 0.06875237 0.02918012 1.11406104
v 0.09492658 0.03170403 1.11508937
v 0.07501552 0.03497584 1.15977237
v 0.10857445 0.03441493 1.16295063
v 0.12427905 0.00739948 1.16725072
v 0.12409209 0.01197994 1.12004370
v -0.11241027 0.00646470 1.12023069
v -0.12671259 0.00805383 1.17024211
v -0.09885579 0.02936706 1.16304413
v -0.09549054 0.03095624 1.11555673
v -0.06847500 0.03993023 1.15911802
v -0.06567066 0.03563020 1.11153713
v 0.05677691 0.06143850 0.96066642
v 0.03865911 0.06284181 0.96046071
v 0.03671132 0.04670019 1.00475391
v 0.03126723 0.03890195 1.05012225
v 0.04687823 0.03357365 1.05133656
v -0.01706145 0.05096077 1.00328920
v -0.03483797 0.04925508 1.00452870
v -0.03248550 0.05264340 1.05236567
v -0.01350926 0.05198904 1.05189742
v 0.00107347 0.04965206 1.05049522
v 0.00116695 0.05068034 1.00356868
v 0.00219517 0.06330005 0.95944743
v -0.01911799 0.06152394 0.96047475
v -0.03763507 0.06141532 0.96087670
v 0.02967810 0.02600181 1.10789239
v 0.04930870 0.02665615 1.11106976
v 0.03556727 0.02983447 1.15893103
v 0.05136525 0.03133012 1.15837017
v -0.02977466 0.05002599 1.10686317
v -0.03042901 0.05068034 1.15640712
v -0.01818321 0.04413677 1.15612675
v -0.01528538 0.04404333 1.10583584
v -0.00603091 0.03394758 1.15528541
v -0.00079610 0.03637799 1.10433926
v 0.07165026 -0.18498070 1.16108107
v 0.04725215 -0.19488949 1.16332461
v 0.04725215 -0.18619592 1.11892198
v 0.06893936 -0.17553921 1.11714592
v 0.04678479 -0.18180241 1.06853758
v 0.07389375 -0.17357624 1.06648104
v 0.09558094 -0.16151741 1.06012451
v 0.09660921 -0.16114350 1.11499587
v 0.09567441 -0.16946315 1.16023973
v -0.10025788 -0.15674989 1.11929585
v -0.10268843 -0.15263689 1.06760286
v -0.07473815 -0.17011751 1.06900506
v -0.07370988 -0.17525887 1.11995020
v -0.04921833 -0.18152197 1.06993889
v -0.04734871 -0.18769160 1.12023069
v -0.04734871 -0.19825475 1.16463332
v -0.07408379 -0.18582201 1.16369848
v -0.09904274 -0.16647173 1.16425934
v 0.05117832 -0.18348503 1.01487965
v 0.07398724 -0.17507190 1.00973922
v 0.05043047 -0.17927847 0.96318565
v 0.07875341 -0.17263256 0.96184798
v 0.10866597 -0.16581756 0.96444945
v 0.10427450 -0.16320004 1.01067406
v -0.11128852 -0.15338464 1.01656322
v -0.11749797 -0.15496677 0.96532255
v -0.08720164 -0.16694174 0.96368667
v -0.08156209 -0.16899575 1.01441318
v -0.05624508 -0.17620711 0.96549739
v -0.05538791 -0.18170893 1.01721757
v 0.02332152 -0.19975031 1.16510068
v 0.00107347 -0.20077869 1.16650288
v 0.00107347 -0.19292643 1.12172638
v 0.02378888 -0.19199155 1.12032418
v 0.00069955 -0.18713071 1.07180945
v 0.02463022 -0.18731758 1.07031376
v -0.02463329 -0.18619592 1.07078023
v -0.02192238 -0.19255252 1.12097853
v -0.02164195 -0.20077869 1.16584852
v -0.00004828 -0.19002858 1.01824490
v 0.02537801 -0.18731758 1.01684270
v -0.00004828 -0.18722420 0.96767362
v 0.02425630 -0.18507418 0.96580306
v -0.02547457 -0.18395234 0.96692578
v -0.02603549 -0.18675681 1.01796542
v 0.11676323 0.05115271 0.91917372
v 0.12037462 0.05005184 0.87936726
v 0.08180491 0.06279769 0.88559418
v 0.08105801 0.06489311 0.91826986
v 0.14725213 0.02301766 0.91369965
v 0.15044705 0.01938079 0.87636813
v -0.12543220 0.04541088 0.92261943
v -0.15241862 0.01931492 0.92101909
v -0.08614417 0.06207154 0.91828011
v -0.08770578 0.06246088 0.89206426
v -0.12598438 0.04825945 0.89714485
v -0.15254379 0.02304374 0.89714028
v 0.05790876 0.06722617 0.91794268
v 0.06081440 0.06805561 0.88956938
v 0.04472825 0.06544997 0.89055275
v 0.03968036 0.06760009 0.91878391
v -0.03528990 0.06507615 0.91850354
v 0.00294302 0.06077601 0.91887652
v -0.02248324 0.05937390 0.91841005
v 0.00284953 0.06199134 0.88877668
v -0.02650285 0.06507615 0.88887012
v -0.03846822 0.06975011 0.89092667
v 0.05229630 -0.17524418 0.91961222
v 0.05768756 -0.17474090 0.89281852
v 0.07769382 -0.16213606 0.90274918
v 0.07866264 -0.16591674 0.92398886
v 0.10144031 -0.15980274 0.91349116
v 0.10683611 -0.16061563 0.93304136
v -0.11457301 -0.16013916 0.91326683
v -0.10655175 -0.15706052 0.86838486
v -0.07816369 -0.16429899 0.88271184
v -0.08366679 -0.16550983 0.91585426
v -0.05252730 -0.17226631 0.88921641
v -0.05371816 -0.17212965 0.91878113
v 0.00004520 -0.18320459 0.91915789
v 0.02734113 -0.18198937 0.91934488
v -0.00266566 -0.18404590 0.88653314
v 0.03014145 -0.18218661 0.88321486
v -0.02612893 -0.17955891 0.91953087
v -0.02557024 -0.17711592 0.88795395
v 0.08342864 0.04320199 1.20043588
v 0.11437026 0.03095624 1.20464236
v 0.09221564 0.05105426 1.23969709
v 0.11857682 0.02918012 1.24465152
v 0.14783572 0.00637120 1.25082117
v 0.13680527 0.00300596 1.21333592
v -0.13325613 0.00562335 1.20445549
v -0.15148458 0.00833426 1.23913623
v -0.12297343 0.03067576 1.23838838
v -0.10521237 0.02516052 1.20221195
v -0.08726432 0.04974556 1.23726667
v -0.07604686 0.04591289 1.19884670
v 0.09417875 0.05376517 1.28129532
v 0.12988780 0.03301280 1.28615627
v 0.09835222 0.05530860 1.32774235
v 0.13352816 0.04007582 1.33130295
v 0.16480452 0.01832448 1.33062710
v 0.15531442 0.00891695 1.29007212
v -0.16424552 0.00568208 1.27313175
v -0.17012731 -0.00457893 1.29751682
v -0.14385751 0.03054967 1.31564610
v -0.13493876 0.03002146 1.27549965
v -0.10588570 0.05167295 1.32165773
v -0.09521010 0.04535203 1.27933227
v 0.03846510 0.03525627 1.19940755
v 0.05940446 0.03768675 1.20015540
v 0.04201734 0.04077151 1.23969709
v 0.06622846 0.04600638 1.23913623
v -0.03426163 0.05357817 1.19744450
v -0.04015084 0.05432602 1.23764054
v -0.02668984 0.04563246 1.23745355
v -0.00191781 0.03778018 1.23866887
v -0.00743311 0.03553670 1.19735100
v -0.02248324 0.04666074 1.19641628
v 0.04584996 0.04834337 1.28269752
v 0.07015457 0.05385866 1.28176268
v 0.04846742 0.05292388 1.32700666
v 0.07043499 0.05928046 1.32672628
v -0.04491824 0.05619563 1.28036060
v -0.04977918 0.05563472 1.32569795
v -0.03127029 0.04432376 1.32523059
v -0.00294609 0.03693890 1.32588494
v -0.00257216 0.03824760 1.28204317
v -0.03033552 0.04600638 1.28026710
v 0.07174370 -0.19292643 1.28288451
v 0.07071542 -0.18432635 1.32794149
v 0.04594345 -0.18722420 1.32700666
v 0.04547609 -0.19545036 1.28325838
v 0.04538259 -0.19750691 1.24091229
v 0.06893936 -0.19105685 1.24016445
v 0.09558094 -0.18105458 1.23979058
v 0.09922663 -0.18825247 1.28166930
v 0.09791792 -0.17722184 1.32999804
v -0.07950560 -0.18909378 1.28335187
v -0.11054069 -0.18086761 1.28307150
v -0.10053842 -0.17768932 1.24091229
v -0.07314897 -0.18946771 1.24007106
v -0.05024661 -0.19619820 1.24053843
v -0.05043354 -0.19320687 1.28251053
v -0.05090095 -0.18329798 1.32523059
v -0.07922511 -0.17974586 1.32523059
v -0.11082113 -0.17189361 1.32607193
v 0.04510216 -0.19797430 1.20333366
v 0.06884587 -0.18937423 1.20221195
v 0.09352440 -0.17507190 1.20202496
v -0.09792091 -0.17320223 1.20352065
v -0.07286854 -0.19077641 1.20333366
v -0.04706829 -0.19993737 1.20417500
v 0.02266711 -0.19591777 1.28335187
v 0.02294759 -0.18722420 1.32625881
v 0.00116695 -0.18385886 1.32448274
v 0.00135391 -0.19638506 1.28129532
v 0.00069955 -0.20199391 1.24119278
v 0.02219975 -0.20143304 1.24175363
v -0.02360501 -0.19301981 1.28138882
v -0.02407243 -0.19956345 1.24081880
v -0.02612893 -0.18273720 1.32476312
v 0.00023216 -0.20451785 1.20660542
v 0.02219975 -0.20311566 1.20473586
v -0.02201588 -0.20386350 1.20510984
v 0.10285830 0.05249852 1.37619356
v 0.13680180 0.03924986 1.37867635
v 0.10498569 0.04106671 1.40976195
v 0.13765321 0.03230590 1.40840466
v 0.17484176 0.02437595 1.40492441
v 0.16976678 0.02814717 1.37587575
v -0.15123022 0.03001728 1.35556087
v -0.19078454 0.00832718 1.33647982
v -0.19937611 0.01068622 1.36980795
v -0.16003745 0.02706407 1.39037345
v -0.11899401 0.03871898 1.40010648
v -0.11474380 0.04780391 1.36633617
v 0.13649033 0.00881142 1.44055113
v 0.17866871 0.00324520 1.42905975
v 0.17592079 0.01517458 1.41903787
v 0.13609875 0.02258468 1.42629191
v 0.10353144 0.02977257 1.43245498
v 0.10379355 0.01534352 1.44999632
v -0.15947471 0.02059109 1.41286455
v -0.11869414 0.02913766 1.42469993
v -0.20024034 0.00427275 1.39132878
v -0.20017059 -0.00443596 1.40736697
v -0.15944161 0.00978989 1.42890363
v -0.11933511 0.01767972 1.44318447
v 0.05161342 0.05093966 1.36898166
v 0.07407104 0.05593984 1.37172900
v 0.05125616 0.04466425 1.40912443
v 0.07672549 0.04544715 1.40975348
v -0.03344887 0.03937221 1.36735982
v -0.05672955 0.05067816 1.36773090
v -0.06093826 0.04138029 1.40514784
v -0.03192465 0.03516283 1.40805308
v -0.00397436 0.03572369 1.40767921
v -0.00210480 0.03693890 1.36944623
v 0.02201276 0.03039538 1.44329479
v 0.02388238 0.03787369 1.40795970
v -0.00434828 0.02946060 1.44207958
v -0.00490920 0.02179526 1.46376668
v 0.01967578 0.01712131 1.46619721
v 0.04835342 0.01345379 1.46713483
v 0.04863435 0.03318284 1.44273583
v 0.07164680 -0.16824419 1.36328973
v 0.07389915 -0.14896372 1.39183259
v 0.04856085 -0.15244995 1.39150731
v 0.04669130 -0.17226752 1.36159401
v 0.09787763 -0.16157323 1.36511628
v 0.10081643 -0.14333777 1.39252806
v -0.07922511 -0.16469562 1.35710694
v -0.10963422 -0.15753857 1.35706303
v -0.05127488 -0.16908915 1.35794828
v -0.05379879 -0.15058026 1.38627249
v -0.08067250 -0.14596314 1.38463940
v -0.10958954 -0.14026436 1.38466091
v 0.02294759 -0.15366507 1.39150731
v -0.00266566 -0.15226289 1.39066596
v -0.00135695 -0.16936958 1.36037869
v 0.02285411 -0.17198709 1.36140702
v -0.02874638 -0.15170202 1.38851603
v 0.15992323 -0.07061655 1.02047618
v 0.15500445 -0.04935141 1.01881233
v 0.15204237 -0.05083803 1.07003239
v 0.15503371 -0.07308608 1.06853758
v 0.14849017 -0.10458856 1.06535843
v 0.15835334 -0.10125574 1.02080803
v 0.17416459 -0.09957985 0.97955102
v 0.17685595 -0.07151055 0.97335708
v 0.17642072 -0.04923663 0.96971613
v -0.17508415 -0.07774817 0.96835316
v -0.16726919 -0.10316736 0.97081166
v -0.15660948 -0.09512582 1.02151944
v -0.16222225 -0.07091843 1.02096705
v -0.14811932 -0.09252976 1.07143458
v -0.15849551 -0.06878605 1.07208893
v -0.15868237 -0.04980974 1.07078023
v -0.16263393 -0.05198615 1.01984333
v -0.17409560 -0.05683467 0.96767362
v 0.12820517 -0.14169983 1.06096585
v 0.14506836 -0.14700393 0.97305609
v 0.13596395 -0.14169983 1.01366444
v -0.14978288 -0.13695538 0.96909254
v -0.13035828 -0.12608878 1.06853758
v -0.13929984 -0.12820050 1.01863091
v 0.14372272 -0.07504914 1.12032418
v 0.13979650 -0.05663374 1.11929585
v 0.14961191 -0.06130770 1.16902679
v 0.14540534 -0.08271442 1.16883991
v 0.13792701 -0.11010386 1.16743771
v 0.14082487 -0.10141030 1.12051117
v -0.14765193 -0.07056212 1.12415679
v -0.14157578 -0.09430587 1.12359594
v -0.14204317 -0.10496249 1.17127033
v -0.14933456 -0.07822746 1.17061597
v -0.15382155 -0.05672724 1.17033549
v -0.14653018 -0.05167937 1.12210025
v 0.12259643 -0.13824110 1.11527625
v 0.12016597 -0.14469117 1.16192242
v -0.12428213 -0.12786491 1.12181987
v -0.12418865 -0.13861502 1.16790507
v 0.18252500 -0.07561289 0.92645583
v 0.18122751 -0.05345559 0.92356641
v 0.17882791 -0.10441823 0.93121481
v 0.17664535 -0.11547457 0.90529950
v 0.18436401 -0.08347041 0.89556914
v 0.18153337 -0.06489571 0.88858496
v -0.17847361 -0.08269097 0.87695818
v -0.16619829 -0.10895852 0.87174009
v -0.17236148 -0.10751988 0.91401747
v -0.18053427 -0.08176360 0.91554492
v -0.18439991 -0.06039209 0.91615068
v -0.18157656 -0.06163120 0.88156043
v 0.14101088 -0.14625414 0.93562890
v 0.13626430 -0.15259381 0.91446143
v -0.13987605 -0.14027306 0.86838977
v -0.14817728 -0.14170076 0.91260407
v 0.15007931 -0.09234282 1.21109250
v 0.15746417 -0.06729036 1.21006417
v 0.16743643 -0.07122689 1.24770364
v 0.15503371 -0.10075590 1.24904500
v 0.14587275 -0.12889309 1.24829715
v 0.14035747 -0.12234960 1.20894245
v -0.15241937 -0.08804273 1.21071852
v -0.14428668 -0.11795607 1.21034465
v -0.14802584 -0.12599529 1.24839064
v -0.15840204 -0.09552108 1.24923199
v -0.16709560 -0.06887949 1.24306234
v -0.15868237 -0.06317726 1.20856847
v 0.12614864 -0.16058263 1.24222100
v 0.12082032 -0.15413256 1.20473586
v -0.12297343 -0.14927165 1.20725977
v -0.12923653 -0.15618911 1.24296884
v 0.16282089 -0.10058083 1.28528038
v 0.16305198 -0.07063366 1.28312008
v 0.16833140 -0.08542243 1.29698583
v 0.16634973 -0.10115383 1.31033841
v 0.16082260 -0.13195219 1.32482396
v 0.15120097 -0.13281931 1.28755846
v -0.17156045 -0.10440207 1.28522054
v -0.16017814 -0.12945406 1.28868018
v -0.17131703 -0.12949463 1.32820693
v -0.17645792 -0.10596174 1.30292179
v -0.18235655 -0.09381455 1.28981415
v -0.17770185 -0.08137702 1.27463959
v 0.13381392 -0.16516301 1.33065239
v 0.13400088 -0.16768705 1.28353886
v -0.13821043 -0.15759129 1.28671712
v -0.14545470 -0.15619668 1.32654208
v 0.12845524 -0.14927968 1.36590714
v 0.15597748 -0.13311031 1.35489527
v 0.15698658 -0.12429260 1.37756868
v 0.13192397 -0.13394648 1.39000136
v -0.14341106 -0.14610326 1.36085085
v -0.14309313 -0.13411456 1.39058283
v -0.17750713 -0.13119660 1.38767469
v -0.17486409 -0.13671141 1.36308213
v 0.13851248 0.00473087 1.01091799
v 0.13437481 0.00337987 1.06638765
v 0.13895528 -0.01316596 1.06554631
v 0.14633276 -0.01151002 1.01281095
v 0.16563939 -0.00855163 0.96042795
v 0.15493190 0.00899033 0.95750019
v -0.16044671 -0.00048328 0.96124879
v -0.16837420 -0.01873068 0.96220223
v -0.14765595 -0.01645176 1.01082639
v -0.14106605 -0.00116604 1.01141533
v -0.14391266 -0.01531601 1.06638765
v -0.13456485 -0.00054629 1.06657364
v 0.15005257 -0.02956753 1.01548073
v 0.14633276 -0.01151002 1.01281095
v 0.13895528 -0.01316596 1.06554631
v 0.14419012 -0.03195527 1.06676063
v 0.17311118 -0.02794269 0.96394654
v 0.16563939 -0.00855163 0.96042795
v -0.15642374 -0.03615401 1.01420847
v -0.17201121 -0.03815930 0.96459899
v -0.15204545 -0.03251618 1.06816372
v -0.14391266 -0.01531601 1.06638765
v -0.14765595 -0.01645176 1.01082639
v -0.16837420 -0.01873068 0.96220223
v 0.12680299 -0.00278978 1.11798715
v 0.13493568 -0.01410074 1.17379424
v 0.14344229 -0.02802916 1.17211167
v 0.12633550 -0.01961604 1.11770677
v -0.12783434 -0.00998770 1.12453077
v -0.13821043 -0.02036388 1.12368943
v -0.14138882 -0.02354215 1.17276602
v -0.13419092 -0.00652895 1.16949426
v 0.13297261 -0.04092926 1.11910897
v 0.12633550 -0.01961604 1.11770677
v 0.14344229 -0.02802916 1.17211167
v 0.14764886 -0.04335967 1.17042899
v -0.14307145 -0.03401180 1.12023069
v -0.14858663 -0.04018141 1.17136382
v -0.14138882 -0.02354215 1.17276602
v -0.13821043 -0.02036388 1.12368943
v 0.16277585 0.00297095 0.91543649
v 0.17045030 -0.01563282 0.91722103
v 0.16968498 -0.02372128 0.88284278
v 0.16268695 -0.00426697 0.87958038
v -0.16484052 0.00161623 0.89273271
v -0.17315791 -0.01589664 0.88813175
v -0.17504059 -0.01792344 0.91919054
v -0.16470890 -0.00149734 0.92090688
v 0.17045030 -0.01563282 0.91722103
v 0.17571766 -0.04425857 0.88553835
v 0.17627125 -0.03543525 0.92078631
v 0.16968498 -0.02372128 0.88284278
v -0.18149617 -0.03833837 0.91768092
v -0.18215810 -0.03175341 0.88349640
v -0.17504059 -0.01792344 0.91919054
v -0.17315791 -0.01589664 0.88813175
v 0.14933147 -0.01325945 1.21427076
v 0.15821200 -0.01185726 1.24773629
v 0.16466206 -0.02887045 1.24390368
v 0.15512718 -0.02830959 1.21249469
v -0.15017587 -0.00998770 1.20912944
v -0.15943030 -0.02260736 1.20576419
v -0.17242382 -0.02372913 1.23371443
v -0.16681516 -0.00680938 1.23549049
v 0.15924018 -0.04616407 1.21006417
v 0.15512718 -0.02830959 1.21249469
v 0.16466206 -0.02887045 1.24390368
v 0.16774687 -0.04794019 1.24446454
v -0.16335644 -0.04186404 1.20641854
v -0.17279773 -0.04541622 1.23642533
v -0.17242382 -0.02372913 1.23371443
v -0.15943030 -0.02260736 1.20576419
v 0.17851960 0.00105760 1.29198748
v 0.17240644 -0.00763851 1.28038489
v 0.17937812 -0.02709806 1.28850255
v 0.17365532 -0.02714057 1.27471537
v -0.18437523 -0.00987698 1.26624234
v -0.13193237 -0.04404444 1.26668920
v -0.14318699 -0.05366371 1.26446538
v -0.15913023 -0.01935043 1.27264010
v 0.17365532 -0.02714057 1.27471537
v 0.17937812 -0.02709806 1.28850255
v 0.17317709 -0.04807670 1.28957010
v 0.17016397 -0.04831111 1.27683354
v -0.18884055 -0.05556296 1.26278649
v -0.13259579 -0.08093980 1.26893931
v -0.14318699 -0.05366371 1.26446538
v -0.13193237 -0.04404444 1.26668920
v 0.17996750 -0.03038464 1.29029366
v 0.18043799 0.00517009 1.29728124
v 0.17937905 0.02352998 1.33145350
v 0.19415381 0.01868130 1.31114610
v 0.15299782 0.02282120 1.30096988
v 0.14578487 -0.00652355 1.29638942
v -0.16599339 -0.02155954 1.26623019
v -0.16558769 -0.02934160 1.25150160
v -0.18793931 -0.01606307 1.25885849
v -0.18437560 -0.00811998 1.28087654
v -0.14589079 -0.05529189 1.26230509
v -0.15072748 -0.05798624 1.25492112
v 0.17229595 -0.09058436 1.29896103
v 0.17996750 -0.03038464 1.29029366
v 0.13497775 -0.02513071 1.29561260
v 0.14578487 -0.00652355 1.29638942
v 0.14000272 -0.02479345 1.29234174
v 0.18284199 -0.07834140 1.28869700
v -0.13992578 -0.08038826 1.25965302
v -0.15072748 -0.05798624 1.25492112
v -0.14589079 -0.05529189 1.26230509
v -0.13514582 -0.08081935 1.26662378
v -0.14222453 -0.11119236 1.29026936
v -0.14643221 -0.11419373 1.27367210
v -0.12336285 0.00181794 1.45457678
v -0.19936378 -0.01444798 1.42023347
v -0.16111041 -0.00380925 1.44027076
v -0.19869596 -0.02825471 1.42838579
v -0.16165278 -0.02154460 1.44769673
v -0.12770880 -0.01762479 1.46005564
v 0.21295033 -0.02765440 1.41796664
v 0.18168883 -0.02513077 1.44170939
v 0.18258857 -0.04336151 1.44345091
v 0.18438374 -0.06066455 1.44502138
v 0.21872940 -0.05771757 1.42389224
v 0.21583958 -0.04264877 1.42063353
v 0.24012781 -0.05550785 1.37785752
v 0.23826822 -0.03946683 1.37597481
v 0.23553442 -0.02638916 1.37375746
v -0.24257369 -0.06913144 1.36185945
v -0.24018325 -0.08468806 1.36540133
v -0.22485134 -0.07047592 1.41731229
v -0.19759665 -0.06583317 1.43759719
v -0.19870382 -0.04682878 1.43411236
v -0.22717514 -0.05234848 1.41247753
v -0.19869596 -0.02825471 1.42838579
v -0.22816677 -0.03804641 1.40408864
v -0.24130042 -0.05712780 1.35594499
v 0.20997788 -0.09358895 1.40796717
v 0.17896336 -0.09622530 1.42973839
v 0.16951185 -0.11431262 1.40423072
v 0.18471307 -0.11403604 1.36358326
v 0.19495718 -0.09661516 1.33234711
v 0.21321825 -0.09651687 1.34823486
v 0.19693023 -0.10726163 1.38635752
v 0.22587112 -0.09110070 1.36277178
v -0.21407403 -0.12342390 1.35174498
v -0.20341087 -0.12681333 1.33907672
v -0.19792158 -0.13176898 1.37168687
v -0.20776541 -0.12400688 1.39063699
v -0.18433083 -0.12117351 1.40687721
v -0.18951893 -0.10676602 1.42471765
v -0.21489423 -0.11110562 1.40657243
v -0.22349057 -0.11513307 1.36007403
v 0.17617590 -0.11830281 1.34088644
v 0.16884769 -0.10962324 1.32615595
v 0.17930129 -0.09269250 1.30608981
v 0.18181606 -0.09018848 1.31521150
v -0.18734226 -0.12795745 1.32041266
v -0.16986913 -0.12613948 1.30128592
v -0.17479212 -0.12542066 1.32768162
v -0.18534022 -0.13001792 1.35040919
v 0.17246440 -0.08749719 1.29762146
v 0.16709981 -0.10130499 1.31505627
v -0.15792577 -0.12147149 1.28760705
v -0.15117796 -0.11807203 1.30473151
v 0.21786069 -0.07512965 1.42166275
v 0.18436514 -0.07778294 1.44339486
v 0.23615281 -0.07623587 1.37448848
v -0.23313323 -0.10262829 1.36462741
v -0.22125295 -0.09156650 1.41664858
v -0.19501999 -0.08795509 1.43591462
v 0.18911884 0.02630686 1.36690828
v 0.20024314 0.01920478 1.38748859
v 0.21045406 0.01967370 1.35674332
v 0.19373456 0.03189955 1.34345058
v -0.20522081 -0.01166375 1.30585423
v -0.21185502 -0.02267862 1.27612971
v -0.22387355 -0.03216042 1.29637917
v -0.21673062 -0.01569818 1.33472426
v 0.20480922 0.00822254 1.40062343
v 0.20928716 -0.00267856 1.40924589
v 0.22573894 -0.00420100 1.37095775
v 0.21830107 0.00774036 1.36570700
v -0.22335250 -0.01747914 1.36131163
v -0.22932639 -0.03885945 1.31659219
v -0.23487709 -0.04302893 1.33551891
v -0.22588317 -0.02029908 1.38124607
v 0.22675712 0.01701138 1.31869632
v 0.21478402 0.02988992 1.31432993
v 0.23356230 0.00555811 1.32000224
v 0.24198291 0.01671546 1.25978485
v 0.23275202 0.02876998 1.26254066
v 0.21759288 0.03789074 1.26727067
v -0.23953787 -0.05628662 1.26856533
v -0.24602168 -0.07099287 1.23136625
v -0.25197434 -0.08235683 1.23491381
v -0.24257884 -0.06536441 1.27857328
v -0.23240437 -0.04542759 1.25753106
v -0.23473911 -0.05729561 1.22459184
v 0.19388711 0.04078801 1.30645153
v 0.17181481 0.04487782 1.29656794
v 0.19813781 0.04763748 1.26825966
v 0.17778374 0.05116648 1.26655180
v -0.21574723 -0.03297596 1.24447668
v -0.21738591 -0.04061791 1.21650862
v -0.18893300 -0.02439981 1.23321809
v -0.19301504 -0.03095056 1.21238994
v 0.23499246 -0.06396494 1.31174529
v 0.24254098 -0.04707026 1.31393077
v 0.22726489 -0.07122494 1.30821455
v 0.22328043 -0.04582123 1.24538254
v 0.23188866 -0.03896721 1.24819251
v 0.23884415 -0.03051134 1.25133801
v -0.23144005 -0.13341496 1.24790735
v -0.22580147 -0.13737034 1.24785319
v -0.21976300 -0.12523629 1.29883488
v -0.22667886 -0.11729325 1.30077364
v -0.23526475 -0.10865140 1.29913587
v -0.24031664 -0.12719233 1.24607144
v 0.16519283 -0.06334102 1.27028724
v 0.15489499 -0.05893579 1.27030217
v 0.14759163 -0.04023005 1.27406291
v 0.15130239 -0.02331905 1.23865104
v 0.15777490 -0.04141568 1.23546152
v 0.16875570 -0.05198370 1.23229351
v -0.15771113 -0.12676363 1.23622998
v -0.14948571 -0.10972386 1.23104375
v -0.14435193 -0.10986499 1.24897123
v -0.15663929 -0.12577603 1.25889682
v -0.17343115 -0.13169989 1.26744830
v -0.17245111 -0.13646443 1.24232575
v 0.19921085 -0.07388291 1.28868486
v 0.17822805 -0.06775394 1.27629140
v 0.18300651 -0.05511315 1.23473897
v 0.19772267 -0.05548301 1.23649264
v -0.18853365 -0.14330571 1.24601628
v -0.18882382 -0.13526145 1.27617083
v -0.20340704 -0.13407557 1.28439881
v -0.20779224 -0.14289954 1.24872161
v 0.21658733 -0.07535898 1.30027909
v 0.21180045 -0.05081590 1.24181437
v -0.21734945 -0.14066772 1.24903474
v -0.21261194 -0.13053795 1.29310741
v 0.24286693 -0.03055575 1.31628831
v 0.24060214 -0.01725861 1.31815608
v 0.24403486 -0.01918411 1.25301691
v 0.24772178 -0.00780434 1.25482674
v -0.24806082 -0.11698809 1.24414015
v -0.24193655 -0.09764466 1.29660349
v -0.24500622 -0.08542622 1.29177431
v -0.25341821 -0.10463737 1.24132360
v 0.21115263 -0.01385513 1.41516414
v 0.18044527 -0.00898405 1.43741867
v 0.18168883 -0.02513077 1.44170939
v 0.21295033 -0.02765440 1.41796664
v 0.23553442 -0.02638916 1.37375746
v 0.23130478 -0.01523905 1.37280680
v -0.22838804 -0.02861682 1.39342735
v -0.23848380 -0.04899387 1.34789643
v -0.24130042 -0.05712780 1.35594499
v -0.22816677 -0.03804641 1.40408864
v 0.14619945 -0.01694196 1.27429659
v 0.15028085 0.00535118 1.27622967
v 0.15177923 0.01910620 1.25325995
v 0.14939878 0.00000899 1.24583497
v -0.15031524 -0.08521260 1.22793458
v -0.15550446 -0.06414285 1.22420382
v -0.15281741 -0.06067196 1.23886789
v -0.14451038 -0.08152351 1.24459826
v 0.15028085 0.00535118 1.27622967
v 0.15447975 0.03143269 1.28525698
v 0.15944191 0.04045287 1.26278081
v 0.15177923 0.01910620 1.25325995
v -0.16632674 -0.03966095 1.21878492
v -0.16474404 -0.03711642 1.23267963
v -0.15281741 -0.06067196 1.23886789
v -0.15550446 -0.06414285 1.22420382
v 0.07733488 -0.08561911 1.46558487
v 0.06327463 -0.11300019 1.44471660
v 0.08498178 -0.10726827 1.44575329
v 0.09009897 -0.08601042 1.46240660
v 0.11106661 -0.10408080 1.44522976
v 0.11346248 -0.08549330 1.46192988
v 0.11435324 -0.06530819 1.46979525
v 0.09351694 -0.06627708 1.47364001
v 0.08213287 -0.06574340 1.47569845
v -0.10623335 -0.06372452 1.46579893
v -0.12751838 -0.06408223 1.46101655
v -0.12463052 -0.08437704 1.45092926
v -0.10118585 -0.08573378 1.45557235
v -0.12178381 -0.10382450 1.43528177
v -0.09453284 -0.10519126 1.43650824
v -0.07054872 -0.10816398 1.44246838
v -0.08719105 -0.08683220 1.45979756
v -0.09469895 -0.06389252 1.47015976
v 0.14328833 -0.10135760 1.44280024
v 0.14696683 -0.08342556 1.45851783
v 0.14617066 -0.06330909 1.46195696
v -0.15895992 -0.08577540 1.44639460
v -0.16101778 -0.06459980 1.45398038
v -0.15542191 -0.10401428 1.43179773
v 0.08484332 -0.04429434 1.47814380
v 0.09464054 -0.04423193 1.47486179
v 0.11390454 -0.04321118 1.46990368
v 0.11182220 -0.02246150 1.46711143
v 0.09432318 -0.02309439 1.47280524
v 0.08538061 -0.02443090 1.47626120
v -0.10920309 -0.03911971 1.47003261
v -0.10649379 -0.01691315 1.46634954
v -0.12770880 -0.01762479 1.46005564
v -0.12861460 -0.03895110 1.46263560
v -0.09848767 -0.03894035 1.47495997
v -0.09544062 -0.01707953 1.47173301
v 0.14380713 -0.04269050 1.46062207
v 0.14129871 -0.02397653 1.45636689
v -0.16226683 -0.04183016 1.45216219
v -0.16165278 -0.02154460 1.44769673
v 0.23792208 -0.00552826 1.31952084
v 0.24060214 -0.01725861 1.31815608
v 0.24772178 -0.00780434 1.25482674
v 0.24711520 0.00391978 1.25670933
v -0.25523827 -0.09459684 1.23903716
v -0.25341821 -0.10463737 1.24132360
v -0.24500622 -0.08542622 1.29177431
v -0.24425540 -0.07494299 1.28614033
v -0.04856397 0.04572590 1.05507658
v -0.05188922 0.04396594 1.00485677
v -0.05693543 0.05843985 0.96072715
v -0.00472221 -0.12291046 1.44394914
v -0.00444178 -0.12459309 1.43375989
v 0.02922054 -0.12386413 1.43441614
v 0.03182809 -0.11823650 1.44731440
v 0.05931749 -0.09858557 1.46107171
v 0.05390822 -0.09315451 1.46723011
v 0.03173459 -0.11365604 1.45638182
v -0.00621790 -0.12113440 1.45133400
v -0.03827544 -0.11551001 1.45320545
v -0.06523980 -0.09638689 1.46478754
v -0.06946495 -0.09972534 1.45529287
v -0.04066463 -0.11662476 1.44330783
v -0.03842956 -0.11992660 1.43255872
v 0.07003132 -0.08148590 1.47192367
v 0.06305994 -0.07664078 1.47657991
v 0.07784944 -0.06462403 1.47727349
v 0.07160497 -0.06204847 1.48118188
v -0.08097801 -0.08196362 1.46585599
v -0.08807954 -0.06180811 1.47474958
v -0.07564462 -0.07937129 1.47184054
v -0.08135025 -0.05973534 1.47912912
v 0.08016826 -0.04390749 1.47897489
v 0.07352451 -0.04407275 1.48240645
v 0.08085676 -0.02516888 1.47914684
v 0.07310060 -0.02705950 1.48324222
v -0.08839490 -0.01956299 1.47708750
v -0.09182439 -0.03889388 1.47840278
v -0.08567006 -0.03948650 1.48223261
v -0.08222413 -0.02380925 1.48246350
v 0.01995627 0.00356681 1.47619947
v 0.03808666 -0.00429243 1.47853739
v 0.04387671 0.00476931 1.47124692
v -0.00453527 0.01384955 1.46974945
v 0.02004971 0.01076473 1.46993633
v -0.00556355 0.00926904 1.47320808
v -0.07326257 -0.00432341 1.47491784
v -0.05326829 0.00959014 1.47269771
v -0.05853889 0.01663010 1.46536055
v -0.08018764 -0.00041134 1.47098706
v -0.09544062 -0.01707953 1.47173301
v -0.08839490 -0.01956299 1.47708750
v -0.08222413 -0.02380925 1.48246350
v -0.06694968 -0.01322742 1.48226537
v -0.05148855 -0.00012701 1.47896274
v 0.10666112 -0.12426975 1.41933329
v 0.14041973 -0.11991189 1.41678030
v 0.07913045 -0.12731282 1.42026802
v 0.05344571 -0.12951968 1.41937163
v -0.00378743 -0.13151050 1.41684014
v 0.02575194 -0.13244539 1.41852282
v -0.03368673 -0.13073949 1.41451068
v -0.06113356 -0.12808487 1.41338986
v -0.08748893 -0.12611998 1.41369464
v -0.11594650 -0.12320883 1.41395350
v -0.15162292 -0.12074276 1.41519590
v 0.07745150 0.01572073 1.46007247
v 0.07571243 -0.00382463 1.47072529
v 0.08521056 -0.00396865 1.46869872
v 0.08538061 -0.02443090 1.47626120
v 0.09432318 -0.02309439 1.47280524
v 0.11182220 -0.02246150 1.46711143
v 0.10746392 -0.00338724 1.46019861
v -0.04594652 0.04843685 1.15696798
v -0.04575958 0.04535203 1.10826537
v -0.02921375 0.01646696 1.47040380
v -0.02986810 0.02058006 1.46264497
v -0.02837247 0.01048430 1.47404942
v 0.02033014 0.06255221 0.96047475
v 0.01640402 0.04451069 1.05087009
v 0.01967578 0.04909115 1.00394355
v 0.06797282 -0.00788128 1.47443733
v 0.06237160 -0.01347843 1.48125108
v 0.07310060 -0.02705950 1.48324222
v 0.08085676 -0.02516888 1.47914684
v -0.06211843 0.06731965 0.91756781
v -0.06192108 0.06834483 0.88978763
v -0.05837925 0.05264340 1.23707968
v -0.05108789 0.05030642 1.19800536
v -0.07268160 0.05984131 1.32513710
v -0.06623152 0.05591515 1.27998662
v -0.08768700 0.04232154 1.40448134
v -0.08161296 0.05399138 1.36884604
v -0.05870348 0.03202954 1.44067828
v -0.03089638 0.03020840 1.44123824
v 0.01163657 0.03161060 1.10368491
v 0.01238443 0.02665615 1.15650061
v 0.02248018 0.06451528 0.89120715
v 0.02257368 0.06208482 0.91897001
v 0.02191932 0.03273231 1.20099674
v 0.02304104 0.03852803 1.23932322
v 0.02481716 0.04086501 1.28316488
v 0.02425630 0.04217377 1.32719364
v 0.02378888 0.04123894 1.36879188
v 0.14129871 -0.02397653 1.45636689
v 0.13907288 -0.00688989 1.45014676
v 0.07577228 0.03330047 1.44037918
v -0.10649379 -0.01691315 1.46634954
v -0.09793988 0.00309666 1.46301984
v -0.08917667 0.02122371 1.45532742
v -0.08728728 0.03324397 1.43351496
v 0.05497850 0.04554966 1.00562991
v -0.02668984 -0.17030447 1.35944397
f 1 2 3
f 1 4 5
f 6 7 8
f 8 9 2
f 10 11 12
f 13 12 14
f 13 15 16
f 17 18 10
f 6 5 19
f 20 19 21
f 22 23 24
f 20 24 7
f 25 26 27
f 28 27 29
f 30 14 12
f 28 12 11
f 31 32 33
f 33 34 35
f 35 5 4
f 4 3 31
f 36 37 38
f 39 40 41
f 41 42 43
f 36 43 44
f 35 34 45
f 46 45 47
f 48 21 19
f 46 19 5
f 49 50 51
f 52 51 53
f 54 40 39
f 52 39 38
f 55 56 57
f 58 57 59
f 60 61 62
f 58 62 63
f 64 65 66
f 67 66 68
f 69 70 71
f 67 71 72
f 60 59 73
f 74 73 75
f 76 77 78
f 74 78 61
f 79 80 81
f 82 81 83
f 84 68 66
f 82 66 65
f 85 86 87
f 88 87 89
f 90 59 57
f 88 57 56
f 69 68 91
f 92 91 89
f 87 86 93
f 92 93 70
f 90 89 94
f 95 94 96
f 97 75 73
f 95 73 59
f 84 83 98
f 99 98 96
f 94 89 91
f 99 91 68
f 100 101 102
f 103 3 2
f 100 2 9
f 104 105 101
f 106 107 18
f 17 16 108
f 108 109 110
f 106 110 111
f 112 113 114
f 115 32 31
f 112 31 3
f 103 102 113
f 116 44 43
f 43 42 117
f 118 117 119
f 120 121 116
f 76 75 122
f 122 123 124
f 125 124 126
f 127 77 76
f 128 129 130
f 131 130 132
f 133 83 81
f 81 80 128
f 97 96 134
f 135 134 136
f 135 137 123
f 135 122 75
f 138 133 132
f 138 139 136
f 134 96 98
f 138 98 83
f 22 21 140
f 141 140 142
f 143 144 145
f 141 145 23
f 146 147 148
f 149 148 150
f 151 29 27
f 149 27 26
f 143 142 152
f 153 152 154
f 155 156 157
f 153 157 144
f 158 159 160
f 161 160 162
f 163 150 148
f 161 148 147
f 48 47 164
f 165 164 166
f 167 142 140
f 165 140 21
f 168 169 170
f 170 171 172
f 172 53 51
f 173 51 50
f 167 166 174
f 175 174 176
f 177 154 152
f 175 152 142
f 178 179 180
f 180 181 182
f 183 182 171
f 183 170 169
f 184 185 186
f 187 188 189
f 184 189 190
f 191 192 185
f 193 194 195
f 196 197 198
f 193 198 199
f 200 201 194
f 189 188 202
f 203 202 56
f 55 63 204
f 203 204 190
f 205 72 71
f 206 71 70
f 206 207 197
f 196 195 205
f 208 209 210
f 211 212 213
f 213 188 187
f 187 186 209
f 214 198 197
f 214 215 212
f 214 211 210
f 216 199 198
f 213 212 217
f 218 217 86
f 85 56 202
f 218 202 188
f 207 70 93
f 219 93 86
f 217 212 215
f 215 197 207
f 155 154 220
f 221 220 222
f 223 224 225
f 225 156 155
f 226 227 228
f 229 230 231
f 226 231 162
f 160 159 227
f 232 233 234
f 234 224 223
f 235 223 222
f 236 237 232
f 238 239 230
f 229 228 240
f 238 240 241
f 242 243 239
f 177 176 244
f 245 244 246
f 247 222 220
f 245 220 154
f 248 249 250
f 251 252 253
f 248 253 181
f 248 180 179
f 254 255 252
f 254 256 257
f 254 258 259
f 260 246 255
f 261 262 263
f 264 186 185
f 261 185 192
f 265 266 262
f 267 268 201
f 200 199 269
f 267 269 270
f 271 272 268
f 273 274 275
f 276 275 210
f 276 209 186
f 264 263 273
f 269 199 216
f 216 210 275
f 275 274 277
f 277 270 269
f 278 279 280
f 281 282 283
f 278 283 284
f 285 286 279
f 287 288 289
f 290 289 291
f 290 292 293
f 290 294 295
f 283 282 296
f 296 61 78
f 78 77 297
f 298 297 284
f 299 80 79
f 79 65 300
f 300 291 289
f 301 289 288
f 302 303 304
f 305 306 307
f 307 282 281
f 281 280 303
f 308 292 291
f 309 310 311
f 308 311 312
f 313 293 292
f 314 307 306
f 315 63 62
f 62 61 296
f 314 296 282
f 316 300 65
f 64 72 317
f 316 317 310
f 309 291 300
f 318 319 286
f 285 284 320
f 320 321 322
f 318 322 323
f 324 325 326
f 327 326 288
f 287 295 328
f 327 328 329
f 320 284 297
f 330 297 77
f 127 126 331
f 330 331 321
f 332 129 128
f 333 128 80
f 299 288 326
f 333 326 325
f 334 335 336
f 337 338 339
f 334 339 306
f 305 304 335
f 340 311 310
f 341 342 343
f 340 343 344
f 345 312 311
f 339 338 346
f 347 346 190
f 347 204 63
f 315 306 339
f 348 317 72
f 348 205 195
f 349 342 341
f 341 310 317
f 350 351 352
f 353 354 355
f 350 355 338
f 337 336 351
f 356 343 342
f 357 358 359
f 356 359 360
f 361 344 343
f 355 354 362
f 363 362 192
f 191 190 346
f 363 346 338
f 349 195 194
f 364 194 201
f 365 358 357
f 364 357 342
f 366 367 368
f 366 369 266
f 265 192 362
f 362 354 367
f 365 201 268
f 370 268 272
f 371 372 373
f 370 373 358
f 374 8 7
f 375 376 377
f 374 377 378
f 374 379 9
f 380 381 382
f 383 382 384
f 385 11 10
f 383 10 18
f 386 387 388
f 389 280 279
f 386 279 286
f 390 391 387
f 392 393 295
f 294 293 394
f 392 394 395
f 392 396 397
f 398 24 23
f 399 400 401
f 398 401 376
f 375 7 24
f 402 385 384
f 403 404 405
f 402 405 26
f 25 11 385
f 406 407 408
f 409 304 303
f 406 303 280
f 389 388 407
f 410 394 293
f 313 312 411
f 411 412 413
f 410 413 395
f 104 9 379
f 414 379 378
f 415 416 417
f 414 417 105
f 418 419 420
f 421 420 381
f 380 18 107
f 107 111 418
f 422 391 390
f 390 286 319
f 319 323 423
f 424 423 425
f 426 427 329
f 426 328 295
f 393 397 428
f 426 428 429
f 430 145 144
f 430 431 432
f 430 433 400
f 399 23 145
f 434 405 404
f 435 436 437
f 434 437 147
f 146 26 405
f 438 439 440
f 441 336 335
f 438 335 304
f 438 409 408
f 442 411 312
f 345 344 443
f 442 443 444
f 445 412 411
f 157 156 446
f 447 446 448
f 449 432 431
f 447 431 144
f 450 437 436
f 451 452 453
f 453 159 158
f 158 147 437
f 454 455 456
f 456 352 351
f 457 351 336
f 441 440 454
f 458 443 344
f 361 360 459
f 459 460 461
f 458 461 444
f 462 448 446
f 463 446 156
f 463 464 465
f 463 466 467
f 468 469 470
f 471 159 453
f 468 453 452
f 472 473 469
f 474 352 456
f 456 455 475
f 476 475 477
f 476 478 479
f 480 481 482
f 483 482 460
f 459 360 484
f 483 484 485
f 486 243 242
f 242 241 487
f 488 487 489
f 488 490 491
f 492 493 494
f 494 495 496
f 497 496 498
f 499 500 492
f 501 502 503
f 503 504 505
f 506 505 507
f 508 509 501
f 510 511 512
f 512 368 513
f 513 514 515
f 516 515 517
f 518 519 520
f 521 520 372
f 522 523 524
f 521 524 525
f 513 368 367
f 526 367 354
f 527 528 529
f 526 529 514
f 530 531 532
f 533 532 358
f 373 372 520
f 533 520 519
f 527 354 353
f 353 352 474
f 474 479 534
f 535 534 528
f 536 485 484
f 484 360 359
f 359 358 532
f 537 532 531
f 538 496 495
f 538 539 511
f 510 517 540
f 538 540 498
f 541 525 524
f 542 524 523
f 543 504 503
f 542 503 502
f 544 464 156
f 225 224 545
f 544 545 546
f 547 465 464
f 548 549 550
f 551 228 227
f 548 227 159
f 471 470 549
f 552 545 224
f 552 234 233
f 552 553 554
f 555 546 545
f 556 557 558
f 559 241 240
f 556 240 228
f 551 550 557
f 560 561 546
f 555 554 562
f 560 562 563
f 564 565 561
f 566 567 568
f 569 558 557
f 566 557 550
f 570 571 567
f 572 573 465
f 547 546 561
f 572 561 565
f 574 575 573
f 576 577 571
f 570 550 549
f 576 549 470
f 578 579 577
f 580 581 498
f 580 540 517
f 582 583 584
f 584 585 581
f 586 587 588
f 589 588 525
f 541 502 590
f 590 591 586
f 592 528 534
f 593 534 479
f 594 595 596
f 593 596 597
f 598 599 600
f 601 600 485
f 536 531 602
f 601 602 603
f 604 514 529
f 605 529 528
f 592 597 606
f 605 606 607
f 608 603 602
f 609 602 531
f 530 519 610
f 609 610 611
f 582 517 515
f 612 515 514
f 604 607 613
f 612 613 583
f 614 611 610
f 615 610 519
f 518 525 588
f 615 588 587
f 616 617 500
f 499 498 581
f 616 581 585
f 618 619 617
f 620 591 590
f 621 590 502
f 621 501 509
f 621 622 623
f 624 553 233
f 624 625 626
f 624 627 628
f 629 554 553
f 630 631 632
f 633 489 487
f 630 487 241
f 559 558 631
f 594 479 478
f 634 478 477
f 635 636 637
f 634 637 595
f 638 639 640
f 641 640 481
f 480 485 600
f 641 600 599
f 642 467 466
f 466 465 573
f 643 573 575
f 643 644 645
f 646 579 578
f 578 470 469
f 647 469 473
f 647 648 649
f 650 651 652
f 653 652 654
f 655 656 657
f 653 657 658
f 659 660 661
f 662 661 663
f 664 665 666
f 662 666 667
f 655 654 668
f 669 668 511
f 539 495 670
f 669 670 656
f 671 672 504
f 543 523 673
f 673 663 661
f 671 661 660
f 674 658 657
f 675 657 656
f 676 677 678
f 675 678 679
f 680 681 682
f 680 683 660
f 659 667 684
f 684 685 681
f 686 676 656
f 670 495 494
f 686 494 493
f 687 677 676
f 688 689 507
f 688 505 504
f 688 672 660
f 683 682 689
f 690 562 554
f 629 628 691
f 691 692 693
f 690 693 563
f 694 695 696
f 696 632 631
f 697 631 558
f 569 568 694
f 15 14 698
f 699 698 38
f 699 37 44
f 700 16 15
f 701 702 703
f 704 703 651
f 705 706 707
f 704 707 708
f 709 710 711
f 712 711 665
f 713 702 701
f 701 708 709
f 714 715 706
f 705 651 650
f 714 650 658
f 716 717 715
f 718 719 667
f 666 665 711
f 718 711 710
f 720 721 719
f 722 723 717
f 716 658 674
f 674 679 724
f 722 724 725
f 726 685 684
f 684 667 719
f 727 719 721
f 727 728 729
f 730 731 732
f 732 259 258
f 258 257 733
f 734 733 735
f 736 737 738
f 739 740 741
f 736 741 742
f 736 743 744
f 745 266 369
f 746 369 368
f 746 512 511
f 746 668 654
f 747 262 266
f 745 654 652
f 747 652 651
f 748 263 262
f 749 274 273
f 750 273 263
f 748 651 703
f 750 703 702
f 277 274 749
f 751 749 702
f 713 665 752
f 751 752 270
f 753 754 272
f 271 270 752
f 753 752 665
f 664 663 754
f 371 272 754
f 755 754 663
f 755 673 523
f 755 522 372
f 756 259 757
f 758 757 759
f 760 761 762
f 758 762 237
f 30 29 763
f 764 763 50
f 49 38 698
f 764 698 14
f 765 733 257
f 766 738 737
f 737 744 767
f 767 735 733
f 768 42 41
f 41 40 769
f 770 769 34
f 770 33 32
f 771 772 773
f 774 759 757
f 771 757 259
f 732 731 772
f 775 108 16
f 700 44 116
f 775 116 121
f 775 776 109
f 151 150 777
f 778 777 169
f 168 50 763
f 778 763 29
f 163 162 779
f 780 779 179
f 178 169 777
f 780 777 150
f 231 230 781
f 782 781 250
f 249 179 779
f 782 779 162
f 783 738 766
f 766 257 256
f 784 256 252
f 251 250 783
f 769 40 54
f 785 54 53
f 786 47 45
f 785 45 34
f 787 119 117
f 117 42 768
f 788 768 32
f 115 114 787
f 786 53 172
f 789 172 171
f 790 166 164
f 789 164 47
f 790 171 182
f 791 182 181
f 792 176 174
f 791 174 166
f 792 181 253
f 253 252 255
f 793 255 246
f 793 244 176
f 794 626 625
f 795 625 233
f 232 237 762
f 795 762 761
f 796 247 246
f 260 259 756
f 796 756 237
f 236 222 247
f 486 491 797
f 798 797 740
f 739 738 799
f 798 799 243
f 800 239 243
f 799 738 783
f 800 783 250
f 781 230 239
f 4 1 3
f 6 1 5
f 1 6 8
f 1 8 2
f 13 10 12
f 15 13 14
f 17 13 16
f 13 17 10
f 20 6 19
f 22 20 21
f 20 22 24
f 6 20 7
f 28 25 27
f 30 28 29
f 28 30 12
f 25 28 11
f 801 31 33
f 801 33 35
f 801 35 4
f 801 4 31
f 39 36 38
f 36 39 41
f 36 41 43
f 37 36 44
f 46 35 45
f 48 46 47
f 46 48 19
f 35 46 5
f 52 49 51
f 54 52 53
f 52 54 39
f 49 52 38
f 58 55 57
f 60 58 59
f 58 60 62
f 55 58 63
f 67 64 66
f 69 67 68
f 67 69 71
f 64 67 72
f 74 60 73
f 76 74 75
f 74 76 78
f 60 74 61
f 82 79 81
f 84 82 83
f 82 84 66
f 79 82 65
f 88 85 87
f 90 88 89
f 88 90 57
f 85 88 56
f 92 69 91
f 87 92 89
f 92 87 93
f 69 92 70
f 95 90 94
f 97 95 96
f 95 97 73
f 90 95 59
f 99 84 98
f 94 99 96
f 99 94 91
f 84 99 68
f 103 100 102
f 100 103 2
f 104 100 9
f 100 104 101
f 17 106 18
f 106 17 108
f 106 108 110
f 107 106 111
f 115 112 114
f 112 115 31
f 103 112 3
f 112 103 113
f 118 116 43
f 118 43 117
f 120 118 119
f 118 120 116
f 125 76 122
f 125 122 124
f 127 125 126
f 125 127 76
f 131 128 130
f 133 131 132
f 131 133 81
f 131 81 128
f 135 97 134
f 137 135 136
f 122 135 123
f 97 135 75
f 139 138 132
f 134 138 136
f 138 134 98
f 133 138 83
f 141 22 140
f 143 141 142
f 141 143 145
f 22 141 23
f 149 146 148
f 151 149 150
f 149 151 27
f 146 149 26
f 153 143 152
f 155 153 154
f 153 155 157
f 143 153 144
f 161 158 160
f 163 161 162
f 161 163 148
f 158 161 147
f 165 48 164
f 167 165 166
f 165 167 140
f 48 165 21
f 173 168 170
f 173 170 172
f 173 172 51
f 168 173 50
f 175 167 174
f 177 175 176
f 175 177 152
f 167 175 142
f 183 178 180
f 183 180 182
f 170 183 171
f 178 183 169
f 187 184 186
f 184 187 189
f 191 184 190
f 184 191 185
f 196 193 195
f 193 196 198
f 200 193 199
f 193 200 194
f 203 189 202
f 55 203 56
f 203 55 204
f 189 203 190
f 206 205 71
f 207 206 70
f 196 206 197
f 206 196 205
f 211 208 210
f 208 211 213
f 208 213 187
f 208 187 209
f 215 214 197
f 211 214 212
f 216 214 210
f 214 216 198
f 218 213 217
f 85 218 86
f 218 85 202
f 213 218 188
f 219 207 93
f 217 219 86
f 219 217 215
f 219 215 207
f 221 155 220
f 223 221 222
f 221 223 225
f 221 225 155
f 229 226 228
f 226 229 231
f 160 226 162
f 226 160 227
f 235 232 234
f 235 234 223
f 236 235 222
f 235 236 232
f 229 238 230
f 238 229 240
f 242 238 241
f 238 242 239
f 245 177 244
f 247 245 246
f 245 247 220
f 177 245 154
f 251 248 250
f 248 251 253
f 180 248 181
f 249 248 179
f 256 254 252
f 258 254 257
f 260 254 259
f 254 260 255
f 264 261 263
f 261 264 185
f 265 261 192
f 261 265 262
f 200 267 201
f 267 200 269
f 271 267 270
f 267 271 268
f 276 273 275
f 209 276 210
f 264 276 186
f 276 264 273
f 802 269 216
f 802 216 275
f 802 275 277
f 802 277 269
f 281 278 280
f 278 281 283
f 285 278 284
f 278 285 279
f 290 287 289
f 292 290 291
f 294 290 293
f 287 290 295
f 298 283 296
f 298 296 78
f 298 78 297
f 283 298 284
f 301 299 79
f 301 79 300
f 301 300 289
f 299 301 288
f 305 302 304
f 302 305 307
f 302 307 281
f 302 281 303
f 309 308 291
f 308 309 311
f 313 308 312
f 308 313 292
f 315 314 306
f 314 315 62
f 314 62 296
f 307 314 282
f 64 316 65
f 316 64 317
f 309 316 310
f 316 309 300
f 285 318 286
f 318 285 320
f 318 320 322
f 319 318 323
f 327 324 326
f 287 327 288
f 327 287 328
f 324 327 329
f 330 320 297
f 127 330 77
f 330 127 331
f 320 330 321
f 333 332 128
f 299 333 80
f 333 299 326
f 332 333 325
f 337 334 336
f 334 337 339
f 305 334 306
f 334 305 335
f 341 340 310
f 340 341 343
f 345 340 344
f 340 345 311
f 347 339 346
f 204 347 190
f 315 347 63
f 347 315 339
f 205 348 72
f 349 348 195
f 348 349 341
f 348 341 317
f 353 350 352
f 350 353 355
f 337 350 338
f 350 337 351
f 357 356 342
f 356 357 359
f 361 356 360
f 356 361 343
f 363 355 362
f 191 363 192
f 363 191 346
f 355 363 338
f 364 349 194
f 365 364 201
f 364 365 357
f 349 364 342
f 369 366 368
f 265 366 266
f 366 265 362
f 366 362 367
f 370 365 268
f 371 370 272
f 370 371 373
f 365 370 358
f 375 374 7
f 374 375 377
f 379 374 378
f 8 374 9
f 383 380 382
f 385 383 384
f 383 385 10
f 380 383 18
f 389 386 388
f 386 389 279
f 390 386 286
f 386 390 387
f 294 392 295
f 392 294 394
f 396 392 395
f 393 392 397
f 399 398 23
f 398 399 401
f 375 398 376
f 398 375 24
f 403 402 384
f 402 403 405
f 25 402 26
f 402 25 385
f 409 406 408
f 406 409 303
f 389 406 280
f 406 389 407
f 313 410 293
f 410 313 411
f 410 411 413
f 394 410 395
f 414 104 379
f 415 414 378
f 414 415 417
f 104 414 105
f 421 418 420
f 380 421 381
f 421 380 107
f 421 107 418
f 424 422 390
f 424 390 319
f 424 319 423
f 422 424 425
f 328 426 329
f 393 426 295
f 426 393 428
f 427 426 429
f 431 430 144
f 433 430 432
f 399 430 400
f 430 399 145
f 435 434 404
f 434 435 437
f 146 434 147
f 434 146 405
f 441 438 440
f 438 441 335
f 409 438 304
f 439 438 408
f 345 442 312
f 442 345 443
f 445 442 444
f 442 445 411
f 447 157 446
f 449 447 448
f 447 449 431
f 157 447 144
f 451 450 436
f 450 451 453
f 450 453 158
f 450 158 437
f 457 454 456
f 457 456 351
f 441 457 336
f 457 441 454
f 361 458 344
f 458 361 459
f 458 459 461
f 443 458 444
f 463 462 446
f 464 463 156
f 466 463 465
f 462 463 467
f 471 468 470
f 468 471 453
f 472 468 452
f 468 472 469
f 476 474 456
f 476 456 475
f 478 476 477
f 474 476 479
f 483 480 482
f 459 483 460
f 483 459 484
f 480 483 485
f 488 486 242
f 488 242 487
f 490 488 489
f 486 488 491
f 497 492 494
f 497 494 496
f 499 497 498
f 497 499 492
f 506 501 503
f 506 503 505
f 508 506 507
f 506 508 501
f 516 510 512
f 516 512 513
f 516 513 515
f 510 516 517
f 521 518 520
f 522 521 372
f 521 522 524
f 518 521 525
f 526 513 367
f 527 526 354
f 526 527 529
f 513 526 514
f 533 530 532
f 373 533 358
f 533 373 520
f 530 533 519
f 535 527 353
f 535 353 474
f 535 474 534
f 527 535 528
f 537 536 484
f 537 484 359
f 537 359 532
f 536 537 531
f 539 538 495
f 510 538 511
f 538 510 540
f 496 538 498
f 542 541 524
f 543 542 523
f 542 543 503
f 541 542 502
f 225 544 156
f 544 225 545
f 547 544 546
f 544 547 464
f 551 548 550
f 548 551 227
f 471 548 159
f 548 471 549
f 234 552 224
f 553 552 233
f 555 552 554
f 552 555 545
f 559 556 558
f 556 559 240
f 551 556 228
f 556 551 557
f 555 560 546
f 560 555 562
f 564 560 563
f 560 564 561
f 569 566 568
f 566 569 557
f 570 566 550
f 566 570 567
f 547 572 465
f 572 547 561
f 574 572 565
f 572 574 573
f 570 576 571
f 576 570 549
f 578 576 470
f 576 578 577
f 540 580 498
f 582 580 517
f 580 582 584
f 580 584 581
f 589 586 588
f 541 589 525
f 589 541 590
f 589 590 586
f 593 592 534
f 594 593 479
f 593 594 596
f 592 593 597
f 601 598 600
f 536 601 485
f 601 536 602
f 598 601 603
f 605 604 529
f 592 605 528
f 605 592 606
f 604 605 607
f 609 608 602
f 530 609 531
f 609 530 610
f 608 609 611
f 612 582 515
f 604 612 514
f 612 604 613
f 582 612 583
f 615 614 610
f 518 615 519
f 615 518 588
f 614 615 587
f 499 616 500
f 616 499 581
f 618 616 585
f 616 618 617
f 621 620 590
f 501 621 502
f 622 621 509
f 620 621 623
f 625 624 233
f 627 624 626
f 629 624 628
f 624 629 553
f 633 630 632
f 630 633 487
f 559 630 241
f 630 559 631
f 634 594 478
f 635 634 477
f 634 635 637
f 594 634 595
f 641 638 640
f 480 641 481
f 641 480 600
f 638 641 599
f 643 642 466
f 643 466 573
f 644 643 575
f 642 643 645
f 647 646 578
f 647 578 469
f 648 647 473
f 646 647 649
f 653 650 652
f 655 653 654
f 653 655 657
f 650 653 658
f 662 659 661
f 664 662 663
f 662 664 666
f 659 662 667
f 669 655 668
f 539 669 511
f 669 539 670
f 655 669 656
f 543 671 504
f 671 543 673
f 671 673 661
f 672 671 660
f 675 674 657
f 676 675 656
f 675 676 678
f 674 675 679
f 683 680 682
f 659 680 660
f 680 659 684
f 680 684 681
f 670 686 656
f 686 670 494
f 687 686 493
f 686 687 676
f 505 688 507
f 672 688 504
f 683 688 660
f 688 683 689
f 629 690 554
f 690 629 691
f 690 691 693
f 562 690 563
f 697 694 696
f 697 696 631
f 569 697 558
f 697 569 694
f 699 15 698
f 37 699 38
f 700 699 44
f 699 700 15
f 704 701 703
f 705 704 651
f 704 705 707
f 701 704 708
f 712 709 711
f 713 712 665
f 712 713 701
f 712 701 709
f 705 714 706
f 714 705 650
f 716 714 658
f 714 716 715
f 666 718 667
f 718 666 711
f 720 718 710
f 718 720 719
f 716 722 717
f 722 716 674
f 722 674 724
f 723 722 725
f 727 726 684
f 727 684 719
f 728 727 721
f 726 727 729
f 734 730 732
f 734 732 258
f 734 258 733
f 730 734 735
f 739 736 738
f 736 739 741
f 743 736 742
f 737 736 744
f 746 745 369
f 512 746 368
f 668 746 511
f 745 746 654
f 745 747 266
f 747 745 652
f 748 747 651
f 747 748 262
f 750 749 273
f 748 750 263
f 750 748 703
f 749 750 702
f 751 277 749
f 713 751 702
f 751 713 752
f 277 751 270
f 271 753 272
f 753 271 752
f 664 753 665
f 753 664 754
f 755 371 754
f 673 755 663
f 522 755 523
f 371 755 372
f 758 756 757
f 760 758 759
f 758 760 762
f 756 758 237
f 764 30 763
f 49 764 50
f 764 49 698
f 30 764 14
f 766 765 257
f 765 766 737
f 765 737 767
f 765 767 733
f 770 768 41
f 770 41 769
f 33 770 34
f 768 770 32
f 774 771 773
f 771 774 757
f 732 771 259
f 771 732 772
f 700 775 16
f 775 700 116
f 776 775 121
f 108 775 109
f 778 151 777
f 168 778 169
f 778 168 763
f 151 778 29
f 780 163 779
f 178 780 179
f 780 178 777
f 163 780 150
f 782 231 781
f 249 782 250
f 782 249 779
f 231 782 162
f 784 783 766
f 784 766 256
f 251 784 252
f 784 251 783
f 785 769 54
f 786 785 53
f 785 786 45
f 769 785 34
f 788 787 117
f 788 117 768
f 115 788 32
f 788 115 787
f 789 786 172
f 790 789 171
f 789 790 164
f 786 789 47
f 791 790 182
f 792 791 181
f 791 792 174
f 790 791 166
f 793 792 253
f 793 253 255
f 244 793 246
f 792 793 176
f 795 794 625
f 232 795 233
f 795 232 762
f 794 795 761
f 260 796 246
f 796 260 756
f 236 796 237
f 796 236 247
f 798 486 797
f 739 798 740
f 798 739 799
f 486 798 243
f 799 800 243
f 800 799 783
f 781 800 250
f 800 781 239

