# https://github.com/mikedh/trimesh

o aws_robomaker_warehouse_TrashCanC_01_visual-lib
v 0.71494739 -0.39351600 1.15659248
v 0.71494754 0.41534671 1.15659256
v 0.71494754 0.41534671 1.21108569
v 0.71494739 -0.39351588 1.21108561
v 0.00000000 0.44590862 1.15659256
v 0.00000000 0.44597127 1.27000000
v 0.28925040 0.44542712 1.21108569
v 0.28925040 0.44590862 1.15659256
v 0.71494739 -0.39351588 1.21108561
v 0.71494754 0.41534671 1.21108569
v 0.70091344 0.43814777 1.21108569
v 0.65881119 0.44542712 1.21108569
v 0.65881096 -0.20040954 1.21108561
v 0.65881096 -0.20040954 1.21108561
v 0.65881119 0.44542712 1.21108569
v 0.65881119 0.44542712 1.25631050
v 0.65881096 -0.20040954 1.25631020
v 0.28925040 0.44542712 1.25631050
v 0.65881119 0.44542712 1.25631050
v 0.70062941 0.43819483 1.25631035
v 0.71456871 0.41540935 1.25631035
v 0.65881096 -0.20040954 1.25631020
v 0.71456863 -0.33803048 1.25631035
v 0.71456863 -0.33803048 1.25631035
v 0.71456871 0.41540935 1.25631035
v 0.71456871 0.41540924 1.27000000
v 0.71456863 -0.33803048 1.27000000
v 0.65217874 0.44597127 1.27000000
v 0.65134926 -0.36859231 1.27000000
v 0.65217874 0.44597127 1.27000000
v 0.00000000 0.44597127 1.27000000
v 0.69914249 -0.41643745 1.21108561
v 0.65172802 -0.42407791 1.21108561
v 0.65172802 -0.42407791 1.15659248
v 0.69914249 -0.41643745 1.15659248
v 0.70091344 0.43814777 1.21108569
v 0.70066653 0.43826809 1.15659256
v 0.62367364 -0.26272747 1.21108561
v 0.59559156 -0.31995418 1.21108561
v 0.65172802 -0.42407791 1.21108561
v 0.69914249 -0.41643745 1.21108561
v 0.62367364 -0.26272747 1.25631020
v 0.59559156 -0.31995418 1.25631035
v 0.59559156 -0.31995418 1.21108561
v 0.62367364 -0.26272747 1.21108561
v 0.69876381 -0.36095186 1.25631035
v 0.65134926 -0.36859231 1.25631035
v 0.59559156 -0.31995418 1.25631035
v 0.62367364 -0.26272747 1.25631020
v 0.69876381 -0.36095186 1.27000000
v 0.65134926 -0.36859231 1.27000000
v 0.65134926 -0.36859231 1.25631035
v 0.69876381 -0.36095186 1.25631035
v 0.69897129 0.43833077 1.27000000
v 0.70062941 0.43819483 1.25631035
v 0.69914249 -0.41643745 1.21108561
v 0.69914249 -0.41643745 1.15659248
v 0.65881119 0.44542712 1.21108569
v 0.65782381 0.44590862 1.15659256
v 0.62367364 -0.26272747 1.21108561
v 0.69914249 -0.41643745 1.21108561
v 0.62367364 -0.26272747 1.25631020
v 0.62367364 -0.26272747 1.21108561
v 0.69876381 -0.36095186 1.25631035
v 0.62367364 -0.26272747 1.25631020
v 0.69876381 -0.36095186 1.27000000
v 0.69876381 -0.36095186 1.25631035
v 0.65217874 0.44597127 1.27000000
v 0.65881119 0.44542712 1.25631050
v 0.65881119 0.44542712 1.21108569
v 0.65782381 0.44590862 1.15659256
v 0.38204673 0.44590862 1.15659256
v 0.38204673 0.44542712 1.21108569
v 0.65881119 0.44542712 1.25631050
v 0.38204673 0.44542712 1.25631050
v 0.69876381 -0.36095186 1.27000000
v 0.71456863 -0.33803048 1.27000000
v 0.71456871 0.41540924 1.27000000
v 0.69897129 0.43833077 1.27000000
v 0.28925040 0.44542712 1.25631050
v 0.38204673 0.44542712 1.25631050
v 0.38204669 0.38944623 1.25631050
v 0.28925037 0.38944623 1.25631050
v 0.28925040 0.44590862 1.15659256
v 0.28925040 0.44542712 1.21108569
v 0.28925037 0.38944623 1.21108569
v 0.28925037 0.38992773 1.15659256
v 0.28925040 0.44542712 1.25631050
v 0.28925037 0.38944623 1.25631050
v 0.38204673 0.44542712 1.21108569
v 0.38204673 0.44590862 1.15659256
v 0.38204669 0.38992773 1.15659256
v 0.38204669 0.38944623 1.21108569
v 0.38204673 0.44542712 1.25631050
v 0.38204669 0.38944623 1.25631050
v 0.38204669 0.38992773 1.15659256
v 0.28925037 0.38992773 1.15659256
v 0.28925037 0.38944623 1.21108569
v 0.38204669 0.38944623 1.21108569
v 0.28925037 0.38944623 1.25631050
v 0.38204669 0.38944623 1.25631050
v -0.71494739 -0.39351600 1.15659248
v -0.71494739 -0.39351588 1.21108561
v -0.71494754 0.41534671 1.21108569
v -0.71494754 0.41534671 1.15659256
v -0.28925040 0.44590862 1.15659256
v -0.28925040 0.44542712 1.21108569
v -0.71494739 -0.39351588 1.21108561
v -0.65881096 -0.20040954 1.21108561
v -0.65881119 0.44542712 1.21108569
v -0.70091344 0.43814777 1.21108569
v -0.71494754 0.41534671 1.21108569
v -0.65881096 -0.20040954 1.21108561
v -0.65881096 -0.20040954 1.25631020
v -0.65881119 0.44542712 1.25631050
v -0.65881119 0.44542712 1.21108569
v -0.28925040 0.44542712 1.25631050
v -0.65881096 -0.20040954 1.25631020
v -0.71456863 -0.33803048 1.25631035
v -0.71456871 0.41540935 1.25631035
v -0.70062941 0.43819483 1.25631035
v -0.65881119 0.44542712 1.25631050
v -0.71456863 -0.33803048 1.25631035
v -0.71456863 -0.33803048 1.27000000
v -0.71456871 0.41540924 1.27000000
v -0.71456871 0.41540935 1.25631035
v -0.65134926 -0.36859231 1.27000000
v -0.59559156 -0.31995418 1.21108561
v -0.65172802 -0.42407791 1.21108561
v 0.59559156 -0.31995418 1.25631035
v -0.59559156 -0.31995418 1.25631035
v -0.59559156 -0.31995418 1.21108561
v 0.59559156 -0.31995418 1.21108561
v -0.65134926 -0.36859231 1.25631035
v -0.59559156 -0.31995418 1.25631035
v -0.65134926 -0.36859231 1.27000000
v -0.65134926 -0.36859231 1.25631035
v -0.69914249 -0.41643745 1.21108561
v -0.69914249 -0.41643745 1.15659248
v -0.65172802 -0.42407791 1.15659248
v -0.65172802 -0.42407791 1.21108561
v -0.70091344 0.43814777 1.21108569
v -0.70066653 0.43826809 1.15659256
v -0.62367364 -0.26272747 1.21108561
v -0.69914249 -0.41643745 1.21108561
v -0.62367364 -0.26272747 1.25631020
v -0.62367364 -0.26272747 1.21108561
v -0.59559156 -0.31995418 1.21108561
v -0.59559156 -0.31995418 1.25631035
v -0.69876381 -0.36095186 1.25631035
v -0.62367364 -0.26272747 1.25631020
v -0.69876381 -0.36095186 1.27000000
v -0.69876381 -0.36095186 1.25631035
v -0.69897129 0.43833077 1.27000000
v -0.70062941 0.43819483 1.25631035
v -0.69914249 -0.41643745 1.15659248
v -0.69914249 -0.41643745 1.21108561
v -0.65881119 0.44542712 1.21108569
v -0.65782381 0.44590862 1.15659256
v -0.69914249 -0.41643745 1.21108561
v -0.62367364 -0.26272747 1.21108561
v -0.62367364 -0.26272747 1.21108561
v -0.62367364 -0.26272747 1.25631020
v -0.62367364 -0.26272747 1.25631020
v -0.69876381 -0.36095186 1.25631035
v -0.69876381 -0.36095186 1.25631035
v -0.69876381 -0.36095186 1.27000000
v -0.65217874 0.44597127 1.27000000
v -0.65881119 0.44542712 1.25631050
v -0.65881119 0.44542712 1.21108569
v -0.38204673 0.44542712 1.21108569
v -0.38204673 0.44590862 1.15659256
v -0.65782381 0.44590862 1.15659256
v -0.65881119 0.44542712 1.25631050
v -0.38204673 0.44542712 1.25631050
v -0.65217874 0.44597127 1.27000000
v -0.71456871 0.41540924 1.27000000
v -0.71456863 -0.33803048 1.27000000
v -0.69876381 -0.36095186 1.27000000
v -0.69897129 0.43833077 1.27000000
v -0.65217874 0.44597127 1.27000000
v -0.28925040 0.44542712 1.25631050
v -0.28925037 0.38944623 1.25631050
v -0.38204669 0.38944623 1.25631050
v -0.38204673 0.44542712 1.25631050
v -0.28925040 0.44590862 1.15659256
v -0.28925037 0.38992773 1.15659256
v -0.28925037 0.38944623 1.21108569
v -0.28925040 0.44542712 1.21108569
v -0.28925037 0.38944623 1.25631050
v -0.28925040 0.44542712 1.25631050
v -0.38204673 0.44542712 1.21108569
v -0.38204669 0.38944623 1.21108569
v -0.38204669 0.38992773 1.15659256
v -0.38204673 0.44590862 1.15659256
v -0.38204673 0.44542712 1.25631050
v -0.38204669 0.38944623 1.25631050
v -0.38204669 0.38992773 1.15659256
v -0.38204669 0.38944623 1.21108569
v -0.28925037 0.38944623 1.21108569
v -0.28925037 0.38992773 1.15659256
v -0.38204669 0.38944623 1.25631050
v -0.28925037 0.38944623 1.25631050
v -0.58758812 0.35280590 0.20495651
v 0.58758812 0.35280590 0.20495651
v 0.58758812 -0.35280586 0.20495651
v -0.58758812 -0.35280586 0.20495651
v -0.58758812 -0.35280586 0.20495651
v 0.58758812 -0.35280586 0.20495651
v 0.62425491 -0.37328606 1.10718125
v -0.62425491 -0.37328606 1.10718125
v 0.63164530 -0.30874861 0.20495651
v 0.63164530 0.30874868 0.20495651
v 0.66831213 0.32922896 1.10718125
v 0.66831213 -0.32922892 1.10718125
v 0.58758812 0.35280590 0.20495651
v -0.58758812 0.35280590 0.20495651
v -0.62425491 0.37328606 1.10718125
v 0.62425491 0.37328606 1.10718125
v -0.63164530 0.30874868 0.20495651
v -0.63164530 -0.30874861 0.20495651
v -0.66831213 -0.32922892 1.10718125
v -0.66831213 0.32922896 1.10718125
v -0.62425491 -0.37328606 1.10718125
v 0.62425491 -0.37328606 1.10718125
v 0.67964116 -0.44636351 1.08078948
v -0.67964116 -0.44636351 1.08078948
v 0.66831213 -0.32922892 1.10718125
v 0.66831213 0.32922896 1.10718125
v 0.72369830 0.40230640 1.08078948
v 0.72369830 -0.40230640 1.08078948
v 0.62425491 0.37328606 1.10718125
v -0.62425491 0.37328606 1.10718125
v -0.67964116 0.44636351 1.08078948
v 0.67964116 0.44636351 1.08078948
v -0.66831213 0.32922896 1.10718125
v -0.66831213 -0.32922892 1.10718125
v -0.72369830 -0.40230640 1.08078948
v -0.72369830 0.40230640 1.08078948
v -0.67964116 -0.44636351 1.08078948
v 0.67964116 -0.44636351 1.08078948
v 0.67964100 -0.44636343 1.15899619
v -0.67964100 -0.44636343 1.15899619
v 0.72369830 -0.40230640 1.08078948
v 0.72369830 0.40230640 1.08078948
v 0.72369822 0.40230629 1.15899619
v 0.72369822 -0.40230621 1.15899619
v 0.67964116 0.44636351 1.08078948
v -0.67964116 0.44636351 1.08078948
v -0.67964100 0.44636351 1.15899619
v 0.67964100 0.44636351 1.15899619
v -0.72369830 0.40230640 1.08078948
v -0.72369830 -0.40230640 1.08078948
v -0.72369822 -0.40230621 1.15899619
v -0.72369822 0.40230629 1.15899619
v -0.67964100 -0.44636343 1.15899619
v 0.67964100 -0.44636343 1.15899619
v 0.57211637 -0.30372839 1.15899596
v -0.57211637 -0.30372839 1.15899596
v 0.72369822 -0.40230621 1.15899619
v 0.72369822 0.40230629 1.15899619
v 0.61617359 0.25967134 1.15899596
v 0.61617359 -0.25967129 1.15899596
v 0.67964100 0.44636351 1.15899619
v -0.67964100 0.44636351 1.15899619
v -0.57211637 0.30372845 1.15899596
v 0.57211637 0.30372845 1.15899596
v -0.72369822 0.40230629 1.15899619
v -0.72369822 -0.40230621 1.15899619
v -0.61617359 -0.25967129 1.15899596
v -0.61617359 0.25967134 1.15899596
v 0.65729784 -0.36227178 1.10718125
v 0.62063097 -0.34179150 0.20495651
v -0.62063097 -0.34179150 0.20495651
v -0.65729784 -0.36227178 1.10718125
v 0.65729784 0.36227185 1.10718125
v 0.62063097 0.34179158 0.20495651
v -0.65729784 0.36227185 1.10718125
v -0.62063097 0.34179158 0.20495651
v -0.71268409 -0.43534922 1.08078948
v -0.65729784 -0.36227178 1.10718125
v 0.71268409 -0.43534922 1.08078948
v 0.65729784 -0.36227178 1.10718125
v -0.71268409 0.43534930 1.08078948
v -0.65729784 0.36227185 1.10718125
v 0.71268409 0.43534930 1.08078948
v 0.65729784 0.36227185 1.10718125
v -0.71268394 -0.43534911 1.15899619
v -0.71268409 -0.43534922 1.08078948
v 0.71268394 -0.43534911 1.15899619
v 0.71268409 -0.43534922 1.08078948
v -0.71268394 0.43534918 1.15899619
v -0.71268409 0.43534930 1.08078948
v 0.71268394 0.43534918 1.15899619
v 0.71268409 0.43534930 1.08078948
v -0.60515934 -0.29271418 1.15899596
v -0.71268394 -0.43534911 1.15899619
v 0.60515934 -0.29271418 1.15899596
v 0.71268394 -0.43534911 1.15899619
v -0.60515934 0.29271424 1.15899596
v -0.71268394 0.43534918 1.15899619
v 0.60515934 0.29271424 1.15899596
v 0.71268394 0.43534918 1.15899619
v 0.65729784 -0.36227178 1.10718125
v 0.62063097 -0.34179150 0.20495651
v -0.62063097 -0.34179150 0.20495651
v -0.65729784 -0.36227178 1.10718125
v 0.65729784 0.36227185 1.10718125
v 0.62063097 0.34179158 0.20495651
v -0.65729784 0.36227185 1.10718125
v -0.62063097 0.34179158 0.20495651
v -0.71268409 -0.43534922 1.08078948
v -0.65729784 -0.36227178 1.10718125
v 0.71268409 -0.43534922 1.08078948
v 0.65729784 -0.36227178 1.10718125
v -0.71268409 0.43534930 1.08078948
v -0.65729784 0.36227185 1.10718125
v 0.71268409 0.43534930 1.08078948
v 0.65729784 0.36227185 1.10718125
v -0.71268394 -0.43534911 1.15899619
v -0.71268409 -0.43534922 1.08078948
v 0.71268394 -0.43534911 1.15899619
v 0.71268409 -0.43534922 1.08078948
v -0.71268394 0.43534918 1.15899619
v -0.71268409 0.43534930 1.08078948
v 0.71268394 0.43534918 1.15899619
v 0.71268409 0.43534930 1.08078948
v -0.60515934 -0.29271418 1.15899596
v -0.71268394 -0.43534911 1.15899619
v 0.60515934 -0.29271418 1.15899596
v 0.71268394 -0.43534911 1.15899619
v -0.60515934 0.29271424 1.15899596
v -0.71268394 0.43534918 1.15899619
v 0.60515934 0.29271424 1.15899596
v 0.71268394 0.43534918 1.15899619
v -0.62063097 -0.34179150 0.20495651
v -0.62063097 0.34179158 0.20495651
v -0.63164530 -0.30874861 0.20495651
v -0.63164530 0.30874868 0.20495651
v 0.62063097 0.34179158 0.20495651
v 0.62063097 -0.34179150 0.20495651
v 0.63164530 0.30874868 0.20495651
v 0.63164530 -0.30874861 0.20495651
v 0.53008123 0.36350728 0.94970734
v 0.53008123 0.43860028 1.10695719
v 0.53008123 0.36350728 1.10695719
v 0.53008123 0.36350728 0.94970734
v 0.50959867 0.36350728 0.94970734
v 0.50959867 0.43860028 1.10695719
v 0.53008123 0.43860028 1.10695719
v 0.50959867 0.36350728 0.94970734
v 0.50959867 0.36350728 1.10695719
v 0.50959867 0.43860028 1.10695719
v 0.40012127 0.36350728 0.94970734
v 0.40012127 0.43860028 1.10695719
v 0.40012127 0.36350728 1.10695719
v 0.40012127 0.36350728 0.94970734
v 0.37963870 0.36350728 0.94970734
v 0.37963870 0.43860028 1.10695719
v 0.40012127 0.43860028 1.10695719
v 0.37963870 0.36350728 0.94970734
v 0.37963870 0.36350728 1.10695719
v 0.37963870 0.43860028 1.10695719
v 0.27016125 0.36350728 0.94970734
v 0.27016125 0.43860028 1.10695719
v 0.27016125 0.36350728 1.10695719
v 0.27016125 0.36350728 0.94970734
v 0.24967868 0.36350728 0.94970734
v 0.24967868 0.43860028 1.10695719
v 0.27016125 0.43860028 1.10695719
v 0.24967868 0.36350728 0.94970734
v 0.24967868 0.36350728 1.10695719
v 0.24967868 0.43860028 1.10695719
v 0.14020124 0.36350728 0.94970734
v 0.14020124 0.43860028 1.10695719
v 0.14020124 0.36350728 1.10695719
v 0.14020124 0.36350728 0.94970734
v 0.11971865 0.36350728 0.94970734
v 0.11971865 0.43860028 1.10695719
v 0.14020124 0.43860028 1.10695719
v 0.11971865 0.36350728 0.94970734
v 0.11971865 0.36350728 1.10695719
v 0.11971865 0.43860028 1.10695719
v 0.01024122 0.36350728 0.94970734
v 0.01024122 0.43860028 1.10695719
v 0.01024122 0.36350728 1.10695719
v -0.00512067 0.36350728 0.94970734
v -0.01024134 0.43860028 1.10695719
v 0.01024122 0.43860028 1.10695719
v 0.01024122 0.36350728 0.94970734
v -0.53008127 0.36350728 0.94970734
v -0.53008127 0.36350728 1.10695719
v -0.53008127 0.43860028 1.10695719
v -0.53008127 0.36350728 0.94970734
v -0.53008127 0.43860028 1.10695719
v -0.50959875 0.43860028 1.10695719
v -0.50959875 0.36350728 0.94970734
v -0.50959875 0.36350728 0.94970734
v -0.50959875 0.43860028 1.10695719
v -0.50959875 0.36350728 1.10695719
v -0.40012142 0.36350728 0.94970734
v -0.40012142 0.36350728 1.10695719
v -0.40012142 0.43860028 1.10695719
v -0.40012142 0.36350728 0.94970734
v -0.40012142 0.43860028 1.10695719
v -0.37963882 0.43860028 1.10695719
v -0.37963882 0.36350728 0.94970734
v -0.37963882 0.36350728 0.94970734
v -0.37963882 0.43860028 1.10695719
v -0.37963882 0.36350728 1.10695719
v -0.27016136 0.36350728 0.94970734
v -0.27016136 0.36350728 1.10695719
v -0.27016136 0.43860028 1.10695719
v -0.27016136 0.36350728 0.94970734
v -0.27016136 0.43860028 1.10695719
v -0.24967876 0.43860028 1.10695719
v -0.24967876 0.36350728 0.94970734
v -0.24967876 0.36350728 0.94970734
v -0.24967876 0.43860028 1.10695719
v -0.24967876 0.36350728 1.10695719
v -0.14020132 0.36350728 0.94970734
v -0.14020132 0.36350728 1.10695719
v -0.14020132 0.43860028 1.10695719
v -0.14020132 0.36350728 0.94970734
v -0.14020132 0.43860028 1.10695719
v -0.11971877 0.43860028 1.10695719
v -0.11971877 0.36350728 0.94970734
v -0.11971877 0.36350728 0.94970734
v -0.11971877 0.43860028 1.10695719
v -0.11971877 0.36350728 1.10695719
v -0.00512067 0.36350728 0.94970734
v -0.01024134 0.36350728 1.10695719
v -0.01024134 0.43860028 1.10695719
v 0.53008123 -0.36350728 0.94970734
v 0.53008123 -0.36350728 1.10695719
v 0.53008123 -0.43860028 1.10695719
v 0.53008123 -0.36350728 0.94970734
v 0.53008123 -0.43860028 1.10695719
v 0.50959867 -0.43860028 1.10695719
v 0.50959867 -0.36350728 0.94970734
v 0.50959867 -0.36350728 0.94970734
v 0.50959867 -0.43860028 1.10695719
v 0.50959867 -0.36350728 1.10695719
v 0.40012127 -0.36350728 0.94970734
v 0.40012127 -0.36350728 1.10695719
v 0.40012127 -0.43860028 1.10695719
v 0.40012127 -0.36350728 0.94970734
v 0.40012127 -0.43860028 1.10695719
v 0.37963870 -0.43860028 1.10695719
v 0.37963870 -0.36350728 0.94970734
v 0.37963870 -0.36350728 0.94970734
v 0.37963870 -0.43860028 1.10695719
v 0.37963870 -0.36350728 1.10695719
v 0.27016125 -0.36350728 0.94970734
v 0.27016125 -0.36350728 1.10695719
v 0.27016125 -0.43860028 1.10695719
v 0.27016125 -0.36350728 0.94970734
v 0.27016125 -0.43860028 1.10695719
v 0.24967868 -0.43860028 1.10695719
v 0.24967868 -0.36350728 0.94970734
v 0.24967868 -0.36350728 0.94970734
v 0.24967868 -0.43860028 1.10695719
v 0.24967868 -0.36350728 1.10695719
v 0.14020124 -0.36350728 0.94970734
v 0.14020124 -0.36350728 1.10695719
v 0.14020124 -0.43860028 1.10695719
v 0.14020124 -0.36350728 0.94970734
v 0.14020124 -0.43860028 1.10695719
v 0.11971865 -0.43860028 1.10695719
v 0.11971865 -0.36350728 0.94970734
v 0.11971865 -0.36350728 0.94970734
v 0.11971865 -0.43860028 1.10695719
v 0.11971865 -0.36350728 1.10695719
v 0.01024122 -0.36350728 0.94970734
v 0.01024122 -0.36350728 1.10695719
v 0.01024122 -0.43860028 1.10695719
v -0.00512067 -0.36350728 0.94970734
v 0.01024122 -0.36350728 0.94970734
v 0.01024122 -0.43860028 1.10695719
v -0.01024134 -0.43860028 1.10695719
v -0.53008127 -0.36350728 0.94970734
v -0.53008127 -0.43860028 1.10695719
v -0.53008127 -0.36350728 1.10695719
v -0.53008127 -0.36350728 0.94970734
v -0.50959875 -0.36350728 0.94970734
v -0.50959875 -0.43860028 1.10695719
v -0.53008127 -0.43860028 1.10695719
v -0.50959875 -0.36350728 0.94970734
v -0.50959875 -0.36350728 1.10695719
v -0.50959875 -0.43860028 1.10695719
v -0.40012142 -0.36350728 0.94970734
v -0.40012142 -0.43860028 1.10695719
v -0.40012142 -0.36350728 1.10695719
v -0.40012142 -0.36350728 0.94970734
v -0.37963882 -0.36350728 0.94970734
v -0.37963882 -0.43860028 1.10695719
v -0.40012142 -0.43860028 1.10695719
v -0.37963882 -0.36350728 0.94970734
v -0.37963882 -0.36350728 1.10695719
v -0.37963882 -0.43860028 1.10695719
v -0.27016136 -0.36350728 0.94970734
v -0.27016136 -0.43860028 1.10695719
v -0.27016136 -0.36350728 1.10695719
v -0.27016136 -0.36350728 0.94970734
v -0.24967876 -0.36350728 0.94970734
v -0.24967876 -0.43860028 1.10695719
v -0.27016136 -0.43860028 1.10695719
v -0.24967876 -0.36350728 0.94970734
v -0.24967876 -0.36350728 1.10695719
v -0.24967876 -0.43860028 1.10695719
v -0.14020132 -0.36350728 0.94970734
v -0.14020132 -0.43860028 1.10695719
v -0.14020132 -0.36350728 1.10695719
v -0.14020132 -0.36350728 0.94970734
v -0.11971877 -0.36350728 0.94970734
v -0.11971877 -0.43860028 1.10695719
v -0.14020132 -0.43860028 1.10695719
v -0.11971877 -0.36350728 0.94970734
v -0.11971877 -0.36350728 1.10695719
v -0.11971877 -0.43860028 1.10695719
v -0.00512067 -0.36350728 0.94970734
v -0.01024134 -0.43860028 1.10695719
v -0.01024134 -0.36350728 1.10695719
v -0.64707461 0.14020119 0.94970734
v -0.72216761 0.14020119 1.10695719
v -0.64707461 0.14020119 1.10695719
v -0.64707461 0.14020119 0.94970734
v -0.64707461 0.11971852 0.94970734
v -0.72216761 0.11971852 1.10695719
v -0.72216761 0.14020119 1.10695719
v -0.64707461 0.11971852 0.94970734
v -0.64707461 0.11971852 1.10695719
v -0.72216761 0.11971852 1.10695719
v -0.64707461 0.01024143 0.94970734
v -0.72216761 0.01024143 1.10695719
v -0.64707461 0.01024143 1.10695719
v -0.64707461 0.01024143 0.94970734
v -0.64707461 -0.01024137 0.94970734
v -0.72216761 -0.01024137 1.10695719
v -0.72216761 0.01024143 1.10695719
v -0.64707461 -0.01024137 0.94970734
v -0.64707461 -0.01024137 1.10695719
v -0.72216761 -0.01024137 1.10695719
v -0.64707461 -0.11971881 0.94970734
v -0.72216761 -0.11971881 1.10695719
v -0.64707461 -0.11971881 1.10695719
v -0.64707461 -0.11971881 0.94970734
v -0.64707461 -0.14020150 0.94970734
v -0.72216761 -0.14020150 1.10695719
v -0.72216761 -0.11971881 1.10695719
v -0.64707461 -0.14020150 0.94970734
v -0.64707461 -0.14020150 1.10695719
v -0.72216761 -0.14020150 1.10695719
v 0.64707461 0.14020119 0.94970734
v 0.64707461 0.14020119 1.10695719
v 0.72216761 0.14020119 1.10695719
v 0.64707461 0.14020119 0.94970734
v 0.72216761 0.14020119 1.10695719
v 0.72216761 0.11971852 1.10695719
v 0.64707461 0.11971852 0.94970734
v 0.64707461 0.11971852 0.94970734
v 0.72216761 0.11971852 1.10695719
v 0.64707461 0.11971852 1.10695719
v 0.64707461 0.01024143 0.94970734
v 0.64707461 0.01024143 1.10695719
v 0.72216761 0.01024143 1.10695719
v 0.64707461 0.01024143 0.94970734
v 0.72216761 0.01024143 1.10695719
v 0.72216761 -0.01024137 1.10695719
v 0.64707461 -0.01024137 0.94970734
v 0.64707461 -0.01024137 0.94970734
v 0.72216761 -0.01024137 1.10695719
v 0.64707461 -0.01024137 1.10695719
v 0.64707461 -0.11971881 0.94970734
v 0.64707461 -0.11971881 1.10695719
v 0.72216761 -0.11971881 1.10695719
v 0.64707461 -0.11971881 0.94970734
v 0.72216761 -0.11971881 1.10695719
v 0.72216761 -0.14020150 1.10695719
v 0.64707461 -0.14020150 0.94970734
v 0.64707461 -0.14020150 0.94970734
v 0.72216761 -0.14020150 1.10695719
v 0.64707461 -0.14020150 1.10695719
v 0.60425931 -0.30765618 0.09360990
v 0.59852685 -0.30765618 0.06109952
v 0.59852685 -0.25961458 0.06109952
v 0.60425931 -0.25961458 0.09360989
v 0.58202097 -0.30765618 0.03251039
v 0.58202097 -0.25961458 0.03251039
v 0.55673235 -0.30765618 0.01129076
v 0.55673235 -0.25961458 0.01129076
v 0.52571128 -0.30765618 0.00000003
v 0.52571128 -0.25961458 0.00000003
v 0.49269940 -0.30765618 0.00000003
v 0.49269940 -0.25961458 0.00000003
v 0.49269940 -0.30765618 0.00000003
v 0.46167836 -0.30765618 0.01129077
v 0.46167836 -0.25961458 0.01129077
v 0.49269940 -0.25961458 0.00000003
v 0.43638983 -0.30765618 0.03251039
v 0.43638983 -0.25961458 0.03251039
v 0.41988387 -0.30765618 0.06109952
v 0.41988387 -0.25961458 0.06109952
v 0.41415140 -0.30765618 0.09360988
v 0.41415140 -0.25961458 0.09360987
v 0.41988387 -0.30765618 0.12612024
v 0.41988387 -0.25961458 0.12612024
v 0.43638979 -0.30765618 0.15470938
v 0.43638979 -0.25961458 0.15470938
v 0.46167836 -0.30765618 0.17592901
v 0.46167836 -0.25961458 0.17592901
v 0.49269936 -0.30765618 0.18721976
v 0.49269936 -0.25961458 0.18721976
v 0.52571124 -0.30765618 0.18721976
v 0.52571124 -0.25961458 0.18721976
v 0.55673235 -0.30765618 0.17592906
v 0.55673235 -0.25961458 0.17592906
v 0.58202085 -0.30765618 0.15470944
v 0.58202085 -0.25961458 0.15470944
v 0.59852685 -0.30765618 0.12612032
v 0.59852685 -0.25961458 0.12612032
v 0.49269936 -0.25961458 0.18721976
v 0.52571124 -0.25961458 0.18721976
v 0.55673235 -0.25961458 0.17592906
v 0.46167836 -0.25961458 0.17592901
v 0.58202085 -0.25961458 0.15470944
v 0.43638979 -0.25961458 0.15470938
v 0.59852685 -0.25961458 0.12612032
v 0.41988387 -0.25961458 0.12612024
v 0.60425931 -0.25961458 0.09360989
v 0.41415140 -0.25961458 0.09360987
v 0.59852685 -0.25961458 0.06109952
v 0.41988387 -0.25961458 0.06109952
v 0.58202097 -0.25961458 0.03251039
v 0.43638983 -0.25961458 0.03251039
v 0.55673235 -0.25961458 0.01129076
v 0.46167836 -0.25961458 0.01129077
v 0.52571128 -0.25961458 0.00000003
v 0.49269940 -0.25961458 0.00000003
v 0.49269940 -0.30765618 0.00000003
v 0.52571128 -0.30765618 0.00000003
v 0.55673235 -0.30765618 0.01129076
v 0.46167836 -0.30765618 0.01129077
v 0.58202097 -0.30765618 0.03251039
v 0.43638983 -0.30765618 0.03251039
v 0.59852685 -0.30765618 0.06109952
v 0.41988387 -0.30765618 0.06109952
v 0.60425931 -0.30765618 0.09360990
v 0.41415140 -0.30765618 0.09360988
v 0.59852685 -0.30765618 0.12612032
v 0.41988387 -0.30765618 0.12612024
v 0.58202085 -0.30765618 0.15470944
v 0.43638979 -0.30765618 0.15470938
v 0.55673235 -0.30765618 0.17592906
v 0.46167836 -0.30765618 0.17592901
v 0.52571124 -0.30765618 0.18721976
v 0.49269936 -0.30765618 0.18721976
v -0.60425920 -0.30765618 0.09360990
v -0.60425920 -0.25961458 0.09360989
v -0.59852692 -0.25961458 0.06109952
v -0.59852692 -0.30765618 0.06109952
v -0.58202104 -0.25961458 0.03251039
v -0.58202104 -0.30765618 0.03251039
v -0.55673224 -0.25961458 0.01129076
v -0.55673224 -0.30765618 0.01129076
v -0.52571128 -0.25961458 0.00000003
v -0.52571128 -0.30765618 0.00000003
v -0.52571128 -0.30765618 0.00000003
v -0.52571128 -0.25961458 0.00000003
v -0.49269936 -0.25961458 0.00000003
v -0.49269936 -0.30765618 0.00000003
v -0.46167844 -0.25961458 0.01129077
v -0.46167844 -0.30765618 0.01129077
v -0.43638975 -0.25961458 0.03251039
v -0.43638975 -0.30765618 0.03251039
v -0.41988375 -0.25961458 0.06109952
v -0.41988375 -0.30765618 0.06109952
v -0.41415140 -0.25961458 0.09360987
v -0.41415140 -0.30765618 0.09360988
v -0.41988375 -0.25961458 0.12612024
v -0.41988375 -0.30765618 0.12612024
v -0.43638975 -0.25961458 0.15470938
v -0.43638975 -0.30765618 0.15470938
v -0.46167832 -0.25961458 0.17592901
v -0.46167832 -0.30765618 0.17592901
v -0.49269936 -0.25961458 0.18721976
v -0.49269936 -0.30765618 0.18721976
v -0.52571124 -0.25961458 0.18721976
v -0.52571124 -0.30765618 0.18721976
v -0.55673224 -0.25961458 0.17592906
v -0.55673224 -0.30765618 0.17592906
v -0.58202085 -0.25961458 0.15470944
v -0.58202085 -0.30765618 0.15470944
v -0.59852692 -0.25961458 0.12612032
v -0.59852692 -0.30765618 0.12612032
v -0.49269936 -0.25961458 0.18721976
v -0.46167832 -0.25961458 0.17592901
v -0.55673224 -0.25961458 0.17592906
v -0.52571124 -0.25961458 0.18721976
v -0.43638975 -0.25961458 0.15470938
v -0.58202085 -0.25961458 0.15470944
v -0.41988375 -0.25961458 0.12612024
v -0.59852692 -0.25961458 0.12612032
v -0.41415140 -0.25961458 0.09360987
v -0.60425920 -0.25961458 0.09360989
v -0.41988375 -0.25961458 0.06109952
v -0.59852692 -0.25961458 0.06109952
v -0.43638975 -0.25961458 0.03251039
v -0.58202104 -0.25961458 0.03251039
v -0.46167844 -0.25961458 0.01129077
v -0.55673224 -0.25961458 0.01129076
v -0.49269936 -0.25961458 0.00000003
v -0.52571128 -0.25961458 0.00000003
v -0.49269936 -0.30765618 0.00000003
v -0.46167844 -0.30765618 0.01129077
v -0.55673224 -0.30765618 0.01129076
v -0.52571128 -0.30765618 0.00000003
v -0.43638975 -0.30765618 0.03251039
v -0.58202104 -0.30765618 0.03251039
v -0.41988375 -0.30765618 0.06109952
v -0.59852692 -0.30765618 0.06109952
v -0.41415140 -0.30765618 0.09360988
v -0.60425920 -0.30765618 0.09360990
v -0.41988375 -0.30765618 0.12612024
v -0.59852692 -0.30765618 0.12612032
v -0.43638975 -0.30765618 0.15470938
v -0.58202085 -0.30765618 0.15470944
v -0.46167832 -0.30765618 0.17592901
v -0.55673224 -0.30765618 0.17592906
v -0.49269936 -0.30765618 0.18721976
v -0.52571124 -0.30765618 0.18721976
v 0.60425931 0.30765615 0.09360987
v 0.60425931 0.25961453 0.09360987
v 0.59852685 0.25961453 0.06109951
v 0.59852685 0.30765615 0.06109951
v 0.58202097 0.25961453 0.03251037
v 0.58202097 0.30765615 0.03251036
v 0.55673235 0.25961453 0.01129074
v 0.55673235 0.30765615 0.01129074
v 0.52571128 0.25961453 0.00000000
v 0.52571128 0.30765615 0.00000000
v 0.49269940 0.25961453 0.00000000
v 0.49269940 0.30765615 0.00000000
v 0.49269940 0.30765615 0.00000000
v 0.49269940 0.25961453 0.00000000
v 0.46167840 0.25961453 0.01129075
v 0.46167840 0.30765615 0.01129075
v 0.43638979 0.25961453 0.03251037
v 0.43638979 0.30765615 0.03251036
v 0.41988387 0.25961453 0.06109949
v 0.41988387 0.30765615 0.06109949
v 0.41415140 0.25961453 0.09360986
v 0.41415140 0.30765615 0.09360985
v 0.41988387 0.25961453 0.12612022
v 0.41988387 0.30765615 0.12612022
v 0.43638979 0.25961453 0.15470934
v 0.43638979 0.30765615 0.15470934
v 0.46167836 0.25961453 0.17592899
v 0.46167836 0.30765615 0.17592899
v 0.49269940 0.25961453 0.18721972
v 0.49269940 0.30765615 0.18721972
v 0.52571124 0.25961453 0.18721974
v 0.52571124 0.30765615 0.18721974
v 0.55673235 0.25961453 0.17592902
v 0.55673235 0.30765615 0.17592902
v 0.58202085 0.25961453 0.15470942
v 0.58202085 0.30765615 0.15470940
v 0.59852685 0.25961453 0.12612030
v 0.59852685 0.30765615 0.12612030
v 0.49269940 0.25961453 0.18721972
v 0.46167836 0.25961453 0.17592899
v 0.55673235 0.25961453 0.17592902
v 0.52571124 0.25961453 0.18721974
v 0.43638979 0.25961453 0.15470934
v 0.58202085 0.25961453 0.15470942
v 0.41988387 0.25961453 0.12612022
v 0.59852685 0.25961453 0.12612030
v 0.41415140 0.25961453 0.09360986
v 0.60425931 0.25961453 0.09360987
v 0.41988387 0.25961453 0.06109949
v 0.59852685 0.25961453 0.06109951
v 0.43638979 0.25961453 0.03251037
v 0.58202097 0.25961453 0.03251037
v 0.46167840 0.25961453 0.01129075
v 0.55673235 0.25961453 0.01129074
v 0.49269940 0.25961453 0.00000000
v 0.52571128 0.25961453 0.00000000
v 0.49269940 0.30765615 0.00000000
v 0.46167840 0.30765615 0.01129075
v 0.55673235 0.30765615 0.01129074
v 0.52571128 0.30765615 0.00000000
v 0.43638979 0.30765615 0.03251036
v 0.58202097 0.30765615 0.03251036
v 0.41988387 0.30765615 0.06109949
v 0.59852685 0.30765615 0.06109951
v 0.41415140 0.30765615 0.09360985
v 0.60425931 0.30765615 0.09360987
v 0.41988387 0.30765615 0.12612022
v 0.59852685 0.30765615 0.12612030
v 0.43638979 0.30765615 0.15470934
v 0.58202085 0.30765615 0.15470940
v 0.46167836 0.30765615 0.17592899
v 0.55673235 0.30765615 0.17592902
v 0.49269940 0.30765615 0.18721972
v 0.52571124 0.30765615 0.18721974
v -0.60425920 0.30765615 0.09360987
v -0.59852692 0.30765615 0.06109951
v -0.59852692 0.25961453 0.06109951
v -0.60425920 0.25961453 0.09360987
v -0.58202104 0.30765615 0.03251036
v -0.58202104 0.25961453 0.03251037
v -0.55673224 0.30765615 0.01129074
v -0.55673224 0.25961453 0.01129074
v -0.52571128 0.30765615 0.00000000
v -0.52571128 0.25961453 0.00000000
v -0.52571128 0.30765615 0.00000000
v -0.49269936 0.30765615 0.00000000
v -0.49269936 0.25961453 0.00000000
v -0.52571128 0.25961453 0.00000000
v -0.46167844 0.30765615 0.01129075
v -0.46167844 0.25961453 0.01129075
v -0.43638975 0.30765615 0.03251036
v -0.43638975 0.25961453 0.03251037
v -0.41988375 0.30765615 0.06109949
v -0.41988375 0.25961453 0.06109949
v -0.41415140 0.30765615 0.09360985
v -0.41415140 0.25961453 0.09360986
v -0.41988375 0.30765615 0.12612022
v -0.41988375 0.25961453 0.12612022
v -0.43638975 0.30765615 0.15470934
v -0.43638975 0.25961453 0.15470934
v -0.46167832 0.30765615 0.17592899
v -0.46167832 0.25961453 0.17592899
v -0.49269936 0.30765615 0.18721972
v -0.49269936 0.25961453 0.18721972
v -0.52571124 0.30765615 0.18721974
v -0.52571124 0.25961453 0.18721974
v -0.55673224 0.30765615 0.17592902
v -0.55673224 0.25961453 0.17592902
v -0.58202085 0.30765615 0.15470940
v -0.58202085 0.25961453 0.15470942
v -0.59852692 0.30765615 0.12612030
v -0.59852692 0.25961453 0.12612030
v -0.49269936 0.25961453 0.18721972
v -0.52571124 0.25961453 0.18721974
v -0.55673224 0.25961453 0.17592902
v -0.46167832 0.25961453 0.17592899
v -0.58202085 0.25961453 0.15470942
v -0.43638975 0.25961453 0.15470934
v -0.59852692 0.25961453 0.12612030
v -0.41988375 0.25961453 0.12612022
v -0.60425920 0.25961453 0.09360987
v -0.41415140 0.25961453 0.09360986
v -0.59852692 0.25961453 0.06109951
v -0.41988375 0.25961453 0.06109949
v -0.58202104 0.25961453 0.03251037
v -0.43638975 0.25961453 0.03251037
v -0.55673224 0.25961453 0.01129074
v -0.46167844 0.25961453 0.01129075
v -0.52571128 0.25961453 0.00000000
v -0.49269936 0.25961453 0.00000000
v -0.49269936 0.30765615 0.00000000
v -0.52571128 0.30765615 0.00000000
v -0.55673224 0.30765615 0.01129074
v -0.46167844 0.30765615 0.01129075
v -0.58202104 0.30765615 0.03251036
v -0.43638975 0.30765615 0.03251036
v -0.59852692 0.30765615 0.06109951
v -0.41988375 0.30765615 0.06109949
v -0.60425920 0.30765615 0.09360987
v -0.41415140 0.30765615 0.09360985
v -0.59852692 0.30765615 0.12612030
v -0.41988375 0.30765615 0.12612022
v -0.58202085 0.30765615 0.15470940
v -0.43638975 0.30765615 0.15470934
v -0.55673224 0.30765615 0.17592902
v -0.46167832 0.30765615 0.17592899
v -0.52571124 0.30765615 0.18721974
v -0.49269936 0.30765615 0.18721972
v 0.52023939 -0.31874942 0.21207352
v 0.49229425 -0.31874942 0.09255663
v 0.52592736 -0.31874942 0.09255662
v 0.55387242 -0.31874942 0.21207352
v 0.52023939 -0.24758649 0.21207352
v 0.55387242 -0.24758649 0.21207352
v 0.52592736 -0.24758649 0.09255662
v 0.49229425 -0.24758649 0.09255667
v 0.49789979 -0.31874942 0.08916472
v 0.52032182 -0.31874942 0.08916472
v 0.50350525 -0.31874942 0.08712945
v 0.51471628 -0.31874942 0.08712945
v 0.50911078 -0.31874942 0.08645106
v 0.52032182 -0.24758649 0.08916464
v 0.49789979 -0.24758649 0.08916506
v 0.51471628 -0.24758649 0.08712931
v 0.50350525 -0.24758649 0.08712842
v 0.50911078 -0.24758649 0.08645149
v 0.52592736 -0.31590498 0.09255662
v 0.49229425 -0.31590498 0.09255662
v 0.52023939 -0.31590498 0.21207352
v 0.55387242 -0.31590498 0.21207352
v 0.52592736 -0.25043093 0.09255662
v 0.55387242 -0.25043093 0.21207352
v 0.52023939 -0.25043093 0.21207352
v 0.49229425 -0.25043093 0.09255662
v 0.49789979 -0.31590498 0.08916464
v 0.52032182 -0.31590498 0.08916464
v 0.50350525 -0.31590498 0.08712945
v 0.51471628 -0.31590498 0.08712945
v 0.50911078 -0.31590498 0.08645106
v 0.52032182 -0.25043093 0.08916464
v 0.49789979 -0.25043081 0.08916464
v 0.51471628 -0.25043093 0.08712945
v 0.50350525 -0.25043093 0.08712945
v 0.50911078 -0.25043093 0.08645106
v 0.52592736 -0.31590498 0.09255662
v 0.55387242 -0.31590498 0.21207352
v 0.55387242 -0.31874942 0.21207352
v 0.52592736 -0.31874942 0.09255662
v 0.52023939 -0.31590498 0.21207352
v 0.49229425 -0.31590498 0.09255662
v 0.49229425 -0.31874942 0.09255663
v 0.52023939 -0.31874942 0.21207352
v 0.49229425 -0.25043093 0.09255662
v 0.52023939 -0.25043093 0.21207352
v 0.52023939 -0.24758649 0.21207352
v 0.49229425 -0.24758649 0.09255667
v 0.55387242 -0.25043093 0.21207352
v 0.52592736 -0.25043093 0.09255662
v 0.52592736 -0.24758649 0.09255662
v 0.55387242 -0.24758649 0.21207352
v 0.52032182 -0.31590498 0.08916464
v 0.52032182 -0.31874942 0.08916472
v 0.49229425 -0.31590498 0.09255662
v 0.49789979 -0.31590498 0.08916464
v 0.49789979 -0.31874942 0.08916472
v 0.49229425 -0.31874942 0.09255663
v 0.51471628 -0.31590498 0.08712945
v 0.51471628 -0.31874942 0.08712945
v 0.50350525 -0.31590498 0.08712945
v 0.50350525 -0.31874942 0.08712945
v 0.50911078 -0.31590498 0.08645106
v 0.50911078 -0.31874942 0.08645106
v 0.49789979 -0.25043081 0.08916464
v 0.49229425 -0.25043093 0.09255662
v 0.49229425 -0.24758649 0.09255667
v 0.49789979 -0.24758649 0.08916506
v 0.52032182 -0.25043093 0.08916464
v 0.52032182 -0.24758649 0.08916464
v 0.50350525 -0.25043093 0.08712945
v 0.50350525 -0.24758649 0.08712842
v 0.51471628 -0.25043093 0.08712945
v 0.51471628 -0.24758649 0.08712931
v 0.50911078 -0.25043093 0.08645106
v 0.50911078 -0.24758649 0.08645149
v 0.52105340 -0.31660468 0.10231756
v 0.51803816 -0.31660468 0.09709507
v 0.51803816 -0.24909048 0.09709507
v 0.52105340 -0.24909048 0.10231756
v 0.51237143 -0.31660468 0.09503253
v 0.51237143 -0.24909048 0.09503253
v 0.50670467 -0.31660468 0.09709507
v 0.50670467 -0.24909048 0.09709507
v 0.50368943 -0.31660468 0.10231756
v 0.50368943 -0.24909048 0.10231756
v 0.50473663 -0.31660468 0.10825637
v 0.50473663 -0.24909048 0.10825637
v 0.50935624 -0.31660468 0.11213267
v 0.50935624 -0.24909048 0.11213267
v 0.51538663 -0.31660468 0.11213267
v 0.51538663 -0.24909048 0.11213267
v 0.51538663 -0.31660468 0.11213267
v 0.52000616 -0.31660468 0.10825639
v 0.52000616 -0.24909048 0.10825639
v 0.51538663 -0.24909048 0.11213267
v -0.52023939 -0.31874942 0.21207352
v -0.55387250 -0.31874942 0.21207352
v -0.52592736 -0.31874942 0.09255662
v -0.49229425 -0.31874942 0.09255663
v -0.52023939 -0.24758649 0.21207352
v -0.49229425 -0.24758649 0.09255667
v -0.52592736 -0.24758649 0.09255662
v -0.55387250 -0.24758649 0.21207352
v -0.52032174 -0.31874942 0.08916472
v -0.49789975 -0.31874942 0.08916472
v -0.51471617 -0.31874942 0.08712945
v -0.50350532 -0.31874942 0.08712945
v -0.50911078 -0.31874942 0.08645106
v -0.49789975 -0.24758649 0.08916506
v -0.52032174 -0.24758649 0.08916464
v -0.50350532 -0.24758649 0.08712842
v -0.51471617 -0.24758649 0.08712931
v -0.50911078 -0.24758649 0.08645149
v -0.52592736 -0.31590498 0.09255662
v -0.55387250 -0.31590498 0.21207352
v -0.52023939 -0.31590498 0.21207352
v -0.49229425 -0.31590498 0.09255662
v -0.52592736 -0.25043093 0.09255662
v -0.49229425 -0.25043093 0.09255662
v -0.52023939 -0.25043093 0.21207352
v -0.55387250 -0.25043093 0.21207352
v -0.49789975 -0.31590498 0.08916464
v -0.52032174 -0.31590498 0.08916464
v -0.50350532 -0.31590498 0.08712945
v -0.51471617 -0.31590498 0.08712945
v -0.50911078 -0.31590498 0.08645106
v -0.52032174 -0.25043093 0.08916464
v -0.49789975 -0.25043081 0.08916464
v -0.51471617 -0.25043093 0.08712945
v -0.50350532 -0.25043093 0.08712945
v -0.50911078 -0.25043093 0.08645106
v -0.52592736 -0.31590498 0.09255662
v -0.52592736 -0.31874942 0.09255662
v -0.55387250 -0.31874942 0.21207352
v -0.55387250 -0.31590498 0.21207352
v -0.52023939 -0.31590498 0.21207352
v -0.52023939 -0.31874942 0.21207352
v -0.49229425 -0.31874942 0.09255663
v -0.49229425 -0.31590498 0.09255662
v -0.49229425 -0.25043093 0.09255662
v -0.49229425 -0.24758649 0.09255667
v -0.52023939 -0.24758649 0.21207352
v -0.52023939 -0.25043093 0.21207352
v -0.55387250 -0.25043093 0.21207352
v -0.55387250 -0.24758649 0.21207352
v -0.52592736 -0.24758649 0.09255662
v -0.52592736 -0.25043093 0.09255662
v -0.52032174 -0.31590498 0.08916464
v -0.52032174 -0.31874942 0.08916472
v -0.49229425 -0.31590498 0.09255662
v -0.49229425 -0.31874942 0.09255663
v -0.49789975 -0.31874942 0.08916472
v -0.49789975 -0.31590498 0.08916464
v -0.51471617 -0.31590498 0.08712945
v -0.51471617 -0.31874942 0.08712945
v -0.50350532 -0.31874942 0.08712945
v -0.50350532 -0.31590498 0.08712945
v -0.50911078 -0.31874942 0.08645106
v -0.50911078 -0.31590498 0.08645106
v -0.49789975 -0.25043081 0.08916464
v -0.49789975 -0.24758649 0.08916506
v -0.49229425 -0.24758649 0.09255667
v -0.49229425 -0.25043093 0.09255662
v -0.52032174 -0.24758649 0.08916464
v -0.52032174 -0.25043093 0.08916464
v -0.50350532 -0.25043093 0.08712945
v -0.50350532 -0.24758649 0.08712842
v -0.51471617 -0.24758649 0.08712931
v -0.51471617 -0.25043093 0.08712945
v -0.50911078 -0.24758649 0.08645149
v -0.50911078 -0.25043093 0.08645106
v -0.52105336 -0.31660468 0.10231756
v -0.52105336 -0.24909048 0.10231756
v -0.51803816 -0.24909048 0.09709507
v -0.51803816 -0.31660468 0.09709507
v -0.51237140 -0.24909048 0.09503253
v -0.51237140 -0.31660468 0.09503253
v -0.50670467 -0.24909048 0.09709507
v -0.50670467 -0.31660468 0.09709507
v -0.50368935 -0.24909048 0.10231756
v -0.50368935 -0.31660468 0.10231756
v -0.50473663 -0.24909048 0.10825637
v -0.50473663 -0.31660468 0.10825637
v -0.50935624 -0.24909048 0.11213267
v -0.50935624 -0.31660468 0.11213267
v -0.50935624 -0.31660468 0.11213267
v -0.50935624 -0.24909048 0.11213267
v -0.51538659 -0.24909048 0.11213267
v -0.51538659 -0.31660468 0.11213267
v -0.52000609 -0.24909048 0.10825639
v -0.52000609 -0.31660468 0.10825639
v 0.52023939 0.31874950 0.21207352
v 0.55387242 0.31874950 0.21207352
v 0.52592728 0.31874950 0.09255662
v 0.49229425 0.31874950 0.09255663
v 0.52023939 0.24758654 0.21207352
v 0.49229425 0.24758654 0.09255667
v 0.52592728 0.24758654 0.09255662
v 0.55387242 0.24758654 0.21207352
v 0.52032182 0.31874950 0.08916472
v 0.49789975 0.31874950 0.08916472
v 0.51471624 0.31874950 0.08712945
v 0.50350532 0.31874950 0.08712945
v 0.50911078 0.31874950 0.08645106
v 0.49789975 0.24758654 0.08916506
v 0.52032182 0.24758654 0.08916464
v 0.50350532 0.24758654 0.08712842
v 0.51471624 0.24758654 0.08712931
v 0.50911078 0.24758654 0.08645149
v 0.52592728 0.31590504 0.09255662
v 0.55387242 0.31590504 0.21207352
v 0.52023939 0.31590504 0.21207352
v 0.49229425 0.31590504 0.09255662
v 0.52592728 0.25043087 0.09255662
v 0.49229425 0.25043087 0.09255662
v 0.52023939 0.25043087 0.21207352
v 0.55387242 0.25043087 0.21207352
v 0.49789975 0.31590504 0.08916464
v 0.52032182 0.31590504 0.08916464
v 0.50350532 0.31590504 0.08712945
v 0.51471624 0.31590504 0.08712945
v 0.50911078 0.31590504 0.08645106
v 0.52032182 0.25043087 0.08916464
v 0.49789975 0.25043087 0.08916464
v 0.51471624 0.25043087 0.08712945
v 0.50350532 0.25043087 0.08712945
v 0.50911078 0.25043087 0.08645106
v 0.52592728 0.31590504 0.09255662
v 0.52592728 0.31874950 0.09255662
v 0.55387242 0.31874950 0.21207352
v 0.55387242 0.31590504 0.21207352
v 0.52023939 0.31590504 0.21207352
v 0.52023939 0.31874950 0.21207352
v 0.49229425 0.31874950 0.09255663
v 0.49229425 0.31590504 0.09255662
v 0.49229425 0.25043087 0.09255662
v 0.49229425 0.24758654 0.09255667
v 0.52023939 0.24758654 0.21207352
v 0.52023939 0.25043087 0.21207352
v 0.55387242 0.25043087 0.21207352
v 0.55387242 0.24758654 0.21207352
v 0.52592728 0.24758654 0.09255662
v 0.52592728 0.25043087 0.09255662
v 0.52032182 0.31590504 0.08916464
v 0.52032182 0.31874950 0.08916472
v 0.49229425 0.31590504 0.09255662
v 0.49229425 0.31874950 0.09255663
v 0.49789975 0.31874950 0.08916472
v 0.49789975 0.31590504 0.08916464
v 0.51471624 0.31590504 0.08712945
v 0.51471624 0.31874950 0.08712945
v 0.50350532 0.31874950 0.08712945
v 0.50350532 0.31590504 0.08712945
v 0.50911078 0.31874950 0.08645106
v 0.50911078 0.31590504 0.08645106
v 0.49789975 0.25043087 0.08916464
v 0.49789975 0.24758654 0.08916506
v 0.49229425 0.24758654 0.09255667
v 0.49229425 0.25043087 0.09255662
v 0.52032182 0.24758654 0.08916464
v 0.52032182 0.25043087 0.08916464
v 0.50350532 0.25043087 0.08712945
v 0.50350532 0.24758654 0.08712842
v 0.51471624 0.24758654 0.08712931
v 0.51471624 0.25043087 0.08712945
v 0.50911078 0.24758654 0.08645149
v 0.50911078 0.25043087 0.08645106
v 0.52105336 0.31660476 0.10231756
v 0.52105336 0.24909053 0.10231756
v 0.51803820 0.24909053 0.09709507
v 0.51803820 0.31660476 0.09709507
v 0.51237143 0.24909053 0.09503253
v 0.51237143 0.31660476 0.09503253
v 0.50670467 0.24909053 0.09709507
v 0.50670467 0.31660476 0.09709507
v 0.50368943 0.24909053 0.10231756
v 0.50368943 0.31660476 0.10231756
v 0.50473663 0.24909053 0.10825637
v 0.50473663 0.31660476 0.10825637
v 0.50935624 0.24909053 0.11213267
v 0.50935624 0.31660476 0.11213267
v 0.51538663 0.24909053 0.11213267
v 0.51538663 0.31660476 0.11213267
v 0.51538663 0.31660476 0.11213267
v 0.51538663 0.24909053 0.11213267
v 0.52000616 0.24909053 0.10825639
v 0.52000616 0.31660476 0.10825639
v -0.52023939 0.31874950 0.21207352
v -0.49229425 0.31874950 0.09255663
v -0.52592736 0.31874950 0.09255662
v -0.55387250 0.31874950 0.21207352
v -0.52023939 0.24758654 0.21207352
v -0.55387250 0.24758654 0.21207352
v -0.52592736 0.24758654 0.09255662
v -0.49229425 0.24758654 0.09255667
v -0.49789975 0.31874950 0.08916472
v -0.52032174 0.31874950 0.08916472
v -0.50350532 0.31874950 0.08712945
v -0.51471617 0.31874950 0.08712945
v -0.50911078 0.31874950 0.08645106
v -0.52032174 0.24758654 0.08916464
v -0.49789975 0.24758654 0.08916506
v -0.51471617 0.24758654 0.08712931
v -0.50350532 0.24758654 0.08712842
v -0.50911078 0.24758654 0.08645149
v -0.52592736 0.31590504 0.09255662
v -0.49229425 0.31590504 0.09255662
v -0.52023939 0.31590504 0.21207352
v -0.55387250 0.31590504 0.21207352
v -0.52592736 0.25043087 0.09255662
v -0.55387250 0.25043087 0.21207352
v -0.52023939 0.25043087 0.21207352
v -0.49229425 0.25043087 0.09255662
v -0.49789975 0.31590504 0.08916464
v -0.52032174 0.31590504 0.08916464
v -0.50350532 0.31590504 0.08712945
v -0.51471617 0.31590504 0.08712945
v -0.50911078 0.31590504 0.08645106
v -0.52032174 0.25043087 0.08916464
v -0.49789975 0.25043087 0.08916464
v -0.51471617 0.25043087 0.08712945
v -0.50350532 0.25043087 0.08712945
v -0.50911078 0.25043087 0.08645106
v -0.52592736 0.31590504 0.09255662
v -0.55387250 0.31590504 0.21207352
v -0.55387250 0.31874950 0.21207352
v -0.52592736 0.31874950 0.09255662
v -0.52023939 0.31590504 0.21207352
v -0.49229425 0.31590504 0.09255662
v -0.49229425 0.31874950 0.09255663
v -0.52023939 0.31874950 0.21207352
v -0.49229425 0.25043087 0.09255662
v -0.52023939 0.25043087 0.21207352
v -0.52023939 0.24758654 0.21207352
v -0.49229425 0.24758654 0.09255667
v -0.55387250 0.25043087 0.21207352
v -0.52592736 0.25043087 0.09255662
v -0.52592736 0.24758654 0.09255662
v -0.55387250 0.24758654 0.21207352
v -0.52032174 0.31590504 0.08916464
v -0.52032174 0.31874950 0.08916472
v -0.49229425 0.31590504 0.09255662
v -0.49789975 0.31590504 0.08916464
v -0.49789975 0.31874950 0.08916472
v -0.49229425 0.31874950 0.09255663
v -0.51471617 0.31590504 0.08712945
v -0.51471617 0.31874950 0.08712945
v -0.50350532 0.31590504 0.08712945
v -0.50350532 0.31874950 0.08712945
v -0.50911078 0.31590504 0.08645106
v -0.50911078 0.31874950 0.08645106
v -0.49789975 0.25043087 0.08916464
v -0.49229425 0.25043087 0.09255662
v -0.49229425 0.24758654 0.09255667
v -0.49789975 0.24758654 0.08916506
v -0.52032174 0.25043087 0.08916464
v -0.52032174 0.24758654 0.08916464
v -0.50350532 0.25043087 0.08712945
v -0.50350532 0.24758654 0.08712842
v -0.51471617 0.25043087 0.08712945
v -0.51471617 0.24758654 0.08712931
v -0.50911078 0.25043087 0.08645106
v -0.50911078 0.24758654 0.08645149
v -0.52105336 0.31660476 0.10231756
v -0.51803816 0.31660476 0.09709507
v -0.51803816 0.24909053 0.09709507
v -0.52105336 0.24909053 0.10231756
v -0.51237140 0.31660476 0.09503253
v -0.51237140 0.24909053 0.09503253
v -0.50670467 0.31660476 0.09709507
v -0.50670467 0.24909053 0.09709507
v -0.50368935 0.31660476 0.10231756
v -0.50368935 0.24909053 0.10231756
v -0.50473663 0.31660476 0.10825637
v -0.50473663 0.24909053 0.10825637
v -0.50935624 0.31660476 0.11213267
v -0.50935624 0.24909053 0.11213267
v -0.50935624 0.31660476 0.11213267
v -0.51538659 0.31660476 0.11213267
v -0.51538659 0.24909053 0.11213267
v -0.50935624 0.24909053 0.11213267
v -0.52000609 0.31660476 0.10825639
v -0.52000609 0.24909053 0.10825639
v 0.28447100 0.43226741 1.22293633
v 0.28447100 0.42035546 1.22787026
v 0.38815620 0.42035546 1.22787026
v 0.38815620 0.43226741 1.22293633
v 0.28447100 0.43720133 1.21102450
v 0.38815620 0.43720133 1.21102450
v 0.28447100 0.43226741 1.19911267
v 0.38815620 0.43226741 1.19911267
v 0.28447100 0.42035546 1.19417859
v 0.38815620 0.42035546 1.19417859
v 0.28447100 0.40844363 1.19911267
v 0.38815620 0.40844363 1.19911267
v 0.28447100 0.40350971 1.21102450
v 0.38815620 0.40350971 1.21102450
v 0.28447100 0.40844363 1.22293633
v 0.38815620 0.40844363 1.22293633
v 0.38815620 0.42035546 1.22787026
v 0.28447100 0.42035546 1.22787026
v 0.34893149 0.42035546 1.20417257
v 0.35168283 0.42699773 1.20417257
v 0.35168283 0.42699773 1.14635603
v 0.34893149 0.42035546 1.14635603
v 0.35832502 0.42974895 1.20417257
v 0.35832502 0.42974895 1.14635603
v 0.35832502 0.42974895 1.20417257
v 0.36496725 0.42699773 1.20417257
v 0.36496725 0.42699773 1.14635603
v 0.35832502 0.42974895 1.14635603
v 0.36771855 0.42035546 1.20417257
v 0.36771855 0.42035546 1.14635603
v 0.36496725 0.41371331 1.20417257
v 0.36496725 0.41371331 1.14635603
v 0.35832502 0.41096197 1.20417257
v 0.35832502 0.41096197 1.14635603
v 0.35168283 0.41371331 1.20417257
v 0.35168283 0.41371331 1.14635603
v 0.30495223 0.42035546 1.20417257
v 0.30770353 0.42699773 1.20417257
v 0.30770355 0.42699773 1.14635603
v 0.30495223 0.42035546 1.14635603
v 0.31434578 0.42974895 1.20417257
v 0.31434578 0.42974895 1.14635603
v 0.31434578 0.42974895 1.20417257
v 0.32098799 0.42699773 1.20417257
v 0.32098799 0.42699773 1.14635603
v 0.31434578 0.42974895 1.14635603
v 0.32373929 0.42035546 1.20417257
v 0.32373929 0.42035546 1.14635603
v 0.32098799 0.41371331 1.20417257
v 0.32098799 0.41371331 1.14635603
v 0.31434578 0.41096197 1.20417257
v 0.31434578 0.41096197 1.14635603
v 0.30770355 0.41371331 1.20417257
v 0.30770355 0.41371331 1.14635603
v -0.28447096 0.43226741 1.22293618
v -0.38815616 0.43226741 1.22293618
v -0.38815616 0.42035546 1.22787026
v -0.28447096 0.42035546 1.22787026
v -0.28447096 0.43720133 1.21102450
v -0.38815616 0.43720133 1.21102450
v -0.28447096 0.43226741 1.19911267
v -0.38815616 0.43226741 1.19911267
v -0.28447096 0.42035546 1.19417859
v -0.38815616 0.42035546 1.19417859
v -0.28447096 0.40844363 1.19911267
v -0.38815616 0.40844363 1.19911267
v -0.28447096 0.40350971 1.21102450
v -0.38815616 0.40350971 1.21102450
v -0.28447096 0.40844363 1.22293618
v -0.38815616 0.40844363 1.22293618
v -0.28447096 0.42035546 1.22787026
v -0.38815616 0.42035546 1.22787026
v -0.34893141 0.42035546 1.20417249
v -0.34893141 0.42035546 1.14635603
v -0.35168283 0.42699773 1.14635603
v -0.35168283 0.42699773 1.20417249
v -0.35832494 0.42974895 1.14635603
v -0.35832494 0.42974895 1.20417249
v -0.35832494 0.42974895 1.20417249
v -0.35832494 0.42974895 1.14635603
v -0.36496717 0.42699773 1.14635603
v -0.36496717 0.42699773 1.20417249
v -0.36771847 0.42035546 1.14635603
v -0.36771847 0.42035546 1.20417249
v -0.36496717 0.41371331 1.14635603
v -0.36496717 0.41371331 1.20417249
v -0.35832494 0.41096197 1.14635603
v -0.35832494 0.41096197 1.20417249
v -0.35168283 0.41371331 1.14635603
v -0.35168283 0.41371331 1.20417249
v -0.30495217 0.42035546 1.20417249
v -0.30495217 0.42035546 1.14635603
v -0.30770349 0.42699773 1.14635603
v -0.30770349 0.42699773 1.20417249
v -0.31434572 0.42974895 1.14635603
v -0.31434572 0.42974895 1.20417249
v -0.31434572 0.42974895 1.20417249
v -0.31434572 0.42974895 1.14635603
v -0.32098791 0.42699773 1.14635603
v -0.32098791 0.42699773 1.20417249
v -0.32373929 0.42035546 1.14635603
v -0.32373929 0.42035546 1.20417249
v -0.32098791 0.41371331 1.14635603
v -0.32098791 0.41371331 1.20417249
v -0.31434572 0.41096197 1.14635603
v -0.31434572 0.41096197 1.20417249
v -0.30770349 0.41371331 1.14635603
v -0.30770349 0.41371331 1.20417249
f 1 2 3
f 3 4 1
f 5 6 7
f 7 8 5
f 9 10 11
f 9 11 12
f 9 12 13
f 14 15 16
f 16 17 14
f 18 7 6
f 19 20 21
f 22 19 21
f 22 21 23
f 24 25 26
f 26 27 24
f 28 18 6
f 29 30 31
f 32 33 34
f 34 35 32
f 36 3 2
f 2 37 36
f 38 39 40
f 40 41 38
f 42 43 44
f 44 45 42
f 46 47 48
f 48 49 46
f 50 51 52
f 52 53 50
f 54 26 25
f 25 55 54
f 4 56 57
f 57 1 4
f 58 36 37
f 37 59 58
f 13 60 61
f 61 9 13
f 17 62 63
f 63 14 17
f 23 64 65
f 65 22 23
f 27 66 67
f 67 24 27
f 68 54 55
f 55 69 68
f 70 71 72
f 72 73 70
f 74 70 73
f 73 75 74
f 28 74 75
f 76 77 78
f 76 78 79
f 76 79 30
f 29 76 30
f 75 18 28
f 80 81 82
f 82 83 80
f 84 85 86
f 86 87 84
f 85 88 89
f 89 86 85
f 90 91 92
f 92 93 90
f 94 90 93
f 93 95 94
f 96 97 98
f 98 99 96
f 99 98 100
f 100 101 99
f 102 103 104
f 104 105 102
f 5 106 107
f 107 6 5
f 108 109 110
f 108 110 111
f 108 111 112
f 113 114 115
f 115 116 113
f 6 107 117
f 118 119 120
f 120 121 122
f 118 120 122
f 123 124 125
f 125 126 123
f 127 29 31
f 39 128 129
f 129 40 39
f 130 131 132
f 132 133 130
f 47 134 135
f 135 48 47
f 51 136 137
f 137 52 51
f 138 139 140
f 140 141 138
f 142 143 105
f 105 104 142
f 144 145 129
f 129 128 144
f 146 147 148
f 148 149 146
f 150 151 135
f 135 134 150
f 152 153 137
f 137 136 152
f 154 155 126
f 126 125 154
f 103 102 156
f 156 157 103
f 158 159 143
f 143 142 158
f 109 108 160
f 160 161 109
f 114 113 162
f 162 163 114
f 119 118 164
f 164 165 119
f 124 123 166
f 166 167 124
f 168 169 155
f 155 154 168
f 170 171 172
f 172 173 170
f 174 175 171
f 171 170 174
f 175 174 176
f 177 178 179
f 180 177 179
f 181 180 179
f 181 179 127
f 6 117 175
f 175 176 6
f 31 181 127
f 140 34 33
f 33 141 140
f 182 183 184
f 184 185 182
f 186 187 188
f 188 189 186
f 189 188 190
f 190 191 189
f 192 193 194
f 194 195 192
f 196 197 193
f 193 192 196
f 198 199 200
f 200 201 198
f 199 202 203
f 203 200 199
f 204 205 206
f 206 207 204
f 208 209 210
f 210 211 208
f 212 213 214
f 214 215 212
f 216 217 218
f 218 219 216
f 220 221 222
f 222 223 220
f 224 225 226
f 226 227 224
f 228 229 230
f 230 231 228
f 232 233 234
f 234 235 232
f 236 237 238
f 238 239 236
f 240 241 242
f 242 243 240
f 244 245 246
f 246 247 244
f 248 249 250
f 250 251 248
f 252 253 254
f 254 255 252
f 256 257 258
f 258 259 256
f 260 261 262
f 262 263 260
f 264 265 266
f 266 267 264
f 268 269 270
f 270 271 268
f 272 210 209
f 209 273 272
f 274 208 211
f 211 275 274
f 276 214 213
f 213 277 276
f 278 218 217
f 217 279 278
f 280 238 237
f 237 281 280
f 282 226 225
f 225 283 282
f 284 234 233
f 233 285 284
f 286 230 229
f 229 287 286
f 288 254 253
f 253 289 288
f 290 242 241
f 241 291 290
f 292 250 249
f 249 293 292
f 294 246 245
f 245 295 294
f 296 270 269
f 269 297 296
f 298 258 257
f 257 299 298
f 300 266 265
f 265 301 300
f 302 262 261
f 261 303 302
f 215 304 305
f 305 212 215
f 221 306 307
f 307 222 221
f 219 308 309
f 309 216 219
f 223 310 311
f 311 220 223
f 227 312 313
f 313 224 227
f 231 314 315
f 315 228 231
f 239 316 317
f 317 236 239
f 235 318 319
f 319 232 235
f 243 320 321
f 321 240 243
f 247 322 323
f 323 244 247
f 255 324 325
f 325 252 255
f 251 326 327
f 327 248 251
f 259 328 329
f 329 256 259
f 263 330 331
f 331 260 263
f 271 332 333
f 333 268 271
f 267 334 335
f 335 264 267
f 336 337 204
f 204 207 336
f 338 339 337
f 337 336 338
f 340 341 206
f 206 205 340
f 342 343 341
f 341 340 342
f 344 345 346
f 347 348 349
f 349 350 347
f 351 352 353
f 354 355 356
f 357 358 359
f 359 360 357
f 361 362 363
f 364 365 366
f 367 368 369
f 369 370 367
f 371 372 373
f 374 375 376
f 377 378 379
f 379 380 377
f 381 382 383
f 384 385 386
f 387 388 389
f 389 390 387
f 391 392 393
f 394 395 396
f 396 397 394
f 398 399 400
f 401 402 403
f 404 405 406
f 406 407 404
f 408 409 410
f 411 412 413
f 414 415 416
f 416 417 414
f 418 419 420
f 421 422 423
f 424 425 426
f 426 427 424
f 428 429 430
f 431 432 433
f 434 435 436
f 437 438 439
f 439 440 437
f 441 442 443
f 444 445 446
f 447 448 449
f 449 450 447
f 451 452 453
f 454 455 456
f 457 458 459
f 459 460 457
f 461 462 463
f 464 465 466
f 467 468 469
f 469 470 467
f 471 472 473
f 474 475 476
f 477 478 479
f 479 480 477
f 481 482 483
f 484 485 486
f 486 487 484
f 488 489 490
f 491 492 493
f 494 495 496
f 496 497 494
f 498 499 500
f 501 502 503
f 504 505 506
f 506 507 504
f 508 509 510
f 511 512 513
f 514 515 516
f 516 517 514
f 518 519 520
f 521 522 523
f 524 525 526
f 527 528 529
f 529 530 527
f 531 532 533
f 534 535 536
f 537 538 539
f 539 540 537
f 541 542 543
f 544 545 546
f 547 548 549
f 549 550 547
f 551 552 553
f 554 555 556
f 557 558 559
f 559 560 557
f 561 562 563
f 564 565 566
f 567 568 569
f 569 570 567
f 571 572 573
f 574 575 576
f 577 578 579
f 579 580 577
f 581 582 583
f 584 585 586
f 586 587 584
f 585 588 589
f 589 586 585
f 588 590 591
f 591 589 588
f 590 592 593
f 593 591 590
f 592 594 595
f 595 593 592
f 596 597 598
f 598 599 596
f 597 600 601
f 601 598 597
f 600 602 603
f 603 601 600
f 602 604 605
f 605 603 602
f 604 606 607
f 607 605 604
f 606 608 609
f 609 607 606
f 608 610 611
f 611 609 608
f 610 612 613
f 613 611 610
f 612 614 615
f 615 613 612
f 614 616 617
f 617 615 614
f 616 618 619
f 619 617 616
f 618 620 621
f 621 619 618
f 620 584 587
f 587 621 620
f 622 623 624
f 624 625 622
f 625 624 626
f 626 627 625
f 627 626 628
f 628 629 627
f 629 628 630
f 630 631 629
f 631 630 632
f 632 633 631
f 633 632 634
f 634 635 633
f 635 634 636
f 636 637 635
f 637 636 638
f 638 639 637
f 640 641 642
f 642 643 640
f 643 642 644
f 644 645 643
f 645 644 646
f 646 647 645
f 647 646 648
f 648 649 647
f 649 648 650
f 650 651 649
f 651 650 652
f 652 653 651
f 653 652 654
f 654 655 653
f 655 654 656
f 656 657 655
f 658 659 660
f 660 661 658
f 661 660 662
f 662 663 661
f 663 662 664
f 664 665 663
f 665 664 666
f 666 667 665
f 668 669 670
f 670 671 668
f 671 670 672
f 672 673 671
f 673 672 674
f 674 675 673
f 675 674 676
f 676 677 675
f 677 676 678
f 678 679 677
f 679 678 680
f 680 681 679
f 681 680 682
f 682 683 681
f 683 682 684
f 684 685 683
f 685 684 686
f 686 687 685
f 687 686 688
f 688 689 687
f 689 688 690
f 690 691 689
f 691 690 692
f 692 693 691
f 693 692 694
f 694 695 693
f 695 694 659
f 659 658 695
f 696 697 698
f 698 699 696
f 697 700 701
f 701 698 697
f 700 702 703
f 703 701 700
f 702 704 705
f 705 703 702
f 704 706 707
f 707 705 704
f 706 708 709
f 709 707 706
f 708 710 711
f 711 709 708
f 710 712 713
f 713 711 710
f 714 715 716
f 716 717 714
f 715 718 719
f 719 716 715
f 718 720 721
f 721 719 718
f 720 722 723
f 723 721 720
f 722 724 725
f 725 723 722
f 724 726 727
f 727 725 724
f 726 728 729
f 729 727 726
f 728 730 731
f 731 729 728
f 732 733 734
f 734 735 732
f 735 734 736
f 736 737 735
f 737 736 738
f 738 739 737
f 739 738 740
f 740 741 739
f 741 740 742
f 742 743 741
f 744 745 746
f 746 747 744
f 747 746 748
f 748 749 747
f 749 748 750
f 750 751 749
f 751 750 752
f 752 753 751
f 753 752 754
f 754 755 753
f 755 754 756
f 756 757 755
f 757 756 758
f 758 759 757
f 759 758 760
f 760 761 759
f 761 760 762
f 762 763 761
f 763 762 764
f 764 765 763
f 765 764 766
f 766 767 765
f 767 766 768
f 768 769 767
f 769 768 733
f 733 732 769
f 770 771 772
f 772 773 770
f 771 774 775
f 775 772 771
f 774 776 777
f 777 775 774
f 776 778 779
f 779 777 776
f 778 780 781
f 781 779 778
f 780 782 783
f 783 781 780
f 782 784 785
f 785 783 782
f 784 786 787
f 787 785 784
f 788 789 790
f 790 791 788
f 789 792 793
f 793 790 789
f 792 794 795
f 795 793 792
f 794 796 797
f 797 795 794
f 796 798 799
f 799 797 796
f 798 800 801
f 801 799 798
f 800 802 803
f 803 801 800
f 802 804 805
f 805 803 802
f 806 807 808
f 808 809 806
f 807 810 811
f 811 808 807
f 810 812 813
f 813 811 810
f 812 814 815
f 815 813 812
f 816 817 818
f 818 819 816
f 817 820 821
f 821 818 817
f 820 822 823
f 823 821 820
f 822 824 825
f 825 823 822
f 824 826 827
f 827 825 824
f 826 828 829
f 829 827 826
f 828 830 831
f 831 829 828
f 830 832 833
f 833 831 830
f 832 834 835
f 835 833 832
f 834 836 837
f 837 835 834
f 836 838 839
f 839 837 836
f 838 840 841
f 841 839 838
f 840 842 843
f 843 841 840
f 842 806 809
f 809 843 842
f 844 845 846
f 846 847 844
f 847 846 848
f 848 849 847
f 849 848 850
f 850 851 849
f 851 850 852
f 852 853 851
f 853 852 854
f 854 855 853
f 855 854 856
f 856 857 855
f 857 856 858
f 858 859 857
f 859 858 860
f 860 861 859
f 862 863 864
f 864 865 862
f 865 864 866
f 866 867 865
f 867 866 868
f 868 869 867
f 869 868 870
f 870 871 869
f 871 870 872
f 872 873 871
f 873 872 874
f 874 875 873
f 875 874 876
f 876 877 875
f 877 876 878
f 878 879 877
f 880 881 882
f 882 883 880
f 884 885 886
f 886 887 884
f 882 881 888
f 888 889 882
f 889 888 890
f 890 891 889
f 890 892 891
f 887 886 893
f 893 894 887
f 894 893 895
f 895 896 894
f 895 897 896
f 898 899 900
f 900 901 898
f 902 903 904
f 904 905 902
f 906 899 898
f 898 907 906
f 908 906 907
f 907 909 908
f 909 910 908
f 911 902 905
f 905 912 911
f 913 911 912
f 912 914 913
f 914 915 913
f 916 917 918
f 918 919 916
f 920 921 922
f 922 923 920
f 924 925 926
f 926 927 924
f 928 929 930
f 930 931 928
f 932 916 919
f 919 933 932
f 934 935 936
f 936 937 934
f 938 932 933
f 933 939 938
f 935 940 941
f 941 936 935
f 940 942 943
f 943 941 940
f 942 938 939
f 939 943 942
f 944 945 946
f 946 947 944
f 929 948 949
f 949 930 929
f 950 944 947
f 947 951 950
f 948 952 953
f 953 949 948
f 952 954 955
f 955 953 952
f 954 950 951
f 951 955 954
f 956 957 958
f 958 959 956
f 957 960 961
f 961 958 957
f 960 962 963
f 963 961 960
f 962 964 965
f 965 963 962
f 964 966 967
f 967 965 964
f 966 968 969
f 969 967 966
f 968 970 971
f 971 969 968
f 972 973 974
f 974 975 972
f 973 956 959
f 959 974 973
f 976 977 978
f 978 979 976
f 980 981 982
f 982 983 980
f 978 984 985
f 985 979 978
f 984 986 987
f 987 985 984
f 987 986 988
f 981 989 990
f 990 982 981
f 989 991 992
f 992 990 989
f 992 991 993
f 994 995 996
f 996 997 994
f 998 999 1000
f 1000 1001 998
f 1002 1003 994
f 994 997 1002
f 1004 1005 1003
f 1003 1002 1004
f 1005 1004 1006
f 1007 1008 999
f 999 998 1007
f 1009 1010 1008
f 1008 1007 1009
f 1010 1009 1011
f 1012 1013 1014
f 1014 1015 1012
f 1016 1017 1018
f 1018 1019 1016
f 1020 1021 1022
f 1022 1023 1020
f 1024 1025 1026
f 1026 1027 1024
f 1028 1029 1013
f 1013 1012 1028
f 1030 1031 1032
f 1032 1033 1030
f 1034 1035 1029
f 1029 1028 1034
f 1033 1032 1036
f 1036 1037 1033
f 1037 1036 1038
f 1038 1039 1037
f 1039 1038 1035
f 1035 1034 1039
f 1040 1041 1042
f 1042 1043 1040
f 1027 1026 1044
f 1044 1045 1027
f 1046 1047 1041
f 1041 1040 1046
f 1045 1044 1048
f 1048 1049 1045
f 1049 1048 1050
f 1050 1051 1049
f 1051 1050 1047
f 1047 1046 1051
f 1052 1053 1054
f 1054 1055 1052
f 1055 1054 1056
f 1056 1057 1055
f 1057 1056 1058
f 1058 1059 1057
f 1059 1058 1060
f 1060 1061 1059
f 1061 1060 1062
f 1062 1063 1061
f 1063 1062 1064
f 1064 1065 1063
f 1066 1067 1068
f 1068 1069 1066
f 1069 1068 1070
f 1070 1071 1069
f 1071 1070 1053
f 1053 1052 1071
f 1072 1073 1074
f 1074 1075 1072
f 1076 1077 1078
f 1078 1079 1076
f 1074 1080 1081
f 1081 1075 1074
f 1080 1082 1083
f 1083 1081 1080
f 1083 1082 1084
f 1077 1085 1086
f 1086 1078 1077
f 1085 1087 1088
f 1088 1086 1085
f 1088 1087 1089
f 1090 1091 1092
f 1092 1093 1090
f 1094 1095 1096
f 1096 1097 1094
f 1098 1099 1090
f 1090 1093 1098
f 1100 1101 1099
f 1099 1098 1100
f 1101 1100 1102
f 1103 1104 1095
f 1095 1094 1103
f 1105 1106 1104
f 1104 1103 1105
f 1106 1105 1107
f 1108 1109 1110
f 1110 1111 1108
f 1112 1113 1114
f 1114 1115 1112
f 1116 1117 1118
f 1118 1119 1116
f 1120 1121 1122
f 1122 1123 1120
f 1124 1125 1109
f 1109 1108 1124
f 1126 1127 1128
f 1128 1129 1126
f 1130 1131 1125
f 1125 1124 1130
f 1129 1128 1132
f 1132 1133 1129
f 1133 1132 1134
f 1134 1135 1133
f 1135 1134 1131
f 1131 1130 1135
f 1136 1137 1138
f 1138 1139 1136
f 1123 1122 1140
f 1140 1141 1123
f 1142 1143 1137
f 1137 1136 1142
f 1141 1140 1144
f 1144 1145 1141
f 1145 1144 1146
f 1146 1147 1145
f 1147 1146 1143
f 1143 1142 1147
f 1148 1149 1150
f 1150 1151 1148
f 1151 1150 1152
f 1152 1153 1151
f 1153 1152 1154
f 1154 1155 1153
f 1155 1154 1156
f 1156 1157 1155
f 1157 1156 1158
f 1158 1159 1157
f 1159 1158 1160
f 1160 1161 1159
f 1161 1160 1162
f 1162 1163 1161
f 1164 1165 1166
f 1166 1167 1164
f 1167 1166 1149
f 1149 1148 1167
f 1168 1169 1170
f 1170 1171 1168
f 1172 1173 1174
f 1174 1175 1172
f 1170 1169 1176
f 1176 1177 1170
f 1177 1176 1178
f 1178 1179 1177
f 1178 1180 1179
f 1175 1174 1181
f 1181 1182 1175
f 1182 1181 1183
f 1183 1184 1182
f 1183 1185 1184
f 1186 1187 1188
f 1188 1189 1186
f 1190 1191 1192
f 1192 1193 1190
f 1194 1187 1186
f 1186 1195 1194
f 1196 1194 1195
f 1195 1197 1196
f 1197 1198 1196
f 1199 1190 1193
f 1193 1200 1199
f 1201 1199 1200
f 1200 1202 1201
f 1202 1203 1201
f 1204 1205 1206
f 1206 1207 1204
f 1208 1209 1210
f 1210 1211 1208
f 1212 1213 1214
f 1214 1215 1212
f 1216 1217 1218
f 1218 1219 1216
f 1220 1204 1207
f 1207 1221 1220
f 1222 1223 1224
f 1224 1225 1222
f 1226 1220 1221
f 1221 1227 1226
f 1223 1228 1229
f 1229 1224 1223
f 1228 1230 1231
f 1231 1229 1228
f 1230 1226 1227
f 1227 1231 1230
f 1232 1233 1234
f 1234 1235 1232
f 1217 1236 1237
f 1237 1218 1217
f 1238 1232 1235
f 1235 1239 1238
f 1236 1240 1241
f 1241 1237 1236
f 1240 1242 1243
f 1243 1241 1240
f 1242 1238 1239
f 1239 1243 1242
f 1244 1245 1246
f 1246 1247 1244
f 1245 1248 1249
f 1249 1246 1245
f 1248 1250 1251
f 1251 1249 1248
f 1250 1252 1253
f 1253 1251 1250
f 1252 1254 1255
f 1255 1253 1252
f 1254 1256 1257
f 1257 1255 1254
f 1258 1259 1260
f 1260 1261 1258
f 1259 1262 1263
f 1263 1260 1259
f 1262 1244 1247
f 1247 1263 1262
f 1264 1265 1266
f 1266 1267 1264
f 1268 1264 1267
f 1267 1269 1268
f 1270 1268 1269
f 1269 1271 1270
f 1272 1270 1271
f 1271 1273 1272
f 1274 1272 1273
f 1273 1275 1274
f 1276 1274 1275
f 1275 1277 1276
f 1278 1276 1277
f 1277 1279 1278
f 1278 1279 1280
f 1280 1281 1278
f 1282 1283 1284
f 1284 1285 1282
f 1283 1286 1287
f 1287 1284 1283
f 1288 1289 1290
f 1290 1291 1288
f 1289 1292 1293
f 1293 1290 1289
f 1292 1294 1295
f 1295 1293 1292
f 1294 1296 1297
f 1297 1295 1294
f 1296 1298 1299
f 1299 1297 1296
f 1298 1282 1285
f 1285 1299 1298
f 1300 1301 1302
f 1302 1303 1300
f 1301 1304 1305
f 1305 1302 1301
f 1306 1307 1308
f 1308 1309 1306
f 1307 1310 1311
f 1311 1308 1307
f 1310 1312 1313
f 1313 1311 1310
f 1312 1314 1315
f 1315 1313 1312
f 1314 1316 1317
f 1317 1315 1314
f 1316 1300 1303
f 1303 1317 1316
f 1318 1319 1320
f 1320 1321 1318
f 1322 1323 1319
f 1319 1318 1322
f 1324 1325 1323
f 1323 1322 1324
f 1326 1327 1325
f 1325 1324 1326
f 1328 1329 1327
f 1327 1326 1328
f 1330 1331 1329
f 1329 1328 1330
f 1332 1333 1331
f 1331 1330 1332
f 1332 1334 1335
f 1335 1333 1332
f 1336 1337 1338
f 1338 1339 1336
f 1339 1338 1340
f 1340 1341 1339
f 1342 1343 1344
f 1344 1345 1342
f 1345 1344 1346
f 1346 1347 1345
f 1347 1346 1348
f 1348 1349 1347
f 1349 1348 1350
f 1350 1351 1349
f 1351 1350 1352
f 1352 1353 1351
f 1353 1352 1337
f 1337 1336 1353
f 1354 1355 1356
f 1356 1357 1354
f 1357 1356 1358
f 1358 1359 1357
f 1360 1361 1362
f 1362 1363 1360
f 1363 1362 1364
f 1364 1365 1363
f 1365 1364 1366
f 1366 1367 1365
f 1367 1366 1368
f 1368 1369 1367
f 1369 1368 1370
f 1370 1371 1369
f 1371 1370 1355
f 1355 1354 1371

