# https://github.com/mikedh/trimesh

o v2_Low-Poly-mesh
v 0.03052576 -0.04904747 1.65492243
v 0.02794293 -0.04300302 1.65458539
v 0.03689033 -0.04088077 1.64600990
v 0.02763402 -0.03663080 1.65523533
v 0.03591515 -0.03454848 1.64729118
v 0.03838257 -0.04777470 1.67445966
v 0.04092068 -0.05264490 1.67109862
v 0.04967111 -0.05076147 1.67127594
v 0.04372354 -0.05550937 1.66632890
v 0.03486347 -0.05383364 1.66482846
v 0.04044679 -0.05629599 1.66282485
v 0.03026593 -0.04932212 1.66628163
v 0.03651041 -0.04174166 1.67563613
v 0.02785887 -0.04338676 1.66688785
v 0.03558298 -0.03534707 1.67477544
v 0.02746627 -0.03689449 1.66659731
v 0.05550086 -0.03041439 1.65578787
v 0.05524097 -0.03068894 1.66714696
v 0.05782385 -0.03673349 1.66748400
v 0.05810532 -0.04277191 1.65546190
v 0.05800006 -0.03633870 1.65518431
v 0.05599672 -0.04916688 1.66525006
v 0.05609855 -0.04893382 1.65658635
v 0.05191883 -0.05371461 1.66305042
v 0.05193117 -0.05361683 1.65848602
v 0.04856499 -0.05455870 1.66643294
v 0.04995762 -0.04527438 1.67469365
v 0.04739804 -0.03205911 1.64752240
v 0.04937321 -0.03817320 1.64635435
v 0.03871474 -0.04697611 1.64697551
v 0.04899627 -0.03903939 1.67588860
v 0.05805141 -0.04320867 1.66683771
v 0.04975402 -0.05006352 1.65030323
v 0.04120957 -0.05210906 1.65014164
v 0.04862974 -0.05421404 1.65506266
v 0.04389128 -0.05524577 1.65496792
v 0.05019764 -0.04448674 1.64720761
v 0.03496531 -0.05360069 1.65616475
v 0.04054048 -0.05609515 1.65825668
v 0.04922788 -0.05522331 1.66193251
v 0.04754708 -0.05560204 1.66357407
v 0.04706588 -0.03285770 1.67500655
v 0.04927387 -0.05508487 1.65950731
v 0.04758786 -0.05548097 1.65779989
v 0.04522404 -0.05604288 1.65775528
v 0.04353239 -0.05632951 1.65939131
v 0.04348645 -0.05646803 1.66181651
v 0.04509110 -0.05617491 1.66352681
v -0.01029829 -0.04650796 1.64479359
v -0.00154997 -0.04652003 1.65382588
v -0.00265371 -0.05300404 1.65406728
v -0.01090485 -0.04013166 1.64608417
v -0.00278056 -0.04025775 1.65445169
v -0.02166492 -0.05926809 1.66943846
v -0.01271957 -0.05904143 1.66971695
v -0.01157106 -0.05373160 1.67317284
v -0.01945306 -0.06266970 1.66467992
v -0.01452494 -0.06245549 1.66482846
v -0.01098149 -0.06242875 1.66149896
v -0.00624232 -0.05873550 1.66376910
v -0.01123125 -0.04743478 1.67440587
v -0.00291360 -0.05327868 1.66542649
v -0.01178998 -0.04099618 1.67355448
v -0.00200272 -0.04694779 1.66611815
v -0.03131898 -0.04076749 1.65355105
v -0.03232199 -0.04710944 1.65285661
v -0.03268255 -0.04752624 1.66515166
v -0.03092649 -0.05338881 1.65316852
v -0.02758764 -0.05891330 1.65443032
v -0.02787381 -0.05916826 1.66308850
v -0.02253844 -0.06249718 1.65656775
v -0.02273512 -0.06261695 1.66112662
v -0.02340604 -0.05402286 1.67280327
v -0.03134903 -0.05386948 1.66453415
v -0.02306878 -0.04681176 1.64448810
v -0.02264769 -0.04041198 1.64571747
v -0.01068585 -0.05286699 1.64570253
v -0.02399870 -0.04774397 1.67400752
v -0.02353282 -0.04127649 1.67318768
v -0.03157880 -0.04104214 1.66491025
v -0.02084469 -0.05848230 1.64848336
v -0.02242869 -0.05314730 1.64533583
v -0.01417291 -0.06216979 1.65347124
v -0.01901967 -0.06228103 1.65331994
v -0.00313259 -0.04054336 1.66580802
v -0.00595609 -0.05848044 1.65511004
v -0.01088780 -0.06222791 1.65693168
v -0.01971183 -0.06344433 1.66015636
v -0.01807471 -0.06342733 1.66188337
v -0.01206199 -0.05846168 1.64876848
v -0.01966585 -0.06330580 1.65773016
v -0.01784957 -0.06328435 1.65611372
v -0.01542076 -0.06327470 1.65619264
v -0.01379442 -0.06316569 1.65791400
v -0.01384041 -0.06330422 1.66033921
v -0.01555369 -0.06340663 1.66196417
f 1 2 3
f 2 4 5
f 6 7 8
f 8 7 9
f 7 10 11
f 6 12 10
f 13 14 12
f 15 16 14
f 17 18 19
f 20 21 19
f 22 23 20
f 22 24 25
f 8 26 24
f 27 8 22
f 28 29 3
f 30 3 29
f 31 27 32
f 31 19 18
f 33 34 30
f 33 35 36
f 14 16 4
f 12 14 2
f 33 23 25
f 23 33 37
f 10 12 1
f 10 38 39
f 20 37 29
f 17 21 29
f 40 24 26
f 41 26 9
f 34 36 39
f 30 34 38
f 42 15 13
f 31 13 6
f 24 40 43
f 43 44 35
f 44 45 36
f 36 45 46
f 46 47 11
f 47 48 9
f 47 40 41
f 46 43 40
f 46 45 44
f 49 50 51
f 52 53 50
f 54 55 56
f 54 57 58
f 55 58 59
f 56 55 60
f 61 56 62
f 63 61 64
f 65 66 67
f 67 66 68
f 68 69 70
f 70 69 71
f 54 70 72
f 73 74 70
f 49 75 76
f 75 49 77
f 78 67 74
f 78 79 80
f 81 82 77
f 83 84 81
f 53 85 64
f 50 64 62
f 81 84 71
f 69 68 82
f 60 86 51
f 87 86 60
f 68 66 75
f 75 66 65
f 57 72 88
f 58 57 89
f 90 86 87
f 77 51 86
f 79 78 61
f 78 73 56
f 72 71 91
f 84 92 91
f 83 93 92
f 83 87 94
f 94 87 59
f 95 59 58
f 89 88 95
f 88 91 94
f 94 91 92
f 30 1 3
f 3 2 5
f 27 6 8
f 26 8 9
f 9 7 11
f 7 6 10
f 6 13 12
f 13 15 14
f 21 17 19
f 32 20 19
f 32 22 20
f 23 22 25
f 22 8 24
f 32 27 22
f 5 28 3
f 37 30 29
f 19 31 32
f 42 31 18
f 37 33 30
f 34 33 36
f 2 14 4
f 1 12 2
f 35 33 25
f 20 23 37
f 38 10 1
f 11 10 39
f 21 20 29
f 28 17 29
f 41 40 26
f 48 41 9
f 38 34 39
f 1 30 38
f 31 42 13
f 27 31 6
f 25 24 43
f 25 43 35
f 35 44 36
f 39 36 46
f 39 46 11
f 11 47 9
f 48 47 41
f 47 46 40
f 43 46 44
f 77 49 51
f 49 52 50
f 73 54 56
f 55 54 58
f 60 55 59
f 62 56 60
f 64 61 62
f 85 63 64
f 80 65 67
f 74 67 68
f 74 68 70
f 72 70 71
f 57 54 72
f 54 73 70
f 52 49 76
f 82 75 77
f 73 78 74
f 67 78 80
f 90 81 77
f 90 83 81
f 50 53 64
f 51 50 62
f 69 81 71
f 81 69 82
f 62 60 51
f 59 87 60
f 82 68 75
f 76 75 65
f 89 57 88
f 96 58 89
f 83 90 87
f 90 77 86
f 63 79 61
f 61 78 56
f 88 72 91
f 71 84 91
f 84 83 92
f 93 83 94
f 95 94 59
f 96 95 58
f 96 89 95
f 95 88 94
f 93 94 92

