# https://github.com/mikedh/trimesh

o v2_Eyebrow001-mesh
v 0.03172208 -0.06949324 1.68134534
v 0.03138666 -0.06837366 1.68192200
v 0.02695486 -0.06942537 1.68090714
v 0.03249041 -0.06641177 1.67356467
v 0.03633602 -0.06597873 1.67478186
v 0.03615572 -0.06691102 1.67520069
v 0.04240812 -0.06455043 1.67573541
v 0.04186399 -0.06560808 1.67633620
v 0.04819359 -0.06223424 1.67644202
v 0.04819342 -0.06321007 1.67733613
v 0.05478036 -0.05886651 1.67748843
v 0.05454648 -0.05948553 1.67853949
v 0.05971617 -0.05419668 1.67849865
v 0.06001235 -0.05463650 1.67992946
v 0.06384182 -0.04958664 1.67855620
v 0.06735997 -0.04345946 1.67701769
v 0.06770979 -0.04421246 1.67781617
v 0.06970814 -0.03842770 1.67513196
v 0.07024236 -0.03915879 1.67593508
v 0.07134123 -0.03442592 1.67309581
v 0.07160566 -0.03437179 1.67347269
v 0.02416251 -0.06944144 1.67681624
v 0.02499132 -0.07017132 1.67707060
v 0.02925377 -0.06731529 1.67267333
v 0.03253058 -0.06775057 1.67457300
v 0.03632800 -0.06994235 1.67891548
v 0.04216886 -0.06801556 1.67927488
v 0.04826835 -0.06443716 1.68010678
v 0.05451438 -0.05972137 1.68087836
v 0.06027258 -0.05403707 1.68157844
v 0.06438804 -0.04972805 1.67979111
v 0.06799890 -0.04373689 1.67891548
v 0.07024839 -0.03855852 1.67655248
v 0.02869758 -0.06835184 1.67364447
v 0.02627658 -0.06905908 1.67286182
v 0.02843138 -0.07079340 1.67712538
v 0.03263230 -0.07097696 1.67829620
v 0.02728127 -0.07052906 1.68060818
v 0.03590325 -0.06859307 1.68189500
v 0.03552327 -0.06717610 1.68282541
v 0.04154776 -0.06666702 1.68262020
v 0.04110027 -0.06545052 1.68346694
v 0.04820803 -0.06372046 1.68276221
v 0.04827676 -0.06222736 1.68407515
v 0.05471185 -0.05879288 1.68343727
v 0.05427703 -0.05774453 1.68457278
v 0.06030988 -0.05317293 1.68339178
v 0.05976719 -0.05196209 1.68432773
v 0.06381752 -0.04868741 1.68259795
v 0.06349293 -0.04765985 1.68318004
v 0.06769474 -0.04296430 1.67988486
v 0.06731116 -0.04139506 1.68024790
v 0.07043578 -0.03793096 1.67726750
v 0.07018592 -0.03664268 1.67737144
v 0.07226894 -0.03310487 1.67453858
v 0.02559150 -0.06989602 1.67428334
v 0.07227497 -0.03372640 1.67355072
v 0.06415672 -0.04959444 1.68089319
v 0.02457608 -0.06896493 1.67307998
v 0.07221498 -0.03227972 1.67281533
v 0.00428219 -0.07212903 1.68032306
v -0.00031822 -0.07215448 1.68110493
v -0.00035148 -0.07331796 1.68051897
v -0.00494997 -0.07181279 1.67414222
v -0.00532275 -0.07094641 1.67370856
v -0.00142639 -0.07045636 1.67269092
v -0.01085459 -0.07189469 1.67497778
v -0.01160077 -0.07099089 1.67434366
v -0.01761265 -0.07105728 1.67564077
v -0.01779683 -0.07010344 1.67474290
v -0.02471576 -0.06893745 1.67649769
v -0.02503487 -0.06838434 1.67543180
v -0.03123137 -0.06551718 1.67757853
v -0.03097159 -0.06501663 1.67606968
v -0.03662220 -0.06177889 1.67709661
v -0.03606551 -0.06150036 1.67598246
v -0.04104543 -0.05718130 1.67501497
v -0.04084226 -0.05636229 1.67423032
v -0.04459579 -0.05285307 1.67297693
v -0.04420828 -0.05201203 1.67219694
v -0.04691906 -0.04850561 1.67041990
v -0.04663050 -0.04849381 1.67005686
v 0.00655822 -0.07236941 1.67659620
v 0.00720406 -0.07146368 1.67637893
v 0.00197289 -0.07056852 1.67197048
v 0.00270701 -0.07145115 1.67297505
v -0.00120192 -0.07177304 1.67370391
v -0.00459339 -0.07482221 1.67786166
v -0.01073401 -0.07432407 1.67791180
v -0.01753772 -0.07228446 1.67841132
v -0.02474786 -0.06917329 1.67883657
v -0.03170853 -0.06500558 1.67920891
v -0.03648793 -0.06159608 1.67829997
v -0.04149358 -0.05679357 1.67609480
v -0.04477405 -0.05227471 1.67358968
v -0.04772439 -0.04803607 1.67045975
v 0.00552999 -0.07039322 1.67105313
v 0.00526291 -0.07156497 1.67232046
v 0.00336248 -0.07378285 1.67647921
v 0.00423991 -0.07327673 1.68001480
v 0.00605244 -0.07222596 1.67378006
v -0.00466080 -0.07196803 1.68179007
v -0.00464946 -0.07342883 1.68085047
v -0.01051236 -0.07160518 1.68213740
v -0.01061784 -0.07288771 1.68127671
v -0.01826662 -0.07016259 1.68236109
v -0.01778238 -0.07158967 1.68106221
v -0.02516957 -0.06721835 1.68252645
v -0.02528767 -0.06833272 1.68137600
v -0.03184522 -0.06288668 1.68196749
v -0.03203986 -0.06418535 1.68101207
v -0.03641439 -0.05957365 1.68060630
v -0.03645843 -0.06064513 1.68001480
v -0.04144400 -0.05436390 1.67744670
v -0.04142911 -0.05597705 1.67707336
v -0.04520522 -0.05040288 1.67439934
v -0.04513969 -0.05171306 1.67428976
v -0.04803990 -0.04641344 1.67156659
v -0.04791477 -0.04743654 1.67144307
v 0.00688031 -0.07107501 1.67262407
v -0.04796873 -0.04661140 1.66971883
v -0.00073151 -0.07495554 1.67743641
v 0.02580634 -0.06797525 1.67157489
v 0.07214381 -0.03208176 1.67466210
f 1 2 3
f 4 5 6
f 5 7 8
f 7 9 10
f 9 11 12
f 11 13 14
f 14 13 15
f 15 16 17
f 16 18 19
f 18 20 21
f 3 22 23
f 24 4 25
f 25 6 26
f 6 8 27
f 8 10 28
f 10 12 29
f 29 12 14
f 30 14 31
f 31 17 32
f 32 17 19
f 33 19 21
f 24 34 35
f 36 37 1
f 36 38 23
f 2 1 39
f 40 39 41
f 42 41 43
f 44 43 45
f 46 45 47
f 48 47 49
f 50 49 51
f 52 51 53
f 54 53 55
f 56 23 22
f 57 21 20
f 1 37 26
f 39 26 27
f 41 27 28
f 43 28 29
f 45 29 30
f 47 30 58
f 49 58 32
f 51 32 33
f 53 33 57
f 25 37 36
f 34 36 56
f 35 56 59
f 55 57 60
f 61 62 63
f 64 65 66
f 67 68 65
f 69 70 68
f 71 72 70
f 73 74 72
f 73 75 76
f 77 78 76
f 79 80 78
f 81 82 80
f 83 84 61
f 85 86 87
f 88 64 87
f 89 67 64
f 90 69 67
f 91 71 69
f 91 92 73
f 92 93 75
f 94 77 75
f 94 95 79
f 95 96 81
f 85 97 98
f 99 100 63
f 99 101 83
f 62 102 103
f 102 104 105
f 104 106 107
f 106 108 109
f 108 110 111
f 110 112 113
f 112 114 115
f 114 116 117
f 116 118 119
f 101 120 84
f 96 121 82
f 63 103 88
f 103 105 89
f 105 107 90
f 107 109 91
f 109 111 92
f 111 113 93
f 113 115 94
f 115 117 95
f 117 119 96
f 99 122 87
f 86 98 101
f 98 97 120
f 119 118 121
f 38 1 3
f 25 4 6
f 6 5 8
f 8 7 10
f 10 9 12
f 12 11 14
f 31 14 15
f 31 15 17
f 17 16 19
f 19 18 21
f 38 3 23
f 34 24 25
f 37 25 26
f 26 6 27
f 27 8 28
f 28 10 29
f 30 29 14
f 58 30 31
f 58 31 32
f 33 32 19
f 57 33 21
f 123 24 35
f 38 36 1
f 56 36 23
f 40 2 39
f 42 40 41
f 44 42 43
f 46 44 45
f 48 46 47
f 50 48 49
f 52 50 51
f 54 52 53
f 124 54 55
f 59 56 22
f 60 57 20
f 39 1 26
f 41 39 27
f 43 41 28
f 45 43 29
f 47 45 30
f 49 47 58
f 51 49 32
f 53 51 33
f 55 53 57
f 34 25 36
f 35 34 56
f 123 35 59
f 124 55 60
f 100 61 63
f 87 64 66
f 64 67 65
f 67 69 68
f 69 71 70
f 71 73 72
f 74 73 76
f 75 77 76
f 77 79 78
f 79 81 80
f 100 83 61
f 66 85 87
f 122 88 87
f 88 89 64
f 89 90 67
f 90 91 69
f 71 91 73
f 73 92 75
f 93 94 75
f 77 94 79
f 79 95 81
f 86 85 98
f 122 99 63
f 100 99 83
f 63 62 103
f 103 102 105
f 105 104 107
f 107 106 109
f 109 108 111
f 111 110 113
f 113 112 115
f 115 114 117
f 117 116 119
f 83 101 84
f 81 96 82
f 122 63 88
f 88 103 89
f 89 105 90
f 90 107 91
f 91 109 92
f 92 111 93
f 93 113 94
f 94 115 95
f 95 117 96
f 86 99 87
f 99 86 101
f 101 98 120
f 96 119 121

