# https://github.com/mikedh/trimesh

o v2_jeans01-mesh
v 0.15225559 0.04443813 1.03638415
v 0.14440736 0.06644086 1.03928940
v 0.14181121 0.05993317 1.05361971
v -0.00137138 0.13021859 1.03876663
v -0.00025717 0.13551096 1.02716060
v -0.02198380 0.13513956 1.02781054
v -0.10102767 -0.05492006 1.00905784
v -0.06497992 -0.06717620 0.99866346
v -0.06283724 -0.06754927 1.02177536
v 0.10085514 -0.06179273 1.03059602
v 0.12276747 -0.04517280 1.03858102
v 0.11849642 -0.04795826 1.04888717
v 0.09723402 -0.06262837 1.04183071
v 0.06677960 -0.07228464 1.03523846
v 0.10876949 -0.05742234 1.00925187
v 0.13437533 -0.03800886 1.01740222
v -0.06098029 -0.06662087 1.03477414
v -0.09022769 -0.05807878 1.04145925
v -0.09561292 -0.05742884 1.02966749
v -0.10851890 -0.04480140 1.04675163
v -0.03721098 0.13393249 1.02976036
v -0.03758239 0.12687603 1.04303772
v -0.02328367 0.12882585 1.04043797
v -0.11390414 -0.04164454 1.03440279
v -0.11084012 0.08852948 1.05872912
v -0.11139722 0.09001503 1.05408668
v -0.13829960 0.05640212 1.05081286
v -0.11139722 0.09512172 1.04359480
v -0.13759172 0.06169289 1.03612604
v 0.00029990 -0.07525581 1.01722579
v 0.00122843 -0.07302744 0.99475631
v 0.06715487 -0.07014672 0.99949902
v 0.07977843 0.11749829 1.04721595
v 0.11032563 0.10227105 1.05325113
v 0.11190415 0.10774916 1.03839529
v 0.05006681 0.12557609 1.04368766
v 0.04941687 0.12334774 1.05139406
v 0.07922136 0.11536275 1.05390107
v 0.10939723 0.10087837 1.05817204
v -0.08057137 0.11712689 1.03830242
v -0.08187125 0.11072031 1.04935149
v -0.05828767 0.12334774 1.04498754
v -0.08149985 0.10839909 1.05501521
v -0.05828767 0.12056226 1.05167266
v 0.14248289 -0.01879968 1.04395973
v -0.12529770 -0.03477708 1.01559441
v -0.13373551 -0.01536968 1.03930423
v 0.15112117 0.01035431 1.04785471
v 0.14998145 0.00654500 1.05482672
v 0.13874739 -0.02205204 1.05194937
v 0.14986501 -0.01192580 1.02462493
v 0.15397367 0.01834351 1.03045855
v -0.12980337 -0.01768979 1.04897351
v -0.14336746 0.01146392 1.05073118
v 0.00029990 -0.07525581 1.01722579
v -0.14175450 -0.00767330 1.01972527
v -0.14599443 0.01406213 1.04393925
v 0.14955676 0.03644616 1.05128460
v 0.14105867 0.05788938 1.05900771
v 0.14886308 0.03309929 1.05677753
v -0.14574988 0.04376656 1.03161731
v -0.14538070 0.03745888 1.04745359
v -0.14459001 0.03495414 1.05313967
v -0.13758865 0.05454667 1.05547666
v -0.14795755 0.02166742 1.02613832
v 0.06603686 -0.07265604 1.02168250
v 0.05101682 -0.04903011 0.81848819
v 0.05888271 -0.05205949 0.77227519
v 0.08793891 -0.06312558 0.78324296
v 0.08066485 -0.06182402 0.83250903
v 0.11938684 -0.06129674 0.79614832
v 0.11145031 -0.05868889 0.84498704
v 0.10619070 -0.05466584 0.88313159
v 0.07791373 -0.05468423 0.86977658
v 0.04354567 -0.04610946 0.85698971
v -0.07643759 -0.05349475 0.86495644
v -0.11203155 -0.05351795 0.88164991
v -0.11560530 -0.05844869 0.83781784
v -0.07770797 -0.06031699 0.82568423
v -0.11615683 -0.06312576 0.77872289
v -0.08133333 -0.06234138 0.76982408
v -0.04901747 -0.04581280 0.76156011
v -0.04216372 -0.04469342 0.81036988
v -0.04080872 -0.04206608 0.85837160
v 0.07063673 -0.05501263 0.71807725
v 0.08578355 -0.05374878 0.64712014
v 0.10904729 -0.05979575 0.65134120
v 0.09620987 -0.06349623 0.72371750
v 0.13359726 -0.05630657 0.65522063
v 0.12338900 -0.06001959 0.72997898
v -0.11564254 -0.05908396 0.71373294
v -0.08288313 -0.06017317 0.70911585
v -0.11419345 -0.05188037 0.64621208
v -0.08567940 -0.05359734 0.64313943
v -0.06060867 -0.04256588 0.63940682
v -0.05369880 -0.04776718 0.70503614
v 0.09204159 -0.04856967 0.59533262
v 0.09465425 -0.04625932 0.53980110
v 0.11262958 -0.04330050 0.54323298
v 0.11172170 -0.05066935 0.59812995
v 0.13620733 -0.04183553 0.54713267
v 0.13446102 -0.04826290 0.60180910
v -0.11181661 -0.04060204 0.59127040
v -0.11920719 -0.03080454 0.53630757
v -0.09335911 -0.03721157 0.53373510
v -0.07121334 -0.03783904 0.53068679
v -0.06702089 -0.03727926 0.58866002
v -0.08655264 -0.04227740 0.58993101
v 0.10223460 -0.03885369 0.49523027
v 0.10946706 -0.03236217 0.45116869
v 0.12909679 -0.03369557 0.45535754
v 0.15185606 -0.03030251 0.45687713
v 0.14169952 -0.03300895 0.50179042
v 0.11979333 -0.03830060 0.49873282
v -0.10142897 -0.03108763 0.48926017
v -0.12841231 -0.02423700 0.49190636
v -0.13485249 -0.01872984 0.44805992
v -0.10656805 -0.02704540 0.44479999
v -0.08327567 -0.02216964 0.44231258
v -0.08269618 -0.02786912 0.48791657
v 0.10851025 -0.02223561 0.40962933
v 0.10458302 -0.01740522 0.37597323
v 0.12838946 -0.02598094 0.37953109
v 0.13138485 -0.02949806 0.41287626
v 0.15698949 -0.02379913 0.38205279
v 0.15695922 -0.02482595 0.41646346
v -0.13760118 -0.01637508 0.40999758
v -0.10651754 -0.02074247 0.40597312
v -0.13571172 -0.01475848 0.37425886
v -0.10549361 -0.01652828 0.37284645
v -0.08241842 -0.00794397 0.36995235
v -0.08210331 -0.01361955 0.40302870
v 0.13158309 -0.03593100 0.12764548
v 0.11217193 -0.03646999 0.12859078
v 0.11537837 -0.04392686 0.08442618
v 0.13641596 -0.03883708 0.07963941
v 0.15881248 -0.02423351 0.07320007
v 0.15352521 -0.02764898 0.12608980
v 0.15088125 -0.02696924 0.18269944
v 0.12999918 -0.03104362 0.18149295
v 0.11087883 -0.02764211 0.17946710
v -0.10572972 -0.03843791 0.12081061
v -0.10285791 -0.03142700 0.17387481
v -0.12449716 -0.02848276 0.17416635
v -0.12638607 -0.02935499 0.11940580
v -0.13473048 -0.02698152 0.06894547
v -0.11115070 -0.03923484 0.07540584
v -0.09011394 -0.04253478 0.08037419
v -0.08769059 -0.03642644 0.12201523
v -0.08505836 -0.02674135 0.17224819
v 0.14996835 -0.04032404 0.85426200
v 0.14987021 -0.04582432 0.79570614
v 0.17677287 -0.01625666 0.80115098
v 0.17571690 -0.01260528 0.85385208
v 0.17277797 -0.01449589 0.89519995
v 0.14706897 -0.03899798 0.89401458
v -0.14886923 -0.03508171 0.84231190
v -0.14342485 -0.03353040 0.88913201
v -0.16981136 -0.00159185 0.89347195
v -0.16830192 0.00050274 0.84327215
v -0.16971424 0.00091825 0.78435584
v -0.14949809 -0.03567910 0.78226296
v 0.15924052 -0.04427662 0.73549875
v 0.16045247 -0.03784313 0.65738031
v 0.18111894 -0.01221856 0.65848261
v 0.18331900 -0.01461903 0.73736566
v -0.15041989 -0.03501152 0.71639684
v -0.17243063 0.00091410 0.72074131
v -0.16707493 0.00139375 0.64989439
v -0.14436931 -0.02939918 0.64793350
v 0.15708299 -0.02324255 0.55018191
v 0.16927914 0.00347234 0.55116413
v 0.17424461 -0.00763483 0.60588505
v 0.15811175 -0.03242763 0.60419131
v -0.13985881 -0.02207483 0.59293443
v -0.16063985 0.00411187 0.59519278
v -0.15945129 0.01145590 0.53790823
v -0.14478333 -0.00814216 0.53866659
v 0.17120928 -0.00790978 0.45758036
v 0.18805605 0.02410374 0.45286382
v 0.17511432 0.01220075 0.50010791
v 0.16124010 -0.01422797 0.50336811
v -0.15396811 -0.00687792 0.49223227
v -0.16869587 0.02144766 0.49134591
v -0.17792013 0.03052073 0.44665473
v -0.15958054 0.00170184 0.44696420
v 0.17744074 -0.00439610 0.41774953
v 0.18140185 -0.00689972 0.38220979
v 0.20065461 0.02135701 0.38358330
v 0.19439409 0.02539090 0.41911402
v -0.16320944 0.00303642 0.41236410
v -0.18255254 0.03250442 0.41549915
v -0.18227891 0.03046478 0.37886751
v -0.16195097 0.00222321 0.37591844
v 0.17444795 -0.00272056 0.06668862
v 0.18052257 0.02179382 0.06208166
v 0.18631615 0.01654937 0.11851065
v 0.17222960 -0.00940019 0.12243490
v 0.19009148 0.01368005 0.17582630
v 0.17439093 -0.01150375 0.17922708
v -0.14863293 -0.01156724 0.17342031
v -0.14729701 -0.01052713 0.11775727
v -0.16730269 0.01639862 0.17093540
v -0.16446560 0.01867208 0.11494915
v -0.16224122 0.02065869 0.05955673
v -0.15285076 -0.00608006 0.06317909
v 0.18585609 0.02576036 0.79696401
v 0.17683174 0.06797699 0.78921809
v 0.17477802 0.07348708 0.84151880
v 0.17249886 0.08278838 0.88798886
v 0.18315604 0.02924852 0.89127735
v 0.18458797 0.02923215 0.84906144
v -0.17675144 0.04095141 0.84607661
v -0.17677243 0.03924366 0.89612046
v -0.16646733 0.08884570 0.89801172
v -0.16698513 0.08084947 0.84770168
v -0.16092658 0.07454655 0.78609508
v -0.17560467 0.03787538 0.78682770
v 0.18374750 0.02312336 0.65886580
v 0.17655802 0.05826112 0.65786643
v 0.17983177 0.06384680 0.73216101
v 0.18742041 0.02465241 0.73551425
v -0.17478304 0.03469968 0.72581016
v -0.16173993 0.06822775 0.73379050
v -0.16327202 0.06361852 0.65519362
v -0.17201430 0.03288904 0.65229098
v 0.17591839 0.03060197 0.54814842
v 0.18084819 0.06267316 0.55005673
v 0.17350219 0.05609835 0.60037419
v 0.17677380 0.02297194 0.60625164
v -0.16849737 0.03397253 0.59721503
v -0.16371231 0.06379102 0.59973216
v -0.16581098 0.06905854 0.54782290
v -0.16911499 0.03981020 0.54246373
v 0.18855539 0.05056617 0.45877866
v 0.18518507 0.08378577 0.45281526
v 0.18293478 0.07284041 0.49734760
v 0.18666090 0.04367098 0.49567223
v -0.17003578 0.07856788 0.49774330
v -0.17126138 0.09148646 0.44971958
v -0.18180734 0.06147246 0.44794368
v -0.17353266 0.05014646 0.49133628
v 0.20358222 0.05627483 0.38105724
v 0.19428815 0.08983561 0.37765322
v 0.18577373 0.08782048 0.41551678
v 0.19875149 0.05751140 0.41762260
v -0.18524748 0.06542751 0.41661872
v -0.17483486 0.09598805 0.41679374
v -0.17685032 0.09955818 0.37767979
v -0.18434629 0.06580809 0.37882786
v 0.17958545 0.05111700 0.05931870
v 0.16980447 0.08188393 0.06065731
v 0.17534792 0.08166958 0.11190946
v 0.18551626 0.05002432 0.11418491
v 0.18051096 0.08376783 0.16791484
v 0.18920673 0.04985852 0.17202823
v -0.17010263 0.05627356 0.16987591
v -0.16430302 0.09277632 0.16836562
v -0.16052723 0.08828956 0.11268039
v -0.16737687 0.05399031 0.11305402
v -0.15714818 0.08613548 0.06058709
v -0.16384091 0.05256824 0.05826813
v 0.15577791 0.09797434 0.78110603
v 0.12375899 0.11780898 0.77474334
v 0.11983641 0.12513309 0.82160097
v 0.15237658 0.10349085 0.83291402
v 0.11624567 0.13413006 0.85317530
v 0.14815307 0.11650374 0.86676026
v -0.13792152 0.11952930 0.87717467
v -0.14260378 0.11136704 0.83904782
v -0.11093390 0.14016324 0.86228086
v -0.11162209 0.13458636 0.82383265
v -0.11640538 0.12288856 0.78041719
v -0.14017004 0.10463516 0.78364873
v 0.15879298 0.08791601 0.65553271
v 0.13151196 0.10680026 0.65352616
v 0.12963837 0.11496849 0.72049388
v 0.15882400 0.09545903 0.72635201
v -0.14210817 0.09771484 0.72675756
v -0.11500587 0.11696369 0.72450336
v -0.11788000 0.10670136 0.65307042
v -0.14422177 0.08866711 0.65399580
v 0.15080669 0.08459979 0.60705958
v 0.15869800 0.09113991 0.54364639
v 0.13005126 0.10347009 0.54250490
v 0.12409019 0.09587006 0.60585915
v -0.14319802 0.08795502 0.60185299
v -0.11510726 0.10605685 0.60781650
v -0.11831993 0.10132814 0.54827388
v -0.14572843 0.09032223 0.54729859
v 0.16809244 0.10849959 0.44434242
v 0.14535711 0.11670385 0.44787403
v 0.13724947 0.10600094 0.49468171
v 0.16069518 0.08986477 0.50126871
v -0.12625906 0.11030391 0.49811138
v -0.15160251 0.10209933 0.49266477
v -0.12836087 0.11984890 0.44730710
v -0.15108237 0.11144795 0.44846279
v 0.17240063 0.11089226 0.37281775
v 0.14453568 0.12194232 0.36808497
v 0.14671939 0.12182190 0.40956082
v 0.17357674 0.10768960 0.41200180
v -0.15500439 0.11658155 0.41326158
v -0.12797508 0.12692157 0.41252240
v -0.12551440 0.13000341 0.37067750
v -0.15330276 0.11984038 0.37246102
v 0.15571431 0.10327562 0.10929401
v 0.15389020 0.10060022 0.06186195
v 0.13283951 0.10809128 0.06348668
v 0.13165365 0.10956510 0.10765523
v 0.13735708 0.10971286 0.15851538
v 0.16031812 0.10320495 0.16258291
v -0.14661774 0.11500496 0.16545704
v -0.14426272 0.11207990 0.11158645
v -0.12570809 0.12271037 0.16198004
v -0.12220685 0.12158725 0.11129481
v -0.12521088 0.11739325 0.06473896
v -0.14299895 0.10925513 0.06311279
v 0.05347008 0.12231556 0.81088301
v 0.04397878 0.13146240 0.83353120
v 0.07571554 0.13473478 0.83435076
v 0.08454168 0.13042015 0.81411223
v 0.09092988 0.11981404 0.76758820
v 0.06088572 0.11165476 0.76704845
v -0.07956658 0.13689484 0.82040840
v -0.08304589 0.13227731 0.77050651
v -0.06936518 0.14086001 0.83899126
v -0.04179188 0.14368916 0.83469864
v -0.04471240 0.13558579 0.80947705
v -0.05158922 0.12354188 0.76448074
v 0.06736052 0.10664059 0.71697295
v 0.09775700 0.11719491 0.71670216
v 0.10206385 0.10862882 0.65102043
v 0.07311097 0.09552257 0.65027060
v -0.08594914 0.12079978 0.71577474
v -0.08854341 0.11057665 0.65099315
v -0.05717397 0.11074383 0.71546083
v -0.06143897 0.09973749 0.64883846
v 0.10159162 0.08977456 0.59829736
v 0.07990256 0.08431655 0.59671463
v 0.10606777 0.09968740 0.54417302
v 0.08593387 0.08703529 0.54181307
v -0.08764117 0.10701211 0.60444560
v -0.09332261 0.09850469 0.54131438
v -0.06423325 0.09607355 0.59623730
v -0.07048604 0.09286864 0.53695092
v 0.09328774 0.09531110 0.49333457
v 0.11490252 0.10639432 0.49810524
v 0.11827562 0.11756836 0.44601575
v 0.09880737 0.10413132 0.44183849
v -0.09895687 0.11060553 0.49463318
v -0.10203796 0.11930471 0.44541501
v -0.07758942 0.10041460 0.49471210
v -0.07948500 0.10997209 0.44560741
v 0.12184909 0.11930826 0.40821180
v 0.09694741 0.10972326 0.40603478
v 0.11912194 0.11979494 0.36575260
v 0.09685073 0.10712711 0.36562874
v -0.10052703 0.12639306 0.40962117
v -0.09915055 0.12871566 0.36851188
v -0.07700816 0.11706684 0.40757597
v -0.07656437 0.11798542 0.36768601
v 0.11295845 0.10327689 0.10424025
v 0.09587565 0.08559977 0.10495008
v 0.09652918 0.09420310 0.15575406
v 0.11697045 0.10793023 0.15602137
v 0.11208762 0.09910027 0.06280553
v 0.09368726 0.07837567 0.06302092
v -0.10258651 0.11571821 0.10932195
v -0.10084940 0.10864880 0.06445395
v -0.10536882 0.12186579 0.15931491
v -0.08468623 0.10618048 0.15887815
v -0.08301119 0.09582723 0.10767083
v -0.08049422 0.08617771 0.06391421
v 0.00373532 -0.07126331 0.96987290
v 0.00317825 -0.06884925 0.94378238
v 0.04456336 -0.06576563 0.93850107
v 0.00122843 -0.07302744 0.99475631
v -0.06629690 -0.06613917 0.97005111
v 0.00373532 -0.07126331 0.96987290
v -0.04171434 -0.06594195 0.93716600
v 0.00364246 -0.06949919 0.91611344
v 0.00355059 -0.06968460 0.88853897
v 0.02611299 -0.06363244 0.88821726
v 0.03247723 -0.06512137 0.91276916
v -0.03008473 -0.06489722 0.91354467
v 0.00364246 -0.06949919 0.91611344
v 0.00317825 -0.06884925 0.94378238
v -0.02406627 -0.06209505 0.88832236
v 0.00355059 -0.06968460 0.88853897
v 0.07197751 -0.06260832 0.92661158
v 0.07848884 -0.05859131 0.91573711
v 0.10526008 -0.05568634 0.93594316
v 0.09830904 -0.06026844 0.95559273
v 0.06864098 -0.06744834 0.97185426
v 0.05828142 -0.06164705 0.90615826
v 0.06423203 -0.05839632 0.89787774
v -0.05768394 -0.06054503 0.90538336
v -0.07212709 -0.06360124 0.92778738
v -0.09188513 -0.05875472 0.94946846
v -0.10125645 -0.05397672 0.93261095
v -0.07984976 -0.05894153 0.91228829
v -0.06746064 -0.05800943 0.89538939
v 0.07920658 -0.05701464 0.89581934
v 0.05939103 -0.05448284 0.88401596
v 0.10526101 -0.05409594 0.91345784
v -0.07846644 -0.05623749 0.88701495
v -0.10746135 -0.05189356 0.91056737
v -0.06052012 -0.05356994 0.88330874
v 0.04625882 -0.05774656 0.88379741
v 0.02321721 -0.05589173 0.86461304
v 0.03420003 -0.04547121 0.86128692
v -0.04573739 -0.05404793 0.88565315
v -0.03040926 -0.04466101 0.86284784
v -0.01558524 -0.05498998 0.86248303
v 0.00379094 0.14695711 0.87410705
v -0.02814892 0.15266953 0.86533559
v -0.02466822 0.16041255 0.90664671
v -0.00051070 -0.06123406 0.86183431
v -0.00051070 -0.06123406 0.86183431
v -0.02143110 0.15519612 0.97368521
v -0.02179807 0.14971681 0.99930599
v 0.00029990 0.14628139 0.99670612
v 0.12655486 -0.04846790 0.97403718
v 0.15199784 -0.02948348 0.98686418
v 0.14225495 -0.03492981 1.00554449
v 0.11613369 -0.05441524 0.99455110
v 0.13684241 -0.04410838 0.95527241
v 0.16106203 -0.02283994 0.96558233
v -0.13381880 -0.03726329 0.95073391
v -0.11081978 -0.05148289 0.99074532
v -0.12488331 -0.04215827 0.97186821
v -0.13479381 -0.02960270 1.00055938
v -0.14391881 -0.02011190 0.98130538
v -0.15398845 -0.00974166 0.96361857
v 0.14426251 -0.04133304 0.92690400
v 0.16791956 -0.01696475 0.93362482
v -0.14210612 -0.03362352 0.92821539
v -0.16214038 -0.00290397 0.93546312
v 0.15413141 0.05112712 1.02378185
v 0.14530855 0.07220143 1.02588673
v 0.15739320 0.02419805 1.01744583
v -0.13733916 0.06865111 1.02492942
v -0.14649387 0.05062223 1.01933344
v -0.15133139 0.02795695 1.01379967
v 0.15933495 0.07519333 0.97816516
v 0.14715977 0.09753913 0.98457080
v 0.14738141 0.08381936 1.00815443
v 0.15724092 0.06161253 1.00491492
v 0.16211975 0.03337158 0.99940439
v 0.16644075 0.04654811 0.97351254
v -0.15344351 0.03822337 0.99582131
v -0.14762375 0.06145635 1.00223713
v -0.13615823 0.08042489 1.00786842
v -0.13367303 0.09636853 0.98567941
v -0.15159953 0.07808126 0.97887918
v -0.15907025 0.05212406 0.97204464
v 0.15538952 -0.00625310 1.01204477
v -0.14645348 -0.00101857 1.00669860
v 0.16830033 0.01040639 0.97020717
v 0.16179869 0.00040290 0.99420576
v -0.15396541 0.00867711 0.98866645
v -0.16132415 0.02127493 0.96880236
v 0.17659600 0.02105467 0.93347240
v 0.17058339 0.06373313 0.93562372
v -0.16935734 0.03203666 0.93783907
v -0.16522808 0.06924599 0.94173040
v 0.16068970 0.09453991 0.94441007
v 0.14521812 0.11668172 0.95503190
v 0.15705764 0.11596316 0.91209864
v 0.13859614 0.13415458 0.92865581
v -0.15067132 0.09807933 0.94833195
v -0.14241400 0.11802675 0.91928571
v -0.13019714 0.11751977 0.95713025
v -0.12103287 0.13706746 0.92966209
v 0.13539509 0.13025229 0.89068270
v 0.12408360 0.14566509 0.90884745
v 0.10992963 0.14597518 0.87424048
v 0.10107928 0.15154116 0.89319507
v -0.12493067 0.13550980 0.89614343
v -0.09699209 0.14872862 0.87828804
v -0.10849170 0.14825865 0.90989795
v -0.08596032 0.15310829 0.89083655
v 0.06750354 0.15623391 0.87777214
v 0.07207563 0.14742929 0.85965122
v 0.03947398 0.14133246 0.84720521
v 0.02968820 0.15219415 0.86294364
v -0.03707467 0.14706054 0.84939654
v -0.06755699 0.14637480 0.86465643
v -0.06182537 0.15525656 0.87889365
v 0.11366828 0.11239159 1.02697487
v 0.11478246 0.12000518 1.01332616
v -0.11139722 0.10106404 1.03365999
v 0.11297006 0.12753183 0.99363385
v -0.10907599 0.10904903 1.01889701
v 0.11086741 0.13691322 0.97459049
v -0.10740471 0.12009805 0.99949161
v 0.11248957 0.14211323 0.95311185
v -0.10655552 0.13504752 0.97032317
v 0.10124381 0.15335267 0.94014175
v -0.10523317 0.14618852 0.94783431
v 0.08444301 0.15993819 0.92662309
v -0.09256720 0.15399896 0.93880191
v 0.06000212 0.16133947 0.91126380
v -0.07538780 0.16133324 0.92294150
v 0.02908160 0.15872855 0.90629612
v -0.05605998 0.16337267 0.91475755
v 0.00379094 0.14695711 0.87410705
v 0.00447809 0.15779466 0.90636430
v 0.00020709 0.13811072 1.01722579
v -0.02207667 0.13959627 1.01843280
v -0.00025717 0.13551096 1.02716060
v -0.00137138 0.13021859 1.03876663
v 0.02100513 0.13263261 1.03895236
v 0.08404947 0.12659744 1.02335383
v 0.05494013 0.13403753 1.01900847
v 0.05223102 0.13022628 1.02856441
v 0.08209965 0.12204786 1.03319578
v -0.05951057 0.12994166 1.03125061
v -0.05795473 0.13505107 1.02253211
v -0.07797162 0.12269780 1.02976036
v -0.00220699 0.12706170 1.04768016
v -0.03813946 0.12390481 1.05046564
v -0.02393361 0.12520475 1.04823723
v 0.08739203 0.13820358 0.99262087
v 0.06449773 0.14814912 0.98734521
v 0.05960736 0.14184343 1.00527608
v 0.08655642 0.13244694 1.01100489
v -0.07667175 0.12901151 1.01657585
v -0.05686842 0.14211146 1.01038284
v -0.05945030 0.14870210 0.99208793
v -0.07657887 0.13894633 0.99698471
v 0.09147738 0.14646711 0.97089419
v 0.07142204 0.15435924 0.96513760
v -0.08112850 0.14702418 0.97191558
v -0.06405499 0.15519662 0.96987932
v 0.05006681 0.15928027 0.95668829
v 0.02490482 0.15825887 0.94768201
v 0.02416201 0.15565912 0.97210120
v 0.04433518 0.15446085 0.97861918
v -0.04445317 0.16141578 0.95928815
v -0.04058481 0.15557256 0.98224775
v -0.02189093 0.16132294 0.95130316
v -0.03703842 0.13904118 1.02048290
v -0.03689205 0.14861156 1.00444794
v 0.01821173 0.12497862 0.84770495
v 0.00426300 0.12716054 0.85497431
v 0.00426300 0.12716054 0.85497431
v -0.01202070 0.12524515 0.84734876
v 0.03883782 0.09453111 0.76734215
v 0.02689879 0.07285496 0.76812934
v 0.02390246 0.08056828 0.80202909
v 0.03544446 0.10466366 0.80606752
v 0.01780491 0.08550535 0.81864847
v 0.02842906 0.11609321 0.82475503
v -0.01852353 0.11975288 0.82196081
v -0.02285566 0.11514094 0.80509057
v -0.00831306 0.08951855 0.81614783
v -0.01150276 0.08774915 0.80181016
v -0.01895453 0.08107493 0.76819796
v -0.03037462 0.10369296 0.76513616
v 0.02091133 0.04524348 0.77051016
v 0.02006946 0.01273408 0.76389893
v 0.01194866 0.03090387 0.79653018
v 0.01622749 0.05342637 0.79775989
v 0.00721468 0.03864386 0.80932093
v 0.01250739 0.06072152 0.81339998
v -0.00401563 0.06135834 0.81252751
v -0.00527936 0.05700789 0.79728173
v -0.00017676 0.04016948 0.80950588
v -0.00258166 0.03394298 0.79652686
v -0.00759355 0.01819541 0.76159055
v -0.01003309 0.05421992 0.76932495
v 0.05267353 0.07058355 0.65165521
v 0.04019792 0.04075195 0.64710697
v 0.02984360 0.06290831 0.72476873
v 0.04504213 0.08639525 0.71919903
v -0.01940834 0.06950449 0.72275654
v -0.02422898 0.05536296 0.64433465
v -0.04000023 0.07904604 0.64737305
v -0.03750341 0.09402822 0.71698070
v 0.05720313 0.06302486 0.59693821
v 0.06632375 0.06560054 0.53683077
v 0.05325773 0.04228555 0.53251962
v 0.04609960 0.03598938 0.59465407
v -0.04509996 0.07060176 0.59446801
v -0.03065338 0.05014712 0.59194192
v -0.03875111 0.05312288 0.53124132
v -0.05160710 0.07799625 0.53857367
v 0.04520538 0.01546261 0.59353494
v 0.05358712 0.01934913 0.53319319
v 0.05925931 0.00005081 0.53549487
v 0.05033577 -0.00237611 0.59353256
v 0.04072394 -0.00129141 0.64384333
v 0.03714938 0.01501457 0.64280074
v -0.01910938 0.02765567 0.63746497
v -0.02725852 0.02808894 0.58824301
v -0.02051203 0.01119916 0.63878112
v -0.02990232 0.01103972 0.58710673
v -0.04161346 0.01331257 0.52913240
v -0.03723727 0.03242716 0.52837941
v 0.07388958 0.07662907 0.49230239
v 0.07935954 0.08654491 0.44536183
v 0.06729760 0.06429341 0.44486314
v 0.06188729 0.05320827 0.48845970
v -0.05841169 0.08282718 0.49096183
v -0.04735366 0.06314158 0.48763422
v -0.04906063 0.07208211 0.44433445
v -0.05999875 0.09352161 0.44514912
v 0.06155464 0.02804511 0.48847702
v 0.06605888 0.03787438 0.44656142
v 0.07064896 0.01459075 0.44808220
v 0.06660300 0.00643382 0.49058634
v -0.04503322 0.03940099 0.48570117
v -0.04973033 0.01814400 0.48633644
v -0.05126929 0.02504772 0.44361971
v -0.04699515 0.04732484 0.44424569
v 0.07613575 0.08472642 0.36858551
v 0.06691054 0.05883667 0.37050284
v 0.06628722 0.06460360 0.40505383
v 0.07773769 0.08955762 0.40538030
v -0.05841191 0.09818071 0.40619867
v -0.04747569 0.07478823 0.40483053
v -0.04765395 0.07033224 0.36946861
v -0.05653139 0.09616975 0.36935153
v 0.06583347 0.03670688 0.36765164
v 0.06970061 0.01940370 0.36476851
v 0.06899894 0.01975048 0.40294588
v 0.06520566 0.03999222 0.40382314
v -0.04540057 0.05029921 0.40268934
v -0.04906174 0.03015957 0.40015718
v -0.05010450 0.03012747 0.36133729
v -0.04655119 0.04776586 0.36545309
v 0.08098794 0.05921001 0.10941620
v 0.08128042 0.05293211 0.06576694
v 0.07622562 0.02728686 0.07058128
v 0.07381791 0.03026267 0.11427498
v 0.07123625 0.03819315 0.16555555
v 0.08010899 0.06635486 0.16009428
v -0.06535321 0.07478889 0.16097301
v -0.06610381 0.06625114 0.11036131
v -0.05488529 0.04221786 0.16425400
v -0.05661939 0.03384525 0.11317193
v -0.05917320 0.03116414 0.07029388
v -0.06607083 0.05794550 0.06598312
v 0.07916823 0.00150155 0.07628861
v 0.08488148 -0.01732736 0.07895289
v 0.08186157 -0.00778038 0.12046158
v 0.07562694 0.00882775 0.11768801
v 0.07780808 0.00301577 0.16912559
v 0.07298567 0.01822867 0.16792728
v -0.05382349 0.01939878 0.16545974
v -0.05635728 0.01046234 0.11598033
v -0.05724813 0.00419732 0.16526698
v -0.06124493 -0.00735564 0.11789171
v -0.06343842 -0.01550793 0.07525365
v -0.05975723 0.00414780 0.07387093
v 0.00500325 0.06427991 0.82983401
v 0.00899322 0.09068832 0.83710000
v 0.01167704 0.08814762 0.83020453
v 0.00768620 0.06288507 0.82433156
v 0.00553481 0.04064248 0.81749408
v 0.00425917 0.04006959 0.82221344
v 0.00141123 0.04165093 0.81725146
v 0.00071408 0.06426834 0.82415961
v -0.00195524 0.09081904 0.83126881
v 0.00098332 0.09157297 0.83778347
v 0.00405690 0.06529840 0.83075391
v 0.00372746 0.04083292 0.82309709
v 0.02188446 0.12100710 0.83879054
v -0.01400422 0.12257307 0.83789964
v 0.00536468 0.09448695 0.83776006
v 0.00461110 0.06290726 0.82657181
v 0.00536468 0.09448695 0.83776006
v 0.00461110 0.06290726 0.82657181
v 0.00418931 0.03569916 0.81983971
v 0.00512803 -0.02613877 0.82567870
v 0.00732415 -0.01127193 0.82665277
v 0.01715121 -0.03902147 0.83986124
v -0.00712105 -0.03799893 0.83992594
v 0.00503518 -0.04730832 0.84220576
v 0.00418931 0.03569916 0.81983971
v 0.12788687 -0.02708286 0.23484035
v 0.14946846 -0.02469589 0.23591722
v 0.15059379 -0.02336895 0.28529337
v 0.12720778 -0.02526482 0.28371355
v 0.10736329 -0.01831222 0.28216557
v 0.10857283 -0.02164344 0.23224281
v -0.10385947 -0.02486126 0.22656019
v -0.08510839 -0.01969506 0.22465224
v -0.08553745 -0.01331461 0.27534193
v -0.10518145 -0.02026691 0.27623513
v -0.12933263 -0.01829236 0.27758944
v -0.12500458 -0.02208995 0.22755385
v 0.12704325 -0.02412974 0.33115371
v 0.15263990 -0.02274392 0.33254922
v 0.10564698 -0.01632583 0.32870288
v -0.10611616 -0.01632534 0.32399107
v -0.08503428 -0.00833281 0.32155621
v -0.13278995 -0.01532496 0.32556736
v 0.18607520 0.01409611 0.23171980
v 0.17068477 -0.01129025 0.23444416
v 0.18889948 0.01515115 0.28356238
v 0.17309616 -0.01062198 0.28483675
v -0.14839374 -0.00850050 0.22745191
v -0.15444461 -0.00640242 0.27825692
v -0.17173073 0.02002724 0.27908484
v -0.16649313 0.01781516 0.22708088
v 0.17726998 -0.00787839 0.33355542
v 0.19523994 0.01805955 0.33358207
v -0.15871806 -0.00065840 0.32735834
v -0.17319533 0.02684806 0.32883175
v 0.18209617 0.08625751 0.22664840
v 0.19047133 0.05112679 0.22950220
v 0.18577773 0.08746087 0.28298162
v 0.19328177 0.05110366 0.28359841
v -0.17420664 0.05723623 0.22768625
v -0.17803888 0.05762828 0.28188676
v -0.17150966 0.09602037 0.28398716
v -0.16709062 0.09516417 0.22770009
v 0.18983215 0.08798136 0.33192892
v 0.19900394 0.05364292 0.33302453
v -0.18174912 0.06133665 0.33039727
v -0.17433645 0.09742341 0.33249864
v 0.13868073 0.11054554 0.21785459
v 0.16152951 0.10301851 0.22194644
v 0.14024114 0.11506661 0.27581536
v 0.16429483 0.10640484 0.28009865
v -0.14936457 0.11657452 0.28254821
v -0.14813117 0.11444435 0.22473970
v -0.12464173 0.12592830 0.27888029
v -0.12587792 0.12347641 0.22157681
v 0.14190174 0.11802697 0.32344402
v 0.16826393 0.10913177 0.32753037
v -0.14834222 0.11553293 0.32939319
v -0.12364045 0.12758270 0.32636736
v 0.11750730 0.11761678 0.32062541
v 0.11691167 0.11231295 0.27293806
v 0.09508309 0.09961507 0.27147144
v 0.09585096 0.10343257 0.31935152
v -0.07699876 0.11476887 0.32137934
v -0.08022765 0.11009904 0.27340360
v -0.10097382 0.12245153 0.27608416
v -0.09892381 0.12737604 0.32366342
v 0.11748891 0.10847259 0.21366358
v 0.09724709 0.09631690 0.21317009
v -0.08388698 0.10825167 0.21595342
v -0.10483448 0.12189512 0.21758374
v 0.07872323 0.07038421 0.21859730
v 0.07129730 0.04438976 0.22194458
v 0.07206833 0.05162476 0.27443573
v 0.08055688 0.07355183 0.27357129
v -0.06384192 0.07892091 0.21895114
v -0.06276862 0.08293593 0.27380779
v -0.05391862 0.05848619 0.27298469
v -0.05378890 0.04958174 0.22012818
v 0.07008402 0.05541083 0.32283456
v 0.07860750 0.07956431 0.32184191
v -0.05938494 0.09030557 0.32253613
v -0.05080568 0.06501531 0.32178259
v 0.07748538 0.01027633 0.22189760
v 0.07147594 0.02488623 0.22220901
v 0.07865482 0.01412588 0.27225899
v 0.07416535 0.02954455 0.27270670
v -0.05428161 0.03580331 0.26966524
v -0.05334844 0.02813139 0.21884268
v -0.05837417 0.01909617 0.26801244
v -0.05822525 0.01336001 0.21719982
v 0.07513040 0.01741835 0.31697700
v 0.07048404 0.03352758 0.31975856
v -0.05112843 0.04251178 0.31706696
v -0.05565908 0.02578538 0.31322544
v 0.02893140 0.00250967 0.71033570
v -0.01495329 0.01154163 0.70379293
v 0.02583766 0.02899096 0.71889216
v 0.02055027 -0.01822523 0.79729368
v 0.02893639 -0.02751834 0.76072516
v 0.04169248 -0.03901962 0.76546976
v 0.03228702 -0.03318945 0.80487036
v 0.02419295 -0.02558680 0.82787495
v 0.01351562 -0.01206592 0.81250698
v -0.01457309 -0.02268011 0.82554477
v -0.02239693 -0.02748612 0.79863258
v -0.03052293 -0.03370913 0.75521917
v -0.02100191 -0.02017383 0.75256396
v -0.01281703 -0.01231209 0.78935374
v -0.00531667 -0.00533896 0.81182964
v 0.02893140 0.00250967 0.71033570
v 0.04072394 -0.00129141 0.64384333
v 0.04723567 -0.01656917 0.64303190
v 0.05628910 -0.03041086 0.64216579
v 0.04124078 -0.02923567 0.71475716
v 0.03318434 -0.01356786 0.71485805
v 0.02177239 -0.01070672 0.75793608
v 0.02006946 0.01273408 0.76389893
v -0.02006625 -0.00507250 0.70586483
v -0.01455123 -0.00417146 0.75314444
v -0.02787326 -0.02092638 0.70291160
v -0.03425615 -0.01785709 0.63612813
v -0.02625201 -0.00432920 0.63752236
v -0.02051203 0.01119916 0.63878112
v -0.01495329 0.01154163 0.70379293
v -0.00759355 0.01819541 0.76159055
v 0.05357882 -0.04310199 0.71630967
v 0.06846903 -0.04371377 0.64391046
v -0.03525906 -0.03731705 0.70242719
v -0.04477599 -0.03058699 0.63644347
v 0.05033577 -0.00237611 0.59353256
v 0.05925931 0.00005081 0.53549487
v 0.06434853 -0.01489208 0.53647974
v 0.05728431 -0.01709537 0.59332763
v 0.07271555 -0.02423406 0.53737955
v 0.06612462 -0.03008802 0.59302718
v -0.03522359 -0.00400970 0.58719384
v -0.04292639 -0.01668843 0.58731907
v -0.05372941 -0.01188290 0.53101160
v -0.04679481 -0.00117031 0.53053743
v -0.04161346 0.01331257 0.52913240
v -0.02990232 0.01103972 0.58710673
v 0.08171214 -0.03368489 0.53803995
v 0.07787190 -0.03893531 0.59409290
v -0.05714646 -0.02504361 0.53034633
v -0.05241991 -0.02847162 0.58745217
v 0.06660300 0.00643382 0.49058634
v 0.07064896 0.01459075 0.44808220
v 0.07688249 -0.00047909 0.44831710
v 0.07268727 -0.00844128 0.49120434
v 0.08457317 -0.01195772 0.44837421
v 0.07968446 -0.01915675 0.49168344
v -0.05625384 0.00362847 0.48621048
v -0.06252401 -0.00763390 0.48572524
v -0.06268450 -0.00293988 0.44175177
v -0.05550551 0.00973703 0.44316103
v -0.05126929 0.02504772 0.44361971
v -0.04973033 0.01814400 0.48633644
v 0.09514120 -0.02123895 0.44992117
v 0.09045444 -0.02880903 0.49349778
v -0.06989548 -0.01872713 0.48597113
v -0.07015907 -0.01403937 0.44114779
v 0.06899894 0.01975048 0.40294588
v 0.06970061 0.01940370 0.36476851
v 0.07455219 0.00883893 0.36627024
v 0.07465479 0.00664855 0.40357551
v 0.08040130 0.00143005 0.36885199
v 0.08246231 -0.00333037 0.40462626
v -0.06088322 0.00737612 0.40047120
v -0.05441726 0.01696688 0.40023469
v -0.06098428 0.01118411 0.36462320
v -0.05544563 0.01870179 0.36187674
v -0.05010450 0.03012747 0.36133729
v -0.04906174 0.03015957 0.40015718
v 0.08972830 -0.00770573 0.37218220
v 0.09356141 -0.01279483 0.40696856
v -0.06887303 -0.00418934 0.40140424
v -0.06781378 0.00243092 0.36650061
v 0.08770935 -0.01798233 0.12261745
v 0.08186157 -0.00778038 0.12046158
v 0.08488148 -0.01732736 0.07895289
v 0.09038510 -0.02742484 0.08141672
v 0.09605828 -0.03353309 0.08380867
v 0.09478546 -0.02561424 0.12435038
v 0.08955375 -0.01478931 0.17339571
v 0.08258854 -0.00809866 0.17101442
v 0.07780808 0.00301577 0.16912559
v -0.06561078 -0.01801841 0.11880442
v -0.06134217 -0.00812992 0.16658506
v -0.06611095 -0.01591773 0.16819507
v -0.07076629 -0.02488500 0.12037337
v -0.07247890 -0.03180842 0.08020423
v -0.06771538 -0.02578802 0.07803975
v -0.06343842 -0.01550793 0.07525365
v -0.06124493 -0.00735564 0.11789171
v -0.05724813 0.00419732 0.16526698
v 0.10374878 -0.04164649 0.08521552
v 0.09823040 -0.02246627 0.17424490
v -0.07417487 -0.02200710 0.16882291
v -0.07923264 -0.03926538 0.08105849
v -0.07705161 -0.03112245 0.12192265
v 0.00518499 0.01412843 0.81376109
v 0.00553481 0.04064248 0.81749408
v 0.00721468 0.03864386 0.80932093
v 0.00780690 0.01494146 0.80907443
v 0.01078841 -0.01058209 0.82039235
v 0.00291626 0.01522813 0.81667839
v 0.00425917 0.04006959 0.82221344
v 0.00484633 0.01637776 0.81895207
v 0.00549598 -0.00776157 0.82852057
v 0.00047141 -0.00703393 0.82190159
v -0.00010532 0.01595882 0.81085944
v 0.00222249 0.01876101 0.81601147
v -0.00017676 0.04016948 0.80950588
v 0.00141123 0.04165093 0.81725146
v 0.00372746 0.04083292 0.82309709
v 0.01898043 -0.02624774 0.83943671
v -0.00894889 -0.02455527 0.83845345
v 0.00480105 0.00810510 0.81643959
v 0.00418931 0.03569916 0.81983971
v 0.00503518 -0.04730832 0.84220576
v 0.00418931 0.03569916 0.81983971
v 0.00480105 0.00810510 0.81643959
v 0.03214701 0.13049713 1.04090218
v -0.00099998 0.15918732 0.94768201
v 0.00512803 -0.02613877 0.82567870
v 0.07961927 0.00806525 0.31830649
v 0.07513040 0.01741835 0.31697700
v 0.07865482 0.01412588 0.27225899
v 0.08355703 0.00429251 0.27309360
v 0.08914477 -0.00310795 0.27588426
v 0.08483106 0.00142884 0.32195769
v -0.06548952 0.00909168 0.31679363
v -0.06038436 0.01604299 0.31381987
v -0.06813986 0.00174605 0.27009643
v -0.06294018 0.00916777 0.26797010
v -0.05837417 0.01909617 0.26801244
v -0.05565908 0.02578538 0.31322544
v 0.09648536 -0.01052823 0.27954852
v 0.09293261 -0.00722325 0.32501446
v -0.07242173 0.00099136 0.31959170
v -0.07472585 -0.00606821 0.27311411
v 0.07748538 0.01027633 0.22189760
v 0.08365847 0.00024440 0.22346359
v 0.08723973 -0.00879198 0.22607895
v -0.06699305 -0.00591845 0.21994787
v -0.06112385 0.00077259 0.21779637
v -0.05822525 0.01336001 0.21719982
v 0.09658231 -0.01522479 0.23002150
v -0.07409319 -0.01336867 0.22338040
v -0.00258166 0.03394298 0.79652686
v 0.01305307 0.00556672 0.79442856
v 0.01194866 0.03090387 0.79653018
v -0.00520946 0.00892936 0.79329587
v 0.02026238 0.12891865 1.04638028
v 0.00020709 0.13811072 1.01722579
v 0.02304780 0.13755365 1.02632493
v 0.00577797 0.15240942 0.97117278
v 0.00029990 0.14628139 0.99670612
v 0.02453341 0.14925254 0.99642764
v 0.03149706 0.12696883 1.04916577
v 0.03381828 0.13569663 1.02641780
v 0.03641804 0.13894633 1.01657585
v 0.02351208 0.14098901 1.01546159
v 0.04079655 0.14740023 1.00005798
v -0.00099998 0.15918732 0.94768201
v 0.00039276 -0.07646284 1.02985322
v 0.00447809 0.15779466 0.90636430
v -0.01393571 0.03956846 0.71462268
v 0.00577797 0.15240942 0.97117278
v 0.10102329 -0.03247256 0.12698365
v -0.00220699 0.12706170 1.04768016
v 0.00039276 -0.07646284 1.02985322
f 1 2 3
f 4 5 6
f 7 8 9
f 10 11 12
f 10 13 14
f 15 16 11
f 9 17 18
f 19 18 20
f 21 22 23
f 7 19 24
f 25 26 27
f 26 28 29
f 30 31 32
f 33 34 35
f 33 36 37
f 38 39 34
f 40 41 42
f 26 25 43
f 41 43 44
f 28 26 41
f 45 11 16
f 46 24 47
f 45 48 49
f 50 12 11
f 51 52 48
f 24 20 53
f 47 53 54
f 55 9 8
f 56 47 57
f 58 48 52
f 58 3 59
f 60 49 48
f 61 62 27
f 57 54 63
f 62 63 64
f 65 57 62
f 10 66 32
f 67 68 69
f 70 69 71
f 72 73 74
f 70 74 75
f 76 77 78
f 79 78 80
f 81 82 83
f 79 83 84
f 85 86 87
f 88 87 89
f 90 71 69
f 88 69 68
f 81 80 91
f 92 91 93
f 94 95 96
f 92 96 82
f 97 98 99
f 100 99 101
f 102 89 87
f 100 87 86
f 94 93 103
f 103 104 105
f 105 106 107
f 108 107 95
f 109 110 111
f 111 112 113
f 114 113 101
f 114 99 98
f 115 105 104
f 116 117 118
f 118 119 120
f 120 106 105
f 121 122 123
f 124 123 125
f 124 126 112
f 124 111 110
f 118 117 127
f 128 127 129
f 130 131 132
f 128 132 119
f 133 134 135
f 136 137 138
f 133 138 139
f 140 141 134
f 142 143 144
f 145 146 147
f 142 147 148
f 149 150 143
f 151 152 153
f 151 154 155
f 151 156 73
f 72 71 152
f 157 78 77
f 158 159 160
f 157 160 161
f 162 80 78
f 163 164 165
f 163 166 153
f 152 71 90
f 90 89 164
f 167 91 80
f 162 161 168
f 167 168 169
f 170 93 91
f 171 172 173
f 173 165 164
f 174 164 89
f 102 101 171
f 175 103 93
f 170 169 176
f 176 177 178
f 175 178 104
f 179 180 181
f 182 181 172
f 171 101 113
f 182 113 112
f 116 104 178
f 183 178 177
f 184 185 186
f 183 186 117
f 187 188 189
f 187 190 180
f 179 112 126
f 187 126 125
f 127 117 186
f 191 186 185
f 191 192 193
f 194 129 127
f 195 196 197
f 198 197 199
f 200 139 138
f 198 138 137
f 145 144 201
f 202 201 203
f 204 205 206
f 202 206 146
f 207 208 209
f 209 210 211
f 211 155 154
f 212 154 153
f 213 160 159
f 214 215 216
f 213 216 217
f 218 161 160
f 219 220 221
f 222 221 208
f 207 153 166
f 222 166 165
f 223 168 161
f 218 217 224
f 223 224 225
f 226 169 168
f 227 228 229
f 230 229 220
f 219 165 173
f 230 173 172
f 231 176 169
f 226 225 232
f 231 232 233
f 231 234 177
f 235 236 237
f 238 237 228
f 227 172 181
f 238 181 180
f 184 177 234
f 234 233 239
f 239 240 241
f 242 241 185
f 243 244 245
f 246 245 236
f 235 180 190
f 246 190 189
f 192 185 241
f 247 241 240
f 248 249 250
f 250 193 192
f 251 252 253
f 254 253 255
f 256 199 197
f 254 197 196
f 204 203 257
f 257 258 259
f 260 259 261
f 260 262 205
f 263 264 265
f 266 265 267
f 268 210 209
f 266 209 208
f 216 215 269
f 270 269 271
f 272 273 274
f 270 274 217
f 275 276 277
f 278 277 264
f 263 208 221
f 278 221 220
f 224 217 274
f 279 274 273
f 279 280 281
f 279 282 225
f 283 284 285
f 283 286 276
f 283 275 220
f 283 229 228
f 287 232 225
f 282 281 288
f 287 288 289
f 290 233 232
f 291 292 293
f 294 293 285
f 284 228 237
f 294 237 236
f 239 233 290
f 290 289 295
f 296 295 297
f 296 298 240
f 299 300 301
f 301 292 291
f 291 236 245
f 302 245 244
f 248 240 298
f 303 298 297
f 304 305 306
f 303 306 249
f 307 308 309
f 307 310 311
f 312 255 253
f 307 253 252
f 259 258 313
f 314 313 315
f 314 316 317
f 318 261 259
f 319 320 321
f 321 267 265
f 322 265 264
f 322 323 324
f 325 326 273
f 272 271 327
f 327 328 329
f 329 330 326
f 331 324 323
f 323 264 277
f 332 277 276
f 332 333 334
f 335 336 281
f 280 273 326
f 335 326 330
f 337 338 336
f 339 340 334
f 333 276 286
f 339 286 285
f 339 341 342
f 343 344 289
f 288 281 336
f 343 336 338
f 345 346 344
f 347 342 341
f 348 341 285
f 293 292 349
f 349 350 347
f 351 352 297
f 295 289 344
f 344 346 353
f 351 353 354
f 355 356 350
f 355 349 292
f 355 301 300
f 357 358 356
f 359 360 305
f 304 297 352
f 359 352 354
f 361 362 360
f 363 364 365
f 366 311 310
f 363 310 309
f 367 368 364
f 369 370 317
f 316 315 371
f 369 371 372
f 373 374 370
f 375 376 377
f 32 31 375
f 378 8 379
f 380 379 381
f 382 383 384
f 376 382 385
f 386 387 388
f 389 390 387
f 391 392 393
f 391 394 395
f 377 385 396
f 396 397 392
f 398 386 381
f 399 381 379
f 399 400 401
f 402 403 398
f 404 392 397
f 405 75 74
f 404 74 73
f 406 393 392
f 407 408 77
f 76 84 409
f 407 409 403
f 402 401 408
f 410 396 385
f 410 384 411
f 410 412 75
f 410 405 397
f 413 409 84
f 414 415 389
f 413 389 386
f 398 403 409
f 416 417 418
f 383 419 411
f 420 390 389
f 421 422 423
f 424 425 426
f 427 395 394
f 394 393 428
f 428 429 425
f 430 401 400
f 400 379 431
f 432 431 433
f 434 435 430
f 436 437 429
f 436 428 393
f 406 73 156
f 156 155 437
f 158 77 408
f 438 408 401
f 438 430 435
f 438 439 159
f 427 426 16
f 32 395 427
f 46 433 431
f 431 379 8
f 440 441 2
f 1 52 442
f 29 443 444
f 61 444 445
f 446 447 448
f 449 448 441
f 440 442 450
f 449 450 451
f 452 445 444
f 453 444 443
f 454 455 456
f 453 456 457
f 458 442 52
f 51 16 426
f 65 445 459
f 56 459 433
f 460 451 450
f 461 450 442
f 458 426 425
f 461 425 429
f 434 433 459
f 462 459 445
f 452 457 463
f 462 463 435
f 464 465 451
f 460 429 437
f 464 437 155
f 211 210 465
f 466 214 159
f 439 435 463
f 466 463 457
f 467 215 214
f 468 469 447
f 446 451 465
f 468 465 210
f 470 471 469
f 472 473 215
f 467 457 456
f 472 456 455
f 474 475 473
f 476 477 471
f 470 210 268
f 476 268 267
f 478 479 477
f 480 481 271
f 269 215 473
f 480 473 475
f 482 483 481
f 484 479 478
f 485 478 267
f 321 320 486
f 485 486 487
f 488 328 327
f 489 327 271
f 489 481 483
f 490 417 488
f 441 491 35
f 448 492 491
f 28 493 443
f 447 494 492
f 493 495 454
f 469 496 494
f 495 497 455
f 498 496 469
f 497 499 474
f 471 477 500
f 474 499 501
f 502 500 477
f 475 501 503
f 479 484 504
f 482 503 505
f 506 504 484
f 483 505 507
f 508 509 506
f 490 507 418
f 510 423 422
f 511 6 5
f 512 513 514
f 515 516 517
f 518 35 491
f 519 520 521
f 40 521 493
f 522 4 23
f 22 523 524
f 519 42 22
f 518 517 36
f 42 44 523
f 525 526 527
f 528 527 516
f 515 491 492
f 528 492 494
f 495 493 521
f 529 521 520
f 530 531 532
f 529 532 497
f 533 534 526
f 525 494 496
f 533 496 498
f 500 502 534
f 535 503 501
f 499 497 532
f 535 532 531
f 536 505 503
f 537 538 539
f 540 526 534
f 537 534 502
f 504 506 538
f 541 507 505
f 536 531 542
f 541 542 421
f 543 418 507
f 6 511 544
f 21 544 520
f 530 520 544
f 545 544 511
f 422 421 542
f 545 542 531
f 487 546 547
f 416 548 549
f 550 551 552
f 553 552 554
f 555 320 319
f 553 319 324
f 329 328 556
f 557 556 558
f 559 560 561
f 557 561 330
f 562 563 564
f 565 564 566
f 567 554 552
f 565 552 551
f 559 558 568
f 569 568 570
f 571 572 573
f 569 573 560
f 574 575 576
f 576 551 550
f 577 550 324
f 577 331 334
f 337 330 561
f 561 560 578
f 578 579 580
f 581 580 338
f 582 583 584
f 582 585 575
f 574 334 340
f 340 342 583
f 345 338 580
f 586 580 579
f 587 588 589
f 589 346 345
f 590 591 592
f 590 593 594
f 595 575 585
f 585 584 591
f 587 579 596
f 597 596 598
f 597 599 600
f 597 601 588
f 602 603 604
f 605 584 583
f 602 583 342
f 347 350 603
f 606 353 346
f 589 588 607
f 606 607 608
f 609 354 353
f 610 611 612
f 613 592 591
f 610 591 584
f 605 604 611
f 614 607 588
f 601 600 615
f 614 615 616
f 617 608 607
f 618 619 620
f 620 604 603
f 621 603 350
f 621 356 358
f 622 361 354
f 609 608 623
f 623 624 625
f 622 625 362
f 626 627 628
f 628 612 611
f 629 611 604
f 629 620 619
f 630 623 608
f 617 616 631
f 631 632 633
f 630 633 624
f 634 635 636
f 637 638 639
f 634 639 365
f 634 364 368
f 373 372 640
f 641 640 642
f 641 643 644
f 641 645 374
f 646 647 648
f 649 648 650
f 651 638 637
f 637 636 646
f 643 642 652
f 653 652 654
f 655 656 657
f 657 644 643
f 658 659 660
f 661 660 554
f 567 566 662
f 661 662 663
f 664 570 568
f 665 568 558
f 666 667 668
f 665 668 669
f 546 487 486
f 670 486 320
f 555 554 660
f 670 660 659
f 666 558 556
f 671 556 328
f 488 417 549
f 671 549 667
f 672 547 546
f 659 658 673
f 674 675 668
f 549 548 674
f 663 676 673
f 677 678 679
f 415 680 681
f 675 682 669
f 683 140 139
f 684 685 686
f 683 686 687
f 688 141 140
f 689 690 691
f 692 693 694
f 689 694 144
f 143 150 690
f 695 686 685
f 696 125 123
f 695 123 122
f 697 687 686
f 698 699 131
f 130 129 700
f 698 700 693
f 692 691 699
f 200 199 701
f 702 701 703
f 702 704 685
f 702 684 139
f 705 694 693
f 706 707 708
f 708 203 201
f 201 144 694
f 709 704 703
f 710 189 188
f 709 188 125
f 696 685 704
f 711 700 129
f 194 193 712
f 711 712 707
f 706 693 700
f 256 255 713
f 714 713 715
f 716 703 701
f 714 701 199
f 717 708 707
f 718 719 720
f 720 258 257
f 257 203 708
f 716 715 721
f 722 721 244
f 722 243 189
f 710 703 716
f 723 712 193
f 250 249 724
f 723 724 719
f 718 707 712
f 312 311 725
f 726 725 727
f 728 715 713
f 726 713 255
f 720 719 729
f 730 729 731
f 732 315 313
f 730 313 258
f 728 727 733
f 734 733 300
f 299 244 721
f 734 721 715
f 724 249 306
f 735 306 305
f 736 731 729
f 735 729 719
f 357 300 733
f 737 733 727
f 738 739 740
f 737 740 358
f 741 742 743
f 744 743 731
f 736 305 360
f 744 360 362
f 738 727 725
f 745 725 311
f 366 365 746
f 745 746 739
f 747 372 371
f 748 371 315
f 732 731 743
f 748 743 742
f 749 639 638
f 749 750 751
f 749 752 739
f 746 365 639
f 753 747 742
f 753 754 755
f 756 642 640
f 640 372 747
f 752 751 757
f 758 757 619
f 758 618 358
f 758 740 739
f 741 362 625
f 759 625 624
f 760 755 754
f 759 754 742
f 651 650 761
f 762 761 763
f 764 751 750
f 762 750 638
f 756 755 765
f 766 765 767
f 768 654 652
f 766 652 642
f 764 763 769
f 770 769 627
f 626 619 757
f 770 757 751
f 760 624 633
f 771 633 632
f 772 767 765
f 771 765 755
f 595 594 773
f 578 560 573
f 774 598 596
f 563 562 775
f 775 576 575
f 776 777 778
f 779 778 68
f 67 75 780
f 779 780 781
f 782 84 83
f 783 83 82
f 784 785 786
f 783 786 787
f 788 789 790
f 790 791 792
f 793 792 777
f 794 795 788
f 796 797 785
f 798 799 800
f 796 800 801
f 802 803 797
f 804 792 791
f 805 86 85
f 804 85 68
f 778 777 792
f 784 82 96
f 806 96 95
f 806 807 799
f 798 785 784
f 808 809 810
f 811 810 812
f 811 813 791
f 790 789 808
f 814 800 799
f 815 816 817
f 817 818 819
f 819 801 800
f 813 812 820
f 821 820 98
f 97 86 805
f 805 791 813
f 807 95 107
f 107 106 822
f 823 822 816
f 815 799 807
f 824 825 826
f 827 826 828
f 829 812 810
f 827 810 809
f 830 817 816
f 830 831 832
f 833 834 835
f 830 835 818
f 829 828 836
f 837 836 110
f 109 98 820
f 837 820 812
f 838 822 106
f 838 120 119
f 839 832 831
f 831 816 822
f 840 841 842
f 843 842 844
f 845 828 826
f 843 826 825
f 833 832 846
f 847 846 848
f 849 850 851
f 847 851 834
f 845 844 852
f 853 852 122
f 121 110 836
f 853 836 828
f 839 119 132
f 854 132 131
f 855 848 846
f 854 846 832
f 856 857 858
f 856 859 860
f 856 861 862
f 863 864 857
f 865 866 867
f 865 868 869
f 865 870 871
f 872 873 866
f 861 860 874
f 874 135 134
f 134 141 875
f 875 862 861
f 876 150 149
f 149 148 877
f 878 877 869
f 868 867 876
f 879 880 881
f 879 882 781
f 883 678 884
f 884 885 880
f 886 887 888
f 888 787 889
f 890 889 891
f 890 892 893
f 883 781 780
f 894 780 75
f 412 411 679
f 894 679 678
f 680 415 414
f 895 414 84
f 782 787 888
f 895 888 887
f 884 896 897
f 898 679 411
f 899 900 886
f 901 36 517
f 896 884 678
f 887 886 900
f 902 543 421
f 903 681 680
f 904 905 906
f 904 907 908
f 909 844 842
f 904 842 841
f 849 848 910
f 911 910 912
f 911 913 914
f 915 850 849
f 909 908 916
f 917 916 687
f 697 122 852
f 917 852 844
f 855 131 699
f 918 699 691
f 919 912 910
f 918 910 848
f 920 864 863
f 921 863 862
f 922 908 907
f 921 907 906
f 913 912 923
f 924 923 867
f 924 866 873
f 925 914 913
f 922 862 875
f 926 875 141
f 688 687 916
f 926 916 908
f 919 691 690
f 927 690 150
f 876 867 923
f 927 923 912
f 794 777 776
f 786 785 797
f 928 891 889
f 929 930 795
f 803 928 931
f 931 889 787
f 932 514 513
f 933 512 934
f 935 936 937
f 901 514 932
f 938 37 36
f 939 934 514
f 517 516 940
f 939 940 941
f 942 937 941
f 940 516 527
f 942 527 526
f 540 539 937
f 941 937 936
f 509 943 538
f 944 30 66
f 902 945 418
f 3 34 39
f 538 943 935
f 17 9 55
f 946 573 572
f 579 578 946
f 562 551 576
f 781 882 929
f 882 881 930
f 2 35 34
f 58 1 3
f 23 4 6
f 19 7 9
f 13 10 12
f 66 10 14
f 10 15 11
f 19 9 18
f 24 19 20
f 6 21 23
f 46 7 24
f 64 25 27
f 27 26 29
f 66 30 32
f 518 33 35
f 38 33 37
f 33 38 34
f 519 40 42
f 41 26 43
f 42 41 44
f 40 28 41
f 51 45 16
f 56 46 47
f 50 45 49
f 45 50 11
f 45 51 48
f 47 24 53
f 57 47 54
f 378 55 8
f 65 56 57
f 1 58 52
f 60 58 59
f 58 60 48
f 29 61 27
f 62 57 63
f 27 62 64
f 61 65 62
f 15 10 32
f 70 67 69
f 72 70 71
f 70 72 74
f 67 70 75
f 79 76 78
f 81 79 80
f 79 81 83
f 76 79 84
f 88 85 87
f 90 88 89
f 88 90 69
f 85 88 68
f 92 81 91
f 94 92 93
f 92 94 96
f 81 92 82
f 100 97 99
f 102 100 101
f 100 102 87
f 97 100 86
f 108 94 103
f 108 103 105
f 108 105 107
f 94 108 95
f 114 109 111
f 114 111 113
f 99 114 101
f 109 114 98
f 116 115 104
f 115 116 118
f 115 118 120
f 115 120 105
f 124 121 123
f 126 124 125
f 111 124 112
f 121 124 110
f 128 118 127
f 130 128 129
f 128 130 132
f 118 128 119
f 136 133 135
f 133 136 138
f 140 133 139
f 133 140 134
f 145 142 144
f 142 145 147
f 149 142 148
f 142 149 143
f 154 151 153
f 156 151 155
f 72 151 73
f 151 72 152
f 158 157 77
f 157 158 160
f 162 157 161
f 157 162 78
f 166 163 165
f 152 163 153
f 163 152 90
f 163 90 164
f 162 167 80
f 167 162 168
f 170 167 169
f 167 170 91
f 174 171 173
f 174 173 164
f 102 174 89
f 174 102 171
f 170 175 93
f 175 170 176
f 175 176 178
f 103 175 104
f 182 179 181
f 171 182 172
f 182 171 113
f 179 182 112
f 183 116 178
f 184 183 177
f 183 184 186
f 116 183 117
f 190 187 189
f 179 187 180
f 187 179 126
f 188 187 125
f 191 127 186
f 192 191 185
f 194 191 193
f 191 194 127
f 198 195 197
f 200 198 199
f 198 200 138
f 195 198 137
f 202 145 201
f 204 202 203
f 202 204 206
f 145 202 146
f 212 207 209
f 212 209 211
f 212 211 154
f 207 212 153
f 214 213 159
f 213 214 216
f 218 213 217
f 213 218 160
f 222 219 221
f 207 222 208
f 222 207 166
f 219 222 165
f 218 223 161
f 223 218 224
f 226 223 225
f 223 226 168
f 230 227 229
f 219 230 220
f 230 219 173
f 227 230 172
f 226 231 169
f 231 226 232
f 234 231 233
f 176 231 177
f 238 235 237
f 227 238 228
f 238 227 181
f 235 238 180
f 242 184 234
f 242 234 239
f 242 239 241
f 184 242 185
f 246 243 245
f 235 246 236
f 246 235 190
f 243 246 189
f 247 192 241
f 248 247 240
f 247 248 250
f 247 250 192
f 254 251 253
f 256 254 255
f 254 256 197
f 251 254 196
f 260 204 257
f 260 257 259
f 262 260 261
f 204 260 205
f 266 263 265
f 268 266 267
f 266 268 209
f 263 266 208
f 270 216 269
f 272 270 271
f 270 272 274
f 216 270 217
f 278 275 277
f 263 278 264
f 278 263 221
f 275 278 220
f 279 224 274
f 280 279 273
f 282 279 281
f 224 279 225
f 286 283 285
f 275 283 276
f 229 283 220
f 284 283 228
f 282 287 225
f 287 282 288
f 290 287 289
f 287 290 232
f 294 291 293
f 284 294 285
f 294 284 237
f 291 294 236
f 296 239 290
f 296 290 295
f 298 296 297
f 239 296 240
f 302 299 301
f 302 301 291
f 302 291 245
f 299 302 244
f 303 248 298
f 304 303 297
f 303 304 306
f 248 303 249
f 310 307 309
f 312 307 311
f 307 312 253
f 308 307 252
f 314 259 313
f 316 314 315
f 318 314 317
f 314 318 259
f 322 319 321
f 322 321 265
f 323 322 264
f 319 322 324
f 272 325 273
f 325 272 327
f 325 327 329
f 325 329 326
f 332 331 323
f 332 323 277
f 333 332 276
f 331 332 334
f 280 335 281
f 335 280 326
f 337 335 330
f 335 337 336
f 333 339 334
f 339 333 286
f 341 339 285
f 340 339 342
f 288 343 289
f 343 288 336
f 345 343 338
f 343 345 344
f 348 347 341
f 293 348 285
f 348 293 349
f 348 349 347
f 295 351 297
f 351 295 344
f 351 344 353
f 352 351 354
f 349 355 350
f 301 355 292
f 357 355 300
f 355 357 356
f 304 359 305
f 359 304 352
f 361 359 354
f 359 361 360
f 366 363 365
f 363 366 310
f 367 363 309
f 363 367 364
f 316 369 317
f 369 316 371
f 373 369 372
f 369 373 370
f 395 375 377
f 395 32 375
f 380 378 379
f 388 380 381
f 385 382 384
f 377 376 385
f 381 386 388
f 386 389 387
f 394 391 393
f 377 391 395
f 391 377 396
f 391 396 392
f 399 398 381
f 400 399 379
f 402 399 401
f 399 402 398
f 405 404 397
f 404 405 74
f 406 404 73
f 404 406 392
f 76 407 77
f 407 76 409
f 402 407 403
f 407 402 408
f 384 410 385
f 412 410 411
f 405 410 75
f 396 410 397
f 414 413 84
f 413 414 389
f 398 413 386
f 413 398 409
f 945 416 418
f 384 383 411
f 415 420 389
f 947 421 423
f 427 424 426
f 424 427 394
f 424 394 428
f 424 428 425
f 432 430 400
f 432 400 431
f 434 432 433
f 432 434 430
f 428 436 429
f 406 436 393
f 436 406 156
f 436 156 437
f 438 158 408
f 430 438 401
f 439 438 435
f 158 438 159
f 15 427 16
f 15 32 427
f 7 46 431
f 7 431 8
f 1 440 2
f 440 1 442
f 61 29 444
f 65 61 445
f 449 446 448
f 440 449 441
f 449 440 450
f 446 449 451
f 453 452 444
f 454 453 443
f 453 454 456
f 452 453 457
f 51 458 52
f 458 51 426
f 56 65 459
f 46 56 433
f 461 460 450
f 458 461 442
f 461 458 425
f 460 461 429
f 462 434 459
f 452 462 445
f 462 452 463
f 434 462 435
f 460 464 451
f 464 460 437
f 211 464 155
f 464 211 465
f 439 466 159
f 466 439 463
f 467 466 457
f 466 467 214
f 446 468 447
f 468 446 465
f 470 468 210
f 468 470 469
f 467 472 215
f 472 467 456
f 474 472 455
f 472 474 473
f 470 476 471
f 476 470 268
f 478 476 267
f 476 478 477
f 269 480 271
f 480 269 473
f 482 480 475
f 480 482 481
f 485 484 478
f 321 485 267
f 485 321 486
f 484 485 487
f 489 488 327
f 481 489 271
f 490 489 483
f 489 490 488
f 2 441 35
f 441 448 491
f 29 28 443
f 448 447 492
f 443 493 454
f 447 469 494
f 454 495 455
f 471 498 469
f 455 497 474
f 498 471 500
f 475 474 501
f 479 502 477
f 482 475 503
f 502 479 504
f 483 482 505
f 487 506 484
f 490 483 507
f 487 508 506
f 417 490 418
f 511 510 422
f 510 511 5
f 934 512 514
f 518 515 517
f 515 518 491
f 40 519 521
f 28 40 493
f 524 522 23
f 23 22 524
f 21 519 22
f 33 518 36
f 22 42 523
f 528 525 527
f 515 528 516
f 528 515 492
f 525 528 494
f 529 495 521
f 530 529 520
f 529 530 532
f 495 529 497
f 525 533 526
f 533 525 496
f 500 533 498
f 533 500 534
f 499 535 501
f 535 499 532
f 536 535 531
f 535 536 503
f 540 537 539
f 537 540 534
f 504 537 502
f 537 504 538
f 536 541 505
f 541 536 542
f 543 541 421
f 541 543 507
f 21 6 544
f 519 21 520
f 545 530 544
f 422 545 511
f 545 422 542
f 530 545 531
f 508 487 547
f 417 416 549
f 553 550 552
f 555 553 554
f 553 555 319
f 550 553 324
f 557 329 556
f 559 557 558
f 557 559 561
f 329 557 330
f 565 562 564
f 567 565 566
f 565 567 552
f 562 565 551
f 569 559 568
f 571 569 570
f 569 571 573
f 559 569 560
f 577 574 576
f 577 576 550
f 331 577 324
f 574 577 334
f 581 337 561
f 581 561 578
f 581 578 580
f 337 581 338
f 585 582 584
f 574 582 575
f 582 574 340
f 582 340 583
f 586 345 580
f 587 586 579
f 586 587 589
f 586 589 345
f 593 590 592
f 595 590 594
f 590 595 585
f 590 585 591
f 597 587 596
f 599 597 598
f 601 597 600
f 587 597 588
f 605 602 604
f 602 605 583
f 347 602 342
f 602 347 603
f 589 606 346
f 606 589 607
f 609 606 608
f 606 609 353
f 613 610 612
f 610 613 591
f 605 610 584
f 610 605 611
f 601 614 588
f 614 601 615
f 617 614 616
f 614 617 607
f 621 618 620
f 621 620 603
f 356 621 350
f 618 621 358
f 609 622 354
f 622 609 623
f 622 623 625
f 361 622 362
f 629 626 628
f 629 628 611
f 620 629 604
f 626 629 619
f 617 630 608
f 630 617 631
f 630 631 633
f 623 630 624
f 637 634 636
f 634 637 639
f 364 634 365
f 635 634 368
f 641 373 640
f 643 641 642
f 645 641 644
f 373 641 374
f 649 646 648
f 651 649 650
f 649 651 637
f 649 637 646
f 653 643 652
f 655 653 654
f 653 655 657
f 653 657 643
f 661 658 660
f 567 661 554
f 661 567 662
f 658 661 663
f 665 664 568
f 666 665 558
f 665 666 668
f 664 665 669
f 670 546 486
f 555 670 320
f 670 555 660
f 546 670 659
f 671 666 556
f 488 671 328
f 671 488 549
f 666 671 667
f 659 672 546
f 672 659 673
f 667 674 668
f 667 549 674
f 658 663 673
f 898 677 679
f 420 415 681
f 668 675 669
f 684 683 139
f 683 684 686
f 688 683 687
f 683 688 140
f 692 689 691
f 689 692 694
f 143 689 144
f 689 143 690
f 696 695 685
f 695 696 123
f 697 695 122
f 695 697 686
f 130 698 131
f 698 130 700
f 692 698 693
f 698 692 699
f 702 200 701
f 704 702 703
f 684 702 685
f 200 702 139
f 706 705 693
f 705 706 708
f 705 708 201
f 705 201 694
f 710 709 703
f 709 710 188
f 696 709 125
f 709 696 704
f 194 711 129
f 711 194 712
f 706 711 707
f 711 706 700
f 714 256 713
f 716 714 715
f 714 716 701
f 256 714 199
f 718 717 707
f 717 718 720
f 717 720 257
f 717 257 708
f 722 716 721
f 243 722 244
f 710 722 189
f 722 710 716
f 250 723 193
f 723 250 724
f 718 723 719
f 723 718 712
f 726 312 725
f 728 726 727
f 726 728 713
f 312 726 255
f 730 720 729
f 732 730 731
f 730 732 313
f 720 730 258
f 734 728 733
f 299 734 300
f 734 299 721
f 728 734 715
f 735 724 306
f 736 735 305
f 735 736 729
f 724 735 719
f 737 357 733
f 738 737 727
f 737 738 740
f 357 737 358
f 744 741 743
f 736 744 731
f 744 736 360
f 741 744 362
f 745 738 725
f 366 745 311
f 745 366 746
f 738 745 739
f 748 747 371
f 732 748 315
f 748 732 743
f 747 748 742
f 750 749 638
f 752 749 751
f 746 749 739
f 749 746 639
f 754 753 742
f 756 753 755
f 753 756 640
f 753 640 747
f 758 752 757
f 618 758 619
f 740 758 358
f 752 758 739
f 759 741 625
f 760 759 624
f 759 760 754
f 741 759 742
f 762 651 761
f 764 762 763
f 762 764 750
f 651 762 638
f 766 756 765
f 768 766 767
f 766 768 652
f 756 766 642
f 770 764 769
f 626 770 627
f 770 626 757
f 764 770 751
f 771 760 633
f 772 771 632
f 771 772 765
f 760 771 755
f 775 595 773
f 946 578 573
f 946 774 596
f 773 563 775
f 595 775 575
f 779 776 778
f 67 779 68
f 779 67 780
f 776 779 781
f 783 782 83
f 784 783 82
f 783 784 786
f 782 783 787
f 793 788 790
f 793 790 792
f 794 793 777
f 793 794 788
f 798 796 785
f 796 798 800
f 802 796 801
f 796 802 797
f 805 804 791
f 804 805 85
f 778 804 68
f 804 778 792
f 806 784 96
f 807 806 95
f 798 806 799
f 806 798 784
f 811 808 810
f 813 811 812
f 790 811 791
f 811 790 808
f 815 814 799
f 814 815 817
f 814 817 819
f 814 819 800
f 821 813 820
f 97 821 98
f 821 97 805
f 821 805 813
f 823 807 107
f 823 107 822
f 815 823 816
f 823 815 807
f 827 824 826
f 829 827 828
f 827 829 810
f 824 827 809
f 831 830 816
f 833 830 832
f 830 833 835
f 817 830 818
f 837 829 836
f 109 837 110
f 837 109 820
f 829 837 812
f 120 838 106
f 839 838 119
f 838 839 831
f 838 831 822
f 843 840 842
f 845 843 844
f 843 845 826
f 840 843 825
f 847 833 846
f 849 847 848
f 847 849 851
f 833 847 834
f 853 845 852
f 121 853 122
f 853 121 836
f 845 853 828
f 854 839 132
f 855 854 131
f 854 855 846
f 839 854 832
f 859 856 858
f 861 856 860
f 863 856 862
f 856 863 857
f 868 865 867
f 870 865 869
f 872 865 871
f 865 872 866
f 948 861 874
f 948 874 134
f 948 134 875
f 948 875 861
f 878 876 149
f 878 149 877
f 868 878 869
f 878 868 876
f 882 879 881
f 883 879 781
f 879 883 884
f 879 884 880
f 890 886 888
f 890 888 889
f 892 890 891
f 886 890 893
f 894 883 780
f 412 894 75
f 894 412 679
f 883 894 678
f 895 680 414
f 782 895 84
f 895 782 888
f 680 895 887
f 885 884 897
f 419 898 411
f 893 899 886
f 939 901 517
f 677 896 678
f 903 887 900
f 947 902 421
f 887 903 680
f 907 904 906
f 909 904 908
f 904 909 842
f 905 904 841
f 911 849 910
f 913 911 912
f 915 911 914
f 911 915 849
f 917 909 916
f 697 917 687
f 917 697 852
f 909 917 844
f 918 855 699
f 919 918 691
f 918 919 910
f 855 918 848
f 921 920 863
f 922 921 862
f 921 922 907
f 920 921 906
f 924 913 923
f 866 924 867
f 925 924 873
f 924 925 913
f 926 922 875
f 688 926 141
f 926 688 916
f 922 926 908
f 927 919 690
f 876 927 150
f 927 876 923
f 919 927 912
f 929 794 776
f 931 786 797
f 931 928 889
f 794 929 795
f 797 803 931
f 786 931 787
f 949 932 513
f 941 933 934
f 539 935 937
f 938 901 932
f 901 938 36
f 901 939 514
f 939 517 940
f 934 939 941
f 940 942 941
f 942 940 527
f 540 942 526
f 942 540 937
f 933 941 936
f 506 509 538
f 14 944 66
f 543 902 418
f 59 3 39
f 539 538 935
f 950 17 55
f 774 946 572
f 596 579 946
f 775 562 576
f 776 781 929
f 929 882 930
f 3 2 34

