# https://github.com/mikedh/trimesh

o v2_tshirt02-mesh
v 0.10011236 0.12966146 1.03570267
v 0.11117947 0.14349828 0.98899596
v 0.08183916 0.15501305 0.98900249
v 0.07626558 0.14108513 1.03366276
v 0.07207197 0.12854731 1.08351977
v 0.09871963 0.12613322 1.09113341
v 0.12592432 0.12000518 1.09336182
v 0.12388164 0.11573415 1.03774535
v 0.13922835 0.12326257 0.98738605
v -0.11863942 0.11118458 1.03783821
v -0.11696814 0.11415574 1.09429024
v -0.09087763 0.12817590 1.09094769
v -0.09254890 0.12631890 1.03542408
v -0.06014468 0.13337542 1.08574818
v -0.06768362 0.13811232 1.03357177
v -0.07371065 0.15166767 0.98835255
v -0.10786896 0.14061760 0.98937107
v -0.13864684 0.11765071 0.98882517
v 0.07244337 0.12780450 1.14127179
v 0.09844108 0.13031139 1.14229307
v 0.07866429 0.13356114 1.18667486
v 0.11199691 0.13300401 1.18983169
v 0.12759560 0.10617074 1.19410278
v 0.12740990 0.11072031 1.14721410
v -0.10749756 0.10524226 1.14739983
v -0.12170343 0.10682068 1.19707388
v -0.09403449 0.12799018 1.18992455
v -0.09069193 0.12956864 1.14275728
v -0.06385858 0.13848211 1.18602492
v -0.06107315 0.13421109 1.13876478
v 0.06050457 0.15975500 0.98910830
v 0.04254929 0.16123111 0.98872301
v 0.04060767 0.14517038 1.03273611
v 0.03521102 0.13746077 1.07776318
v 0.05071675 0.13216841 1.07897020
v -0.01279174 0.14943827 1.03124596
v -0.03044379 0.14776859 1.03245851
v -0.02811178 0.15110955 1.07999159
v -0.00926350 0.15045960 1.07952727
v 0.00522088 0.14813839 1.07813453
v 0.00531373 0.14915973 1.03152444
v 0.00633502 0.16169433 0.98769984
v -0.01483441 0.15993020 0.98872113
v -0.03322546 0.15983874 0.98909812
v 0.03363261 0.12464762 1.13514374
v 0.05313082 0.12529756 1.13830057
v 0.03948206 0.12845444 1.18583919
v 0.05517351 0.12994000 1.18528212
v -0.02541922 0.14850980 1.13412235
v -0.02606916 0.14915973 1.18333230
v -0.01390594 0.14266029 1.18305371
v -0.01102765 0.14256748 1.13310106
v -0.00183559 0.13253981 1.18221804
v 0.00336392 0.13495383 1.13161546
v 0.07532173 -0.08491208 1.18797473
v 0.05108815 -0.09475406 1.19020303
v 0.05108815 -0.08611911 1.14609984
v 0.07262910 -0.07553427 1.14433575
v 0.05062394 -0.08175523 1.09605444
v 0.07755008 -0.07358453 1.09401176
v 0.09909102 -0.06160703 1.08769799
v 0.10011236 -0.06123564 1.14220021
v 0.09918387 -0.06949919 1.18713907
v -0.09542713 -0.05687166 1.14647130
v -0.09784128 -0.05278639 1.09512591
v -0.07007949 -0.07014912 1.09651865
v -0.06905815 -0.07525581 1.14712123
v -0.04473176 -0.08147668 1.09744707
v -0.04287476 -0.08760470 1.14739983
v -0.04287476 -0.09809662 1.19150291
v -0.06942955 -0.08574772 1.19057449
v -0.09422018 -0.06652793 1.19113156
v 0.05498784 -0.08342651 1.04275913
v 0.07764294 -0.07507011 1.03765249
v 0.05424503 -0.07924831 0.99141375
v 0.08238560 -0.07274397 0.98994397
v 0.11214611 -0.06650722 0.99173971
v 0.10772595 -0.06327831 1.03858102
v -0.10638338 -0.05352910 1.04443047
v -0.11219673 -0.05473380 0.99464308
v -0.08236822 -0.06689319 0.99218168
v -0.07685741 -0.06903493 1.04229492
v -0.05169946 -0.07618290 0.99374155
v -0.05085975 -0.08166238 1.04508040
v 0.02731890 -0.09958210 1.19196723
v 0.00522088 -0.10060353 1.19335997
v 0.00522088 -0.09280423 1.14888532
v 0.02778310 -0.09187565 1.14749258
v 0.00484949 -0.08704760 1.09930414
v 0.02861877 -0.08723321 1.09781853
v -0.02031252 -0.08611911 1.09828274
v -0.01761990 -0.09243284 1.14814252
v -0.01734136 -0.10060353 1.19271003
v 0.00410670 -0.08992592 1.04610169
v 0.02936152 -0.08723321 1.04470895
v 0.00410670 -0.08714045 0.99587057
v 0.02824738 -0.08500493 0.99401350
v -0.02114813 -0.08389066 0.99512776
v -0.02170526 -0.08667621 1.04582321
v 0.11986928 0.14971963 0.94942474
v 0.12289560 0.15217605 0.91659342
v 0.08526882 0.16161234 0.91559422
v 0.08462840 0.16327796 0.94703761
v 0.14951079 0.12235518 0.94855011
v 0.15281844 0.12491470 0.91614266
v -0.12086120 0.14455183 0.94799680
v -0.14764511 0.11820368 0.94721957
v -0.08141452 0.16048832 0.94675724
v -0.08319011 0.16087512 0.91963060
v -0.12262226 0.14574695 0.91953519
v -0.14902864 0.11955403 0.92131389
v 0.06167290 0.16559398 0.94647500
v 0.06455241 0.16643083 0.91834616
v 0.04858126 0.16382976 0.91927027
v 0.04356742 0.16596537 0.94731066
v -0.01817697 0.15779466 0.94693921
v -0.03089727 0.16345846 0.94703207
v 0.00707782 0.15918732 0.94740342
v 0.00698496 0.16039445 0.91750612
v -0.02216947 0.16345846 0.91759899
v -0.03405415 0.16810090 0.91964167
v 0.05617310 -0.07551290 0.94742013
v 0.08285866 -0.06772847 0.94731155
v 0.06238233 -0.07561356 0.91488678
v 0.08365515 -0.06353532 0.91552587
v 0.10843115 -0.06122941 0.91869006
v 0.11188754 -0.06468729 0.94772839
v -0.07809326 -0.06533204 0.94814434
v -0.10796496 -0.06021903 0.94994750
v -0.10004041 -0.06153739 0.91244563
v -0.07237315 -0.06561801 0.91893478
v -0.04763208 -0.07246821 0.92012309
v -0.04907480 -0.07207667 0.94780266
v 0.00419954 -0.08314795 0.94768201
v 0.03131139 -0.08194093 0.94786774
v 0.00150697 -0.08398359 0.91527777
v 0.03415150 -0.08220815 0.91154848
v -0.02179807 -0.07952686 0.94805336
v -0.02121936 -0.07710452 0.91681125
v 0.08702067 0.14173181 1.22706404
v 0.11775363 0.12956864 1.23124226
v 0.09559396 0.14975903 1.26603922
v 0.12167947 0.12875821 1.27109108
v 0.15086221 0.10792608 1.27772982
v 0.14004383 0.10188620 1.23990044
v -0.12820284 0.10440659 1.23105653
v -0.14608998 0.10430770 1.26492219
v -0.11806886 0.12807180 1.26441991
v -0.10034820 0.12381201 1.22882812
v -0.08258617 0.14798360 1.26355270
v -0.07137937 0.14442443 1.22548557
v 0.09604771 0.15468200 1.30716102
v 0.09498823 0.16362215 1.35169500
v 0.13003297 0.15232668 1.35518798
v 0.13120203 0.13764468 1.31271516
v 0.16209423 0.13217891 1.35415363
v 0.15684557 0.11710348 1.31734277
v -0.15856868 0.09561560 1.29735704
v -0.16372151 0.10033175 1.33236020
v -0.14101682 0.11820667 1.33877226
v -0.13058423 0.12313562 1.29990676
v -0.10554105 0.14209264 1.34378804
v -0.09141095 0.14109006 1.30424371
v 0.04236035 0.13383968 1.22604275
v 0.06315851 0.13625376 1.22678555
v 0.04585521 0.13933411 1.26604752
v 0.06987500 0.14458138 1.26548857
v -0.02987593 0.15203802 1.22409293
v -0.03575061 0.15273490 1.26399377
v -0.02237042 0.14411805 1.26381734
v 0.00221917 0.13630982 1.26501506
v -0.00322833 0.13411822 1.22400007
v -0.01817697 0.14516724 1.22307154
v 0.04842166 0.14783124 1.30837921
v 0.04635246 0.15695490 1.35118707
v 0.06731282 0.16538238 1.35100145
v 0.07235090 0.15395314 1.30750458
v -0.04167931 0.15336458 1.30552588
v -0.05080092 0.15087407 1.34793461
v -0.03142351 0.14134917 1.34838863
v -0.02700854 0.14357864 1.30560856
v -0.00294498 0.13653994 1.34983616
v 0.00053355 0.13654541 1.30752218
v 0.07597692 -0.09255502 1.30929933
v 0.08266563 -0.07913531 1.35911085
v 0.05884337 -0.08301324 1.35832621
v 0.04986138 -0.09515126 1.30963637
v 0.04923119 -0.09735383 1.26726760
v 0.07262910 -0.09094726 1.26652479
v 0.09910634 -0.08100538 1.26616263
v 0.10298194 -0.08799856 1.30792519
v 0.11103462 -0.06918423 1.36254340
v -0.07435301 -0.08916307 1.30961036
v -0.10513196 -0.08110222 1.30932811
v -0.09561728 -0.07772067 1.26729914
v -0.06850102 -0.08936883 1.26643193
v -0.04575311 -0.09605394 1.26689614
v -0.04515342 -0.09324378 1.30893817
v -0.03754259 -0.08428925 1.35518609
v -0.06633410 -0.08206376 1.35453527
v -0.09559518 -0.07696775 1.35576265
v 0.04895266 -0.09781806 1.22994238
v 0.07253624 -0.08927598 1.22882812
v 0.09704836 -0.07507011 1.22864251
v -0.09310591 -0.07321305 1.23012811
v -0.06822249 -0.09066871 1.22994238
v -0.04259622 -0.09976789 1.23077805
v 0.02737889 -0.09565023 1.30980627
v 0.03673178 -0.08405370 1.35769121
v 0.01664776 -0.08171427 1.35645354
v 0.00657548 -0.09617538 1.30793161
v 0.00484949 -0.10181056 1.26754608
v 0.02620469 -0.10125347 1.26810326
v -0.01874290 -0.09293561 1.30773569
v -0.01975545 -0.09939649 1.26717473
v -0.01218696 -0.08245521 1.35541267
v 0.00438524 -0.10431748 1.23319208
v 0.02620469 -0.10292475 1.23133513
v -0.01771276 -0.10366754 1.23170647
v 0.09598257 0.16778020 1.39820480
v 0.13036342 0.15829219 1.39958924
v 0.09928210 0.15956001 1.43317543
v 0.13277080 0.15496097 1.43139728
v 0.16973429 0.15060566 1.42433429
v 0.16341630 0.14832046 1.39398208
v -0.14888992 0.11688792 1.38012528
v -0.18419291 0.10121274 1.36806146
v -0.19211866 0.10006173 1.39980552
v -0.15656583 0.11476323 1.41627879
v -0.11942047 0.12945508 1.42257109
v -0.11566955 0.13715031 1.38901833
v 0.13285409 0.14597323 1.45181202
v 0.13454134 0.13271977 1.46770863
v 0.17792875 0.13207670 1.45499575
v 0.17298790 0.14344504 1.44173144
v 0.09925378 0.14922371 1.45762893
v 0.10079832 0.13592326 1.47613282
v -0.15606927 0.10888423 1.43735354
v -0.11907070 0.12142781 1.44664218
v -0.19241467 0.09244720 1.41970491
v -0.19197251 0.08337739 1.43417347
v -0.15569797 0.09872788 1.45274609
v -0.11899847 0.11088816 1.46558149
v 0.04656415 0.15943356 1.39249836
v 0.06781146 0.16732412 1.39485394
v 0.04553783 0.15561573 1.43261924
v 0.07079490 0.16004190 1.43323022
v -0.03593645 0.13804541 1.38947512
v -0.06022935 0.14648836 1.38857083
v -0.06424957 0.13888119 1.42646242
v -0.03536770 0.13638332 1.43002778
v -0.00786312 0.14020061 1.43033416
v -0.00482108 0.13939260 1.39245287
v 0.01722636 0.14002633 1.46661307
v 0.01934392 0.14560864 1.43119030
v -0.00861666 0.13593770 1.46479508
v -0.00898164 0.12955227 1.48673516
v 0.01572088 0.12797822 1.49004894
v 0.04440796 0.12781551 1.49192360
v 0.04318666 0.14588818 1.46656570
v 0.08979050 -0.05594743 1.39911562
v 0.09075843 -0.03333049 1.42774193
v 0.06625966 -0.03982294 1.42693692
v 0.06543567 -0.06269317 1.39695418
v 0.11553389 -0.04598049 1.40170896
v 0.11665810 -0.02444763 1.42951155
v -0.08967839 -0.06462964 1.38838046
v -0.05965989 -0.06827275 1.38924579
v -0.03177361 -0.06973864 1.39085956
v -0.03470907 -0.05031309 1.41903638
v -0.06170954 -0.04909492 1.41632328
v -0.09105785 -0.04710879 1.41423046
v 0.04195857 -0.06482833 1.39627081
v 0.04114714 -0.04403085 1.42635937
v 0.01575847 -0.04570928 1.42479020
v 0.01843570 -0.06459844 1.39492633
v -0.00722011 -0.06837581 1.39304802
v -0.00995119 -0.04834516 1.42196299
v 0.16295911 0.02836902 1.04829302
v 0.15805650 0.04944754 1.04670802
v 0.15517169 0.04832597 1.09753994
v 0.15814286 0.02622795 1.09605444
v 0.15164345 -0.00506209 1.09289750
v 0.16142710 -0.00190254 1.04859375
v 0.17709041 -0.00183337 1.00644878
v 0.17966929 0.02609745 1.00093637
v 0.17914999 0.04837590 0.99800700
v -0.16919949 0.02231907 0.99800788
v -0.16135599 -0.00291481 1.00081938
v -0.15136008 0.00440647 1.04942576
v -0.15689200 0.02854358 1.04892990
v -0.14296580 0.00691540 1.09893268
v -0.15327202 0.03049898 1.09958262
v -0.15345762 0.04934732 1.09828274
v -0.15728895 0.04739031 1.04780180
v -0.16829924 0.04311822 0.99689185
v 0.13149525 -0.04192309 1.08853366
v 0.14837961 -0.04923911 0.99853717
v 0.13920170 -0.04192309 1.04155212
v -0.14390738 -0.03649218 0.99953068
v -0.12532454 -0.02641731 1.09605444
v -0.13417227 -0.02846057 1.04655671
v 0.14690815 0.02427813 1.14749258
v 0.14300840 0.04256934 1.14647130
v 0.15275762 0.03792690 1.19586686
v 0.14857943 0.01666454 1.19568114
v 0.14115152 -0.01054019 1.19428839
v 0.14402984 -0.00190526 1.14767831
v -0.14250157 0.02873489 1.15129946
v -0.13646639 0.00515126 1.15074239
v -0.13693063 -0.00543349 1.19809527
v -0.14417285 0.02112125 1.19744533
v -0.14862958 0.04247647 1.19716674
v -0.14138738 0.04749031 1.14925678
v 0.12592432 -0.03848769 1.14247880
v 0.12351025 -0.04489425 1.18881029
v -0.11928936 -0.02818147 1.14897819
v -0.11919651 -0.03885908 1.19475271
v 0.18589722 0.02302131 0.95148236
v 0.18426670 0.04551304 0.95119912
v 0.18266821 -0.00648627 0.95261599
v 0.18261111 -0.01198794 0.91847633
v 0.18931712 0.02165531 0.91652242
v 0.18605618 0.04134827 0.91352840
v -0.17317889 0.01086030 0.91515950
v -0.16036892 -0.01569205 0.91373854
v -0.16589193 -0.00890782 0.94971916
v -0.17440098 0.01667112 0.94934493
v -0.17852133 0.03788633 0.94860589
v -0.17666435 0.03241498 0.91671528
v 0.14561570 -0.04975804 0.95225383
v 0.14378156 -0.05182430 0.91686521
v -0.13331056 -0.04638002 0.91414835
v -0.14144986 -0.04252150 0.94979520
v 0.15335492 0.00725626 1.23775371
v 0.16069731 0.03221033 1.23675379
v 0.17261167 0.03267681 1.27625074
v 0.16033826 0.00189332 1.27722100
v 0.15040641 -0.02776290 1.27563976
v 0.14356559 -0.02270335 1.23551324
v -0.14707900 0.01112302 1.23729504
v -0.13914750 -0.01835318 1.23690786
v -0.14110725 -0.02827896 1.27509475
v -0.15029946 -0.00038175 1.27590065
v -0.15945669 0.02555986 1.26938355
v -0.15330861 0.03576053 1.23514001
v 0.12981413 -0.06042219 1.26881164
v 0.12430336 -0.05419361 1.23142611
v -0.11779673 -0.04960995 1.23389680
v -0.12402837 -0.05646182 1.26936507
v 0.17296385 0.00987350 1.31877823
v 0.17130353 0.03877148 1.31577271
v 0.17958684 0.02607078 1.33370092
v 0.17974404 0.01255461 1.34945552
v 0.17641503 -0.01399477 1.36364460
v 0.16021310 -0.02532713 1.31845703
v -0.15696221 -0.01772815 1.31175985
v -0.14635989 -0.03926947 1.31665287
v -0.15320388 -0.04236152 1.35265696
v -0.16057811 -0.01879177 1.32686074
v -0.16757640 -0.00704046 1.31382942
v -0.16531368 0.00584325 1.30027999
v 0.14862966 -0.05173925 1.36551461
v 0.13902854 -0.06611762 1.31089440
v -0.12695542 -0.06655931 1.35625475
v -0.12951313 -0.06053919 1.31386838
v 0.14593667 -0.02951988 1.40502739
v 0.17275930 -0.01293894 1.39741286
v 0.17224491 -0.00215441 1.42088403
v 0.14737731 -0.01192004 1.43058951
v -0.12331733 -0.05761899 1.38874815
v -0.12594476 -0.04392760 1.41428902
v -0.16159230 -0.04104158 1.40800314
v -0.15767510 -0.04684742 1.38418839
v 0.14172246 0.10347940 1.03885485
v 0.13762328 0.10217824 1.09391890
v 0.14217286 0.08574399 1.09308323
v 0.14946511 0.08723359 1.04078895
v 0.16810386 0.08857530 0.99071931
v 0.15740295 0.10624479 0.98844453
v -0.15485231 0.09963865 0.98906381
v -0.16264725 0.08133510 0.99069330
v -0.14246786 0.08258484 1.03874162
v -0.13594151 0.09772065 1.03931264
v -0.13878751 0.08360844 1.09391890
v -0.12950274 0.09827855 1.09410452
v 0.15313283 0.06913165 1.04346109
v 0.14946511 0.08723359 1.04078895
v 0.14217286 0.08574399 1.09308323
v 0.14737240 0.06708139 1.09429024
v 0.17569398 0.06934555 0.99317795
v 0.16810386 0.08857530 0.99071931
v -0.15114245 0.06308363 1.04215192
v -0.16621840 0.06185100 0.99358371
v -0.14686545 0.06652426 1.09568299
v -0.13878751 0.08360844 1.09391890
v -0.14246786 0.08258484 1.03874162
v -0.16264725 0.08133510 0.99069330
v 0.13010252 0.09605020 1.14517142
v 0.13818036 0.08481552 1.20060216
v 0.14662961 0.07098102 1.19893083
v 0.12963819 0.07933741 1.14489283
v -0.12281762 0.08890082 1.15167081
v -0.13312373 0.07859461 1.15083514
v -0.13628069 0.07543778 1.19958077
v -0.12913133 0.09233624 1.19633107
v 0.13623053 0.05816792 1.14628557
v 0.12963819 0.07933741 1.14489283
v 0.14662961 0.07098102 1.19893083
v 0.15080781 0.05575390 1.19725961
v -0.13795197 0.06503873 1.14739983
v -0.14342996 0.05891072 1.19818803
v -0.13628069 0.07543778 1.19958077
v -0.13312373 0.07859461 1.15083514
v 0.16505090 0.10244134 0.94951018
v 0.17298585 0.08381343 0.94918156
v 0.17300749 0.08210441 0.91576506
v 0.16554095 0.10161408 0.91594055
v -0.16105767 0.09729877 0.91945029
v -0.16916820 0.07896878 0.91716771
v -0.16977553 0.08057946 0.94810637
v -0.15969298 0.09726474 0.94832542
v 0.17298585 0.08381343 0.94918156
v 0.17958164 0.06149664 0.91458765
v 0.17907822 0.06373883 0.95040341
v 0.17300749 0.08210441 0.91576506
v -0.17793675 0.06231333 0.91489995
v -0.17594440 0.06002675 0.94824462
v -0.16977553 0.08057946 0.94810637
v -0.16916820 0.07896878 0.91716771
v 0.16158188 0.09028454 1.27498706
v 0.15255262 0.08601218 1.24093191
v 0.16840441 0.07356794 1.27143276
v 0.15836550 0.07111041 1.23920678
v -0.14497384 0.08873795 1.23567572
v -0.15417303 0.07626531 1.23234534
v -0.16627114 0.07182466 1.25968837
v -0.16099008 0.08863556 1.26130946
v 0.15836550 0.07111041 1.23920678
v 0.16840441 0.07356794 1.27143276
v 0.17203907 0.05515703 1.27240678
v 0.16248057 0.05332116 1.23679463
v -0.15799431 0.05694884 1.23298687
v -0.16600270 0.04952862 1.26251470
v -0.16627114 0.07182466 1.25968837
v -0.15417303 0.07626531 1.23234534
v 0.17965768 0.11147279 1.31929258
v 0.17490884 0.10077725 1.30838386
v 0.18320990 0.08217281 1.31797234
v 0.17767555 0.08133831 1.30379157
v -0.17753518 0.07859621 1.29063020
v -0.12569705 0.06972387 1.29460875
v -0.13680464 0.06110200 1.29121328
v -0.15332541 0.09176804 1.30572832
v 0.17596741 0.06023346 1.30734487
v 0.17767555 0.08133831 1.30379157
v 0.18320990 0.08217281 1.31797234
v 0.17968916 0.06058455 1.32169930
v -0.17907294 0.03241327 1.28813902
v -0.12529825 0.03430403 1.29020030
v -0.13680464 0.06110200 1.29121328
v -0.12569705 0.06972387 1.29460875
v 0.17993391 0.11363280 1.32219971
v 0.18419614 0.07870021 1.32024901
v 0.17407004 0.13293412 1.34941003
v 0.19046102 0.12806882 1.33231184
v 0.14744519 0.10130572 1.31528337
v 0.14687639 0.07199334 1.32186268
v -0.16043911 0.09166433 1.29981290
v -0.16057161 0.08808623 1.28451798
v -0.18277732 0.09887670 1.29515564
v -0.17847694 0.10136842 1.31721559
v -0.13957951 0.06007092 1.28894967
v -0.14473244 0.05923126 1.28153847
v 0.18450338 0.02151423 1.33701935
v 0.18419614 0.07870021 1.32024901
v 0.14038738 0.05293011 1.32821541
v 0.14687639 0.07199334 1.32186268
v 0.14530522 0.05273974 1.32490163
v 0.19370182 0.03203440 1.32586812
v -0.13317379 0.03705034 1.28154124
v -0.14473244 0.05923126 1.28153847
v -0.13957951 0.06007092 1.28894967
v -0.12797406 0.03492580 1.28805734
v -0.13289867 0.00017433 1.30586480
v -0.13797908 0.00091520 1.28914459
v -0.12157800 0.09523827 1.47767686
v -0.19103669 0.07354143 1.44546582
v -0.15622647 0.08584538 1.46427973
v -0.18988361 0.06029062 1.45261603
v -0.15548489 0.06885250 1.47193422
v -0.12380236 0.07561277 1.48421621
v 0.22043632 0.08692632 1.45314621
v 0.21619071 0.10208715 1.44770807
v 0.18439056 0.10318337 1.47202056
v 0.18662506 0.08448180 1.47554884
v 0.18932881 0.06737990 1.47856820
v 0.22436801 0.07191309 1.45861502
v 0.24669731 0.07067437 1.41287768
v 0.24231280 0.08621966 1.40625765
v 0.23707261 0.09830280 1.39935802
v -0.23078042 0.02573734 1.38597008
v -0.22781801 0.01000461 1.38672318
v -0.21317806 0.01869106 1.43900075
v -0.18731764 0.02344617 1.46034756
v -0.18907954 0.04232522 1.45758809
v -0.21598415 0.03676472 1.43569803
v -0.18988361 0.06029062 1.45261603
v -0.21723798 0.05124754 1.42914663
v -0.23003765 0.03846112 1.38231185
v 0.21888389 0.03374364 1.44720489
v 0.18651123 0.03062117 1.46603087
v 0.18140009 0.01186073 1.44473043
v 0.19887702 0.00672436 1.40780999
v 0.21032741 0.01377490 1.38081794
v 0.22731336 0.02020904 1.39540825
v 0.20830265 0.01726512 1.42792755
v 0.23799644 0.03044702 1.40703100
v -0.20083800 -0.02537788 1.36683031
v -0.19054070 -0.02645666 1.35344337
v -0.18316043 -0.03802233 1.38750494
v -0.19337899 -0.03207313 1.40811360
v -0.16982920 -0.03116702 1.42757015
v -0.17690882 -0.01643784 1.44647416
v -0.20133075 -0.02062641 1.42564811
v -0.21028369 -0.01869586 1.37653014
v 0.19172005 -0.00063632 1.38479185
v 0.18369123 0.00590004 1.36806422
v 0.19423003 0.01104615 1.35191039
v 0.19729608 0.01252345 1.36362323
v -0.17560885 -0.02335036 1.33399988
v -0.15968630 -0.01619909 1.31457499
v -0.16134922 -0.02609738 1.34326527
v -0.17095508 -0.03408693 1.36584799
v 0.18681113 0.01354020 1.34213995
v 0.18077782 0.01247901 1.35507375
v -0.14859087 -0.00879437 1.30171823
v -0.14079788 -0.00960768 1.31908926
v 0.22480709 0.05400375 1.45854263
v 0.19030661 0.05015742 1.47828319
v 0.24564838 0.04864453 1.41464929
v -0.22021452 -0.00730544 1.38306771
v -0.20875828 -0.00201057 1.43697290
v -0.18370758 0.00170057 1.45799297
v 0.18147028 0.14023569 1.37802416
v 0.19464349 0.14245508 1.40239874
v 0.20306125 0.13084982 1.36671885
v 0.18380580 0.13311962 1.34949448
v -0.19778328 0.09282536 1.34165891
v -0.20545286 0.08841304 1.31167905
v -0.21596539 0.07444633 1.32940194
v -0.20772571 0.08251439 1.36809676
v 0.20175079 0.13572640 1.41930933
v 0.20864285 0.12692390 1.43200826
v 0.22319979 0.11686346 1.38932659
v 0.21357044 0.12490662 1.38021350
v -0.21333962 0.07592557 1.39237483
v -0.22018212 0.06374437 1.34756503
v -0.22474648 0.05591588 1.36492411
v -0.21559818 0.07018625 1.41032718
v 0.21993532 0.11661791 1.33040386
v 0.20559834 0.12397892 1.32200656
v 0.22884758 0.10814065 1.33534902
v 0.23626408 0.09671547 1.27479115
v 0.22456215 0.10648896 1.27322474
v 0.20770453 0.11311237 1.27489973
v -0.23241022 0.05629697 1.29905339
v -0.24018295 0.04894814 1.26025098
v -0.24560876 0.03698337 1.26173006
v -0.23470421 0.04540580 1.30713689
v -0.22608721 0.06914964 1.29000815
v -0.22968623 0.06400110 1.25587220
v 0.18282021 0.12568506 1.31108943
v 0.16085896 0.12093825 1.30165226
v 0.18668476 0.11792592 1.27313929
v 0.16626982 0.11597599 1.27132130
v -0.21057876 0.08450294 1.27918377
v -0.21331205 0.08242810 1.25055381
v -0.18475362 0.09600775 1.26882006
v -0.18959977 0.09351564 1.24744059
v 0.24528470 0.04239999 1.35316666
v 0.24910553 0.06011397 1.34893088
v 0.23929075 0.03307981 1.35259564
v 0.23254659 0.03144760 1.28638047
v 0.23925575 0.04050241 1.28588836
v 0.24399885 0.05075102 1.28518187
v -0.22323499 -0.01449893 1.26358147
v -0.21753713 -0.01813596 1.26252765
v -0.20934750 -0.01621990 1.31423054
v -0.21628580 -0.00919505 1.31787206
v -0.22516420 -0.00069011 1.31826289
v -0.23229525 -0.00840554 1.26336885
v 0.17919214 0.01307936 1.31856937
v 0.16808047 0.01525802 1.31701503
v 0.15661428 0.03239943 1.31347745
v 0.15801436 0.03334513 1.27523311
v 0.16836951 0.01736661 1.27879195
v 0.18149879 0.00907502 1.27941875
v -0.15085284 -0.00323032 1.25053809
v -0.14340016 0.01462894 1.24846199
v -0.13747315 0.01116059 1.26569012
v -0.14870794 -0.00687150 1.27279019
v -0.16481889 -0.01469273 1.28060717
v -0.16491767 -0.01431232 1.25516935
v 0.21355196 0.01802762 1.33720597
v 0.19257872 0.01424022 1.32507994
v 0.19591050 0.01029349 1.28211779
v 0.21023939 0.01384872 1.28320881
v -0.18050987 -0.02226034 1.25808201
v -0.17956476 -0.02034256 1.28900258
v -0.19368938 -0.02121957 1.29782324
v -0.19948389 -0.02303763 1.26156292
v 0.23009901 0.02446253 1.34724382
v 0.22267371 0.02313255 1.28562560
v -0.20900887 -0.02126999 1.26269013
v -0.20244465 -0.01990044 1.30735970
v 0.24585545 0.07609940 1.34505449
v 0.24069835 0.08838088 1.34186600
v 0.24644988 0.06261057 1.28213362
v 0.24742960 0.07423890 1.27926645
v -0.24034591 0.00162342 1.26379410
v -0.23222740 0.01031906 1.31817567
v -0.23587885 0.02311827 1.31602806
v -0.24612964 0.01399954 1.26367987
v 0.21253034 0.11625088 1.44160880
v 0.18159350 0.11942902 1.46593712
v 0.18439056 0.10318337 1.47202056
v 0.21619071 0.10208715 1.44770807
v 0.23707261 0.09830280 1.39935802
v 0.23069538 0.10800467 1.39450020
v -0.21752442 0.06130748 1.42062315
v -0.22772672 0.04783520 1.37590998
v -0.23003765 0.03846112 1.38231185
v -0.21723798 0.05124754 1.42914663
v 0.15033065 0.05290134 1.30545726
v 0.14941897 0.07426016 1.29892256
v 0.14868083 0.07687103 1.27270021
v 0.15084587 0.05640140 1.27323404
v -0.14503513 0.03917974 1.25024102
v -0.15091264 0.06013899 1.25090767
v -0.14763842 0.06064343 1.26570772
v -0.13859996 0.03967074 1.26692591
v 0.14941897 0.07426016 1.29892256
v 0.14748102 0.10170701 1.29735339
v 0.15104076 0.10117500 1.27294338
v 0.14868083 0.07687103 1.27270021
v -0.16259246 0.08475973 1.25088066
v -0.16041683 0.08439420 1.26475041
v -0.14763842 0.06064343 1.26570772
v -0.15091264 0.06013899 1.25090767
v 0.08425179 0.03418837 1.49698852
v 0.07421394 0.00410335 1.47763049
v 0.09469974 0.01268012 1.47892107
v 0.09693224 0.03513495 1.49418444
v 0.11993632 0.01912743 1.47923120
v 0.11975015 0.03829432 1.49428196
v 0.11864256 0.05870430 1.50089557
v 0.09796040 0.05572307 1.50420747
v 0.08658485 0.05505099 1.50592241
v -0.09881592 0.03228366 1.49187900
v -0.11956187 0.02933474 1.48662570
v -0.11477106 0.00927077 1.47704176
v -0.09141819 0.01067513 1.48265356
v -0.10949604 -0.01035031 1.46174407
v -0.08207867 -0.00849673 1.46462795
v -0.05814649 -0.00790159 1.47167888
v -0.07753170 0.01165779 1.48733042
v -0.08760752 0.03378698 1.49643886
v 0.15082127 0.02395997 1.47732223
v 0.15271864 0.04286526 1.49189206
v 0.15052805 0.06287533 1.49400248
v -0.14864806 0.00542288 1.47067984
v -0.15219710 0.02620260 1.47832038
v -0.14341027 -0.01243212 1.45611178
v 0.08705659 0.07672133 1.50711924
v 0.09685044 0.07759806 1.50413132
v 0.11617548 0.08044287 1.49966631
v 0.11220247 0.10052003 1.49559855
v 0.09438755 0.09818049 1.50082783
v 0.08548753 0.09602164 1.50410354
v -0.10422566 0.05656748 1.49506095
v -0.10367507 0.07883009 1.49045659
v -0.12380236 0.07561277 1.48421621
v -0.12275225 0.05430758 1.48760802
v -0.09398649 0.05826344 1.50004319
v -0.09322819 0.08028780 1.49573878
v 0.14682422 0.08307013 1.49132845
v 0.14288640 0.10119504 1.48588190
v -0.15471090 0.04877264 1.47661186
v -0.15548489 0.06885250 1.47193422
v 0.23547895 0.09889789 1.33880846
v 0.24069835 0.08838088 1.34186600
v 0.24742960 0.07423890 1.27926645
v 0.24417628 0.08526561 1.27656542
v -0.24831698 0.02415139 1.26348673
v -0.24612964 0.01399954 1.26367987
v -0.23587885 0.02311827 1.31602806
v -0.23570867 0.03448240 1.31260193
v -0.04408182 0.14423870 1.08268421
v -0.04736844 0.14257197 1.03274640
v -0.05238985 0.15696597 0.98884000
v 0.00860953 -0.01403200 1.47578560
v 0.00940994 -0.01623280 1.46579500
v 0.04248177 -0.01150275 1.46725371
v 0.04399604 -0.00494188 1.47976880
v 0.06824977 0.01866184 1.49288833
v 0.06219057 0.02353921 1.49855393
v 0.04308035 0.00007073 1.48847800
v 0.00669070 -0.01204080 1.48295994
v -0.02563224 -0.01018207 1.48366190
v -0.05488993 0.00560384 1.49334512
v -0.05842094 0.00115273 1.48399340
v -0.02756783 -0.01222548 1.47385250
v -0.02462971 -0.01579200 1.46345148
v 0.07650572 0.03747587 1.50287605
v 0.06900386 0.04143743 1.50705792
v 0.08218559 0.05555583 1.50733187
v 0.07561299 0.05734288 1.51092424
v -0.07209738 0.01734569 1.49332376
v -0.08143134 0.03667284 1.50112679
v -0.06728067 0.02117531 1.49921693
v -0.07520501 0.04000876 1.50542013
v 0.08229650 0.07648457 1.50781467
v 0.07551094 0.07541791 1.51109779
v 0.08088318 0.09480783 1.50690750
v 0.07315458 0.09208156 1.51090565
v -0.08628452 0.07891233 1.50125397
v -0.08754360 0.05914759 1.50364486
v -0.08160854 0.05952148 1.50753896
v -0.08007528 0.07585694 1.50674878
v 0.01724507 0.11523120 1.50078323
v 0.03595953 0.10976400 1.50403203
v 0.04085854 0.11896082 1.49640820
v -0.00788549 0.12211128 1.49315109
v 0.01670542 0.12197492 1.49414637
v -0.00848019 0.11767611 1.49682792
v -0.07337622 0.09606708 1.49808972
v -0.05550202 0.11232059 1.49513710
v -0.06124024 0.11819549 1.48735732
v -0.08022770 0.09867530 1.49418079
v -0.09322819 0.08028780 1.49573878
v -0.08628452 0.07891233 1.50125397
v -0.08007528 0.07585694 1.50674878
v -0.06661529 0.08871044 1.50570890
v -0.05282656 0.10331149 1.50197353
v 0.11906679 -0.00273091 1.45551940
v 0.15316663 0.00581365 1.45652496
v 0.09216446 -0.00940971 1.45481755
v 0.06738537 -0.01495008 1.45328091
v 0.01140287 -0.02392520 1.44945732
v 0.04058116 -0.02127740 1.45193178
v -0.01810122 -0.02683820 1.44633669
v -0.04554324 -0.02766402 1.44428006
v -0.07193229 -0.02940800 1.44303309
v -0.10050475 -0.03012256 1.44092643
v -0.13632294 -0.03106377 1.43836188
v 0.07355049 0.13347448 1.48547801
v 0.07362692 0.11462088 1.49716495
v 0.08345204 0.11576149 1.49537297
v 0.08548753 0.09602164 1.50410354
v 0.09438755 0.09818049 1.50082783
v 0.11220247 0.10052003 1.49559855
v 0.10606870 0.11841066 1.48749103
v -0.04148202 0.14693137 1.18388937
v -0.04129634 0.14386735 1.13551509
v -0.03254154 0.12182406 1.49301639
v -0.03341279 0.12535771 1.48506305
v -0.03113657 0.11623859 1.49700988
v 0.02434769 0.16095154 0.98872113
v 0.02044805 0.14303169 1.07850599
v 0.02369775 0.14758126 1.03189590
v 0.06607825 0.10965342 1.50092535
v 0.06089656 0.10375477 1.50788618
v 0.07315458 0.09208156 1.51090565
v 0.08088318 0.09480783 1.50690750
v -0.05754487 0.16568683 0.94610354
v -0.05736047 0.16671021 0.91844523
v -0.05386185 0.15103235 1.26342641
v -0.04658872 0.14878833 1.22465001
v -0.07393014 0.15285133 1.34664314
v -0.06287543 0.15247451 1.30499017
v -0.08999009 0.13647214 1.42613003
v -0.08486853 0.14678759 1.38955969
v -0.06222588 0.13190382 1.46216278
v -0.03485120 0.13350514 1.46324174
v 0.01571275 0.13021859 1.13096552
v 0.01645556 0.12529756 1.18342516
v 0.02648323 0.16290137 0.91992021
v 0.02657610 0.16048730 0.94749628
v 0.02592615 0.13133274 1.22762111
v 0.02701125 0.13708490 1.26567341
v 0.02347577 0.14412835 1.35142670
v 0.02766705 0.13992267 1.30879328
v 0.02020327 0.14662384 1.39218733
v 0.14288640 0.10119504 1.48588190
v 0.13891247 0.11796317 1.47840849
v 0.07049511 0.14946428 1.46483127
v -0.10367507 0.07883009 1.49045659
v -0.09714074 0.09940222 1.48651700
v -0.09044959 0.11811231 1.47784964
v -0.08940699 0.12922657 1.45534396
v 0.05873328 0.14396786 1.03366929
f 1 2 3
f 1 4 5
f 6 7 8
f 8 9 2
f 10 11 12
f 13 12 14
f 13 15 16
f 17 18 10
f 6 5 19
f 20 19 21
f 22 23 24
f 20 24 7
f 25 26 27
f 28 27 29
f 30 14 12
f 28 12 11
f 31 32 33
f 33 34 35
f 35 5 4
f 4 3 31
f 36 37 38
f 39 40 41
f 41 42 43
f 36 43 44
f 35 34 45
f 46 45 47
f 48 21 19
f 46 19 5
f 49 50 51
f 52 51 53
f 54 40 39
f 52 39 38
f 55 56 57
f 58 57 59
f 60 61 62
f 58 62 63
f 64 65 66
f 67 66 68
f 69 70 71
f 67 71 72
f 60 59 73
f 74 73 75
f 76 77 78
f 74 78 61
f 79 80 81
f 82 81 83
f 84 68 66
f 82 66 65
f 85 86 87
f 88 87 89
f 90 59 57
f 88 57 56
f 69 68 91
f 92 91 89
f 87 86 93
f 92 93 70
f 90 89 94
f 95 94 96
f 97 75 73
f 95 73 59
f 84 83 98
f 99 98 96
f 94 89 91
f 99 91 68
f 100 101 102
f 103 3 2
f 100 2 9
f 104 105 101
f 106 107 18
f 17 16 108
f 106 108 109
f 106 110 111
f 112 113 114
f 115 32 31
f 112 31 3
f 103 102 113
f 116 117 44
f 43 42 118
f 116 118 119
f 120 121 117
f 76 75 122
f 123 122 124
f 123 125 126
f 127 77 76
f 128 129 130
f 131 132 133
f 128 133 83
f 81 80 129
f 97 96 134
f 135 134 136
f 137 124 122
f 135 122 75
f 138 133 132
f 139 136 134
f 134 96 98
f 138 98 83
f 22 21 140
f 141 140 142
f 143 144 145
f 141 145 23
f 146 147 148
f 149 148 150
f 151 29 27
f 149 27 26
f 143 142 152
f 152 153 154
f 155 154 156
f 155 157 144
f 158 159 160
f 161 160 162
f 163 150 148
f 161 148 147
f 48 47 164
f 165 164 166
f 167 142 140
f 165 140 21
f 168 169 170
f 170 171 172
f 172 53 51
f 173 51 50
f 167 166 174
f 174 175 176
f 177 176 153
f 177 152 142
f 178 179 180
f 181 180 182
f 183 171 170
f 181 170 169
f 184 185 186
f 187 188 189
f 184 189 190
f 191 192 185
f 193 194 195
f 196 197 198
f 198 199 200
f 193 200 201
f 189 188 202
f 203 202 56
f 55 63 204
f 203 204 190
f 205 72 71
f 206 71 70
f 206 207 197
f 196 195 205
f 208 209 210
f 211 212 213
f 208 213 188
f 187 186 209
f 214 198 197
f 214 215 212
f 211 210 216
f 214 216 199
f 213 212 217
f 218 217 86
f 85 56 202
f 218 202 188
f 207 70 93
f 219 93 86
f 217 212 215
f 215 197 207
f 154 153 220
f 221 220 222
f 221 223 224
f 225 156 154
f 226 227 228
f 226 229 230
f 231 162 160
f 226 160 159
f 232 233 234
f 235 224 223
f 232 223 222
f 236 237 233
f 238 239 230
f 229 228 240
f 238 240 241
f 242 243 239
f 176 175 244
f 245 244 246
f 247 222 220
f 245 220 153
f 248 249 250
f 251 252 253
f 253 182 180
f 248 180 179
f 254 255 252
f 254 256 257
f 254 258 259
f 260 246 255
f 261 262 263
f 264 186 185
f 261 185 192
f 265 266 262
f 267 201 200
f 268 200 199
f 268 269 270
f 271 272 267
f 273 274 275
f 276 210 209
f 273 209 186
f 264 263 274
f 269 199 216
f 277 216 210
f 276 275 278
f 277 278 270
f 279 280 281
f 282 283 284
f 279 284 285
f 286 287 280
f 288 289 290
f 291 290 292
f 291 293 294
f 291 295 296
f 284 283 297
f 297 61 78
f 78 77 298
f 299 298 285
f 300 80 79
f 79 65 301
f 301 292 290
f 302 290 289
f 303 304 305
f 306 307 308
f 308 283 282
f 282 281 304
f 309 293 292
f 310 311 312
f 309 312 313
f 314 294 293
f 315 308 307
f 316 63 62
f 62 61 297
f 315 297 283
f 317 301 65
f 64 72 318
f 317 318 311
f 310 292 301
f 319 320 287
f 286 285 321
f 321 322 323
f 319 323 324
f 325 326 327
f 328 327 289
f 288 296 329
f 328 329 330
f 321 285 298
f 331 298 77
f 127 126 332
f 331 332 322
f 333 130 129
f 334 129 80
f 300 289 327
f 334 327 326
f 335 336 337
f 338 339 340
f 335 340 307
f 306 305 336
f 341 312 311
f 342 343 344
f 341 344 345
f 346 313 312
f 340 339 347
f 348 347 190
f 348 204 63
f 316 307 340
f 349 318 72
f 349 205 195
f 349 350 343
f 342 311 318
f 351 352 353
f 351 354 355
f 356 339 338
f 351 338 337
f 357 344 343
f 358 359 360
f 357 360 361
f 362 345 344
f 356 355 363
f 364 363 192
f 191 190 347
f 364 347 339
f 350 195 194
f 194 201 365
f 366 365 359
f 366 358 343
f 367 368 369
f 367 370 266
f 265 192 363
f 367 363 355
f 371 365 201
f 371 267 272
f 372 373 374
f 374 359 365
f 375 8 7
f 376 377 378
f 378 379 380
f 375 380 9
f 381 382 383
f 384 383 385
f 386 11 10
f 384 10 18
f 387 388 389
f 390 281 280
f 387 280 287
f 391 392 388
f 393 394 296
f 295 294 395
f 393 395 396
f 397 398 394
f 399 24 23
f 400 401 402
f 399 402 377
f 376 7 24
f 403 386 385
f 404 405 406
f 403 406 26
f 25 11 386
f 407 408 409
f 410 305 304
f 407 304 281
f 390 389 408
f 411 395 294
f 314 313 412
f 412 413 414
f 411 414 396
f 104 9 380
f 415 380 379
f 416 417 418
f 418 105 104
f 419 420 421
f 422 421 382
f 381 18 107
f 422 107 111
f 423 392 391
f 391 287 320
f 320 324 424
f 425 424 426
f 427 330 329
f 428 329 296
f 394 398 429
f 428 429 430
f 145 144 431
f 432 431 433
f 432 434 401
f 400 23 145
f 435 406 405
f 436 437 438
f 435 438 147
f 146 26 406
f 439 440 441
f 441 337 336
f 442 336 305
f 442 410 409
f 443 412 313
f 346 345 444
f 443 444 445
f 446 413 412
f 157 156 447
f 448 447 449
f 450 433 431
f 448 431 144
f 451 438 437
f 452 453 454
f 454 159 158
f 158 147 438
f 455 456 457
f 458 353 352
f 455 352 337
f 455 441 440
f 459 444 345
f 459 362 361
f 460 461 462
f 459 462 445
f 463 464 449
f 447 156 465
f 463 465 466
f 467 468 464
f 469 470 471
f 472 159 454
f 454 453 473
f 473 474 470
f 475 353 458
f 458 457 476
f 477 476 478
f 479 480 475
f 481 482 483
f 484 483 461
f 460 361 485
f 484 485 486
f 487 243 242
f 242 241 488
f 489 488 490
f 489 491 492
f 493 494 495
f 496 497 498
f 493 498 499
f 500 501 494
f 502 503 504
f 504 505 506
f 507 506 508
f 509 510 502
f 511 512 513
f 513 369 514
f 514 515 516
f 517 516 518
f 519 520 521
f 522 521 373
f 523 524 525
f 522 525 526
f 514 369 368
f 527 368 355
f 528 529 530
f 527 530 515
f 531 532 533
f 534 533 359
f 374 373 521
f 534 521 520
f 528 355 354
f 354 353 475
f 475 480 535
f 536 535 529
f 537 486 485
f 538 485 361
f 360 359 533
f 538 533 532
f 539 498 497
f 540 512 511
f 511 518 541
f 539 541 499
f 542 526 525
f 543 525 524
f 544 505 504
f 543 504 503
f 545 465 156
f 225 224 546
f 545 546 547
f 548 466 465
f 549 550 551
f 552 228 227
f 549 227 159
f 472 471 550
f 553 546 224
f 235 234 554
f 553 554 555
f 556 547 546
f 557 558 559
f 560 241 240
f 557 240 228
f 552 551 558
f 561 562 547
f 556 555 563
f 561 563 564
f 565 566 562
f 567 568 569
f 570 559 558
f 567 558 551
f 571 572 568
f 573 574 466
f 548 547 562
f 573 562 566
f 575 576 574
f 577 578 572
f 571 551 550
f 577 550 471
f 579 580 578
f 581 582 499
f 581 541 518
f 583 584 585
f 585 586 582
f 587 588 589
f 590 589 526
f 542 503 591
f 591 592 587
f 593 529 535
f 594 535 480
f 595 596 597
f 594 597 598
f 599 600 601
f 602 601 486
f 537 532 603
f 602 603 604
f 605 515 530
f 606 530 529
f 593 598 607
f 606 607 608
f 609 604 603
f 610 603 532
f 531 520 611
f 610 611 612
f 583 518 516
f 613 516 515
f 605 608 614
f 613 614 584
f 615 612 611
f 616 611 520
f 519 526 589
f 616 589 588
f 617 618 501
f 500 499 582
f 617 582 586
f 619 620 618
f 621 592 591
f 622 591 503
f 622 502 510
f 622 623 624
f 625 554 234
f 626 627 628
f 625 628 629
f 630 555 554
f 631 632 633
f 634 490 488
f 631 488 241
f 560 559 632
f 595 480 479
f 635 479 478
f 636 637 638
f 635 638 596
f 639 640 641
f 642 641 482
f 481 486 601
f 642 601 600
f 643 468 467
f 467 466 574
f 644 574 576
f 644 645 646
f 647 580 579
f 579 471 470
f 648 470 474
f 648 649 650
f 651 652 653
f 654 653 655
f 656 657 658
f 654 658 659
f 660 661 662
f 663 662 664
f 665 666 667
f 663 667 668
f 656 655 669
f 670 669 512
f 540 497 671
f 670 671 657
f 672 673 505
f 544 524 674
f 674 664 662
f 672 662 661
f 675 659 658
f 676 658 657
f 677 678 679
f 676 679 680
f 681 682 683
f 681 684 661
f 660 668 685
f 685 686 682
f 687 677 657
f 671 497 496
f 687 496 495
f 688 678 677
f 689 690 508
f 689 506 505
f 689 673 661
f 684 683 690
f 691 563 555
f 630 629 692
f 692 693 694
f 691 694 564
f 695 696 697
f 697 633 632
f 698 632 559
f 570 569 695
f 15 14 699
f 700 699 38
f 700 37 44
f 701 16 15
f 702 703 704
f 705 704 652
f 706 707 708
f 705 708 709
f 710 711 712
f 713 712 666
f 714 703 702
f 702 709 710
f 715 716 707
f 706 652 651
f 715 651 659
f 717 718 716
f 719 720 668
f 667 666 712
f 719 712 711
f 721 722 720
f 723 724 718
f 717 659 675
f 675 680 725
f 723 725 726
f 727 686 685
f 685 668 720
f 728 720 722
f 728 729 730
f 731 732 733
f 733 259 258
f 258 257 734
f 735 734 736
f 737 738 739
f 740 741 742
f 742 743 744
f 737 744 745
f 746 266 370
f 747 370 369
f 747 513 512
f 747 669 655
f 748 262 266
f 746 655 653
f 748 653 652
f 749 263 262
f 750 275 274
f 751 274 263
f 749 652 704
f 751 704 703
f 278 275 750
f 752 750 703
f 714 666 753
f 752 753 270
f 754 755 272
f 271 270 753
f 754 753 666
f 665 664 755
f 372 272 755
f 756 755 664
f 674 524 523
f 756 523 373
f 757 259 758
f 759 758 760
f 761 762 763
f 759 763 237
f 30 29 764
f 765 764 50
f 49 38 699
f 765 699 14
f 766 734 257
f 767 739 738
f 738 745 768
f 768 736 734
f 769 42 41
f 41 40 770
f 771 770 34
f 771 33 32
f 772 773 774
f 775 760 758
f 772 758 259
f 733 732 773
f 776 108 16
f 701 44 117
f 776 117 121
f 776 777 109
f 151 150 778
f 779 778 169
f 168 50 764
f 779 764 29
f 163 162 780
f 781 780 179
f 178 169 778
f 781 778 150
f 231 230 782
f 783 782 250
f 249 179 780
f 783 780 162
f 784 739 767
f 767 257 256
f 785 256 252
f 251 250 784
f 770 40 54
f 786 54 53
f 787 47 45
f 786 45 34
f 788 119 118
f 118 42 769
f 789 769 32
f 115 114 788
f 787 53 172
f 790 172 171
f 791 166 164
f 790 164 47
f 791 171 183
f 183 182 792
f 793 792 175
f 793 174 166
f 794 792 182
f 253 252 255
f 794 255 246
f 244 175 792
f 795 627 626
f 796 626 234
f 233 237 763
f 796 763 762
f 797 247 246
f 260 259 757
f 797 757 237
f 236 222 247
f 487 492 798
f 799 798 741
f 740 739 800
f 799 800 243
f 801 239 243
f 800 739 784
f 801 784 250
f 782 230 239
f 4 1 3
f 6 1 5
f 1 6 8
f 1 8 2
f 13 10 12
f 15 13 14
f 17 13 16
f 13 17 10
f 20 6 19
f 22 20 21
f 20 22 24
f 6 20 7
f 28 25 27
f 30 28 29
f 28 30 12
f 25 28 11
f 802 31 33
f 802 33 35
f 802 35 4
f 802 4 31
f 39 36 38
f 36 39 41
f 36 41 43
f 37 36 44
f 46 35 45
f 48 46 47
f 46 48 19
f 35 46 5
f 52 49 51
f 54 52 53
f 52 54 39
f 49 52 38
f 58 55 57
f 60 58 59
f 58 60 62
f 55 58 63
f 67 64 66
f 69 67 68
f 67 69 71
f 64 67 72
f 74 60 73
f 76 74 75
f 74 76 78
f 60 74 61
f 82 79 81
f 84 82 83
f 82 84 66
f 79 82 65
f 88 85 87
f 90 88 89
f 88 90 57
f 85 88 56
f 92 69 91
f 87 92 89
f 92 87 93
f 69 92 70
f 95 90 94
f 97 95 96
f 95 97 73
f 90 95 59
f 99 84 98
f 94 99 96
f 99 94 91
f 84 99 68
f 103 100 102
f 100 103 2
f 104 100 9
f 100 104 101
f 17 106 18
f 106 17 108
f 110 106 109
f 107 106 111
f 115 112 114
f 112 115 31
f 103 112 3
f 112 103 113
f 43 116 44
f 116 43 118
f 120 116 119
f 116 120 117
f 123 76 122
f 125 123 124
f 127 123 126
f 123 127 76
f 131 128 130
f 128 131 133
f 81 128 83
f 128 81 129
f 135 97 134
f 137 135 136
f 135 137 122
f 97 135 75
f 139 138 132
f 138 139 134
f 138 134 98
f 133 138 83
f 141 22 140
f 143 141 142
f 141 143 145
f 22 141 23
f 149 146 148
f 151 149 150
f 149 151 27
f 146 149 26
f 155 143 152
f 155 152 154
f 157 155 156
f 143 155 144
f 161 158 160
f 163 161 162
f 161 163 148
f 158 161 147
f 165 48 164
f 167 165 166
f 165 167 140
f 48 165 21
f 173 168 170
f 173 170 172
f 173 172 51
f 168 173 50
f 177 167 174
f 177 174 176
f 152 177 153
f 167 177 142
f 181 178 180
f 183 181 182
f 181 183 170
f 178 181 169
f 187 184 186
f 184 187 189
f 191 184 190
f 184 191 185
f 196 193 195
f 193 196 198
f 193 198 200
f 194 193 201
f 203 189 202
f 55 203 56
f 203 55 204
f 189 203 190
f 206 205 71
f 207 206 70
f 196 206 197
f 206 196 205
f 211 208 210
f 208 211 213
f 187 208 188
f 208 187 209
f 215 214 197
f 211 214 212
f 214 211 216
f 198 214 199
f 218 213 217
f 85 218 86
f 218 85 202
f 213 218 188
f 219 207 93
f 217 219 86
f 219 217 215
f 219 215 207
f 221 154 220
f 223 221 222
f 225 221 224
f 221 225 154
f 229 226 228
f 231 226 230
f 226 231 160
f 227 226 159
f 235 232 234
f 232 235 223
f 236 232 222
f 232 236 233
f 229 238 230
f 238 229 240
f 242 238 241
f 238 242 239
f 245 176 244
f 247 245 246
f 245 247 220
f 176 245 153
f 251 248 250
f 248 251 253
f 248 253 180
f 249 248 179
f 256 254 252
f 258 254 257
f 260 254 259
f 254 260 255
f 264 261 263
f 261 264 185
f 265 261 192
f 261 265 262
f 268 267 200
f 269 268 199
f 271 268 270
f 268 271 267
f 276 273 275
f 273 276 209
f 264 273 186
f 273 264 274
f 277 269 216
f 276 277 210
f 277 276 278
f 269 277 270
f 282 279 281
f 279 282 284
f 286 279 285
f 279 286 280
f 291 288 290
f 293 291 292
f 295 291 294
f 288 291 296
f 299 284 297
f 299 297 78
f 299 78 298
f 284 299 285
f 302 300 79
f 302 79 301
f 302 301 290
f 300 302 289
f 306 303 305
f 303 306 308
f 303 308 282
f 303 282 304
f 310 309 292
f 309 310 312
f 314 309 313
f 309 314 293
f 316 315 307
f 315 316 62
f 315 62 297
f 308 315 283
f 64 317 65
f 317 64 318
f 310 317 311
f 317 310 301
f 286 319 287
f 319 286 321
f 319 321 323
f 320 319 324
f 328 325 327
f 288 328 289
f 328 288 329
f 325 328 330
f 331 321 298
f 127 331 77
f 331 127 332
f 321 331 322
f 334 333 129
f 300 334 80
f 334 300 327
f 333 334 326
f 338 335 337
f 335 338 340
f 306 335 307
f 335 306 336
f 342 341 311
f 341 342 344
f 346 341 345
f 341 346 312
f 348 340 347
f 204 348 190
f 316 348 63
f 348 316 340
f 205 349 72
f 350 349 195
f 342 349 343
f 349 342 318
f 354 351 353
f 356 351 355
f 351 356 338
f 352 351 337
f 358 357 343
f 357 358 360
f 362 357 361
f 357 362 344
f 364 356 363
f 191 364 192
f 364 191 347
f 356 364 339
f 366 350 194
f 366 194 365
f 358 366 359
f 350 366 343
f 370 367 369
f 265 367 266
f 367 265 363
f 368 367 355
f 267 371 201
f 372 371 272
f 371 372 374
f 371 374 365
f 376 375 7
f 375 376 378
f 375 378 380
f 8 375 9
f 384 381 383
f 386 384 385
f 384 386 10
f 381 384 18
f 390 387 389
f 387 390 280
f 391 387 287
f 387 391 388
f 295 393 296
f 393 295 395
f 397 393 396
f 393 397 394
f 400 399 23
f 399 400 402
f 376 399 377
f 399 376 24
f 404 403 385
f 403 404 406
f 25 403 26
f 403 25 386
f 410 407 409
f 407 410 304
f 390 407 281
f 407 390 408
f 314 411 294
f 411 314 412
f 411 412 414
f 395 411 396
f 415 104 380
f 416 415 379
f 415 416 418
f 415 418 104
f 422 419 421
f 381 422 382
f 422 381 107
f 419 422 111
f 425 423 391
f 425 391 320
f 425 320 424
f 423 425 426
f 428 427 329
f 394 428 296
f 428 394 429
f 427 428 430
f 432 145 431
f 434 432 433
f 400 432 401
f 432 400 145
f 436 435 405
f 435 436 438
f 146 435 147
f 435 146 406
f 442 439 441
f 442 441 336
f 410 442 305
f 439 442 409
f 346 443 313
f 443 346 444
f 446 443 445
f 443 446 412
f 448 157 447
f 450 448 449
f 448 450 431
f 157 448 144
f 452 451 437
f 451 452 454
f 451 454 158
f 451 158 438
f 458 455 457
f 455 458 352
f 441 455 337
f 456 455 440
f 362 459 345
f 460 459 361
f 459 460 462
f 444 459 445
f 447 463 449
f 463 447 465
f 467 463 466
f 463 467 464
f 472 469 471
f 469 472 454
f 469 454 473
f 469 473 470
f 477 475 458
f 477 458 476
f 479 477 478
f 477 479 475
f 484 481 483
f 460 484 461
f 484 460 485
f 481 484 486
f 489 487 242
f 489 242 488
f 491 489 490
f 487 489 492
f 496 493 495
f 493 496 498
f 500 493 499
f 493 500 494
f 507 502 504
f 507 504 506
f 509 507 508
f 507 509 502
f 517 511 513
f 517 513 514
f 517 514 516
f 511 517 518
f 522 519 521
f 523 522 373
f 522 523 525
f 519 522 526
f 527 514 368
f 528 527 355
f 527 528 530
f 514 527 515
f 534 531 533
f 374 534 359
f 534 374 521
f 531 534 520
f 536 528 354
f 536 354 475
f 536 475 535
f 528 536 529
f 538 537 485
f 360 538 361
f 538 360 533
f 537 538 532
f 540 539 497
f 539 540 511
f 539 511 541
f 498 539 499
f 543 542 525
f 544 543 524
f 543 544 504
f 542 543 503
f 225 545 156
f 545 225 546
f 548 545 547
f 545 548 465
f 552 549 551
f 549 552 227
f 472 549 159
f 549 472 550
f 235 553 224
f 553 235 554
f 556 553 555
f 553 556 546
f 560 557 559
f 557 560 240
f 552 557 228
f 557 552 558
f 556 561 547
f 561 556 563
f 565 561 564
f 561 565 562
f 570 567 569
f 567 570 558
f 571 567 551
f 567 571 568
f 548 573 466
f 573 548 562
f 575 573 566
f 573 575 574
f 571 577 572
f 577 571 550
f 579 577 471
f 577 579 578
f 541 581 499
f 583 581 518
f 581 583 585
f 581 585 582
f 590 587 589
f 542 590 526
f 590 542 591
f 590 591 587
f 594 593 535
f 595 594 480
f 594 595 597
f 593 594 598
f 602 599 601
f 537 602 486
f 602 537 603
f 599 602 604
f 606 605 530
f 593 606 529
f 606 593 607
f 605 606 608
f 610 609 603
f 531 610 532
f 610 531 611
f 609 610 612
f 613 583 516
f 605 613 515
f 613 605 614
f 583 613 584
f 616 615 611
f 519 616 520
f 616 519 589
f 615 616 588
f 500 617 501
f 617 500 582
f 619 617 586
f 617 619 618
f 622 621 591
f 502 622 503
f 623 622 510
f 621 622 624
f 626 625 234
f 625 626 628
f 630 625 629
f 625 630 554
f 634 631 633
f 631 634 488
f 560 631 241
f 631 560 632
f 635 595 479
f 636 635 478
f 635 636 638
f 595 635 596
f 642 639 641
f 481 642 482
f 642 481 601
f 639 642 600
f 644 643 467
f 644 467 574
f 645 644 576
f 643 644 646
f 648 647 579
f 648 579 470
f 649 648 474
f 647 648 650
f 654 651 653
f 656 654 655
f 654 656 658
f 651 654 659
f 663 660 662
f 665 663 664
f 663 665 667
f 660 663 668
f 670 656 669
f 540 670 512
f 670 540 671
f 656 670 657
f 544 672 505
f 672 544 674
f 672 674 662
f 673 672 661
f 676 675 658
f 677 676 657
f 676 677 679
f 675 676 680
f 684 681 683
f 660 681 661
f 681 660 685
f 681 685 682
f 671 687 657
f 687 671 496
f 688 687 495
f 687 688 677
f 506 689 508
f 673 689 505
f 684 689 661
f 689 684 690
f 630 691 555
f 691 630 692
f 691 692 694
f 563 691 564
f 698 695 697
f 698 697 632
f 570 698 559
f 698 570 695
f 700 15 699
f 37 700 38
f 701 700 44
f 700 701 15
f 705 702 704
f 706 705 652
f 705 706 708
f 702 705 709
f 713 710 712
f 714 713 666
f 713 714 702
f 713 702 710
f 706 715 707
f 715 706 651
f 717 715 659
f 715 717 716
f 667 719 668
f 719 667 712
f 721 719 711
f 719 721 720
f 717 723 718
f 723 717 675
f 723 675 725
f 724 723 726
f 728 727 685
f 728 685 720
f 729 728 722
f 727 728 730
f 735 731 733
f 735 733 258
f 735 258 734
f 731 735 736
f 740 737 739
f 737 740 742
f 737 742 744
f 738 737 745
f 747 746 370
f 513 747 369
f 669 747 512
f 746 747 655
f 746 748 266
f 748 746 653
f 749 748 652
f 748 749 262
f 751 750 274
f 749 751 263
f 751 749 704
f 750 751 703
f 752 278 750
f 714 752 703
f 752 714 753
f 278 752 270
f 271 754 272
f 754 271 753
f 665 754 666
f 754 665 755
f 756 372 755
f 674 756 664
f 756 674 523
f 372 756 373
f 759 757 758
f 761 759 760
f 759 761 763
f 757 759 237
f 765 30 764
f 49 765 50
f 765 49 699
f 30 765 14
f 767 766 257
f 766 767 738
f 766 738 768
f 766 768 734
f 771 769 41
f 771 41 770
f 33 771 34
f 769 771 32
f 775 772 774
f 772 775 758
f 733 772 259
f 772 733 773
f 701 776 16
f 776 701 117
f 777 776 121
f 108 776 109
f 779 151 778
f 168 779 169
f 779 168 764
f 151 779 29
f 781 163 780
f 178 781 179
f 781 178 778
f 163 781 150
f 783 231 782
f 249 783 250
f 783 249 780
f 231 783 162
f 785 784 767
f 785 767 256
f 251 785 252
f 785 251 784
f 786 770 54
f 787 786 53
f 786 787 45
f 770 786 34
f 789 788 118
f 789 118 769
f 115 789 32
f 789 115 788
f 790 787 172
f 791 790 171
f 790 791 164
f 787 790 47
f 793 791 183
f 793 183 792
f 174 793 175
f 791 793 166
f 253 794 182
f 794 253 255
f 244 794 246
f 794 244 792
f 796 795 626
f 233 796 234
f 796 233 763
f 795 796 762
f 260 797 246
f 797 260 757
f 236 797 237
f 797 236 247
f 799 487 798
f 740 799 741
f 799 740 800
f 487 799 243
f 800 801 243
f 801 800 784
f 782 801 250
f 801 782 239

